<svg xmlns="http://www.w3.org/2000/svg">
    <symbol id="angry-1" viewBox="0 0 473.935 473.935">
       <circle style="fill:#FFC10E;" cx="236.967" cy="236.967" r="236.967"/> <g> <circle style="fill:#333333;" cx="164.938" cy="192.665" r="37.216"/> <circle style="fill:#333333;" cx="305.667" cy="192.665" r="37.216"/> <path style="fill:#333333;" d="M318.258,101.309c-28.673,12.707-57.35,25.418-86.024,38.125c3.147,0,6.297,0,9.441,0
		c-28.673-12.707-57.343-25.418-86.016-38.125c-10.926-4.842-20.453,11.274-9.441,16.153c15.469,6.855,30.933,13.714,46.398,20.569
		c9.927,4.4,19.858,8.801,29.785,13.201c4.034,1.789,9.961,5.635,14.556,5.635c4.595,0,10.522-3.847,14.556-5.635
		c9.927-4.4,19.858-8.801,29.788-13.201c15.469-6.855,30.937-13.714,46.402-20.569C338.707,112.583,329.18,96.467,318.258,101.309
		L318.258,101.309z"/> <path style="fill:#333333;" d="M105.245,326.856c86.387,0,172.777,0,259.164,0c12.067,0,12.067-18.709,0-18.709
		c-86.387,0-172.777,0-259.164,0C93.178,308.147,93.178,326.856,105.245,326.856L105.245,326.856z"/> </g>                
    </symbol>
    <symbol id="angry" viewBox="0 0 473.931 473.931">
       <circle style="fill:#FFC10E;" cx="236.966" cy="236.966" r="236.966"/> <g> <path style="fill:#333333;" d="M106.883,85.989c25.141,18.817,50.282,37.638,75.423,56.456c9.669,7.237,18.978-9.018,9.44-16.153
		c-25.141-18.817-50.282-37.638-75.423-56.456C106.659,62.596,97.346,78.85,106.883,85.989L106.883,85.989z"/> <path style="fill:#333333;" d="M356.298,69.832c-25.141,18.817-50.282,37.638-75.423,56.456c-9.538,7.139-0.228,23.39,9.44,16.153
		c25.141-18.817,50.282-37.638,75.423-56.456C375.276,78.85,365.967,62.596,356.298,69.832L356.298,69.832z"/> <circle style="fill:#333333;" cx="164.937" cy="155.231" r="37.216"/> <circle style="fill:#333333;" cx="305.664" cy="155.231" r="37.216"/> </g> <path style="fill:#FFFFFF;" d="M392.514,377.719c0-85.911-69.645-155.56-155.56-155.56s-155.56,69.649-155.56,155.56H392.514z"/> <g> <path style="fill:#CCCBCB;" d="M306.177,377.719c0-46.435,0-92.87,0-139.306c-6.02-3.001-12.269-5.609-18.709-7.82
		c0,49.043,0,98.087,0,147.126L306.177,377.719L306.177,377.719z"/> <path style="fill:#CCCBCB;" d="M190.59,377.719c0-49.507,0-99.018,0-148.529c-6.432,2.006-12.666,4.453-18.709,7.244
		c0,47.098,0,94.191,0,141.289h18.709V377.719z"/> </g>                
    </symbol>
    <symbol id="bored-1" viewBox="0 0 473.931 473.931">
       <circle style="fill:#FFC10E;" cx="236.966" cy="236.966" r="236.966"/> <g> <path style="fill:#333333;" d="M374.187,172.974c-16.801-35.584-57.331-51.868-94.057-37.59
		c-11.117,4.325-6.286,22.421,4.973,18.043c29.522-11.48,59.371,0.277,72.927,28.987
		C363.179,193.322,379.306,183.821,374.187,172.974L374.187,172.974z"/> <path style="fill:#333333;" d="M122.243,182.328c13.556-28.711,43.404-40.471,72.927-28.987
		c11.259,4.378,16.09-13.717,4.973-18.043c-36.725-14.282-77.252,2.006-94.057,37.59
		C100.968,183.732,117.095,193.232,122.243,182.328L122.243,182.328z"/> <path style="fill:#333333;" d="M283.158,287.816c0,39.981-20.684,72.384-46.203,72.384c-25.511,0-46.203-32.404-46.203-72.384
		c0-39.962,20.692-72.384,46.203-72.384C262.473,215.432,283.158,247.854,283.158,287.816z"/> </g>                
    </symbol>
    <symbol id="bored-2" viewBox="0 0 473.931 473.931">
       <circle style="fill:#FFC10E;" cx="236.966" cy="236.966" r="236.966"/> <g> <circle style="fill:#333333;" cx="346.15" cy="335.711" r="25.762"/> <path style="fill:#333333;" d="M243.499,112.908c1.684,31.251,23.992,53.56,55.243,55.247c31.184,1.68,53.698-26.525,55.247-55.247
		c0.651-12.063-18.061-12-18.709,0c-2.537,47.094-70.536,47.094-73.069,0C261.56,100.908,242.848,100.844,243.499,112.908
		L243.499,112.908z"/> <path style="fill:#333333;" d="M108.694,112.908c1.684,31.255,23.988,53.56,55.243,55.247c31.184,1.68,53.694-26.525,55.243-55.247
		c0.651-12.063-18.061-12-18.709,0c-2.537,47.094-70.532,47.094-73.065,0C126.756,100.908,108.043,100.844,108.694,112.908
		L108.694,112.908z"/> </g>                
    </symbol>
    <symbol id="bored" viewBox="0 0 473.935 473.935">
       <circle style="fill:#FFC10E;" cx="236.967" cy="236.967" r="236.967"/> <g> <path style="fill:#333333;" d="M340.009,335.736c0,56.886-46.129,103.045-103.045,103.045s-103.045-46.159-103.045-103.045
		c0-56.916,46.129-103.049,103.045-103.049S340.009,278.819,340.009,335.736z"/> <ellipse style="fill:#333333;" cx="164.938" cy="155.232" rx="37.216" ry="19.757"/> <ellipse style="fill:#333333;" cx="305.667" cy="155.232" rx="37.216" ry="19.757"/> </g>                
    </symbol>
    <symbol id="confused-1" viewBox="0 0 473.931 473.931">
       <circle style="fill:#FFC10E;" cx="236.966" cy="236.966" r="236.966"/> <g> <path style="fill:#333333;" d="M230.328,309.417c-34.514,58.038-123.336,39.532-129.383-28.894
		c-1.051-11.921-19.771-12.022-18.709,0c3.592,40.628,30.608,73.069,70.865,81.844c37.294,8.127,74.454-11.682,93.376-43.505
		C252.659,308.463,236.483,299.06,230.328,309.417L230.328,309.417z"/> <path style="fill:#333333;" d="M393.955,359.456c2.193-43.045-24.523-79.872-65.877-91.684
		c-38.428-10.978-78.517,9.362-98.195,42.454c-6.181,10.395,9.994,19.801,16.149,9.44c37.709-63.415,132.952-33.657,129.214,39.79
		C374.633,371.519,393.345,371.46,393.955,359.456L393.955,359.456z"/> <circle style="fill:#333333;" cx="164.937" cy="155.231" r="37.216"/> <circle style="fill:#333333;" cx="305.664" cy="155.231" r="62.162"/> </g>                
    </symbol>
    <symbol id="confused" viewBox="0 0 473.931 473.931">
       <circle style="fill:#FFC10E;" cx="236.966" cy="236.966" r="236.966"/> <g> <circle style="fill:#333333;" cx="164.937" cy="155.231" r="37.216"/> <circle style="fill:#333333;" cx="305.664" cy="155.231" r="37.216"/> <path style="fill:#333333;" d="M105.278,326.581c86.386,0,172.776,0,259.162,0c12.067,0,12.067-18.709,0-18.709
		c-86.386,0-172.776,0-259.162,0C93.211,307.872,93.211,326.581,105.278,326.581L105.278,326.581z"/> </g>                
    </symbol>
    <symbol id="crying-1" viewBox="0 0 473.931 473.931">
       <circle style="fill:#FFC10E;" cx="236.966" cy="236.966" r="236.966"/> <g> <path style="fill:#75CDDE;" d="M366.532,278.29c-13.205,0-25.736-7.817-31.113-20.771c-11.113-26.765-24.928-49.754-39.951-66.484
		c-12.426-13.837-11.285-35.131,2.552-47.558c13.837-12.426,35.128-11.289,47.554,2.556c20.336,22.645,37.848,51.464,52.044,85.66
		c7.132,17.178-1.01,36.883-18.189,44.014C375.209,277.459,370.835,278.29,366.532,278.29z"/> <path style="fill:#75CDDE;" d="M113.465,278.29c-4.303,0-8.677-0.831-12.902-2.582c-17.178-7.128-25.32-26.836-18.189-44.014
		c14.196-34.196,31.708-63.015,52.044-85.66c12.426-13.833,33.717-14.982,47.554-2.556c13.837,12.426,14.978,33.721,2.552,47.558
		c-15.023,16.729-28.838,39.715-39.951,66.484C139.201,270.473,126.666,278.29,113.465,278.29z"/> </g> <g> <circle style="fill:#333333;" cx="164.937" cy="155.227" r="37.216"/> <circle style="fill:#333333;" cx="305.664" cy="155.227" r="37.216"/> <path style="fill:#333333;" d="M296.381,302.024c0,43.805-26.57,79.344-59.356,79.344s-59.356-35.539-59.356-79.344
		c0-43.827,26.57-79.348,59.356-79.348S296.381,258.196,296.381,302.024z"/> </g>                
    </symbol>
    <symbol id="crying" viewBox="0 0 473.935 473.935">
       <circle style="fill:#FFC10E;" cx="236.967" cy="236.967" r="236.967"/> <path style="fill:#333333;" d="M357.644,355.144c-66.005-68.621-174.861-68.763-241.065-0.341
	c-8.389,8.666,4.827,21.912,13.227,13.227c59.266-61.249,155.52-61.088,214.61,0.341
	C352.794,377.086,366.007,363.84,357.644,355.144L357.644,355.144z"/> <g> <path style="fill:#75CDDE;" d="M116.893,124.849c-19.588,20.954-35.974,44.827-48.913,70.387
		c-13.818,27.296-7.42,60.647,20.135,76.793c25.182,14.75,62.986,7.139,76.793-20.138c5.051-9.976,10.529-19.652,16.587-29.055
		c2.848-4.415,5.934-8.666,9.066-12.879c-9.658,12.995,3.173-3.027,5.702-5.732c20.879-22.331,22.17-57.208,0-79.375
		C175.187,103.767,137.784,102.495,116.893,124.849L116.893,124.849z"/> <path style="fill:#75CDDE;" d="M414.987,216.279c-13.643-32.157-31.708-61.126-54.776-87.427c-20.183-23.016-58.81-20.565-79.375,0
		c-22.683,22.683-20.153,56.396,0,79.375c1.998,2.226,3.944,4.501,5.841,6.818c-4.026-5.369-4.135-5.474-0.333-0.318
		c3.817,5.212,7.252,10.69,10.638,16.183c8.239,13.351,14.96,27.603,21.074,42.028c11.959,28.187,52.961,34.091,76.793,20.135
		C423.724,276.155,426.931,244.444,414.987,216.279L414.987,216.279z"/> </g> <g> <circle style="fill:#333333;" cx="164.938" cy="155.232" r="37.216"/> <circle style="fill:#333333;" cx="305.667" cy="155.232" r="37.216"/> </g>                
    </symbol>
    <symbol id="embarrassed" viewBox="0 0 473.935 473.935">
       <circle style="fill:#FFC10E;" cx="236.967" cy="236.967" r="236.967"/> <g> <circle style="fill:#333333;" cx="236.967" cy="335.713" r="25.762"/> <circle style="fill:#333333;" cx="164.938" cy="155.232" r="37.216"/> <circle style="fill:#333333;" cx="305.667" cy="155.232" r="37.216"/> </g> <g> <circle style="fill:#F0AE1D;" cx="80.845" cy="262.786" r="44.785"/> <circle style="fill:#F0AE1D;" cx="389.745" cy="262.786" r="44.785"/> </g>                
    </symbol>
    <symbol id="emoticons" viewBox="0 0 473.931 473.931">
       <circle style="fill:#FFC10E;" cx="236.966" cy="236.966" r="236.966"/> <g> <circle style="fill:#333333;" cx="175.26" cy="110.33" r="41.657"/> <circle style="fill:#333333;" cx="291.595" cy="110.33" r="41.657"/> <path style="fill:#333333;" d="M269.287,341.548c30.473,0,60.946,0,91.415,0c12.063,0,12.063-18.709,0-18.709
		c-30.473,0-60.946,0-91.415,0C257.22,322.839,257.22,341.548,269.287,341.548L269.287,341.548z"/> </g>                
    </symbol>
    <symbol id="happy-1" viewBox="0 0 473.931 473.931">
       <circle style="fill:#FFC10E;" cx="236.966" cy="236.966" r="236.966"/> <path style="fill:#FFFFFF;" d="M81.391,237.123c0,85.911,69.649,155.56,155.56,155.56c85.915,0,155.564-69.649,155.564-155.56
	L81.391,237.123L81.391,237.123z"/> <g> <path style="fill:#CCCBCB;" d="M167.728,237.123c0,46.435,0,92.87,0,139.306c6.024,3.001,12.273,5.609,18.709,7.82
		c0-49.043,0-98.083,0-147.126H167.728z"/> <path style="fill:#CCCBCB;" d="M283.319,237.123c0,49.511,0,99.018,0,148.529c6.432-2.006,12.666-4.453,18.709-7.24
		c0-47.098,0-94.191,0-141.289L283.319,237.123L283.319,237.123z"/> </g> <g> <path style="fill:#333333;" d="M219.181,158.793c-1.684-31.255-23.992-53.56-55.243-55.243
		c-31.184-1.68-53.698,26.522-55.243,55.243c-0.651,12.063,18.061,12,18.709,0c2.537-47.09,70.536-47.09,73.069,0
		C201.12,170.793,219.832,170.856,219.181,158.793L219.181,158.793z"/> <path style="fill:#333333;" d="M353.985,158.793c-1.684-31.255-23.992-53.56-55.243-55.243
		c-31.184-1.68-53.694,26.522-55.243,55.243c-0.651,12.063,18.061,12,18.709,0c2.537-47.09,70.532-47.09,73.069,0
		C335.924,170.793,354.637,170.856,353.985,158.793L353.985,158.793z"/> </g>                
    </symbol>
    <symbol id="happy-2" viewBox="0 0 473.931 473.931">
       <circle style="fill:#FFC10E;" cx="236.966" cy="236.966" r="236.966"/> <path style="fill:#333333;" d="M81.391,237.127c0,85.911,69.649,155.56,155.56,155.56c85.915,0,155.567-69.649,155.567-155.56
	H81.391z"/> <path style="fill:#CA2027;" d="M150.452,298.705c0,47.771,38.731,86.498,86.498,86.498c47.775,0,86.502-38.731,86.502-86.498
	H150.452z"/> <g> <circle style="fill:#333333;" cx="164.937" cy="155.231" r="37.216"/> <circle style="fill:#333333;" cx="305.664" cy="155.231" r="37.216"/> </g>                
    </symbol>
    <symbol id="happy-3" viewBox="0 0 473.931 473.931">
       <circle style="fill:#FFC10E;" cx="236.966" cy="236.966" r="236.966"/> <g> <path style="fill:#333333;" d="M201.853,462.968c0,3.233,0,5.994,0,8.359c11.454,1.699,23.165,2.604,35.094,2.604
		c11.637,0,23.064-0.876,34.252-2.496c0-2.387,0-5.19,0-8.468C271.199,418.25,201.853,418.25,201.853,462.968z"/> <circle style="fill:#333333;" cx="164.937" cy="155.231" r="37.216"/> <circle style="fill:#333333;" cx="305.664" cy="155.231" r="37.216"/> <path style="fill:#333333;" d="M343.25,316.86c-59.277,60.332-154.666,59.857-213.449-0.898c-8.4-8.685-21.616,4.557-13.227,13.227
		c65.761,67.973,173.648,68.336,239.903,0.898C364.938,321.477,351.718,308.242,343.25,316.86L343.25,316.86z"/> </g>                
    </symbol>
    <symbol id="happy-4" viewBox="0 0 473.931 473.931">
       <circle style="fill:#FFC10E;" cx="236.966" cy="236.966" r="236.966"/> <path style="fill:#FFFFFF;" d="M392.518,237.123c0,85.915-69.653,155.56-155.567,155.56c-85.911,0-155.56-69.645-155.56-155.56
	L392.518,237.123L392.518,237.123z"/> <g> <circle style="fill:#333333;" cx="164.937" cy="155.227" r="37.216"/> <circle style="fill:#333333;" cx="305.664" cy="155.227" r="37.216"/> </g>                
    </symbol>
    <symbol id="happy" viewBox="0 0 473.931 473.931">
       <circle style="fill:#FFC10E;" cx="236.966" cy="236.966" r="236.966"/> <g> <path style="fill:#333333;" d="M383.164,237.123c-1.332,80.699-65.514,144.873-146.213,146.206
		c-80.702,1.332-144.907-67.52-146.206-146.206c-0.198-12.052-18.907-12.071-18.709,0c1.5,90.921,73.993,163.414,164.914,164.914
		c90.929,1.5,163.455-76.25,164.922-164.914C402.071,225.052,383.362,225.071,383.164,237.123L383.164,237.123z"/> <circle style="fill:#333333;" cx="164.937" cy="155.227" r="37.216"/> <circle style="fill:#333333;" cx="305.664" cy="155.227" r="37.216"/> </g>                
    </symbol>
    <symbol id="ill" viewBox="0 0 473.931 473.931">
       <circle style="fill:#81C241;" cx="236.966" cy="236.966" r="236.966"/> <circle style="fill:#5E9A42;" cx="236.966" cy="318.274" r="28.254"/> <g> <circle style="fill:#333333;" cx="164.937" cy="155.227" r="37.216"/> <circle style="fill:#333333;" cx="305.664" cy="155.227" r="37.216"/> </g> <g> <path style="fill:#67AF45;" d="M203.907,277.758c0,44.617-36.183,80.815-80.807,80.815c-44.617,0-80.8-36.198-80.8-80.815
		c0-44.624,36.183-80.807,80.8-80.807C167.724,196.955,203.907,233.134,203.907,277.758z"/> <path style="fill:#67AF45;" d="M432.054,277.758c0,44.617-36.183,80.815-80.807,80.815c-44.632,0-80.815-36.198-80.815-80.815
		c0-44.624,36.183-80.807,80.815-80.807C395.871,196.955,432.054,233.134,432.054,277.758z"/> </g>                
    </symbol>
    <symbol id="in-love" viewBox="0 0 473.931 473.931">
       <circle style="fill:#FFC10E;" cx="236.966" cy="236.966" r="236.966"/> <g> <path style="fill:#ED3533;" d="M182.13,109.97c-14.133,0-27.262,6.892-35.154,18.432l-1.628,2.069l-1.089-1.388
		c-7.802-11.962-20.954-19.109-35.232-19.109c-24.363,0-42.042,17.684-42.042,42.039c0,35.962,65.107,88.968,69.855,92.784
		c2.241,2.144,5.175,3.323,8.288,3.323s6.047-1.175,8.288-3.326c4.763-3.847,70.753-57.683,70.753-92.781
		C224.169,127.654,206.489,109.97,182.13,109.97z"/> <path style="fill:#ED3533;" d="M366.696,109.97c-14.133,0-27.262,6.892-35.154,18.432l-1.628,2.069l-1.089-1.388
		c-7.802-11.962-20.954-19.109-35.232-19.109c-24.363,0-42.042,17.684-42.042,42.039c0,35.962,65.107,88.968,69.855,92.784
		c2.241,2.144,5.175,3.323,8.288,3.323c3.109,0,6.043-1.175,8.288-3.326c4.76-3.843,70.749-57.683,70.749-92.781
		C408.735,127.654,391.055,109.97,366.696,109.97z"/> </g> <path style="fill:#333333;" d="M343.254,316.86c-59.281,60.325-154.662,59.853-213.449-0.898c-8.4-8.681-21.616,4.561-13.227,13.227
	c65.769,67.969,173.644,68.332,239.903,0.898C364.941,321.481,351.718,308.246,343.254,316.86L343.254,316.86z"/>                
    </symbol>
    <symbol id="kissing" viewBox="0 0 473.931 473.931">
       <circle style="fill:#FFC10E;" cx="236.966" cy="236.966" r="236.966"/> <path style="fill:#D22327;" d="M131.841,281.987h209.535c0,0-30.806,118.101-105.533,118.101S131.841,281.987,131.841,281.987z"/> <path style="fill:#9B1C1F;" d="M259.203,298.675c0,9.081-13.351,16.434-22.596,16.434c-9.242,0-22.596-7.353-22.596-16.434
	c0-9.078,13.354-16.438,22.596-16.438C245.849,282.241,259.203,289.597,259.203,298.675z"/> <g> <path style="fill:#333333;" d="M374.187,172.974c-16.801-35.584-57.331-51.868-94.057-37.59
		c-11.117,4.325-6.286,22.421,4.973,18.043c29.522-11.48,59.371,0.277,72.927,28.987
		C363.179,193.322,379.306,183.821,374.187,172.974L374.187,172.974z"/> <path style="fill:#333333;" d="M122.243,182.328c13.556-28.711,43.404-40.471,72.927-28.987
		c11.259,4.378,16.09-13.717,4.973-18.043c-36.725-14.282-77.252,2.006-94.057,37.59
		C100.968,183.732,117.095,193.232,122.243,182.328L122.243,182.328z"/> </g> <path style="fill:#E22928;" d="M334.296,270.926c-26.922-14.174-53.724-74.233-97.398-30.772h-0.378
	c-43.67-43.461-70.476,16.598-97.398,30.772c-6.978,3.674-7.143,11.016-7.143,11.016s30.159,24.628,56.351,24.628
	s30.473-14.499,48.272-14.499h0.21c17.803,0,22.084,14.499,48.276,14.499s56.351-24.628,56.351-24.628
	S341.275,274.604,334.296,270.926z"/>                
    </symbol>
    <symbol id="mad" viewBox="0 0 473.935 473.935">
       <circle style="fill:#FFC10E;" cx="236.967" cy="236.967" r="236.967"/> <g> <path style="fill:#333333;" d="M357.318,354.8c-66.084-68.291-174.663-68.288-240.743,0.007
		c-8.389,8.666,4.827,21.912,13.227,13.227c59.139-61.118,155.146-61.122,214.288-0.007
		C352.491,376.708,365.711,363.466,357.318,354.8L357.318,354.8z"/> <circle style="fill:#333333;" cx="164.938" cy="192.665" r="37.216"/> <circle style="fill:#333333;" cx="305.667" cy="192.665" r="37.216"/> <path style="fill:#333333;" d="M316.364,68.389c-28.677,28.673-57.35,57.35-86.024,86.024c4.408,0,8.819,0,13.227,0
		c-28.673-28.677-57.347-57.35-86.02-86.024c-8.539-8.539-21.766,4.688-13.227,13.227c28.673,28.677,57.347,57.35,86.02,86.024
		c3.603,3.603,9.624,3.603,13.227,0c28.677-28.673,57.35-57.35,86.024-86.024C338.13,73.077,324.899,59.846,316.364,68.389
		L316.364,68.389z"/> </g>                
    </symbol>
    <symbol id="nerd" viewBox="0 0 473.931 473.931">
       <circle style="fill:#FFC10E;" cx="236.966" cy="236.966" r="236.966"/> <g> <path style="fill:#333333;" d="M213.393,155.231c-2.66,62.491-94.225,62.491-96.885,0c-1.16-27.229,22.922-47.356,48.433-48.441
		C192.177,105.63,212.307,129.712,213.393,155.231c0.513,12.019,19.221,12.067,18.709,0c-1.605-37.698-29.463-65.548-67.157-67.15
		c-37.65-1.601-65.642,31.869-67.142,67.15c-1.601,37.642,31.861,65.649,67.142,67.15c37.653,1.601,65.657-31.865,67.157-67.15
		C232.614,143.163,213.905,143.212,213.393,155.231z"/> <path style="fill:#333333;" d="M353.709,155.231c-2.66,62.491-94.225,62.491-96.885,0c-1.16-27.229,22.922-47.356,48.433-48.441
		C332.493,105.63,352.623,129.712,353.709,155.231c0.513,12.019,19.221,12.067,18.709,0c-1.605-37.698-29.463-65.548-67.157-67.15
		c-37.65-1.601-65.642,31.869-67.142,67.15c-1.601,37.642,31.861,65.649,67.142,67.15c37.653,1.601,65.657-31.865,67.157-67.15
		C372.93,143.163,354.221,143.212,353.709,155.231z"/> <path style="fill:#333333;" d="M343.25,316.86c-59.281,60.336-154.658,59.849-213.449-0.898c-8.4-8.685-21.616,4.561-13.227,13.227
		c65.769,67.965,173.64,68.343,239.903,0.898C364.938,321.477,351.718,308.242,343.25,316.86L343.25,316.86z"/> <path style="fill:#333333;" d="M104.668,146.209c-26.121,4.988-62.319,9.972-92.238,14.956c-2.196,6.511-4.127,13.137-5.759,19.887
		c31.588-5.601,73.623-11.203,102.977-16.804C121.487,161.988,116.455,143.96,104.668,146.209z"/> <path style="fill:#333333;" d="M365.742,146.209c-11.787-2.249-16.819,15.779-4.977,18.039
		c30.252,5.774,74.637,11.543,106.588,17.317c-1.62-6.75-3.525-13.381-5.706-19.895
		C431.006,156.518,392.754,151.362,365.742,146.209z"/> <path style="fill:#333333;" d="M258.17,126.337c12.067,0,12.067-18.709,0-18.709c-49.889,0,3.117,0-46.772,0
		c-12.067,0-12.067,18.709,0,18.709C211.398,126.337,208.281,126.337,258.17,126.337z"/> <circle style="fill:#333333;" cx="164.937" cy="155.231" r="25.99"/> <circle style="fill:#333333;" cx="305.664" cy="155.231" r="24.119"/> </g>                
    </symbol>
    <symbol id="ninja" viewBox="0 0 473.931 473.931">
       <circle style="fill:#333333;" cx="236.966" cy="236.966" r="236.966"/> <path style="fill:#FFC10E;" d="M418.516,161.109c0,0-96.043-71.093-185.846-71.093S49.324,161.109,49.324,161.109
	S244.524,290.2,418.516,161.109z"/> <g> <circle style="fill:#333333;" cx="164.937" cy="155.227" r="37.216"/> <circle style="fill:#333333;" cx="305.664" cy="155.227" r="37.216"/> </g>                
    </symbol>
    <symbol id="quiet" viewBox="0 0 473.931 473.931">
       <circle style="fill:#FFC10E;" cx="236.966" cy="236.966" r="236.966"/> <g> <circle style="fill:#333333;" cx="164.937" cy="155.227" r="37.216"/> <circle style="fill:#333333;" cx="305.664" cy="155.227" r="37.216"/> </g> <path style="fill:#EFEFEF;" d="M361.076,316.534c7.154,2.78,10.694,10.836,7.91,17.99l-10.073,25.904
	c-2.78,7.154-10.836,10.698-17.99,7.914L112.825,279.61c-7.154-2.78-10.698-10.836-7.914-17.994l10.077-25.9
	c2.78-7.154,10.836-10.694,17.99-7.914L361.076,316.534z"/> <path style="fill:#FFFFFF;" d="M337.772,223.353c7.027-3.091,15.225,0.097,18.32,7.124l11.188,25.444
	c3.091,7.023-0.094,15.225-7.121,18.316l-224.03,98.55c-7.027,3.091-15.229-0.101-18.32-7.128l-11.192-25.44
	c-3.091-7.023,0.101-15.225,7.124-18.32L337.772,223.353z"/>                
    </symbol>
    <symbol id="sad" viewBox="0 0 473.935 473.935">
       <circle style="fill:#FFC10E;" cx="236.967" cy="236.967" r="236.967"/> <g> <path style="fill:#333333;" d="M356.671,354.1c-66.226-67.618-174.255-67.337-240.096,0.703
		c-8.389,8.666,4.827,21.912,13.227,13.227c58.87-60.83,154.386-61.204,213.641-0.703C351.896,375.96,365.116,362.721,356.671,354.1
		L356.671,354.1z"/> <circle style="fill:#333333;" cx="164.938" cy="155.232" r="37.216"/> <circle style="fill:#333333;" cx="305.667" cy="155.232" r="37.216"/> </g>                
    </symbol>
    <symbol id="secret" viewBox="0 0 473.935 473.935">
       <circle style="fill:#FFC10E;" cx="236.967" cy="236.967" r="236.967"/> <g> <circle style="fill:#333333;" cx="164.938" cy="155.232" r="37.216"/> <circle style="fill:#333333;" cx="305.667" cy="155.232" r="37.216"/> <path style="fill:#333333;" d="M105.279,326.583c86.387,0,172.777,0,259.164,0c12.067,0,12.067-18.709,0-18.709
		c-86.387,0-172.777,0-259.164,0C93.212,307.874,93.212,326.583,105.279,326.583L105.279,326.583z"/> <path style="fill:#333333;" d="M112.935,300.533c0,5.613,0,11.225,0,16.838c0,6.032,9.354,6.032,9.354,0c0-5.613,0-11.225,0-16.838
		C122.289,294.497,112.935,294.497,112.935,300.533L112.935,300.533z"/> <path style="fill:#333333;" d="M170.932,300.533c0,5.613,0,11.225,0,16.838c0,6.032,9.354,6.032,9.354,0c0-5.613,0-11.225,0-16.838
		C180.287,294.497,170.932,294.497,170.932,300.533L170.932,300.533z"/> <path style="fill:#333333;" d="M228.93,300.533c0,5.613,0,11.225,0,16.838c0,6.032,9.354,6.032,9.354,0c0-5.613,0-11.225,0-16.838
		C238.285,294.497,228.93,294.497,228.93,300.533L228.93,300.533z"/> <path style="fill:#333333;" d="M286.928,300.533c0,5.613,0,11.225,0,16.838c0,6.032,9.354,6.032,9.354,0c0-5.613,0-11.225,0-16.838
		C296.282,294.497,286.928,294.497,286.928,300.533L286.928,300.533z"/> <path style="fill:#333333;" d="M141.619,316.436c0,5.613,0,11.225,0,16.838c0,6.032,9.354,6.032,9.354,0c0-5.613,0-11.225,0-16.838
		C150.974,310.4,141.619,310.4,141.619,316.436L141.619,316.436z"/> <path style="fill:#333333;" d="M199.617,316.436c0,5.613,0,11.225,0,16.838c0,6.032,9.354,6.032,9.354,0c0-5.613,0-11.225,0-16.838
		C208.971,310.4,199.617,310.4,199.617,316.436L199.617,316.436z"/> <path style="fill:#333333;" d="M257.615,316.436c0,5.613,0,11.225,0,16.838c0,6.032,9.354,6.032,9.354,0c0-5.613,0-11.225,0-16.838
		C266.969,310.4,257.615,310.4,257.615,316.436L257.615,316.436z"/> <path style="fill:#333333;" d="M315.612,316.436c0,5.613,0,11.225,0,16.838c0,6.032,9.354,6.032,9.354,0c0-5.613,0-11.225,0-16.838
		C324.967,310.4,315.612,310.4,315.612,316.436L315.612,316.436z"/> <path style="fill:#333333;" d="M390.384,335.519c0,0-25.358,0-30.338,0c-4.977,0-30.151-14.937-30.151-19.091
		c0-4.153,24.894-19.091,30.151-19.091c5.257,0,30.338,0,30.338,0C400.925,297.341,400.925,335.519,390.384,335.519z"/> </g>                
    </symbol>
    <symbol id="smart" viewBox="0 0 473.931 473.931">
       <circle style="fill:#FFC10E;" cx="236.966" cy="236.966" r="236.966"/> <g> <circle style="fill:#333333;" cx="164.937" cy="189.367" r="37.216"/> <circle style="fill:#333333;" cx="305.664" cy="189.367" r="37.216"/> <path style="fill:#333333;" d="M236.951,332.747c-41.358-0.797-78.39-16.995-107.145-46.712c-8.4-8.685-21.616,4.561-13.227,13.227
		c32.119,33.197,74.218,51.307,120.372,52.194C249.025,351.688,248.999,332.975,236.951,332.747L236.951,332.747z"/> <path style="fill:#333333;" d="M143.171,115.77c24.83,7.929,46.301,21.395,64.325,40.201c8.359,8.726,21.575-4.524,13.227-13.227
		c-20.224-21.104-44.759-36.127-72.575-45.017C136.619,94.049,131.725,112.114,143.171,115.77L143.171,115.77z"/> <path style="fill:#333333;" d="M261.119,154.565c23.031-12.352,47.307-18.481,73.436-18.544c12.063-0.03,12.067-18.739,0-18.709
		c-29.358,0.071-57.021,7.233-82.876,21.104C241.044,144.114,250.488,160.267,261.119,154.565L261.119,154.565z"/> </g>                
    </symbol>
    <symbol id="smile" viewBox="0 0 473.931 473.931">
       <circle style="fill:#FFC10E;" cx="236.966" cy="236.966" r="236.966"/> <g> <circle style="fill:#333333;" cx="164.937" cy="152.997" r="37.216"/> <circle style="fill:#333333;" cx="305.664" cy="152.997" r="37.216"/> <path style="fill:#333333;" d="M236.951,362.678c-41.358-0.797-78.39-16.995-107.145-46.712c-8.4-8.685-21.616,4.561-13.227,13.227
		c32.119,33.197,74.218,51.307,120.372,52.194C249.025,381.618,248.999,362.906,236.951,362.678L236.951,362.678z"/> <path style="fill:#333333;" d="M120.301,105.944c19.966-16.759,42.907-27.566,68.388-32.845
		c11.809-2.447,6.795-20.482-4.977-18.043c-28.722,5.953-54.218,18.836-76.639,37.661
		C97.821,100.481,111.13,113.648,120.301,105.944L120.301,105.944z"/> <path style="fill:#333333;" d="M291.079,68.152c24.871,7.794,46.42,21.126,64.553,39.835c8.408,8.677,21.624-4.565,13.227-13.227
		c-20.34-20.988-44.939-35.917-72.803-44.654C284.508,46.491,279.607,64.553,291.079,68.152L291.079,68.152z"/> </g>                
    </symbol>
    <symbol id="smiling" viewBox="0 0 473.935 473.935">
       <circle style="fill:#FFC10E;" cx="236.967" cy="236.967" r="236.967"/> <g> <circle style="fill:#333333;" cx="164.938" cy="155.232" r="37.216"/> <circle style="fill:#333333;" cx="305.667" cy="155.232" r="37.216"/> <path style="fill:#333333;" d="M343.257,316.862c-59.281,60.329-154.663,59.854-213.45-0.898
		c-8.4-8.685-21.616,4.561-13.227,13.227c65.769,67.97,173.645,68.34,239.905,0.898
		C364.944,321.479,351.721,308.245,343.257,316.862L343.257,316.862z"/> </g>                
    </symbol>
    <symbol id="surprised-1" viewBox="0 0 473.931 473.931">
       <circle style="fill:#FFC10E;" cx="236.966" cy="236.966" r="236.966"/> <g> <ellipse style="fill:#333333;" cx="164.974" cy="128.155" rx="37.216" ry="35.094"/> <ellipse style="fill:#333333;" cx="236.966" cy="323.737" rx="105.929" ry="105.031"/> <circle style="fill:#333333;" cx="305.664" cy="128.155" r="62.162"/> </g>                
    </symbol>
    <symbol id="surprised" viewBox="0 0 473.931 473.931">
       <circle style="fill:#FFC10E;" cx="236.966" cy="236.966" r="236.966"/> <g> <ellipse style="fill:#333333;" cx="164.937" cy="163.26" rx="37.216" ry="70.188"/> <ellipse style="fill:#333333;" cx="305.664" cy="163.26" rx="37.216" ry="70.188"/> <circle style="fill:#333333;" cx="236.966" cy="341.997" r="25.762"/> </g>                
    </symbol>
    <symbol id="suspicious-1" viewBox="0 0 473.935 473.935">
       <circle style="fill:#FFC10E;" cx="236.967" cy="236.967" r="236.967"/> <g> <circle style="fill:#333333;" cx="164.938" cy="207.632" r="37.216"/> <circle style="fill:#333333;" cx="313.637" cy="207.632" r="37.216"/> <path style="fill:#333333;" d="M280.432,101.047c12.456-14.571,24.913-29.137,37.366-43.708c-4.412,0-8.816,0-13.227,0
		c25.141,20.176,50.282,40.351,75.423,60.527c9.31,7.472,22.642-5.676,13.227-13.227c-25.141-20.176-50.282-40.351-75.423-60.527
		c-3.719-2.986-9.658-4.176-13.227,0c-12.456,14.571-24.913,29.137-37.366,43.708C259.411,96.935,272.582,110.233,280.432,101.047
		L280.432,101.047z"/> <path style="fill:#333333;" d="M208.635,87.82c-12.456-14.571-24.909-29.137-37.365-43.708c-3.57-4.176-9.508-2.986-13.227,0
		c-25.145,20.176-50.282,40.351-75.423,60.527c-9.414,7.551,3.918,20.7,13.227,13.227c25.141-20.176,50.282-40.351,75.423-60.527
		c-4.412,0-8.816,0-13.227,0c12.456,14.571,24.909,29.137,37.365,43.708C203.258,110.233,216.429,96.935,208.635,87.82
		L208.635,87.82z"/> <path style="fill:#333333;" d="M178.592,369.397c35.831,11.326,71.659,22.66,107.49,33.99c11.54,3.648,16.438-14.421,4.977-18.043
		c-35.831-11.326-71.659-22.66-107.49-33.99C172.029,347.706,167.134,365.771,178.592,369.397L178.592,369.397z"/> </g>                
    </symbol>
    <symbol id="suspicious" viewBox="0 0 473.935 473.935">
       <circle style="fill:#FFC10E;" cx="236.967" cy="236.967" r="236.967"/> <g> <circle style="fill:#333333;" cx="164.938" cy="207.632" r="37.216"/> <ellipse style="fill:#333333;" cx="313.637" cy="188.324" rx="37.216" ry="56.501"/> <path style="fill:#333333;" d="M195.348,102.72c-12.456,14.571-24.909,29.137-37.365,43.708c4.412,0,8.816,0,13.227,0
		c-25.141-20.176-50.282-40.351-75.423-60.527c-9.31-7.472-22.642,5.676-13.227,13.227c25.141,20.176,50.282,40.351,75.423,60.527
		c3.719,2.986,9.658,4.176,13.227,0c12.456-14.571,24.909-29.137,37.365-43.708C216.369,106.832,203.202,93.533,195.348,102.72
		L195.348,102.72z"/> <path style="fill:#333333;" d="M280.432,124.747c12.456-14.571,24.913-29.137,37.366-43.708c-4.412,0-8.816,0-13.227,0
		c25.141,20.176,50.282,40.351,75.423,60.527c9.31,7.472,22.642-5.676,13.227-13.227c-25.141-20.176-50.282-40.351-75.423-60.527
		c-3.719-2.986-9.658-4.176-13.227,0c-12.456,14.571-24.913,29.137-37.366,43.708C259.411,120.635,272.582,133.934,280.432,124.747
		L280.432,124.747z"/> <path style="fill:#333333;" d="M178.457,386.725c37.579,0,75.158,0,112.736,0c12.067,0,12.067-18.709,0-18.709
		c-37.579,0-75.158,0-112.736,0C166.394,368.016,166.394,386.725,178.457,386.725L178.457,386.725z"/> </g>                
    </symbol>
    <symbol id="tongue-out-1" viewBox="0 0 473.931 473.931">
       <circle style="fill:#FFC10E;" cx="236.966" cy="236.966" r="236.966"/> <path style="fill:#CA2027;" d="M262.327,342.379c24.074,44.916,62.944,70.959,86.828,58.162
	c23.884-12.808,23.73-59.603-0.341-104.522L262.327,342.379z"/> <g> <circle style="fill:#333333;" cx="164.937" cy="155.227" r="37.216"/> <circle style="fill:#333333;" cx="305.664" cy="155.227" r="37.216"/> <path style="fill:#333333;" d="M343.25,285.055c-59.281,60.328-154.662,59.846-213.449-0.898
		c-8.4-8.681-21.616,4.561-13.227,13.227c65.769,67.965,173.64,68.336,239.903,0.898
		C364.938,289.676,351.718,276.441,343.25,285.055L343.25,285.055z"/> </g>                
    </symbol>
    <symbol id="tongue-out" viewBox="0 0 473.935 473.935">
       <circle style="fill:#FFC10E;" cx="236.967" cy="236.967" r="236.967"/> <g> <circle style="fill:#333333;" cx="164.938" cy="155.232" r="37.216"/> <circle style="fill:#333333;" cx="305.667" cy="155.232" r="37.216"/> </g> <path style="fill:#CA2027;" d="M220.635,317.36c0,35.431,28.726,64.157,64.157,64.157c35.435,0,64.16-28.729,64.16-64.157H220.635z"/> <path style="fill:#333333;" d="M105.283,326.583c86.387,0,172.773,0,259.164,0c12.064,0,12.064-18.709,0-18.709
	c-86.387,0-172.773,0-259.164,0C93.219,307.874,93.219,326.583,105.283,326.583L105.283,326.583z"/>                
    </symbol>
    <symbol id="unhappy" viewBox="0 0 473.935 473.935">
       <circle style="fill:#FFC10E;" cx="236.967" cy="236.967" r="236.967"/> <g> <path style="fill:#333333;" d="M356.671,354.1c-66.23-67.618-174.251-67.337-240.096,0.703
		c-8.389,8.666,4.827,21.908,13.227,13.227c58.87-60.834,154.379-61.204,213.641-0.703
		C351.896,375.96,365.116,362.721,356.671,354.1L356.671,354.1z"/> <circle style="fill:#333333;" cx="164.938" cy="155.232" r="37.216"/> <circle style="fill:#333333;" cx="305.667" cy="155.232" r="37.216"/> </g> <path style="fill:#A2D4DE;" d="M343.167,188.612c0,0-27.517,33.874-27.517,68.819c0,15.203,12.31,27.521,27.513,27.525
	c15.218-0.007,27.532-12.325,27.532-27.528C370.695,240.507,343.167,188.612,343.167,188.612z"/>                
    </symbol>
    <symbol id="wink" viewBox="0 0 473.931 473.931">
       <circle style="fill:#FFC10E;" cx="236.966" cy="236.966" r="236.966"/> <g> <path style="fill:#333333;" d="M72.036,237.123c1.04,62.895,35.64,119.175,91.782,147.826
		c61.17,31.218,135.455,17.766,185.685-27.304c8.999-8.071-4.277-21.261-13.227-13.227c-46.2,41.455-112.081,50.372-167.399,22.14
		c-48.385-24.692-77.249-75.92-78.132-129.435C90.547,225.074,71.838,225.052,72.036,237.123L72.036,237.123z"/> <ellipse style="fill:#333333;" cx="164.937" cy="155.231" rx="37.216" ry="18.709"/> <circle style="fill:#333333;" cx="305.664" cy="155.231" r="37.216"/> </g>                
    </symbol></svg>