<?xml version="1.0" encoding="utf-8"?>
<!-- Generator: Adobe Illustrator 16.0.0, SVG Export Plug-In . SVG Version: 6.00 Build 0)  -->
<!DOCTYPE svg PUBLIC "-//W3C//DTD SVG 1.1//EN" "http://www.w3.org/Graphics/SVG/1.1/DTD/svg11.dtd">
<svg version="1.1" id="图层_1" xmlns="http://www.w3.org/2000/svg" xmlns:xlink="http://www.w3.org/1999/xlink" x="0px" y="0px"
	 width="440.5px" height="154px" viewBox="0 46.75 440.5 154" enable-background="new 0 46.75 440.5 154" xml:space="preserve">
<g>
	<g>
		<path fill-rule="evenodd" clip-rule="evenodd" fill="#373435" d="M22.85,115.169c0.669,0.668,0.669,1.754,0,2.424
			c-0.668,0.669-1.754,0.669-2.425,0l-8.574-8.577c-0.668-0.668-0.668-1.752,0-2.423c0.667-0.671,1.753-0.671,2.424,0L22.85,115.169
			z"/>
		<path fill-rule="evenodd" clip-rule="evenodd" fill="#373435" d="M14.272,117.594c-0.668,0.669-1.754,0.669-2.424,0
			c-0.666-0.67-0.666-1.756,0-2.424l8.577-8.575c0.668-0.671,1.755-0.671,2.424,0c0.671,0.67,0.671,1.754,0,2.423L14.272,117.594z"
			/>
		<path fill-rule="evenodd" clip-rule="evenodd" fill="#373435" d="M4.462,139.193c-0.945,0.004-1.716-0.752-1.719-1.695
			c-0.009-0.941,0.749-1.712,1.691-1.721l39.646-0.417c0.945-0.008,1.715,0.752,1.722,1.693c0.007,0.944-0.751,1.714-1.694,1.721
			L4.462,139.193z"/>
		<path fill-rule="evenodd" clip-rule="evenodd" fill="#373435" d="M62.688,139.218c-0.942,0.033-1.736-0.704-1.768-1.649
			c-0.034-0.942,0.703-1.732,1.647-1.766l11.663-0.418c0.942-0.032,1.732,0.705,1.767,1.646c0.033,0.943-0.704,1.736-1.646,1.77
			L62.688,139.218z"/>
		<path fill-rule="evenodd" clip-rule="evenodd" fill="#373435" d="M38.443,174.619c-0.941,0.009-1.713-0.749-1.72-1.693
			c-0.007-0.939,0.75-1.712,1.694-1.72l39.646-0.42c0.942-0.004,1.712,0.756,1.721,1.695c0.008,0.944-0.75,1.713-1.693,1.723
			L38.443,174.619z"/>
		<path fill-rule="evenodd" clip-rule="evenodd" fill="#373435" d="M45.466,68.8c-0.944,0.007-1.72-0.756-1.723-1.7
			c-0.005-0.948,0.755-1.722,1.7-1.727l3.43-0.023c0.944-0.005,1.72,0.756,1.723,1.703c0.008,0.945-0.755,1.719-1.7,1.724
			L45.466,68.8L45.466,68.8z M103.708,64.979c0.948-0.004,1.719,0.758,1.726,1.703c0.008,0.944-0.755,1.718-1.702,1.723
			l-3.427,0.027c-0.948,0.004-1.719-0.756-1.726-1.704c-0.005-0.947,0.755-1.721,1.702-1.726L103.708,64.979L103.708,64.979z
			 M89.999,65.071c0.947-0.004,1.72,0.758,1.727,1.706c0.005,0.945-0.756,1.716-1.703,1.724l-3.427,0.024
			c-0.946,0.007-1.719-0.758-1.726-1.703c-0.007-0.948,0.758-1.72,1.703-1.727L89.999,65.071L89.999,65.071z M76.29,65.166
			c0.945-0.007,1.72,0.756,1.724,1.703c0.007,0.946-0.755,1.719-1.7,1.723l-3.428,0.027c-0.945,0.005-1.719-0.758-1.725-1.705
			c-0.007-0.945,0.756-1.717,1.7-1.725L76.29,65.166L76.29,65.166z M62.579,65.257c0.947-0.006,1.719,0.756,1.726,1.704
			c0.007,0.946-0.756,1.718-1.703,1.723l-3.423,0.023c-0.95,0.008-1.719-0.755-1.729-1.701c-0.006-0.946,0.758-1.721,1.704-1.726
			L62.579,65.257z"/>
	</g>
	<g>
		<g>
			<path fill-rule="evenodd" clip-rule="evenodd" fill="#373435" d="M426.238,90.1c0.626,0.627,0.626,1.645,0,2.273
				c-0.625,0.626-1.645,0.626-2.273,0l-8.036-8.039c-0.626-0.626-0.626-1.643,0-2.271c0.626-0.629,1.644-0.629,2.271,0L426.238,90.1
				z"/>
			<path fill-rule="evenodd" clip-rule="evenodd" fill="#373435" d="M418.2,92.373c-0.628,0.626-1.646,0.626-2.273,0
				c-0.624-0.628-0.624-1.646,0-2.273l8.038-8.036c0.628-0.629,1.646-0.629,2.272,0c0.627,0.628,0.627,1.644,0,2.271L418.2,92.373z"
				/>
		</g>
		<path fill-rule="evenodd" clip-rule="evenodd" fill="#373435" d="M338.762,138.997c-0.885,0.004-1.606-0.704-1.612-1.59
			c-0.008-0.88,0.702-1.604,1.586-1.611l37.158-0.392c0.886-0.007,1.607,0.706,1.613,1.586c0.007,0.888-0.704,1.608-1.587,1.614
			L338.762,138.997z"/>
		<path fill-rule="evenodd" clip-rule="evenodd" fill="#373435" d="M388.764,138.997c-0.883,0.029-1.626-0.661-1.657-1.545
			c-0.032-0.884,0.659-1.625,1.544-1.656l10.931-0.392c0.884-0.031,1.624,0.66,1.655,1.542c0.03,0.886-0.659,1.628-1.542,1.658
			L388.764,138.997z"/>
		<path fill-rule="evenodd" clip-rule="evenodd" fill="#373435" d="M393.021,118.034c-0.88,0.008-1.605-0.702-1.61-1.588
			c-0.007-0.881,0.704-1.605,1.586-1.612l37.159-0.392c0.883-0.006,1.604,0.707,1.614,1.587c0.006,0.885-0.705,1.604-1.587,1.613
			L393.021,118.034z"/>
		<path fill-rule="evenodd" clip-rule="evenodd" fill="#373435" d="M384.297,165.188c-0.887,0.007-1.612-0.708-1.615-1.594
			c-0.004-0.889,0.707-1.613,1.594-1.617l3.214-0.022c0.885-0.005,1.611,0.708,1.615,1.596c0.006,0.884-0.708,1.611-1.595,1.615
			L384.297,165.188L384.297,165.188z M438.882,161.606c0.889-0.006,1.612,0.711,1.618,1.597c0.008,0.884-0.708,1.608-1.595,1.615
			l-3.212,0.024c-0.888,0.004-1.611-0.71-1.616-1.597c-0.006-0.89,0.706-1.612,1.594-1.619L438.882,161.606L438.882,161.606z
			 M426.034,161.691c0.887-0.004,1.611,0.71,1.618,1.599c0.003,0.886-0.709,1.608-1.598,1.617l-3.211,0.021
			c-0.887,0.008-1.61-0.709-1.618-1.597c-0.005-0.886,0.713-1.61,1.596-1.617L426.034,161.691L426.034,161.691z M413.187,161.78
			c0.884-0.006,1.61,0.71,1.613,1.597c0.009,0.888-0.706,1.61-1.592,1.614l-3.214,0.025c-0.885,0.004-1.611-0.711-1.616-1.599
			c-0.007-0.884,0.709-1.609,1.594-1.615L413.187,161.78L413.187,161.78z M400.333,161.867c0.89-0.007,1.613,0.708,1.619,1.596
			c0.007,0.887-0.708,1.611-1.595,1.615l-3.21,0.022c-0.89,0.007-1.611-0.708-1.621-1.594c-0.004-0.886,0.711-1.613,1.598-1.617
			L400.333,161.867z"/>
	</g>
	
		<rect x="147.608" y="77.336" fill="#E6E7E8" stroke="#373435" stroke-width="3" stroke-linejoin="round" stroke-miterlimit="10" width="170.525" height="113.68"/>
	
		<rect x="147.608" y="59.993" fill="#FFFFFF" stroke="#373435" stroke-width="3" stroke-miterlimit="10" width="170.525" height="31.263"/>
	<rect x="149.002" y="62.145" fill="#D1D3D4" width="167.557" height="23.907"/>
	
		<rect x="168.693" y="111.663" fill="#F1F2F2" stroke="#373435" stroke-width="3" stroke-miterlimit="10" width="29.58" height="24.751"/>
	<path fill="#373435" d="M162.381,68.093c0.888,0,1.606,0.72,1.606,1.607v10.788c0,0.888-0.718,1.608-1.606,1.608l0,0
		c-0.889,0-1.608-0.72-1.608-1.608V69.701C160.772,68.813,161.492,68.093,162.381,68.093L162.381,68.093z"/>
	<path fill="#373435" d="M173.033,68.093c0.89,0,1.609,0.72,1.609,1.607v10.788c0,0.888-0.719,1.608-1.609,1.608l0,0
		c-0.887,0-1.607-0.72-1.607-1.608V69.701C171.425,68.813,172.146,68.093,173.033,68.093L173.033,68.093z"/>
	<path fill="#373435" d="M285.644,113.326c0,0.803-0.632,1.456-1.41,1.456h-56.052c-0.778,0-1.408-0.653-1.408-1.456l0,0
		c0-0.804,0.63-1.456,1.408-1.456h56.052C285.012,111.87,285.644,112.522,285.644,113.326L285.644,113.326z"/>
	<path fill="#373435" d="M263.264,130.303c0,0.804-0.743,1.456-1.662,1.456h-38.663c-0.918,0-1.662-0.652-1.662-1.456l0,0
		c0-0.803,0.744-1.456,1.662-1.456h38.663C262.521,128.847,263.264,129.5,263.264,130.303L263.264,130.303z"/>
	<path fill="#373435" d="M198.033,162.579c0,0.802-0.744,1.454-1.665,1.454h-25.771c-0.918,0-1.663-0.652-1.663-1.454l0,0
		c0-0.805,0.744-1.458,1.663-1.458h25.771C197.289,161.121,198.033,161.774,198.033,162.579L198.033,162.579z"/>
	<g>
		<path fill="#373435" d="M238.939,164.602h3.98v3.109h-3.98v6.884h-3.316v-6.884h-12.896v-3.401l13.393-19.115h2.82V164.602z
			 M235.623,164.602v-14.389h-0.083l-9.786,14.389H235.623z"/>
		<path fill="#373435" d="M246.361,160.163c0-1.629,0.076-3.323,0.229-5.078c0.152-1.756,0.553-3.366,1.203-4.83
			c0.648-1.465,1.631-2.675,2.944-3.629c1.312-0.954,3.116-1.432,5.41-1.432c2.295,0,4.099,0.478,5.412,1.432
			c1.313,0.954,2.293,2.164,2.943,3.629c0.649,1.464,1.051,3.074,1.202,4.83c0.152,1.755,0.229,3.449,0.229,5.078
			c0,1.08-0.028,2.197-0.084,3.36c-0.055,1.16-0.193,2.294-0.414,3.401c-0.222,1.104-0.539,2.149-0.953,3.129
			c-0.415,0.982-0.981,1.844-1.7,2.591c-0.72,0.748-1.623,1.343-2.716,1.785c-1.093,0.441-2.398,0.662-3.919,0.662
			s-2.827-0.221-3.918-0.662c-1.093-0.442-1.998-1.037-2.716-1.785c-0.72-0.747-1.286-1.608-1.7-2.591
			c-0.415-0.979-0.734-2.024-0.955-3.129c-0.22-1.107-0.358-2.241-0.414-3.401C246.389,162.36,246.361,161.243,246.361,160.163z
			 M250.094,160.122c0,1.106,0.034,2.344,0.104,3.711c0.068,1.369,0.29,2.655,0.663,3.857c0.374,1.202,0.976,2.218,1.805,3.049
			c0.829,0.828,1.99,1.243,3.482,1.243c1.493,0,2.654-0.415,3.483-1.243c0.829-0.831,1.431-1.847,1.804-3.049
			s0.594-2.488,0.663-3.857c0.069-1.367,0.104-2.604,0.104-3.711c0-0.719-0.007-1.512-0.021-2.384
			c-0.014-0.871-0.083-1.74-0.207-2.612c-0.124-0.871-0.305-1.72-0.539-2.55c-0.235-0.828-0.58-1.556-1.037-2.177
			c-0.455-0.622-1.029-1.126-1.721-1.512c-0.691-0.389-1.534-0.583-2.529-0.583s-1.839,0.194-2.529,0.583
			c-0.691,0.386-1.265,0.89-1.721,1.512c-0.456,0.621-0.803,1.349-1.037,2.177c-0.235,0.83-0.415,1.679-0.539,2.55
			c-0.124,0.872-0.193,1.741-0.207,2.612C250.1,158.61,250.094,159.403,250.094,160.122z"/>
		<path fill="#373435" d="M285.05,164.602h3.98v3.109h-3.98v6.884h-3.318v-6.884h-12.895v-3.401l13.393-19.115h2.82V164.602z
			 M281.731,164.602v-14.389h-0.082l-9.786,14.389H281.731z"/>
	</g>
</g>
</svg>
