<?xml version="1.0" encoding="utf-8"?>
<!-- Generator: Adobe Illustrator 16.0.0, SVG Export Plug-In . SVG Version: 6.00 Build 0)  -->
<!DOCTYPE svg PUBLIC "-//W3C//DTD SVG 1.1//EN" "http://www.w3.org/Graphics/SVG/1.1/DTD/svg11.dtd">
<svg version="1.1" id="图层_1" xmlns="http://www.w3.org/2000/svg" xmlns:xlink="http://www.w3.org/1999/xlink" x="0px" y="0px"
	 width="50px" height="50px" viewBox="0 0 50 50" enable-background="new 0 0 50 50" xml:space="preserve">
<path fill="#2196F3" d="M5.633,29.842c0,10.65,8.715,19.367,19.367,19.367c10.652,0,19.367-8.717,19.367-19.367h-4.842
	c0,7.988-6.537,14.525-14.525,14.525c-7.989,0-14.525-6.537-14.525-14.525c0-7.99,6.536-14.526,14.525-14.526V25l12.103-12.105
	L25,0.791v9.684C14.348,10.474,5.633,19.189,5.633,29.842z"/>
<g>
	<path fill="#2196F3" d="M20.284,38.859v-2.807h-5.707v-2.342l6.05-8.855h2.246v8.849h1.731v2.348h-1.731v2.807H20.284z
		 M20.284,33.703v-4.768l-3.205,4.768H20.284z"/>
	<path fill="#2196F3" d="M25.915,35.271l2.664-0.275c0.075,0.602,0.301,1.08,0.676,1.432c0.375,0.354,0.807,0.527,1.293,0.527
		c0.559,0,1.031-0.227,1.418-0.678c0.387-0.455,0.58-1.137,0.58-2.051c0-0.855-0.189-1.498-0.574-1.926
		c-0.383-0.43-0.885-0.643-1.5-0.643c-0.768,0-1.453,0.34-2.063,1.018l-2.171-0.314l1.371-7.258h7.069v2.502h-5.043l-0.418,2.369
		c0.596-0.299,1.203-0.447,1.824-0.447c1.188,0,2.191,0.434,3.018,1.293c0.822,0.865,1.234,1.984,1.234,3.359
		c0,1.146-0.332,2.17-0.998,3.07c-0.906,1.232-2.166,1.848-3.775,1.848c-1.289,0-2.338-0.348-3.15-1.039
		C26.56,37.369,26.075,36.439,25.915,35.271z"/>
</g>
</svg>
