<?xml version="1.0" encoding="utf-8"?>
<!-- Generator: Adobe Illustrator 16.0.0, SVG Export Plug-In . SVG Version: 6.00 Build 0)  -->
<!DOCTYPE svg PUBLIC "-//W3C//DTD SVG 1.1//EN" "http://www.w3.org/Graphics/SVG/1.1/DTD/svg11.dtd">
<svg version="1.1" id="图层_1" xmlns="http://www.w3.org/2000/svg" xmlns:xlink="http://www.w3.org/1999/xlink" x="0px" y="0px"
	 width="440.5px" height="250.5px" viewBox="0 0 440.5 250.5" enable-background="new 0 0 440.5 250.5" xml:space="preserve">
<g>
	<g>
		<path fill="#363435" d="M339.964,78.335c0.771,0.771,0.771,2.023,0,2.797c-0.771,0.771-2.026,0.771-2.798,0l-9.896-9.896
			c-0.77-0.771-0.77-2.022,0-2.796c0.772-0.773,2.023-0.773,2.8,0L339.964,78.335z"/>
		<path fill="#363435" d="M330.067,81.132c-0.772,0.771-2.024,0.771-2.798,0c-0.767-0.774-0.767-2.026,0-2.797l9.896-9.895
			c0.771-0.773,2.026-0.773,2.798,0c0.772,0.773,0.772,2.025,0,2.796L330.067,81.132z"/>
		<path fill="#363435" d="M318.751,106.049c-1.091,0.007-1.98-0.866-1.985-1.955c-0.011-1.085,0.862-1.977,1.95-1.984l45.74-0.481
			c1.09-0.007,1.978,0.869,1.988,1.954c0.009,1.088-0.866,1.976-1.953,1.984L318.751,106.049z"/>
		<path fill="#363435" d="M380.299,106.049c-1.085,0.04-2.002-0.811-2.037-1.899c-0.039-1.088,0.812-2.001,1.898-2.04l13.456-0.481
			c1.085-0.039,1.999,0.813,2.037,1.899c0.037,1.09-0.811,2.003-1.897,2.041L380.299,106.049z"/>
		<path fill="#363435" d="M344.885,133.096c-1.086,0.011-1.977-0.863-1.984-1.956c-0.007-1.084,0.867-1.975,1.953-1.982
			l45.741-0.482c1.089-0.009,1.977,0.871,1.987,1.953c0.009,1.09-0.866,1.975-1.953,1.985L344.885,133.096z"/>
		<path fill="#363435" d="M368.434,159.473c-1.09,0.009-1.983-0.871-1.989-1.961c-0.005-1.093,0.87-1.985,1.962-1.991l3.955-0.03
			c1.09-0.003,1.984,0.875,1.991,1.97c0.008,1.09-0.872,1.98-1.964,1.988L368.434,159.473L368.434,159.473z M435.625,155.065
			c1.096-0.008,1.986,0.875,1.994,1.962c0.009,1.087-0.873,1.985-1.964,1.988l-3.952,0.032c-1.096,0.006-1.986-0.874-1.993-1.964
			c-0.004-1.092,0.872-1.988,1.963-1.994L435.625,155.065L435.625,155.065z M419.813,155.172c1.089-0.006,1.982,0.874,1.989,1.967
			c0.006,1.09-0.873,1.98-1.962,1.988l-3.956,0.027c-1.091,0.011-1.981-0.874-1.991-1.964c-0.008-1.093,0.875-1.983,1.964-1.991
			L419.813,155.172L419.813,155.172z M403.996,155.28c1.087-0.008,1.983,0.872,1.986,1.962c0.012,1.095-0.869,1.983-1.959,1.991
			l-3.955,0.03c-1.089,0.005-1.983-0.875-1.992-1.97c-0.008-1.087,0.872-1.98,1.962-1.988L403.996,155.28L403.996,155.28z
			 M388.178,155.387c1.091-0.011,1.98,0.869,1.991,1.962c0.008,1.092-0.875,1.985-1.964,1.988l-3.95,0.03
			c-1.097,0.008-1.986-0.872-1.997-1.962c-0.006-1.092,0.875-1.988,1.967-1.991L388.178,155.387z"/>
	</g>
	<g>
		<g>
			<path fill="#363435" d="M104.782,70.716c0.724,0.724,0.724,1.898,0,2.622c-0.721,0.725-1.895,0.725-2.622,0l-9.272-9.273
				c-0.721-0.724-0.721-1.896,0-2.62c0.723-0.727,1.897-0.727,2.622,0L104.782,70.716z"/>
			<path fill="#363435" d="M95.51,73.338c-0.725,0.725-1.899,0.725-2.624,0c-0.72-0.724-0.72-1.898,0-2.622l9.273-9.271
				c0.724-0.727,1.899-0.727,2.621,0c0.726,0.724,0.726,1.896,0,2.62L95.51,73.338z"/>
		</g>
		<path fill="#363435" d="M3.859,127.13c-1.022,0.006-1.855-0.812-1.859-1.83c-0.009-1.019,0.809-1.854,1.83-1.862l42.868-0.452
			c1.023-0.008,1.855,0.814,1.862,1.832c0.006,1.021-0.813,1.853-1.831,1.86L3.859,127.13z"/>
		<path fill="#363435" d="M61.546,127.13c-1.018,0.035-1.875-0.76-1.913-1.784c-0.035-1.017,0.763-1.872,1.782-1.908l12.611-0.452
			c1.018-0.036,1.873,0.762,1.91,1.78c0.036,1.024-0.761,1.877-1.779,1.912L61.546,127.13z"/>
		<path fill="#363435" d="M66.46,102.944c-1.015,0.012-1.853-0.809-1.859-1.831c-0.007-1.017,0.812-1.852,1.832-1.858l42.871-0.452
			c1.018-0.007,1.85,0.815,1.862,1.832c0.007,1.02-0.813,1.85-1.831,1.859L66.46,102.944z"/>
		<path fill="#363435" d="M56.393,157.349c-1.022,0.005-1.859-0.82-1.863-1.839c-0.004-1.024,0.816-1.863,1.838-1.866l3.708-0.027
			c1.02-0.005,1.859,0.817,1.862,1.842c0.008,1.019-0.816,1.854-1.838,1.863L56.393,157.349L56.393,157.349z M119.369,153.216
			c1.026-0.006,1.861,0.82,1.868,1.842c0.008,1.019-0.819,1.857-1.84,1.863l-3.706,0.027c-1.023,0.005-1.859-0.817-1.865-1.842
			c-0.007-1.024,0.814-1.863,1.838-1.866L119.369,153.216L119.369,153.216z M104.547,153.313c1.021-0.002,1.858,0.823,1.866,1.845
			c0.005,1.021-0.819,1.855-1.842,1.863l-3.704,0.027c-1.024,0.008-1.859-0.82-1.867-1.842c-0.007-1.021,0.821-1.857,1.84-1.863
			L104.547,153.313L104.547,153.313z M89.723,153.417c1.02-0.008,1.859,0.815,1.863,1.839c0.01,1.027-0.814,1.861-1.837,1.866
			l-3.708,0.03c-1.022,0.005-1.859-0.82-1.866-1.845c-0.007-1.021,0.817-1.857,1.838-1.863L89.723,153.417L89.723,153.417z
			 M74.896,153.516c1.026-0.006,1.86,0.817,1.867,1.842c0.005,1.023-0.818,1.86-1.839,1.863l-3.704,0.026
			c-1.026,0.006-1.859-0.819-1.869-1.836c-0.005-1.026,0.819-1.863,1.842-1.868L74.896,153.516z"/>
	</g>
	
		<ellipse fill="#D1D3D4" stroke="#363435" stroke-width="3" stroke-miterlimit="10" cx="227.745" cy="219.181" rx="89.021" ry="24.954"/>
	<path fill="#FFFFFF" stroke="#363435" stroke-width="3" stroke-miterlimit="10" d="M227.745,214.385l48.84-90.788
		c75.612-159.642-173.292-159.642-97.673,0L227.745,214.385L227.745,214.385z M227.745,41.639c17.475,0,31.728,14.254,31.728,31.726
		c0,17.472-14.25,31.725-31.728,31.725c-17.47,0-31.726-14.253-31.726-31.725C196.02,55.893,210.275,41.639,227.745,41.639z"/>
</g>
</svg>
