<?xml version="1.0" encoding="utf-8"?>
<!-- Generator: Adobe Illustrator 16.0.0, SVG Export Plug-In . SVG Version: 6.00 Build 0)  -->
<!DOCTYPE svg PUBLIC "-//W3C//DTD SVG 1.1//EN" "http://www.w3.org/Graphics/SVG/1.1/DTD/svg11.dtd">
<svg version="1.1" id="图层_1" xmlns="http://www.w3.org/2000/svg" xmlns:xlink="http://www.w3.org/1999/xlink" x="0px" y="0px"
	 width="50px" height="50px" viewBox="0 0 50 50" enable-background="new 0 0 50 50" xml:space="preserve">
<g id="形状_9">
	<g>
		<path fill-rule="evenodd" clip-rule="evenodd" fill="#999999" d="M24.993,40.896c0.256,0,0.499-0.105,0.675-0.292
			c0.543-0.579,13.331-14.258,13.331-21.718c0-7.678-6.283-13.925-14.007-13.925c-7.723,0-14.006,6.247-14.006,13.925
			c0,7.46,12.788,21.139,13.333,21.718C24.493,40.791,24.737,40.896,24.993,40.896z M24.993,6.797c6.705,0,12.16,5.424,12.16,12.09
			c0,5.831-9.515,16.794-12.16,19.728c-2.646-2.934-12.161-13.893-12.161-19.728C12.832,12.221,18.288,6.797,24.993,6.797z
			 M44.863,43.583l-6.068-10.212c-0.261-0.436-0.827-0.58-1.265-0.322c-0.438,0.258-0.584,0.82-0.324,1.257L42,42.965H8l4.573-8.671
			c0.252-0.441,0.098-1.002-0.345-1.253c-0.442-0.25-1.006-0.098-1.26,0.343L5.115,43.596c-0.164,0.283-0.162,0.633,0.004,0.915
			c0.165,0.282,0.469,0.457,0.798,0.457h38.151c0.331,0,0.638-0.177,0.801-0.463C45.035,44.219,45.032,43.867,44.863,43.583z
			 M30.004,19.951c0-2.755-2.241-4.996-4.995-4.996c-2.755,0-4.997,2.241-4.997,4.996c0,2.754,2.242,4.995,4.997,4.995
			C27.763,24.946,30.004,22.705,30.004,19.951z M21.725,19.951c0-1.811,1.473-3.283,3.284-3.283c1.81,0,3.283,1.473,3.283,3.283
			c0,1.81-1.474,3.282-3.283,3.282C23.197,23.233,21.725,21.761,21.725,19.951z"/>
	</g>
</g>
</svg>
