<?xml version="1.0" encoding="utf-8"?>
<!-- Generator: Adobe Illustrator 16.0.0, SVG Export Plug-In . SVG Version: 6.00 Build 0)  -->
<!DOCTYPE svg PUBLIC "-//W3C//DTD SVG 1.1//EN" "http://www.w3.org/Graphics/SVG/1.1/DTD/svg11.dtd">
<svg version="1.1" id="图层_1" xmlns="http://www.w3.org/2000/svg" xmlns:xlink="http://www.w3.org/1999/xlink" x="0px" y="0px"
	 width="50px" height="50px" viewBox="0 0 50 50" enable-background="new 0 0 50 50" xml:space="preserve">
<path  d="M24.962,0.375c-13.532,0-24.5,10.969-24.5,24.5c0,13.529,10.968,24.5,24.5,24.5
	c13.529,0,24.502-10.971,24.502-24.5C49.464,11.344,38.491,0.375,24.962,0.375L24.962,0.375z M12.126,36.988
	c-1.523,0-2.757-1.21-2.757-2.703s1.234-2.704,2.757-2.704c1.524,0,2.759,1.211,2.759,2.704S13.65,36.988,12.126,36.988
	L12.126,36.988z M12.126,27.738c-1.523,0-2.757-1.209-2.757-2.703s1.234-2.705,2.757-2.705c1.524,0,2.759,1.21,2.759,2.705
	S13.65,27.738,12.126,27.738L12.126,27.738z M12.126,18.489c-1.523,0-2.757-1.208-2.757-2.705c0-1.492,1.234-2.703,2.757-2.703
	c1.524,0,2.759,1.211,2.759,2.703C14.885,17.279,13.65,18.489,12.126,18.489L12.126,18.489z M39.398,35.263H19.765
	c-0.606,0-1.098-0.489-1.098-1.095s0.492-1.097,1.098-1.097h19.634c0.606,0,1.097,0.491,1.097,1.097S40.005,35.263,39.398,35.263
	L39.398,35.263z M39.398,26.089H19.765c-0.606,0-1.098-0.49-1.098-1.097c0-0.605,0.492-1.097,1.098-1.097h19.634
	c0.606,0,1.097,0.492,1.097,1.097C40.495,25.599,40.005,26.089,39.398,26.089L39.398,26.089z M39.398,16.85H19.765
	c-0.606,0-1.098-0.491-1.098-1.097c0-0.605,0.492-1.096,1.098-1.096h19.634c0.606,0,1.097,0.491,1.097,1.096
	C40.495,16.358,40.005,16.85,39.398,16.85L39.398,16.85z M39.398,16.85"/>
</svg>
