<?xml version="1.0" encoding="utf-8"?>
<!-- Generator: Adobe Illustrator 16.0.0, SVG Export Plug-In . SVG Version: 6.00 Build 0)  -->
<!DOCTYPE svg PUBLIC "-//W3C//DTD SVG 1.1//EN" "http://www.w3.org/Graphics/SVG/1.1/DTD/svg11.dtd">
<svg version="1.1" id="图层_1" xmlns="http://www.w3.org/2000/svg" xmlns:xlink="http://www.w3.org/1999/xlink" x="0px" y="0px"
	 width="50px" height="50px" viewBox="0 0 50 50" enable-background="new 0 0 50 50" xml:space="preserve">
<path d="M15,40c-2.751,0-4.976,2.251-4.976,4.999C10.025,47.748,12.249,50,15,50c2.75,0,5-2.252,5-5.001C20,42.251,17.75,40,15,40z
	 M0,0v6.25h6.25L14,23.976L10.625,30.1C10.226,30.801,10,31.626,10,32.499C10,35.248,12.249,37.5,15,37.5h29.999v-6.25H17.5
	c-1.783,0-1.25,0-1.25,0l2.5-3.75h17.501c1.874,0,3.648-1.024,4.499-2.577L49.699,8.7C49.898,8.35,50,7.925,50,7.5
	C50,6.125,48.874,5,47.5,5h-35L8.175,0H0z M40,40c-2.748,0-4.976,2.251-4.976,4.999C35.024,47.748,37.252,50,40,50
	c2.749,0,4.999-2.252,4.999-5.001C44.999,42.251,42.749,40,40,40z"/>
</svg>
