<?xml version="1.0" encoding="utf-8"?>
<!-- Generator: Adobe Illustrator 16.0.0, SVG Export Plug-In . SVG Version: 6.00 Build 0)  -->
<!DOCTYPE svg PUBLIC "-//W3C//DTD SVG 1.1//EN" "http://www.w3.org/Graphics/SVG/1.1/DTD/svg11.dtd">
<svg version="1.1" id="图层_1" xmlns="http://www.w3.org/2000/svg" xmlns:xlink="http://www.w3.org/1999/xlink" x="0px" y="0px"
	 width="440.5px" height="267px" viewBox="0 -45.5 440.5 267" enable-background="new 0 -45.5 440.5 267" xml:space="preserve">
<g>
	<g>
		<path fill="#363435" d="M341.062,91.11c0.775,0.774,0.775,2.035,0,2.813c-0.778,0.779-2.037,0.779-2.815,0l-9.949-9.949
			c-0.774-0.776-0.774-2.035,0-2.814c0.772-0.774,2.034-0.774,2.813,0L341.062,91.11z"/>
		<path fill="#363435" d="M331.105,93.923c-0.774,0.776-2.036,0.776-2.815,0c-0.771-0.777-0.771-2.038,0-2.813l9.956-9.953
			c0.773-0.775,2.035-0.775,2.813,0c0.778,0.779,0.778,2.038,0,2.813L331.105,93.923z"/>
		<path fill="#363435" d="M319.724,118.988c-1.097,0.007-1.989-0.872-1.996-1.968c-0.01-1.091,0.87-1.987,1.962-1.994l46.004-0.485
			c1.097-0.007,1.992,0.872,2.001,1.965c0.007,1.095-0.873,1.986-1.966,1.998L319.724,118.988z"/>
		<path fill="#363435" d="M381.63,118.988c-1.094,0.037-2.012-0.815-2.053-1.911c-0.037-1.097,0.819-2.014,1.915-2.051l13.531-0.485
			c1.094-0.042,2.009,0.816,2.051,1.909c0.038,1.096-0.818,2.017-1.911,2.054L381.63,118.988z"/>
		<path fill="#363435" d="M346.008,146.187c-1.088,0.012-1.986-0.869-1.992-1.966c-0.009-1.09,0.87-1.983,1.965-1.991l46.003-0.49
			c1.094-0.005,1.988,0.874,1.999,1.968c0.01,1.097-0.871,1.986-1.965,1.995L346.008,146.187z"/>
		<path fill="#363435" d="M369.692,172.723c-1.095,0.004-1.995-0.88-2-1.972c-0.004-1.105,0.878-2.004,1.974-2.01l3.979-0.027
			c1.094-0.008,1.995,0.878,2.001,1.975c0.009,1.097-0.879,1.995-1.975,2.003L369.692,172.723L369.692,172.723z M437.275,168.285
			c1.099-0.006,1.995,0.88,2.006,1.975c0.009,1.095-0.879,1.997-1.978,2.004l-3.976,0.03c-1.101,0.008-1.995-0.876-2.002-1.979
			c-0.009-1.097,0.875-1.993,1.974-2L437.275,168.285L437.275,168.285z M421.368,168.391c1.098-0.002,1.997,0.881,2.002,1.98
			c0.008,1.096-0.875,1.996-1.974,1.999l-3.979,0.029c-1.097,0.009-1.993-0.882-2.002-1.976c-0.009-1.098,0.879-1.996,1.977-2.008
			L421.368,168.391L421.368,168.391z M405.46,168.5c1.098-0.004,1.998,0.877,2.003,1.979c0.008,1.098-0.877,1.995-1.974,1.999
			l-3.978,0.032c-1.097,0.002-1.999-0.877-2.003-1.982c-0.009-1.093,0.878-1.991,1.971-1.996L405.46,168.5L405.46,168.5z
			 M389.55,168.607c1.101-0.009,1.995,0.879,2.004,1.976c0.01,1.099-0.878,1.999-1.974,2.001l-3.976,0.027
			c-1.102,0.009-1.996-0.875-2.007-1.972c-0.005-1.098,0.882-1.998,1.978-2.006L389.55,168.607z"/>
	</g>
	<g>
		<g>
			<path fill="#363435" d="M106.423,78.342c0.728,0.729,0.728,1.909,0,2.637c-0.725,0.728-1.908,0.728-2.637,0l-9.325-9.325
				c-0.727-0.729-0.727-1.909,0-2.638c0.725-0.729,1.906-0.729,2.636,0L106.423,78.342z"/>
			<path fill="#363435" d="M97.096,80.979c-0.729,0.728-1.911,0.728-2.637,0c-0.725-0.728-0.725-1.908,0-2.637l9.327-9.326
				c0.728-0.729,1.911-0.729,2.635,0c0.73,0.729,0.73,1.909,0,2.638L97.096,80.979z"/>
		</g>
		<path fill="#363435" d="M4.917,135.085c-1.027,0.002-1.864-0.817-1.87-1.847c-0.01-1.022,0.813-1.859,1.839-1.871l43.117-0.452
			c1.028-0.012,1.865,0.817,1.873,1.841c0.006,1.025-0.818,1.863-1.841,1.873L4.917,135.085z"/>
		<path fill="#363435" d="M62.938,135.085c-1.025,0.033-1.887-0.769-1.924-1.797c-0.037-1.023,0.768-1.884,1.793-1.921l12.683-0.452
			c1.026-0.035,1.885,0.765,1.921,1.789c0.036,1.025-0.764,1.888-1.788,1.925L62.938,135.085z"/>
		<path fill="#363435" d="M67.88,110.757c-1.021,0.009-1.862-0.813-1.87-1.841c-0.008-1.025,0.818-1.864,1.84-1.872l43.121-0.458
			c1.024-0.006,1.859,0.823,1.871,1.846c0.009,1.027-0.818,1.86-1.84,1.873L67.88,110.757z"/>
		<path fill="#363435" d="M57.754,165.474c-1.027,0.008-1.871-0.822-1.875-1.849c-0.004-1.028,0.823-1.872,1.851-1.879l3.729-0.026
			c1.025-0.005,1.87,0.819,1.873,1.851c0.007,1.025-0.82,1.873-1.85,1.878L57.754,165.474L57.754,165.474z M121.095,161.321
			c1.031-0.01,1.87,0.822,1.877,1.845c0.011,1.03-0.823,1.871-1.851,1.881l-3.728,0.026c-1.031,0.006-1.869-0.823-1.875-1.851
			c-0.008-1.033,0.819-1.876,1.85-1.878L121.095,161.321L121.095,161.321z M106.188,161.419c1.025-0.006,1.869,0.823,1.876,1.852
			c0.003,1.028-0.824,1.872-1.852,1.878l-3.728,0.023c-1.028,0.01-1.87-0.822-1.877-1.849c-0.007-1.028,0.826-1.869,1.851-1.881
			L106.188,161.419L106.188,161.419z M91.278,161.52c1.027-0.007,1.87,0.822,1.873,1.849c0.01,1.033-0.818,1.875-1.847,1.88
			l-3.729,0.029c-1.027,0.002-1.87-0.827-1.875-1.858c-0.007-1.024,0.823-1.865,1.849-1.869L91.278,161.52L91.278,161.52z
			 M76.365,161.618c1.031-0.005,1.869,0.824,1.877,1.854c0.008,1.027-0.822,1.868-1.851,1.873l-3.723,0.027
			c-1.033,0.005-1.871-0.824-1.88-1.85c-0.006-1.032,0.824-1.873,1.852-1.877L76.365,161.618z"/>
	</g>
	<path fill="#363435" d="M185.271,179.1c0.297,1.014-0.289,2.077-1.306,2.376c-1.013,0.292-2.078-0.292-2.372-1.309l-18.466-63.314
		c-0.296-1.022,0.291-2.078,1.303-2.376c1.018-0.296,2.083,0.288,2.375,1.306L185.271,179.1z"/>
	<path fill="#363435" d="M155.764,76.423c0.292,1.02-0.288,2.081-1.308,2.374c-1.013,0.295-2.076-0.29-2.372-1.305l-22.22-76.753
		c-0.294-1.016,0.291-2.078,1.306-2.373c1.014-0.294,2.078,0.292,2.374,1.306L155.764,76.423z"/>
	<path fill="#A7A9AC" stroke="#363435" stroke-width="3" stroke-miterlimit="10" d="M83.608-12.956h39.873
		c2.394,0,4.989,1.955,5.774,4.35l2.376,7.247c0.784,2.396-0.532,4.349-2.924,4.349H88.836c-2.395,0-4.988-1.953-5.776-4.349
		l-2.374-7.247C79.902-11.001,81.219-12.956,83.608-12.956z"/>
	<path fill="#363435" d="M193.464,197.018c-1.146,0-2.077-0.93-2.077-2.076c0-1.146,0.93-2.08,2.077-2.08h65.91
		c1.147,0,2.075,0.937,2.075,2.08c0,1.146-0.928,2.076-2.075,2.076H193.464z"/>
	<path fill="#FFFFFF" stroke="#363435" stroke-width="3" stroke-miterlimit="10" d="M182.562,217.412
		c9.78,0,17.762-7.98,17.762-17.761c0-9.786-7.982-17.76-17.762-17.76c-9.784,0-17.76,7.974-17.76,17.76
		C164.802,209.432,172.778,217.412,182.562,217.412z"/>
	<path fill="#939498" stroke="#363435" stroke-width="3" stroke-miterlimit="10" d="M182.562,207.26
		c4.194,0,7.609-3.419,7.609-7.608c0-4.197-3.416-7.612-7.609-7.612c-4.194,0-7.61,3.415-7.61,7.612
		C174.952,203.844,178.368,207.26,182.562,207.26z"/>
	<path fill="#FFFFFF" stroke="#363435" stroke-width="3" stroke-miterlimit="10" d="M276.177,217.412
		c9.79,0,17.762-7.98,17.762-17.761c0-9.786-7.972-17.76-17.762-17.76c-9.775,0-17.756,7.974-17.756,17.76
		C258.421,209.432,266.401,217.412,276.177,217.412z"/>
	<path fill="#939498" stroke="#363435" stroke-width="3" stroke-miterlimit="10" d="M276.177,207.26
		c4.195,0,7.618-3.419,7.618-7.608c0-4.197-3.423-7.612-7.618-7.612c-4.189,0-7.609,3.415-7.609,7.612
		C268.567,203.844,271.987,207.26,276.177,207.26z"/>
	<path fill="#D1D3D4" stroke="#363435" stroke-width="3" stroke-miterlimit="10" d="M143.07,40.698l75.867,1.236h25.059h75.867
		l-39.665,78.222c-2.411,4.766-6.737,8.914-12.62,8.914h-23.585h-43.828h-23.579c-5.883,0-9.316-4.148-10.704-8.914L143.07,40.698z"
		/>
	<path fill="#363435" d="M164.853,63.029c-1.311,0-2.375-1.066-2.375-2.377c0-1.313,1.065-2.374,2.375-2.374h129.628
		c1.313,0,2.378,1.062,2.378,2.374c0,1.312-1.064,2.377-2.378,2.377H164.853z"/>
	<path fill="#363435" d="M168.449,80.52c-1.315,0-2.376-1.063-2.376-2.373c0-1.311,1.062-2.374,2.376-2.374h117.359
		c1.311,0,2.376,1.063,2.376,2.374c0,1.309-1.065,2.373-2.376,2.373H168.449z"/>
	<path fill="#363435" d="M172.047,98.346c-1.314,0-2.377-1.068-2.377-2.378c0-1.312,1.063-2.376,2.377-2.376h106.599
		c1.306,0,2.374,1.064,2.374,2.376c0,1.31-1.068,2.378-2.374,2.378H172.047z"/>
	<path fill="#363435" d="M174.815,116.41c-1.311,0-2.375-1.061-2.375-2.379c0-1.308,1.063-2.372,2.375-2.372h93.265
		c1.311,0,2.374,1.064,2.374,2.372c0,1.318-1.063,2.379-2.374,2.379H174.815z"/>
	<polygon fill="#E6E7E8" stroke="#363435" stroke-width="3" stroke-miterlimit="10" points="277.557,-41.032 277.557,-8.271 
		261.178,-8.271 293.941,24.493 326.702,-8.271 310.321,-8.271 310.321,-41.032 	"/>
</g>
</svg>
