<?xml version="1.0" encoding="utf-8"?>
<!-- Generator: Adobe Illustrator 16.0.0, SVG Export Plug-In . SVG Version: 6.00 Build 0)  -->
<!DOCTYPE svg PUBLIC "-//W3C//DTD SVG 1.1//EN" "http://www.w3.org/Graphics/SVG/1.1/DTD/svg11.dtd">
<svg version="1.1" id="图层_1" xmlns="http://www.w3.org/2000/svg" xmlns:xlink="http://www.w3.org/1999/xlink" x="0px" y="0px"
	 width="50px" height="50px" viewBox="0 0 50 50" enable-background="new 0 0 50 50" xml:space="preserve">
<path  d="M24.957,0.437C11.397,0.437,0.394,11.44,0.394,25c0,13.558,11.004,24.563,24.563,24.563
	C38.515,49.563,49.52,38.558,49.52,25C49.52,11.44,38.515,0.437,24.957,0.437z M28.421,39.958v4.692h-6.559v-4.739
	c-4.201-0.886-7.762-3.589-8.032-8.353h4.814c0.245,2.581,2.014,4.593,6.509,4.593c4.814,0,5.896-2.405,5.896-3.904
	c0-2.039-1.082-3.957-6.56-5.257c-6.091-1.475-10.268-3.98-10.268-9.015c0-4.226,3.414-6.977,7.64-7.885V5.349h6.559v4.791
	c4.566,1.104,6.853,4.568,6.999,8.326h-4.814c-0.122-2.726-1.571-4.592-5.452-4.592c-3.685,0-5.895,1.669-5.895,4.028
	c0,2.064,1.597,3.414,6.557,4.692c4.963,1.277,10.267,3.414,10.267,9.604C36.059,36.691,32.695,39.148,28.421,39.958z"/>
</svg>
