<?xml version="1.0" encoding="utf-8"?>
<!-- Generator: Adobe Illustrator 16.0.0, SVG Export Plug-In . SVG Version: 6.00 Build 0)  -->
<!DOCTYPE svg PUBLIC "-//W3C//DTD SVG 1.1//EN" "http://www.w3.org/Graphics/SVG/1.1/DTD/svg11.dtd">
<svg version="1.1" id="图层_1" xmlns="http://www.w3.org/2000/svg" xmlns:xlink="http://www.w3.org/1999/xlink" x="0px" y="0px"
	 width="440.5px" height="230.5px" viewBox="0 0 440.5 230.5" enable-background="new 0 0 440.5 230.5" xml:space="preserve">
<g>
	<g>
		<path fill="#363435" d="M377.123,139.317c0.662,0.662,0.662,1.734,0,2.396c-0.659,0.663-1.731,0.663-2.396,0l-8.47-8.473
			c-0.662-0.662-0.662-1.732,0-2.395c0.658-0.662,1.73-0.662,2.396,0L377.123,139.317z"/>
		<path fill="#363435" d="M368.648,141.714c-0.66,0.663-1.732,0.663-2.394,0c-0.659-0.662-0.659-1.734,0-2.396l8.473-8.471
			c0.66-0.662,1.732-0.662,2.394,0c0.664,0.662,0.664,1.732,0,2.395L368.648,141.714z"/>
		<path fill="#363435" d="M358.957,163.053c-0.934,0.006-1.695-0.741-1.698-1.676c-0.009-0.929,0.739-1.689,1.669-1.696
			l39.173-0.415c0.935-0.005,1.694,0.744,1.699,1.674c0.01,0.932-0.739,1.693-1.671,1.701L358.957,163.053z"/>
		<path fill="#363435" d="M416.485,163.079c-0.932,0.031-1.718-0.697-1.748-1.628c-0.032-0.933,0.694-1.713,1.63-1.746l11.524-0.412
			c0.929-0.032,1.708,0.693,1.74,1.626c0.033,0.934-0.695,1.717-1.626,1.749L416.485,163.079z"/>
		<path fill="#363435" d="M392.53,198.054c-0.929,0.01-1.693-0.739-1.698-1.673c-0.006-0.931,0.742-1.692,1.674-1.701l39.172-0.41
			c0.93-0.008,1.69,0.744,1.7,1.675c0.006,0.933-0.741,1.689-1.674,1.699L392.53,198.054z"/>
		<path fill="#363435" d="M378.372,110.767c-0.932,0.008-1.699-0.747-1.702-1.679c-0.005-0.937,0.746-1.702,1.68-1.706l3.387-0.022
			c0.934-0.004,1.698,0.746,1.703,1.682c0.006,0.933-0.744,1.699-1.68,1.704L378.372,110.767L378.372,110.767z M435.916,106.99
			c0.936-0.004,1.698,0.75,1.707,1.682c0.005,0.934-0.748,1.698-1.681,1.705l-3.388,0.025c-0.937,0.006-1.698-0.746-1.705-1.684
			c-0.006-0.935,0.746-1.698,1.68-1.704L435.916,106.99L435.916,106.99z M422.371,107.082c0.937-0.003,1.698,0.75,1.707,1.684
			c0.003,0.934-0.748,1.699-1.683,1.704l-3.387,0.022c-0.934,0.009-1.697-0.748-1.704-1.68c-0.007-0.938,0.747-1.701,1.683-1.707
			L422.371,107.082L422.371,107.082z M408.824,107.177c0.936-0.006,1.701,0.745,1.706,1.682c0.005,0.934-0.749,1.698-1.682,1.702
			l-3.387,0.027c-0.934,0.004-1.695-0.75-1.7-1.685c-0.011-0.934,0.744-1.696,1.678-1.705L408.824,107.177L408.824,107.177z
			 M395.278,107.268c0.938-0.008,1.7,0.746,1.709,1.682c0.005,0.936-0.75,1.7-1.686,1.704l-3.378,0.021
			c-0.94,0.008-1.704-0.747-1.711-1.678c-0.009-0.935,0.749-1.702,1.682-1.708L395.278,107.268z"/>
	</g>
	<g>
		<g>
			<path fill="#363435" d="M90.06,106.626c0.62,0.619,0.62,1.625,0,2.245c-0.616,0.618-1.625,0.618-2.245,0l-7.939-7.943
				c-0.618-0.618-0.618-1.621,0-2.243c0.618-0.62,1.625-0.62,2.245,0L90.06,106.626z"/>
			<path fill="#363435" d="M82.12,108.871c-0.62,0.618-1.627,0.618-2.247,0c-0.615-0.62-0.615-1.625,0-2.245l7.942-7.941
				c0.62-0.62,1.626-0.62,2.245,0c0.621,0.622,0.621,1.626,0,2.243L82.12,108.871z"/>
		</g>
		<path fill="#363435" d="M3.633,154.937c-0.875,0.006-1.587-0.694-1.592-1.571c-0.009-0.871,0.693-1.584,1.567-1.592l36.712-0.389
			c0.876-0.005,1.588,0.699,1.594,1.568c0.006,0.88-0.697,1.589-1.569,1.597L3.633,154.937z"/>
		<path fill="#363435" d="M53.036,154.937c-0.873,0.029-1.606-0.652-1.639-1.528c-0.031-0.872,0.652-1.604,1.526-1.634l10.799-0.389
			c0.874-0.029,1.604,0.653,1.634,1.525c0.033,0.874-0.649,1.606-1.523,1.639L53.036,154.937z"/>
		<path fill="#363435" d="M57.244,134.225c-0.87,0.008-1.586-0.692-1.591-1.569c-0.006-0.871,0.694-1.586,1.568-1.594l36.714-0.385
			c0.871-0.007,1.583,0.697,1.594,1.569c0.006,0.871-0.696,1.586-1.568,1.591L57.244,134.225z"/>
		<path fill="#363435" d="M48.622,180.812c-0.875,0.008-1.592-0.699-1.596-1.575c-0.003-0.875,0.7-1.594,1.575-1.596l3.175-0.023
			c0.874-0.006,1.592,0.7,1.595,1.577c0.007,0.874-0.699,1.591-1.574,1.596L48.622,180.812L48.622,180.812z M102.552,177.273
			c0.879-0.005,1.594,0.702,1.599,1.577c0.008,0.873-0.699,1.59-1.576,1.597l-3.173,0.023c-0.877,0.005-1.591-0.699-1.596-1.576
			s0.697-1.595,1.573-1.598L102.552,177.273L102.552,177.273z M89.86,177.359c0.875-0.005,1.591,0.703,1.599,1.58
			c0.002,0.874-0.701,1.589-1.578,1.596l-3.172,0.021c-0.877,0.008-1.592-0.701-1.599-1.574c-0.005-0.878,0.703-1.593,1.576-1.599
			L89.86,177.359L89.86,177.359z M77.166,177.445c0.873-0.005,1.592,0.701,1.594,1.576c0.009,0.88-0.697,1.593-1.573,1.599
			l-3.174,0.024c-0.875,0.004-1.592-0.703-1.596-1.579c-0.008-0.875,0.7-1.59,1.573-1.596L77.166,177.445L77.166,177.445z
			 M64.467,177.533c0.878-0.005,1.594,0.699,1.599,1.576s-0.7,1.593-1.576,1.596l-3.17,0.021c-0.879,0.007-1.592-0.699-1.6-1.571
			c-0.005-0.877,0.701-1.595,1.578-1.6L64.467,177.533z"/>
	</g>
	
		<ellipse transform="matrix(0.9148 -0.4038 0.4038 0.9148 -34.5794 129.6295)" fill="#FFFFFF" stroke="#363435" stroke-width="3" stroke-miterlimit="10" cx="290.053" cy="146.8" rx="34.755" ry="17.569"/>
	<path fill="#FFFFFF" stroke="#363435" stroke-width="3" stroke-miterlimit="10" d="M138.815,111.457
		c-0.018,0.955-0.027,1.91-0.027,2.869c0,60.521,35.668,109.587,79.666,109.587c43.999,0,79.665-49.064,79.665-109.587
		c0-0.959-0.009-1.916-0.027-2.869H138.815z"/>
	<path fill="none" stroke="#363435" stroke-width="3" stroke-miterlimit="10" d="M190.152,20.753c0,0,15.567,5.13,15.109,21.156
		c-0.457,16.025-26.097,23.808-7.548,45.232"/>
	<path fill="none" stroke="#363435" stroke-width="3" stroke-miterlimit="10" d="M242.969,16.294c0,0,15.568,5.131,15.109,21.157
		c-0.455,16.025-26.098,23.809-7.549,45.23"/>
	<path fill="none" stroke="#363435" stroke-width="3" stroke-miterlimit="10" d="M214.607,2.271c0,0,15.567,5.966,15.109,24.595
		c-0.458,18.631-26.1,27.68-7.549,52.586"/>
	<path fill="#BCBEC0" d="M148.86,143.342c13.619,49.601,39.681,83.149,69.593,83.149c29.915,0,55.974-33.546,69.595-83.149H148.86
		L148.86,143.342z"/>
	<path fill="#E6E7E8" stroke="#363435" stroke-width="3" stroke-miterlimit="10" d="M293.556,202.084H143.351
		c-0.018,0.321,5.76,18.332,29.39,24.226h88.577C293.556,218.841,293.574,202.405,293.556,202.084z"/>
	<polygon fill="#F1F2F1" stroke="#363435" stroke-width="3" stroke-miterlimit="10" points="261.535,186.116 230.626,186.116 
		230.626,155.876 237.774,148.157 255.24,148.157 261.535,155.876 	"/>
	
		<line fill="none" stroke="#363435" stroke-width="3" stroke-miterlimit="10" x1="246.078" y1="111.457" x2="246.078" y2="161.756"/>
</g>
</svg>
