<?xml version="1.0" encoding="utf-8"?>
<!-- Generator: Adobe Illustrator 16.0.0, SVG Export Plug-In . SVG Version: 6.00 Build 0)  -->
<!DOCTYPE svg PUBLIC "-//W3C//DTD SVG 1.1//EN" "http://www.w3.org/Graphics/SVG/1.1/DTD/svg11.dtd">
<svg version="1.1" id="图层_1" xmlns="http://www.w3.org/2000/svg" xmlns:xlink="http://www.w3.org/1999/xlink" x="0px" y="0px"
	 width="50px" height="31.25px" viewBox="0 0 50 31.25" enable-background="new 0 0 50 31.25" xml:space="preserve">
<g>
	<path fill="#FAFAFB" d="M50.005,29.582c0,0.922-0.747,1.668-1.666,1.668H1.672c-0.92,0-1.667-0.746-1.667-1.668V1.666
		C0.005,0.746,0.751,0,1.672,0h46.667c0.919,0,1.666,0.746,1.666,1.666V29.582z"/>
	<g>
		<path fill="#004A97" d="M26.2,17.045c2.825,0.014,5.406-2.304,5.406-5.124c0-3.083-2.581-5.214-5.406-5.212h-2.432
			c-2.858-0.001-5.211,2.13-5.211,5.212c0,2.819,2.353,5.137,5.211,5.124H26.2z"/>
		<path fill="#FFFFFF" d="M24.854,14.667V9.068c1.124,0.432,1.924,1.521,1.926,2.799C26.778,13.145,25.979,14.234,24.854,14.667
			 M20.782,11.868c0.003-1.277,0.8-2.366,1.926-2.799v5.597C21.582,14.232,20.785,13.145,20.782,11.868 M23.782,7.136
			c-2.614,0.001-4.731,2.118-4.731,4.732c0,2.612,2.117,4.729,4.731,4.73c2.611-0.001,4.729-2.118,4.73-4.73
			C28.512,9.254,26.394,7.137,23.782,7.136"/>
		<path fill="#004A97" d="M13.271,20.57c0,0.422,0.301,0.471,0.568,0.471c1.181,0,1.568-0.891,1.568-1.705
			c0-1.021-0.656-1.758-1.71-1.758c-0.224,0-0.328,0.016-0.427,0.021V20.57z M12.736,18.008c0-0.49-0.256-0.459-0.501-0.463v-0.143
			c0.212,0.012,0.431,0.012,0.645,0.012c0.229,0,0.541-0.012,0.945-0.012c1.416,0,2.186,0.945,2.186,1.912
			c0,0.541-0.317,1.902-2.251,1.902c-0.278,0-0.537-0.012-0.792-0.012c-0.246,0-0.487,0.006-0.732,0.012v-0.143
			c0.327-0.033,0.486-0.043,0.501-0.416V18.008z"/>
		<path fill="#004A97" d="M16.787,17.877c-0.142,0-0.269-0.131-0.269-0.273c0-0.137,0.131-0.262,0.269-0.262
			c0.141,0,0.267,0.115,0.267,0.262C17.054,17.752,16.933,17.877,16.787,17.877 M16.201,21.074h0.104c0.152,0,0.262,0,0.262-0.18
			v-1.482c0-0.24-0.082-0.273-0.285-0.381v-0.088c0.257-0.076,0.564-0.18,0.585-0.197c0.039-0.021,0.071-0.027,0.099-0.027
			c0.026,0,0.038,0.033,0.038,0.076v2.1c0,0.18,0.12,0.18,0.273,0.18h0.093v0.143c-0.187,0-0.378-0.012-0.574-0.012
			c-0.198,0-0.394,0.006-0.596,0.012V21.074z"/>
		<path fill="#004A97" d="M17.89,19.445c0-0.201-0.061-0.256-0.316-0.359V18.98c0.234-0.074,0.458-0.146,0.721-0.262
			c0.017,0,0.032,0.012,0.032,0.055v0.355c0.312-0.223,0.58-0.41,0.946-0.41c0.463,0,0.628,0.338,0.628,0.766v1.41
			c0,0.18,0.121,0.18,0.273,0.18h0.098v0.143c-0.191,0-0.382-0.012-0.579-0.012c-0.196,0-0.394,0.006-0.59,0.012v-0.143h0.099
			c0.152,0,0.262,0,0.262-0.18v-1.416c0-0.313-0.19-0.465-0.502-0.465c-0.175,0-0.453,0.143-0.635,0.264v1.617
			c0,0.18,0.121,0.18,0.274,0.18h0.098v0.143c-0.19,0-0.383-0.012-0.579-0.012s-0.394,0.006-0.591,0.012v-0.143h0.1
			c0.152,0,0.262,0,0.262-0.18V19.445z"/>
		<path fill="#004A97" d="M21.654,19.533c0.137,0,0.152-0.07,0.152-0.137c0-0.279-0.168-0.502-0.476-0.502
			c-0.333,0-0.562,0.244-0.627,0.639H21.654z M20.687,19.709c-0.01,0.049-0.01,0.129,0,0.316c0.033,0.52,0.368,0.945,0.805,0.945
			c0.3,0,0.535-0.164,0.736-0.365l0.077,0.074c-0.251,0.336-0.563,0.619-1.011,0.619c-0.869,0-1.044-0.842-1.044-1.191
			c0-1.072,0.721-1.389,1.103-1.389c0.444,0,0.92,0.279,0.925,0.857c0,0.033,0,0.066-0.005,0.1l-0.051,0.033H20.687z"/>
		<path fill="#004A97" d="M22.403,21.074h0.147c0.152,0,0.263,0,0.263-0.18v-1.535c0-0.17-0.202-0.203-0.284-0.248v-0.08
			c0.397-0.17,0.617-0.313,0.667-0.313c0.032,0,0.048,0.018,0.048,0.072v0.49h0.012c0.136-0.213,0.366-0.563,0.699-0.563
			c0.137,0,0.312,0.094,0.312,0.289c0,0.148-0.104,0.279-0.257,0.279c-0.17,0-0.17-0.131-0.36-0.131
			c-0.094,0-0.399,0.125-0.399,0.453v1.285c0,0.18,0.109,0.18,0.263,0.18h0.305v0.143c-0.3-0.006-0.528-0.012-0.764-0.012
			c-0.225,0-0.454,0.006-0.65,0.012V21.074z"/>
		<path fill="#004A97" d="M24.507,20.457c0.072,0.359,0.29,0.666,0.689,0.666c0.321,0,0.44-0.195,0.44-0.389
			c0-0.645-1.19-0.436-1.19-1.316c0-0.307,0.246-0.699,0.848-0.699c0.175,0,0.409,0.049,0.623,0.158l0.038,0.557h-0.126
			c-0.054-0.344-0.245-0.539-0.596-0.539c-0.219,0-0.427,0.125-0.427,0.359c0,0.641,1.269,0.443,1.269,1.301
			c0,0.361-0.29,0.744-0.939,0.744c-0.22,0-0.477-0.076-0.666-0.186l-0.061-0.629L24.507,20.457z"/>
		<path fill="#004A97" d="M31.01,18.391h-0.138c-0.104-0.639-0.558-0.896-1.169-0.896c-0.628,0-1.541,0.42-1.541,1.732
			c0,1.104,0.787,1.896,1.628,1.896c0.542,0,0.99-0.371,1.1-0.945l0.125,0.033l-0.125,0.797c-0.229,0.143-0.848,0.291-1.208,0.291
			c-1.278,0-2.087-0.826-2.087-2.055c0-1.121,1-1.924,2.069-1.924c0.443,0,0.871,0.143,1.29,0.289L31.01,18.391z"/>
		<path fill="#004A97" d="M31.207,21.074h0.103c0.153,0,0.264,0,0.264-0.18V17.85c0-0.355-0.082-0.365-0.29-0.426v-0.086
			c0.219-0.072,0.448-0.17,0.563-0.236c0.059-0.033,0.104-0.061,0.119-0.061c0.033,0,0.045,0.033,0.045,0.076v3.777
			c0,0.18,0.119,0.18,0.273,0.18h0.091v0.143c-0.185,0-0.376-0.012-0.572-0.012c-0.195,0-0.394,0.006-0.595,0.012V21.074z"/>
		<path fill="#004A97" d="M34.714,20.916c0,0.1,0.061,0.104,0.154,0.104c0.064,0,0.146-0.004,0.218-0.004v0.113
			c-0.235,0.021-0.684,0.137-0.786,0.17l-0.028-0.018V20.84c-0.327,0.268-0.578,0.459-0.968,0.459c-0.294,0-0.601-0.191-0.601-0.65
			V19.25c0-0.143-0.021-0.279-0.327-0.307V18.84c0.197-0.006,0.634-0.039,0.705-0.039c0.061,0,0.061,0.039,0.061,0.158v1.41
			c0,0.164,0,0.633,0.476,0.633c0.185,0,0.431-0.141,0.66-0.332v-1.471c0-0.109-0.263-0.168-0.459-0.223v-0.1
			c0.492-0.031,0.798-0.076,0.853-0.076c0.043,0,0.043,0.039,0.043,0.1V20.916z"/>
		<path fill="#004A97" d="M35.802,20.6c0,0.207,0.196,0.557,0.563,0.557c0.585,0,0.83-0.574,0.83-1.061
			c0-0.59-0.446-1.082-0.873-1.082c-0.202,0-0.371,0.131-0.52,0.258V20.6z M35.802,19.111c0.218-0.186,0.514-0.393,0.814-0.393
			c0.633,0,1.017,0.553,1.017,1.146c0,0.717-0.524,1.434-1.308,1.434c-0.403,0-0.617-0.133-0.758-0.191l-0.164,0.125l-0.116-0.061
			c0.051-0.322,0.078-0.639,0.078-0.973v-2.35c0-0.355-0.082-0.365-0.29-0.426v-0.086c0.218-0.072,0.449-0.17,0.563-0.236
			c0.061-0.033,0.104-0.061,0.121-0.061c0.032,0,0.043,0.033,0.043,0.076V19.111z"/>
		<path fill="#004A97" d="M12.228,24.395h0.042c0.107,0,0.22-0.016,0.22-0.172v-1.557c0-0.154-0.112-0.17-0.22-0.17h-0.042v-0.088
			c0.116,0,0.295,0.01,0.44,0.01c0.148,0,0.327-0.01,0.466-0.01v0.088h-0.042c-0.106,0-0.22,0.016-0.22,0.17v1.557
			c0,0.156,0.114,0.172,0.22,0.172h0.042v0.088c-0.143,0-0.321-0.012-0.47-0.012c-0.145,0-0.321,0.012-0.437,0.012V24.395z"/>
		<path fill="#004A97" d="M13.122,24.471v-0.064h-0.028c-0.106,0-0.233-0.018-0.233-0.184v-1.557c0-0.164,0.127-0.182,0.233-0.182
			h0.028V22.42c-0.137,0-0.309,0.012-0.454,0.012c-0.141,0-0.312-0.01-0.427-0.012v0.064h0.028c0.106,0,0.233,0.018,0.233,0.182
			v1.557c0,0.166-0.127,0.184-0.233,0.184h-0.028v0.064c0.115-0.002,0.284-0.012,0.423-0.012
			C12.81,24.459,12.981,24.469,13.122,24.471 M13.134,24.496c-0.143,0-0.321-0.012-0.47-0.012c-0.145,0-0.319,0.012-0.437,0.012
			h-0.013v-0.014v-0.088v-0.014h0.013h0.042c0.107-0.004,0.206-0.012,0.208-0.158v-1.557c-0.001-0.146-0.1-0.154-0.208-0.156h-0.055
			v-0.014v-0.102h0.013c0.118,0,0.295,0.012,0.44,0.012c0.148,0,0.327-0.012,0.466-0.012h0.014v0.014v0.102h-0.014h-0.041
			c-0.108,0.002-0.207,0.01-0.207,0.156v1.557c0,0.146,0.099,0.154,0.207,0.158h0.055v0.014v0.102H13.134z"/>
		<path fill="#004A97" d="M15.178,23.896l0.006-0.006v-1.115c0-0.242-0.17-0.279-0.259-0.279h-0.065v-0.088
			c0.14,0,0.276,0.01,0.417,0.01c0.122,0,0.244-0.01,0.365-0.01v0.088h-0.044c-0.125,0-0.265,0.023-0.265,0.379v1.352
			c0,0.105,0.003,0.209,0.018,0.301h-0.113l-1.531-1.707v1.225c0,0.26,0.05,0.35,0.279,0.35h0.051v0.088
			c-0.128,0-0.257-0.012-0.384-0.012c-0.133,0-0.27,0.012-0.404,0.012v-0.088h0.042c0.205,0,0.267-0.141,0.267-0.379v-1.252
			c0-0.166-0.137-0.268-0.27-0.268h-0.039v-0.088c0.113,0,0.229,0.01,0.342,0.01c0.09,0,0.176-0.01,0.265-0.01L15.178,23.896z"/>
		<path fill="#004A97" d="M15.171,23.891L15.171,23.891l-0.004-0.004L15.171,23.891z M15.178,23.896l0.009-0.008L15.178,23.896z
			 M15.237,24.514h0.098c-0.014-0.09-0.017-0.188-0.017-0.287v-1.354c0-0.355,0.15-0.389,0.278-0.389h0.031V22.42
			c-0.117,0.002-0.234,0.012-0.352,0.012c-0.136,0-0.269-0.01-0.403-0.012v0.064h0.052c0.091,0,0.271,0.039,0.271,0.291L15.193,23.9
			l-0.006,0.006l-0.01,0.01l-1.322-1.496c-0.089,0-0.174,0.012-0.265,0.012c-0.109,0-0.221-0.01-0.33-0.012v0.064h0.027
			c0.139,0,0.283,0.105,0.283,0.279v1.252c0,0.238-0.066,0.391-0.28,0.391h-0.03v0.064c0.129-0.002,0.262-0.012,0.392-0.012
			c0.124,0,0.248,0.01,0.37,0.012v-0.064h-0.037c-0.234,0-0.292-0.102-0.292-0.361v-1.258L15.237,24.514z M15.35,24.539
			l-0.123-0.002l-1.509-1.684v1.191c0.003,0.26,0.042,0.332,0.267,0.336h0.063v0.014v0.102h-0.012c-0.129,0-0.257-0.012-0.384-0.012
			c-0.133,0-0.27,0.012-0.404,0.012h-0.013v-0.014v-0.102h0.013h0.042c0.197-0.002,0.252-0.127,0.255-0.365v-1.252
			c0-0.158-0.131-0.254-0.258-0.254h-0.052v-0.014v-0.102h0.013c0.114,0,0.23,0.012,0.342,0.012c0.088,0,0.175-0.012,0.274-0.008
			l1.308,1.473v-1.096c-0.002-0.236-0.16-0.264-0.247-0.266h-0.079v-0.014v-0.102h0.013c0.14,0,0.277,0.012,0.417,0.012
			c0.121,0,0.243-0.012,0.365-0.012h0.014v0.014v0.102h-0.014h-0.044c-0.123,0.004-0.249,0.014-0.252,0.363v1.354
			c0,0.105,0.003,0.209,0.018,0.299l0.003,0.014H15.35z"/>
		<path fill="#004A97" d="M16.086,22.557c-0.223,0-0.231,0.053-0.276,0.27h-0.089c0.012-0.082,0.027-0.166,0.036-0.252
			c0.011-0.084,0.018-0.166,0.018-0.252h0.07c0.024,0.088,0.099,0.086,0.179,0.086h1.534c0.081,0,0.154-0.004,0.16-0.094
			l0.072,0.014c-0.012,0.08-0.024,0.16-0.033,0.24c-0.006,0.08-0.006,0.16-0.006,0.24l-0.089,0.033
			c-0.006-0.109-0.021-0.285-0.22-0.285h-0.488v1.582c0,0.229,0.104,0.256,0.246,0.256h0.058v0.088
			c-0.116,0-0.325-0.012-0.485-0.012c-0.179,0-0.387,0.012-0.503,0.012v-0.088h0.056c0.165,0,0.247-0.016,0.247-0.25v-1.588H16.086z
			"/>
		<path fill="#004A97" d="M17.259,24.496c-0.117,0-0.325-0.012-0.485-0.012c-0.178,0-0.386,0.012-0.503,0.012h-0.012v-0.014v-0.102
			h0.012h0.056c0.165-0.004,0.231-0.006,0.234-0.236v-1.576h-0.475v-0.012v-0.014h0.501v1.602c0,0.238-0.097,0.262-0.26,0.262
			h-0.042v0.063c0.117,0,0.317-0.01,0.489-0.01c0.155,0,0.353,0.01,0.471,0.01v-0.063h-0.044c-0.144,0-0.259-0.035-0.259-0.268
			v-1.596h0.501c0.199,0,0.226,0.17,0.231,0.279l0.064-0.021c0-0.078,0.001-0.156,0.006-0.234c0.008-0.076,0.02-0.152,0.031-0.229
			L17.73,22.33c-0.015,0.088-0.098,0.092-0.172,0.09h-1.534H16.01c-0.071,0-0.147-0.002-0.174-0.086h-0.049
			c0,0.082-0.007,0.162-0.018,0.242c-0.008,0.08-0.023,0.158-0.033,0.238H15.8c0.04-0.207,0.065-0.275,0.287-0.271v0.014v0.012
			c-0.22,0.004-0.215,0.041-0.264,0.262l-0.002,0.01h-0.01h-0.104l0.002-0.016c0.012-0.084,0.027-0.166,0.036-0.252
			c0.012-0.082,0.018-0.166,0.018-0.25v-0.014h0.013h0.081l0.002,0.008c0.021,0.076,0.076,0.076,0.152,0.078h0.014h1.534
			c0.083-0.002,0.144-0.002,0.148-0.08v-0.014l0.014,0.002l0.084,0.014l-0.002,0.014c-0.012,0.078-0.023,0.16-0.032,0.238
			c-0.005,0.08-0.005,0.16-0.005,0.24v0.01l-0.009,0.002l-0.104,0.039l-0.002-0.018c-0.008-0.111-0.02-0.273-0.207-0.273h-0.475
			v1.57c0.002,0.225,0.092,0.238,0.232,0.242h0.07v0.014v0.102H17.259z"/>
		<path fill="#004A97" d="M17.886,24.395h0.042c0.106,0,0.22-0.016,0.22-0.172v-1.557c0-0.154-0.113-0.17-0.22-0.17h-0.042v-0.088
			c0.181,0,0.49,0.01,0.739,0.01c0.251,0,0.56-0.01,0.761-0.01c-0.005,0.127-0.002,0.324,0.007,0.453l-0.09,0.025
			c-0.014-0.193-0.049-0.348-0.362-0.348h-0.413v0.779h0.354c0.179,0,0.217-0.102,0.234-0.264h0.089
			c-0.006,0.117-0.009,0.232-0.009,0.35c0,0.113,0.003,0.225,0.009,0.338l-0.089,0.018c-0.018-0.178-0.026-0.293-0.231-0.293h-0.357
			v0.691c0,0.193,0.173,0.193,0.363,0.193c0.356,0,0.514-0.023,0.603-0.361l0.084,0.02c-0.039,0.158-0.075,0.314-0.101,0.473
			c-0.19,0-0.533-0.012-0.801-0.012c-0.267,0-0.62,0.012-0.79,0.012V24.395z"/>
		<path fill="#004A97" d="M19.465,24.469c0.025-0.148,0.061-0.299,0.097-0.449l-0.06-0.016c-0.089,0.334-0.261,0.363-0.611,0.361
			c-0.188,0-0.375,0-0.375-0.207v-0.705h0.369c0.207-0.002,0.229,0.123,0.242,0.293l0.065-0.014
			c-0.006-0.109-0.009-0.219-0.009-0.328c0-0.113,0.003-0.225,0.009-0.336h-0.065c-0.017,0.154-0.064,0.264-0.245,0.262h-0.366
			v-0.805h0.425c0.311-0.002,0.361,0.158,0.374,0.344l0.065-0.016c-0.006-0.086-0.011-0.193-0.011-0.291
			c0-0.051,0.002-0.1,0.003-0.143c-0.201,0.002-0.502,0.012-0.747,0.012c-0.243,0-0.545-0.01-0.728-0.012v0.064h0.03
			c0.105,0,0.231,0.018,0.232,0.182v1.557c-0.001,0.166-0.127,0.184-0.232,0.184h-0.03v0.063c0.174,0,0.518-0.01,0.778-0.01
			C18.939,24.459,19.272,24.469,19.465,24.469 M19.477,24.496c-0.192,0-0.533-0.012-0.801-0.012c-0.267,0-0.62,0.012-0.79,0.012
			h-0.014v-0.014v-0.088v-0.014h0.014h0.042c0.107-0.002,0.205-0.012,0.206-0.158v-1.557c-0.001-0.145-0.099-0.154-0.206-0.156
			h-0.056v-0.014v-0.102h0.014c0.182,0,0.49,0.012,0.739,0.012c0.251,0,0.56-0.012,0.761-0.012h0.014v0.014
			c-0.003,0.045-0.004,0.098-0.004,0.154c0,0.102,0.004,0.213,0.01,0.299v0.012l-0.01,0.002l-0.104,0.027l-0.002-0.016
			c-0.018-0.193-0.043-0.334-0.35-0.336h-0.4v0.754h0.342c0.171-0.002,0.201-0.09,0.222-0.25l0.001-0.012h0.012h0.103l-0.001,0.014
			c-0.006,0.115-0.009,0.23-0.009,0.348c0,0.111,0.003,0.225,0.009,0.338l0.001,0.01l-0.012,0.004l-0.103,0.02l-0.001-0.014
			c-0.021-0.182-0.021-0.281-0.219-0.283H18.54v0.68c0.001,0.182,0.157,0.18,0.351,0.182c0.357-0.004,0.5-0.02,0.59-0.354
			l0.004-0.012l0.012,0.002L19.592,24l-0.002,0.014c-0.039,0.156-0.075,0.314-0.101,0.471l-0.003,0.012H19.477z"/>
		<path fill="#004A97" d="M20.358,23.412h0.146c0.299,0,0.457-0.113,0.457-0.463c0-0.266-0.167-0.434-0.433-0.434
			c-0.091,0-0.128,0.008-0.17,0.01V23.412z M19.978,22.723c0-0.217-0.118-0.227-0.21-0.227h-0.054v-0.088
			c0.096,0,0.278,0.01,0.46,0.01c0.179,0,0.321-0.01,0.479-0.01c0.375,0,0.708,0.1,0.708,0.523c0,0.266-0.178,0.43-0.412,0.523
			l0.507,0.76c0.084,0.127,0.143,0.16,0.288,0.18v0.088c-0.098,0-0.192-0.012-0.291-0.012c-0.092,0-0.188,0.012-0.278,0.012
			c-0.229-0.301-0.427-0.621-0.619-0.963h-0.196v0.637c0,0.229,0.106,0.238,0.243,0.238h0.054v0.088
			c-0.169,0-0.342-0.012-0.512-0.012c-0.143,0-0.281,0.012-0.43,0.012v-0.088h0.054c0.109,0,0.21-0.051,0.21-0.162V22.723z"/>
		<path fill="#004A97" d="M20.504,23.398c0.294-0.002,0.442-0.104,0.445-0.449c-0.001-0.26-0.163-0.42-0.421-0.422
			c-0.081,0-0.119,0.006-0.157,0.01v0.861H20.504z M20.358,23.426h-0.013v-0.91l0.011-0.002c0.041-0.004,0.081-0.012,0.172-0.012
			c0.27,0,0.447,0.176,0.447,0.447c-0.002,0.355-0.172,0.477-0.472,0.477H20.358z M20.358,23.506h0.203l0.003,0.008
			c0.194,0.342,0.39,0.662,0.609,0.957c0.09,0,0.185-0.012,0.278-0.012c0.096,0,0.188,0.01,0.278,0.01v-0.064
			c-0.139-0.018-0.203-0.059-0.285-0.182l-0.518-0.773l0.015-0.008c0.231-0.092,0.405-0.25,0.405-0.51
			c0-0.414-0.32-0.51-0.695-0.512c-0.157,0-0.298,0.012-0.479,0.012c-0.175,0-0.351-0.01-0.448-0.012v0.064h0.042
			c0.092,0,0.224,0.014,0.224,0.238v1.51c0,0.121-0.113,0.174-0.224,0.174h-0.042v0.063c0.145,0,0.279-0.01,0.418-0.01
			c0.167,0,0.334,0.01,0.499,0.01v-0.063h-0.041c-0.135,0-0.256-0.016-0.256-0.252v-0.648H20.358z M21.743,24.496
			c-0.099,0-0.192-0.012-0.291-0.012c-0.091,0-0.186,0.012-0.289,0.006c-0.229-0.299-0.424-0.619-0.616-0.957h-0.176v0.621
			c0.003,0.225,0.093,0.223,0.23,0.227h0.066v0.014v0.102h-0.013c-0.17,0-0.343-0.012-0.512-0.012c-0.142,0-0.281,0.012-0.43,0.012
			h-0.015v-0.014v-0.102h0.015h0.054c0.106,0,0.197-0.047,0.197-0.148v-1.51c-0.003-0.211-0.105-0.211-0.197-0.213h-0.068v-0.014
			v-0.102h0.015c0.097,0,0.278,0.012,0.46,0.012c0.179,0,0.32-0.012,0.479-0.012c0.375,0.002,0.721,0.104,0.721,0.537
			c0,0.268-0.177,0.436-0.406,0.529l0.5,0.746c0.082,0.125,0.134,0.156,0.279,0.174l0.011,0.002v0.012v0.102H21.743z"/>
		<path fill="#004A97" d="M23.763,23.896l0.006-0.006v-1.115c0-0.242-0.17-0.279-0.259-0.279h-0.065v-0.088
			c0.14,0,0.277,0.01,0.417,0.01c0.122,0,0.242-0.01,0.366-0.01v0.088h-0.047c-0.124,0-0.264,0.023-0.264,0.379v1.352
			c0,0.105,0.003,0.209,0.018,0.301h-0.112l-1.531-1.707v1.225c0,0.26,0.051,0.35,0.28,0.35h0.05v0.088
			c-0.128,0-0.256-0.012-0.383-0.012c-0.135,0-0.271,0.012-0.405,0.012v-0.088h0.042c0.204,0,0.268-0.141,0.268-0.379v-1.252
			c0-0.166-0.137-0.268-0.271-0.268h-0.039v-0.088c0.112,0,0.229,0.01,0.342,0.01c0.088,0,0.176-0.01,0.265-0.01L23.763,23.896z"/>
		<path fill="#004A97" d="M23.756,23.891L23.756,23.891l-0.003-0.004L23.756,23.891z M23.763,23.896l0.009-0.008L23.763,23.896z
			 M23.822,24.514h0.098c-0.013-0.088-0.016-0.188-0.016-0.287v-1.354c0-0.355,0.15-0.389,0.276-0.389h0.032V22.42
			c-0.117,0.002-0.233,0.012-0.352,0.012c-0.137,0-0.27-0.01-0.404-0.012v0.064h0.053c0.092,0,0.272,0.039,0.272,0.291L23.777,23.9
			l-0.006,0.006l-0.01,0.01l-1.322-1.496c-0.088,0-0.174,0.012-0.265,0.012c-0.109,0-0.221-0.01-0.33-0.012v0.064h0.027
			c0.14,0,0.282,0.105,0.282,0.279v1.252c0,0.238-0.067,0.391-0.279,0.391h-0.03v0.063c0.13,0,0.262-0.01,0.392-0.01
			c0.126,0,0.25,0.01,0.372,0.01v-0.063h-0.037c-0.235,0-0.293-0.102-0.294-0.361v-1.258L23.822,24.514z M23.935,24.539
			l-0.122-0.002l-1.51-1.684v1.191c0.005,0.26,0.043,0.332,0.269,0.336h0.063v0.014v0.102H22.62c-0.129,0-0.255-0.012-0.384-0.012
			c-0.133,0-0.27,0.012-0.403,0.012H21.82v-0.014v-0.102h0.013h0.042c0.195,0,0.252-0.127,0.254-0.365v-1.252
			c0-0.158-0.13-0.254-0.257-0.254H21.82v-0.014v-0.102h0.013c0.114,0,0.23,0.012,0.342,0.012c0.088,0,0.174-0.012,0.272-0.008
			l1.309,1.473v-1.096c-0.001-0.236-0.16-0.264-0.246-0.266h-0.078v-0.014v-0.102h0.013c0.14,0,0.277,0.012,0.417,0.012
			c0.121,0,0.242-0.012,0.364-0.012h0.013v0.014v0.102h-0.013h-0.045c-0.121,0.002-0.247,0.014-0.25,0.363v1.354
			c0,0.105,0.003,0.207,0.017,0.299l0.002,0.014H23.935z"/>
		<path fill="#004A97" d="M25.14,22.74h-0.007l-0.275,0.842h0.555L25.14,22.74z M24.706,24.057c-0.032,0.102-0.066,0.18-0.066,0.232
			c0,0.09,0.125,0.105,0.222,0.105h0.033v0.088c-0.118-0.006-0.24-0.012-0.36-0.012c-0.106,0-0.213,0.006-0.32,0.012v-0.088h0.018
			c0.117,0,0.214-0.07,0.258-0.195l0.476-1.363c0.041-0.109,0.094-0.258,0.111-0.369c0.095-0.033,0.215-0.092,0.271-0.129
			c0.008-0.002,0.014-0.004,0.022-0.004s0.015,0,0.021,0.008c0.009,0.023,0.018,0.051,0.026,0.074l0.548,1.555
			c0.036,0.105,0.07,0.215,0.109,0.305c0.036,0.082,0.098,0.119,0.196,0.119h0.017v0.088c-0.132-0.006-0.267-0.012-0.409-0.012
			c-0.146,0-0.294,0.006-0.445,0.012v-0.088h0.033c0.066,0,0.184-0.012,0.184-0.086c0-0.039-0.026-0.121-0.061-0.215l-0.114-0.346
			H24.8L24.706,24.057z"/>
		<path fill="#004A97" d="M25.127,22.744l0.006-0.002L25.127,22.744z M24.873,23.568h0.521l-0.259-0.795L24.873,23.568z
			 M24.839,23.596l0.283-0.869h0.011h0.007v0.014h-0.004h0.004v-0.014h0.009l0.282,0.869H24.839z M25.446,24.469
			c0.146-0.006,0.292-0.01,0.433-0.01c0.139,0,0.267,0.004,0.396,0.01v-0.063h-0.004c-0.102,0.002-0.172-0.039-0.208-0.127
			c-0.039-0.09-0.075-0.199-0.11-0.303l-0.547-1.557c-0.01-0.023-0.019-0.051-0.025-0.07c-0.003-0.004-0.002-0.004-0.005-0.004
			H25.37c-0.006,0-0.01,0.002-0.018,0.004c-0.056,0.037-0.176,0.096-0.264,0.119c-0.019,0.111-0.073,0.26-0.11,0.371l-0.476,1.365
			c-0.045,0.129-0.15,0.201-0.271,0.201h-0.004v0.063c0.102-0.006,0.204-0.01,0.309-0.01c0.115,0,0.231,0.004,0.346,0.01v-0.063
			h-0.021c-0.097-0.002-0.232-0.012-0.234-0.117c0-0.059,0.035-0.135,0.065-0.236l0.014,0.004l-0.014-0.004l0.097-0.316h0.695
			l0.118,0.354c0.033,0.096,0.061,0.174,0.061,0.219c-0.005,0.09-0.13,0.096-0.197,0.098h-0.02V24.469z M26.288,24.496
			c-0.134-0.006-0.267-0.012-0.409-0.012c-0.146,0-0.294,0.006-0.445,0.012h-0.013v-0.014v-0.102h0.013h0.032
			c0.068,0,0.171-0.018,0.171-0.072c0-0.035-0.025-0.117-0.059-0.211l-0.114-0.336h-0.655l-0.091,0.299
			c-0.03,0.102-0.066,0.182-0.066,0.229c0.001,0.074,0.112,0.092,0.21,0.092h0.046v0.014v0.102h-0.013
			c-0.119-0.006-0.24-0.012-0.358-0.012c-0.107,0-0.215,0.006-0.32,0.012h-0.015v-0.014v-0.102h0.013h0.018
			c0.111,0,0.203-0.064,0.246-0.186l0.477-1.363c0.038-0.111,0.092-0.26,0.118-0.377c0.094-0.033,0.212-0.092,0.27-0.129
			c0.01-0.002,0.017-0.006,0.028-0.006c0.008,0,0.024,0.002,0.033,0.018c0.009,0.023,0.018,0.051,0.027,0.074l0.547,1.555
			c0.036,0.105,0.071,0.215,0.11,0.303c0.033,0.078,0.088,0.111,0.184,0.111h0.03v0.014v0.102H26.288z"/>
		<path fill="#004A97" d="M26.42,22.557c-0.223,0-0.232,0.053-0.277,0.27h-0.089c0.013-0.082,0.027-0.166,0.036-0.252
			c0.013-0.084,0.019-0.166,0.019-0.252h0.07c0.023,0.088,0.1,0.086,0.179,0.086h1.534c0.08,0,0.155-0.004,0.161-0.094l0.07,0.014
			c-0.011,0.08-0.022,0.16-0.031,0.24c-0.007,0.08-0.007,0.16-0.007,0.24l-0.09,0.033c-0.006-0.109-0.021-0.285-0.219-0.285h-0.487
			v1.582c0,0.229,0.104,0.256,0.246,0.256h0.057v0.088c-0.117,0-0.324-0.012-0.484-0.012c-0.179,0-0.387,0.012-0.503,0.012v-0.088
			h0.056c0.165,0,0.248-0.016,0.248-0.25v-1.588H26.42z"/>
		<path fill="#004A97" d="M27.592,24.496c-0.117,0-0.324-0.012-0.484-0.012c-0.178,0-0.387,0.012-0.503,0.012h-0.014v-0.014v-0.102
			h0.014h0.056c0.165-0.004,0.23-0.006,0.235-0.236l-0.002-1.576H26.42v-0.012v-0.014h0.501v1.602c0,0.238-0.096,0.262-0.261,0.262
			h-0.043v0.064c0.117-0.002,0.317-0.012,0.49-0.012c0.154,0,0.354,0.01,0.472,0.012v-0.064h-0.044
			c-0.144,0-0.259-0.035-0.259-0.268v-1.596h0.5c0.2,0,0.225,0.17,0.231,0.279l0.063-0.021c0-0.078,0.002-0.156,0.008-0.234
			c0.007-0.076,0.019-0.152,0.03-0.229l-0.047-0.008c-0.013,0.088-0.096,0.092-0.171,0.09h-1.534h-0.014
			c-0.071,0.002-0.147-0.002-0.174-0.086h-0.049c-0.001,0.082-0.007,0.162-0.019,0.242c-0.007,0.082-0.021,0.16-0.033,0.238h0.063
			c0.039-0.207,0.064-0.275,0.287-0.271v0.014v0.012c-0.221,0.004-0.215,0.041-0.264,0.262l-0.002,0.01h-0.012h-0.104l0.002-0.014
			c0.013-0.086,0.027-0.168,0.035-0.254c0.014-0.082,0.02-0.166,0.02-0.25v-0.014h0.013h0.081l0.001,0.008
			c0.021,0.076,0.076,0.076,0.153,0.078c0.004,0,0.008,0,0.014,0h1.534c0.082-0.002,0.143-0.002,0.148-0.08v-0.014l0.015,0.002
			l0.085,0.014l-0.003,0.014c-0.014,0.078-0.023,0.16-0.033,0.238c-0.006,0.08-0.006,0.16-0.006,0.24v0.01l-0.009,0.002
			l-0.105,0.039v-0.018c-0.007-0.111-0.02-0.273-0.207-0.273h-0.475v1.57c0.003,0.225,0.091,0.238,0.233,0.242h0.069v0.014v0.102
			H27.592z"/>
		<path fill="#004A97" d="M28.233,24.395h0.041c0.108,0,0.22-0.016,0.22-0.172v-1.557c0-0.154-0.111-0.17-0.22-0.17h-0.041v-0.088
			c0.116,0,0.294,0.01,0.439,0.01c0.149,0,0.328-0.01,0.467-0.01v0.088H29.1c-0.108,0-0.221,0.016-0.221,0.17v1.557
			c0,0.156,0.112,0.172,0.221,0.172h0.04v0.088c-0.143,0-0.32-0.012-0.47-0.012c-0.146,0-0.32,0.012-0.437,0.012V24.395z"/>
		<path fill="#004A97" d="M29.127,24.469v-0.063H29.1c-0.106,0-0.233-0.018-0.233-0.184v-1.557c0-0.164,0.127-0.182,0.233-0.182
			h0.027V22.42c-0.137,0.002-0.309,0.012-0.454,0.012c-0.142,0-0.312-0.01-0.427-0.012v0.064h0.028c0.105,0,0.234,0.018,0.234,0.182
			v1.557c0,0.166-0.129,0.184-0.234,0.184h-0.028v0.063c0.115,0,0.282-0.01,0.424-0.01C28.815,24.459,28.987,24.469,29.127,24.469
			 M29.14,24.496c-0.145,0-0.321-0.012-0.47-0.012c-0.146,0-0.32,0.012-0.437,0.012H28.22v-0.014v-0.088v-0.014h0.014h0.041
			c0.108-0.002,0.207-0.012,0.207-0.158v-1.557c0-0.145-0.099-0.154-0.207-0.156H28.22v-0.014v-0.102h0.014
			c0.116,0,0.295,0.012,0.439,0.012c0.148,0,0.325-0.012,0.467-0.012h0.013v0.014v0.102H29.14H29.1
			c-0.109,0.002-0.208,0.012-0.209,0.156v1.557c0.001,0.146,0.1,0.156,0.209,0.158h0.053v0.014v0.102H29.14z"/>
		<path fill="#004A97" d="M30.371,24.396c0.578,0,0.677-0.51,0.677-0.941c0-0.436-0.233-0.961-0.728-0.961
			c-0.521,0-0.675,0.463-0.675,0.861C29.646,23.887,29.89,24.396,30.371,24.396 M30.326,22.363c0.634,0,1.139,0.393,1.139,1.025
			c0,0.684-0.49,1.139-1.123,1.139c-0.631,0-1.112-0.428-1.112-1.066C29.229,22.842,29.708,22.363,30.326,22.363"/>
		<path fill="#004A97" d="M29.631,23.355c0.002-0.4,0.159-0.875,0.689-0.875c0.505,0.002,0.741,0.537,0.741,0.975
			c0,0.432-0.103,0.953-0.69,0.953v-0.012v-0.014c0.564,0,0.664-0.496,0.664-0.928s-0.232-0.947-0.715-0.949
			c-0.511,0.002-0.66,0.453-0.662,0.85c0,0.529,0.242,1.027,0.713,1.027v0.014v0.012C29.878,24.408,29.633,23.891,29.631,23.355
			 M29.216,23.461c0.002-0.627,0.486-1.109,1.11-1.111v0.014v0.014c-0.611,0-1.086,0.471-1.086,1.084
			c0.002,0.631,0.476,1.053,1.102,1.053s1.11-0.447,1.111-1.125c-0.001-0.625-0.499-1.012-1.127-1.012v-0.014V22.35
			c0.639,0,1.15,0.398,1.151,1.039c0,0.691-0.497,1.15-1.136,1.15C29.705,24.539,29.218,24.105,29.216,23.461"/>
		<path fill="#004A97" d="M33.469,23.896l0.007-0.006v-1.115c0-0.242-0.17-0.279-0.261-0.279h-0.063v-0.088
			c0.14,0,0.276,0.01,0.415,0.01c0.123,0,0.243-0.01,0.366-0.01v0.088h-0.045c-0.125,0-0.265,0.023-0.265,0.379v1.352
			c0,0.105,0.003,0.209,0.019,0.301h-0.112l-1.532-1.707v1.225c0,0.26,0.05,0.35,0.279,0.35h0.051v0.088
			c-0.129,0-0.256-0.012-0.384-0.012c-0.134,0-0.271,0.012-0.405,0.012v-0.088h0.042c0.206,0,0.269-0.141,0.269-0.379v-1.252
			c0-0.166-0.138-0.268-0.27-0.268h-0.041v-0.088c0.114,0,0.229,0.01,0.342,0.01c0.09,0,0.176-0.01,0.266-0.01L33.469,23.896z"/>
		<path fill="#004A97" d="M33.461,23.891L33.461,23.891l-0.001-0.004L33.461,23.891z M33.469,23.896l0.01-0.008L33.469,23.896z
			 M33.529,24.514h0.097c-0.014-0.09-0.015-0.188-0.015-0.287v-1.354c0-0.357,0.149-0.389,0.276-0.389h0.032V22.42
			c-0.117,0.002-0.235,0.012-0.354,0.012c-0.136,0-0.269-0.01-0.402-0.012v0.064h0.051c0.092,0,0.272,0.041,0.272,0.291L33.484,23.9
			l-0.006,0.006l-0.01,0.01l-1.323-1.496c-0.087,0-0.175,0.012-0.266,0.012c-0.108,0-0.221-0.01-0.328-0.012v0.064h0.027
			c0.138,0,0.282,0.105,0.282,0.279v1.252c0,0.238-0.066,0.391-0.281,0.391h-0.028v0.063c0.129,0,0.262-0.01,0.392-0.01
			c0.125,0,0.248,0.01,0.37,0.01v-0.063h-0.037c-0.233,0-0.293-0.102-0.293-0.361v-1.258L33.529,24.514z M33.642,24.539
			l-0.123-0.002l-1.511-1.684v1.191c0.005,0.26,0.045,0.332,0.269,0.336h0.063v0.014v0.102h-0.013c-0.129,0-0.257-0.012-0.384-0.012
			c-0.133,0-0.27,0.012-0.405,0.012h-0.012v-0.014v-0.102h0.012h0.042c0.197-0.002,0.252-0.127,0.255-0.365v-1.252
			c0-0.158-0.13-0.254-0.256-0.254h-0.053v-0.014v-0.102h0.012c0.115,0,0.23,0.012,0.342,0.012c0.09,0,0.175-0.012,0.275-0.008
			l1.306,1.473v-1.096c0-0.236-0.158-0.264-0.246-0.266h-0.078v-0.014v-0.102h0.015c0.14,0,0.276,0.012,0.415,0.012
			c0.121,0,0.243-0.012,0.366-0.012h0.013v0.014v0.102h-0.013h-0.045c-0.122,0.004-0.249,0.014-0.251,0.363v1.354
			c0,0.105,0.002,0.209,0.017,0.299l0.003,0.014H33.642z"/>
		<path fill="#004A97" d="M34.845,22.74h-0.006l-0.276,0.842h0.557L34.845,22.74z M34.411,24.057
			c-0.03,0.102-0.066,0.18-0.066,0.232c0,0.09,0.126,0.105,0.224,0.105h0.033v0.088c-0.12-0.006-0.241-0.012-0.36-0.012
			c-0.106,0-0.215,0.006-0.32,0.012v-0.088h0.016c0.117,0,0.217-0.07,0.26-0.195l0.476-1.363c0.039-0.109,0.094-0.258,0.109-0.369
			c0.097-0.033,0.215-0.092,0.271-0.129c0.009-0.002,0.016-0.004,0.024-0.004s0.015,0,0.021,0.008
			c0.008,0.023,0.019,0.051,0.027,0.074l0.546,1.555c0.036,0.105,0.072,0.215,0.111,0.305c0.034,0.082,0.098,0.119,0.195,0.119
			h0.018v0.088c-0.133-0.006-0.267-0.012-0.41-0.012c-0.146,0-0.295,0.006-0.446,0.012v-0.088h0.033
			c0.068,0,0.185-0.012,0.185-0.086c0-0.039-0.027-0.121-0.061-0.215l-0.115-0.346h-0.675L34.411,24.057z"/>
		<path fill="#004A97" d="M34.833,22.744l0.006-0.002L34.833,22.744z M34.581,23.568h0.52l-0.26-0.795L34.581,23.568z
			 M34.544,23.596l0.285-0.869h0.01h0.006v0.014h-0.003h0.003v-0.014h0.011l0.279,0.869H34.544z M35.152,24.469
			c0.146-0.006,0.291-0.01,0.433-0.01c0.138,0,0.268,0.004,0.397,0.01v-0.063h-0.005c-0.101,0-0.171-0.039-0.209-0.127
			c-0.038-0.09-0.073-0.199-0.109-0.303l-0.548-1.557c-0.008-0.023-0.017-0.051-0.024-0.07c-0.003-0.004-0.003-0.004-0.004-0.004
			h-0.006c-0.007,0-0.01,0.002-0.018,0.004c-0.058,0.037-0.176,0.096-0.265,0.119c-0.018,0.111-0.072,0.26-0.11,0.371l-0.476,1.365
			c-0.046,0.129-0.149,0.201-0.272,0.201h-0.004v0.063c0.104-0.006,0.205-0.01,0.309-0.01c0.115,0,0.233,0.004,0.346,0.01v-0.063
			h-0.019c-0.097-0.002-0.232-0.012-0.236-0.117c0.001-0.059,0.037-0.135,0.066-0.236l0.013,0.004l-0.013-0.004l0.098-0.316h0.693
			l0.12,0.354c0.033,0.096,0.059,0.174,0.059,0.219c-0.004,0.09-0.13,0.096-0.196,0.098h-0.02V24.469z M35.995,24.496
			c-0.134-0.006-0.268-0.012-0.41-0.012c-0.145,0-0.293,0.006-0.446,0.012h-0.013v-0.014v-0.102h0.013h0.033
			c0.069,0,0.172-0.018,0.172-0.072c0-0.035-0.027-0.115-0.059-0.211l-0.114-0.336h-0.656l-0.092,0.299
			c-0.029,0.102-0.065,0.182-0.063,0.229c0,0.074,0.109,0.092,0.209,0.092h0.045v0.014v0.102H34.6
			c-0.119-0.006-0.24-0.012-0.358-0.012c-0.106,0-0.214,0.006-0.32,0.012h-0.013v-0.014v-0.102h0.013h0.016
			c0.113,0,0.205-0.064,0.248-0.186l0.476-1.363c0.038-0.111,0.093-0.26,0.117-0.377c0.095-0.033,0.213-0.092,0.271-0.129
			c0.009-0.002,0.017-0.006,0.029-0.006c0.007,0,0.023,0.002,0.031,0.018c0.011,0.023,0.02,0.051,0.027,0.074l0.548,1.555
			c0.035,0.105,0.071,0.215,0.11,0.303c0.034,0.078,0.089,0.111,0.184,0.111h0.03v0.014v0.102H35.995z"/>
		<path fill="#004A97" d="M36.745,24.191c0,0.119,0.082,0.154,0.177,0.166c0.123,0.01,0.257,0.01,0.394-0.006
			c0.126-0.016,0.232-0.086,0.286-0.16c0.047-0.066,0.073-0.148,0.092-0.215h0.085c-0.031,0.17-0.073,0.338-0.109,0.506
			c-0.261,0-0.523-0.012-0.784-0.012c-0.263,0-0.523,0.012-0.786,0.012v-0.088h0.042c0.107,0,0.224-0.016,0.224-0.201v-1.527
			c0-0.154-0.116-0.17-0.224-0.17h-0.042v-0.088c0.157,0,0.313,0.01,0.471,0.01c0.151,0,0.3-0.01,0.452-0.01v0.088h-0.075
			c-0.112,0-0.201,0.004-0.201,0.162V24.191z"/>
		<path fill="#004A97" d="M37.659,24.469c0.033-0.16,0.073-0.318,0.104-0.479h-0.062c-0.019,0.064-0.045,0.145-0.091,0.209
			c-0.055,0.076-0.166,0.15-0.296,0.166c-0.077,0.008-0.154,0.012-0.228,0.012c-0.057,0-0.112-0.002-0.166-0.006
			c-0.098-0.01-0.191-0.053-0.191-0.18v-1.533c0-0.166,0.105-0.174,0.216-0.174h0.061V22.42c-0.146,0.002-0.289,0.012-0.438,0.012
			c-0.154,0-0.305-0.01-0.457-0.012v0.064h0.028c0.105,0,0.236,0.018,0.236,0.182v1.527c0,0.193-0.129,0.213-0.236,0.213h-0.028
			v0.063c0.256,0,0.513-0.01,0.772-0.01C37.143,24.459,37.4,24.469,37.659,24.469 M37.669,24.496c-0.263,0-0.523-0.012-0.784-0.012
			s-0.523,0.012-0.786,0.012h-0.013v-0.014v-0.102h0.013h0.042c0.107-0.004,0.209-0.01,0.211-0.188v-1.527
			c-0.002-0.145-0.104-0.154-0.211-0.156h-0.055v-0.014v-0.102h0.013c0.157,0,0.313,0.012,0.471,0.012
			c0.151,0,0.3-0.012,0.452-0.012h0.012v0.014v0.102h-0.012h-0.075c-0.115,0.002-0.187-0.002-0.189,0.148v1.533
			c0.001,0.111,0.073,0.141,0.167,0.152c0.052,0.004,0.107,0.008,0.164,0.008c0.073,0,0.148-0.004,0.227-0.012
			c0.119-0.016,0.225-0.084,0.276-0.156c0.045-0.063,0.071-0.145,0.09-0.209l0.003-0.01h0.009h0.102l-0.001,0.016
			c-0.035,0.17-0.075,0.336-0.111,0.504l-0.003,0.012H37.669z"/>
	</g>
</g>
</svg>
