<?xml version="1.0" encoding="utf-8"?>
<!-- Generator: Adobe Illustrator 16.0.0, SVG Export Plug-In . SVG Version: 6.00 Build 0)  -->
<!DOCTYPE svg PUBLIC "-//W3C//DTD SVG 1.1//EN" "http://www.w3.org/Graphics/SVG/1.1/DTD/svg11.dtd">
<svg version="1.1" id="图层_1" xmlns="http://www.w3.org/2000/svg" xmlns:xlink="http://www.w3.org/1999/xlink" x="0px" y="0px"
	 width="50px" height="31.25px" viewBox="0 0 50 31.25" enable-background="new 0 0 50 31.25" xml:space="preserve">
<g>
	<path fill="#FAFAFB" d="M50.096,29.635c0,0.922-0.745,1.667-1.666,1.667H1.763c-0.92,0-1.667-0.745-1.667-1.667V1.718
		c0-0.921,0.747-1.667,1.667-1.667H48.43c0.921,0,1.666,0.746,1.666,1.667V29.635z"/>
	<path fill="#EB7F26" d="M13.84,31.302H48.43c0.921,0,1.666-0.745,1.666-1.667v-11.7C46.777,20.039,34.262,27.294,13.84,31.302z"/>
	<g>
		
			<radialGradient id="SVGID_1_" cx="19.2881" cy="-470.4043" r="2.4635" gradientTransform="matrix(1 0 0 1 6.416 486.083)" gradientUnits="userSpaceOnUse">
			<stop  offset="0.0056" style="stop-color:#FDEDDF"/>
			<stop  offset="0.1103" style="stop-color:#FCE8D6"/>
			<stop  offset="0.2811" style="stop-color:#FADABE"/>
			<stop  offset="0.4968" style="stop-color:#F6C396"/>
			<stop  offset="0.7483" style="stop-color:#F0A361"/>
			<stop  offset="1" style="stop-color:#EA7E27"/>
		</radialGradient>
		<path fill="url(#SVGID_1_)" d="M25.707,13.243c-1.379,0-2.495,1.076-2.495,2.404c0,1.412,1.068,2.467,2.495,2.467
			c1.39,0,2.488-1.068,2.488-2.439C28.195,14.313,27.104,13.243,25.707,13.243z"/>
		<path fill="#001721" d="M11.542,13.33H10.2v4.68h1.334c0.708,0,1.22-0.167,1.669-0.539c0.532-0.443,0.849-1.11,0.849-1.798
			C14.053,14.292,13.021,13.33,11.542,13.33z M12.608,16.845c-0.289,0.261-0.66,0.373-1.25,0.373h-0.245v-3.095h0.245
			c0.59,0,0.946,0.105,1.25,0.378c0.315,0.281,0.503,0.716,0.503,1.165C13.112,16.115,12.924,16.565,12.608,16.845z"/>
		<rect x="14.474" y="13.33" fill="#001721" width="0.913" height="4.68"/>
		<path fill="#001721" d="M17.618,15.125c-0.548-0.202-0.709-0.336-0.709-0.589c0-0.294,0.286-0.518,0.68-0.518
			c0.274,0,0.499,0.112,0.737,0.377l0.477-0.623c-0.393-0.344-0.863-0.52-1.375-0.52c-0.827,0-1.459,0.575-1.459,1.34
			c0,0.646,0.295,0.977,1.151,1.283c0.358,0.127,0.54,0.211,0.631,0.268c0.182,0.12,0.274,0.288,0.274,0.483
			c0,0.38-0.302,0.661-0.709,0.661c-0.435,0-0.786-0.217-0.996-0.625l-0.589,0.569c0.42,0.616,0.926,0.891,1.621,0.891
			c0.947,0,1.613-0.631,1.613-1.537C18.964,15.842,18.656,15.504,17.618,15.125z"/>
		<path fill="#001721" d="M19.251,15.672c0,1.376,1.081,2.442,2.47,2.442c0.394,0,0.73-0.077,1.145-0.271v-1.075
			c-0.366,0.365-0.688,0.511-1.103,0.511c-0.919,0-1.572-0.667-1.572-1.614c0-0.897,0.674-1.606,1.53-1.606
			c0.435,0,0.765,0.154,1.145,0.526v-1.074c-0.4-0.203-0.731-0.287-1.123-0.287C20.36,13.225,19.251,14.313,19.251,15.672z"/>
		<polygon fill="#001721" points="30.26,16.474 29.012,13.33 28.015,13.33 30.001,18.129 30.492,18.129 32.514,13.33 31.523,13.33 
					"/>
		<polygon fill="#001721" points="32.927,18.01 35.516,18.01 35.516,17.218 33.839,17.218 33.839,15.954 35.452,15.954 
			35.452,15.162 33.839,15.162 33.839,14.123 35.516,14.123 35.516,13.33 32.927,13.33 		"/>
		<path fill="#001721" d="M39.13,14.711c0-0.877-0.604-1.381-1.656-1.381h-1.355v4.68h0.913v-1.88h0.12l1.262,1.88h1.122
			l-1.475-1.972C38.749,15.898,39.13,15.428,39.13,14.711z M37.296,15.484h-0.265v-1.417h0.281c0.567,0,0.879,0.24,0.879,0.694
			C38.191,15.231,37.88,15.484,37.296,15.484z"/>
		<path fill="#221F20" d="M39.771,13.679c0-0.082-0.054-0.127-0.154-0.127h-0.132v0.412h0.097v-0.16l0.115,0.16h0.122l-0.138-0.17
			C39.74,13.779,39.771,13.736,39.771,13.679z M39.6,13.735h-0.018v-0.107h0.02c0.048,0,0.073,0.017,0.073,0.052
			C39.675,13.716,39.647,13.735,39.6,13.735z"/>
		<path fill="#221F20" d="M39.637,13.397c-0.2,0-0.36,0.161-0.36,0.36c0,0.199,0.16,0.359,0.36,0.359
			c0.195,0,0.355-0.162,0.355-0.359C39.992,13.56,39.832,13.397,39.637,13.397z M39.636,14.053c-0.158,0-0.288-0.131-0.288-0.295
			c0-0.165,0.128-0.295,0.288-0.295c0.155,0,0.284,0.133,0.284,0.295C39.92,13.92,39.791,14.053,39.636,14.053z"/>
	</g>
</g>
</svg>
