<?xml version="1.0" encoding="utf-8"?>
<!-- Generator: Adobe Illustrator 16.0.0, SVG Export Plug-In . SVG Version: 6.00 Build 0)  -->
<!DOCTYPE svg PUBLIC "-//W3C//DTD SVG 1.1//EN" "http://www.w3.org/Graphics/SVG/1.1/DTD/svg11.dtd">
<svg version="1.1" id="图层_1" xmlns="http://www.w3.org/2000/svg" xmlns:xlink="http://www.w3.org/1999/xlink" x="0px" y="0px"
	 width="50px" height="50px" viewBox="0 0 50 50" enable-background="new 0 0 50 50" xml:space="preserve">
<g>
	<g>
		<path fill="#CCCCCC" d="M40.04,47.01c0,1.375-1.113,2.49-2.489,2.49H13.078c-1.375,0-2.49-1.115-2.49-2.49V2.991
			c0-1.375,1.115-2.491,2.49-2.491h24.473c1.376,0,2.489,1.116,2.489,2.491V47.01z"/>
		<rect x="10.588" y="5.321" fill="#0C3547" width="29.452" height="36.802"/>
		<rect x="11.883" y="6.9" fill="#166385" width="26.861" height="33.642"/>
		<path opacity="0.3" fill="#FFFFFF" d="M21.135,29.751c5.87-5.871,11.739-11.74,17.609-17.611V6.9h-4.058L11.883,29.701V39
			C14.968,35.918,18.052,32.834,21.135,29.751z"/>
		<path opacity="0.2" fill="#FFFFFF" d="M38.744,31.755v-9.983c-6.258,6.258-12.516,12.515-18.772,18.771h9.984
			C32.885,37.613,35.814,34.684,38.744,31.755z"/>
		<path fill="#808080" d="M28.888,3.168c0,0.189-0.153,0.343-0.342,0.343h-6.462c-0.189,0-0.343-0.154-0.343-0.343l0,0
			c0-0.19,0.153-0.343,0.343-0.343h6.462C28.734,2.825,28.888,2.978,28.888,3.168L28.888,3.168z"/>
		<circle fill="#999999" cx="25.314" cy="45.883" r="2.322"/>
		<circle fill="#808080" cx="25.313" cy="45.883" r="1.966"/>
		<circle fill="#B3B3B3" cx="25.313" cy="45.883" r="1.792"/>
	</g>
	<path opacity="0.4" d="M37.551,0.5H25.384v49h12.167c1.376,0,2.489-1.115,2.489-2.49V2.991C40.04,1.616,38.927,0.5,37.551,0.5z"/>
</g>
</svg>
