<?xml version="1.0" encoding="utf-8"?>
<!-- Generator: Adobe Illustrator 16.0.0, SVG Export Plug-In . SVG Version: 6.00 Build 0)  -->
<!DOCTYPE svg PUBLIC "-//W3C//DTD SVG 1.1//EN" "http://www.w3.org/Graphics/SVG/1.1/DTD/svg11.dtd">
<svg version="1.1" id="图层_1" xmlns="http://www.w3.org/2000/svg" xmlns:xlink="http://www.w3.org/1999/xlink" x="0px" y="0px"
	 width="110px" height="140px" viewBox="0 0 110 140" enable-background="new 0 0 110 140" xml:space="preserve">
<g>
	<path fill="#FDD835" d="M109.73,90.49c0,10.627-8.613,19.24-19.24,19.24H19.51c-10.626,0-19.241-8.613-19.241-19.24V19.51
		c0-10.627,8.615-19.241,19.241-19.241h70.98c10.627,0,19.24,8.614,19.24,19.241V90.49z"/>
	<g>
		<path fill="#333333" d="M49.31,85.053v-9.471c-4.631-1.225-8.895-3.367-12.792-6.415c-3.185-2.855-5.255-5.24-6.22-7.137
			c-1.307-2.085-2.338-4.385-3.084-6.898c-0.861-2.673-1.289-6.309-1.289-10.906V27.299h11.629v17.447
			c0,5.08,0.995,8.997,2.976,11.753c0.395,0.88,1.678,2.283,3.843,4.211c3.238,2.538,6.782,3.804,10.626,3.804
			c3.853,0,7.392-1.266,10.63-3.804c2.166-1.928,3.449-3.331,3.844-4.211c1.98-2.756,2.977-6.674,2.977-11.753V27.299h11.625v16.927
			c0,4.598-0.418,8.233-1.279,10.906c-0.719,2.513-1.756,4.813-3.094,6.898c-0.951,1.897-3.02,4.279-6.172,7.137
			c-3.928,3.047-8.213,5.19-12.828,6.415v9.471H49.31L49.31,85.053z"/>
	</g>
</g>
<g>
	<path fill="#FDD835" d="M9.16,137.132v-2.568c-1.277-0.335-2.454-0.916-3.531-1.74c-0.878-0.775-1.449-1.424-1.715-1.937
		c-0.361-0.566-0.645-1.189-0.852-1.873c-0.237-0.726-0.355-1.71-0.355-2.958v-4.592h3.208v4.733c0,1.378,0.274,2.441,0.82,3.188
		c0.111,0.238,0.465,0.62,1.062,1.145c0.894,0.688,1.871,1.034,2.934,1.034c1.062,0,2.039-0.346,2.932-1.034
		c0.598-0.524,0.952-0.906,1.063-1.145c0.545-0.746,0.818-1.81,0.818-3.188v-4.733h3.21v4.592c0,1.248-0.119,2.232-0.354,2.958
		c-0.2,0.683-0.483,1.307-0.853,1.873c-0.265,0.513-0.833,1.158-1.704,1.935c-1.085,0.826-2.265,1.407-3.542,1.739v2.571H9.16z"/>
	<path fill="#FDD835" d="M28.395,121.464h0.11c2.451,0,4.541,0.988,6.275,2.96c1.121,1.479,1.682,3.089,1.682,4.83v0.109
		c0,2.408-1.025,4.455-3.076,6.135c-1.492,1.088-3.125,1.634-4.903,1.634h-0.111c-2.436,0-4.519-0.981-6.252-2.938
		c-0.606-0.834-1.029-1.6-1.273-2.296c-0.288-0.87-0.432-1.724-0.432-2.558v-0.107c0-2.366,0.992-4.388,2.977-6.069
		c1.343-0.944,2.567-1.475,3.674-1.59C27.406,121.501,27.849,121.464,28.395,121.464z M23.602,129.275
		c0,1.363,0.543,2.561,1.626,3.59c0.968,0.813,1.981,1.219,3.045,1.219h0.31c0.855,0,1.726-0.285,2.612-0.859
		c0.914-0.66,1.533-1.502,1.858-2.524c0.104-0.269,0.177-0.729,0.223-1.38c0-1.335-0.529-2.517-1.583-3.537
		c-0.989-0.864-2.074-1.296-3.254-1.296c-1.379,0-2.604,0.566-3.675,1.698c-0.449,0.581-0.734,1.071-0.853,1.478
		C23.706,128.229,23.602,128.767,23.602,129.275z"/>
	<path fill="#333333" d="M43.192,121.464h10.746v3.22H43.092c-0.849,0-1.369,0.411-1.562,1.23v0.229
		c0,0.484,0.278,0.893,0.831,1.218c0.17,0.066,0.348,0.099,0.531,0.099h5.457c1.403,0,2.353,0.141,2.855,0.426
		c1.239,0.543,2.095,1.375,2.567,2.49c0.268,0.688,0.399,1.36,0.399,2.013c0,1.567-0.747,2.887-2.236,3.96
		c-0.442,0.272-0.951,0.489-1.527,0.641c-0.428,0.094-1.14,0.144-2.136,0.144H38.133l-0.011-3.224h10.892
		c0.914,0,1.497-0.441,1.75-1.325l0.021-0.294c0-0.621-0.314-1.104-0.939-1.436c-0.222-0.116-0.507-0.174-0.853-0.174H42.87
		c-1.601,0-2.937-0.688-4.007-2.069c-0.465-0.76-0.696-1.532-0.696-2.316v-0.424c0-1.611,0.796-2.883,2.389-3.818
		C41.222,121.66,42.099,121.464,43.192,121.464z"/>
	<polygon fill="#333333" points="68.692,121.464 68.692,127.764 59.02,127.764 59.02,121.442 55.83,121.442 55.83,137.132 
		59.02,137.132 59.02,130.81 68.692,130.81 68.692,137.132 71.878,137.132 71.878,121.464 	"/>
	<path fill="#333333" d="M81.519,121.464h0.111c2.448,0,4.541,0.988,6.275,2.96c1.121,1.479,1.683,3.089,1.683,4.83v0.109
		c0,2.408-1.028,4.455-3.079,6.135c-1.49,1.088-3.125,1.634-4.9,1.634h-0.112c-2.435,0-4.52-0.981-6.253-2.938
		c-0.604-0.834-1.029-1.6-1.273-2.296c-0.287-0.87-0.433-1.724-0.433-2.558v-0.107c0-2.366,0.994-4.388,2.979-6.069
		c1.342-0.944,2.565-1.475,3.673-1.59C80.528,121.501,80.971,121.464,81.519,121.464z M76.728,129.275
		c0,1.363,0.541,2.561,1.625,3.59c0.967,0.813,1.981,1.219,3.044,1.219h0.308c0.859,0,1.729-0.285,2.612-0.859
		c0.916-0.66,1.537-1.502,1.863-2.524c0.1-0.269,0.173-0.729,0.22-1.38c0-1.335-0.527-2.517-1.583-3.537
		c-0.988-0.864-2.073-1.296-3.254-1.296c-1.38,0-2.604,0.566-3.674,1.698c-0.448,0.581-0.733,1.071-0.854,1.478
		C76.83,128.229,76.728,128.767,76.728,129.275z"/>
	<path fill="#333333" d="M106.841,125.609c-1.247-2.763-3.48-4.146-6.695-4.146h-8.877v0.931h-0.023v9.176v3.102v2.46h3.221v-2.46
		l5.798-0.065c0.586,0,1.094-0.032,1.528-0.098c1.307-0.274,2.411-0.806,3.311-1.589c1.461-1.377,2.191-2.988,2.191-4.83
		C107.295,127.204,107.143,126.378,106.841,125.609z M104.073,128.209c0,0.166-0.03,0.389-0.089,0.664
		c-0.296,0.949-0.782,1.639-1.459,2.066c-0.534,0.422-1.372,0.632-2.513,0.632h-5.546v-7.048h6.055c0.907,0,1.731,0.322,2.479,0.967
		c0.716,0.776,1.072,1.574,1.072,2.395V128.209L104.073,128.209z"/>
</g>
</svg>
