<?xml version="1.0" encoding="utf-8"?>
<!-- Generator: Adobe Illustrator 16.0.0, SVG Export Plug-In . SVG Version: 6.00 Build 0)  -->
<!DOCTYPE svg PUBLIC "-//W3C//DTD SVG 1.1//EN" "http://www.w3.org/Graphics/SVG/1.1/DTD/svg11.dtd">
<svg version="1.1" id="图层_1" xmlns="http://www.w3.org/2000/svg" xmlns:xlink="http://www.w3.org/1999/xlink" x="0px" y="0px"
	 width="50px" height="50px" viewBox="0 0 50 50" enable-background="new 0 0 50 50" xml:space="preserve">
<circle fill="#D14F42" cx="25" cy="25" r="24.554"/>
<g>
	<path fill="#FFFFFF" d="M24.333,10.626c0.263,0.163,0.557,0.399,0.884,0.712c0.314,0.326,0.622,0.728,0.922,1.201
		c0.289,0.447,0.544,0.975,0.769,1.587c0.183,0.61,0.274,1.322,0.274,2.137c-0.024,1.492-0.354,2.686-0.988,3.581
		c-0.311,0.434-0.64,0.834-0.989,1.2c-0.385,0.364-0.794,0.738-1.228,1.118c-0.25,0.258-0.479,0.55-0.69,0.876
		c-0.248,0.339-0.373,0.731-0.373,1.179c0,0.437,0.127,0.796,0.382,1.079c0.216,0.272,0.427,0.51,0.63,0.714l1.417,1.158
		c0.878,0.722,1.649,1.512,2.311,2.38c0.625,0.883,0.949,2.034,0.978,3.458c0,2.021-0.894,3.811-2.679,5.373
		c-1.848,1.613-4.52,2.446-8.009,2.502c-2.922-0.027-5.103-0.65-6.544-1.866c-1.453-1.14-2.181-2.5-2.181-4.082
		c0-0.771,0.236-1.633,0.711-2.58c0.458-0.947,1.29-1.779,2.492-2.496c1.35-0.771,2.769-1.288,4.256-1.545
		c1.473-0.216,2.695-0.338,3.668-0.365c-0.301-0.396-0.568-0.818-0.804-1.269c-0.274-0.437-0.41-0.961-0.41-1.573
		c0-0.368,0.051-0.677,0.155-0.921c0.092-0.261,0.177-0.498,0.255-0.717c-0.473,0.055-0.921,0.082-1.339,0.082
		c-2.222-0.027-3.913-0.727-5.078-2.097c-1.221-1.276-1.83-2.76-1.83-4.454c0-2.05,0.863-3.907,2.59-5.575
		c1.185-0.975,2.417-1.611,3.695-1.912c1.265-0.257,2.451-0.387,3.557-0.387h8.34l-2.575,1.504h-2.572V10.626z M25.942,34.635
		c0-1.06-0.344-1.98-1.034-2.767c-0.73-0.746-1.873-1.662-3.426-2.748c-0.267-0.027-0.577-0.04-0.936-0.04
		c-0.212-0.026-0.756,0-1.634,0.08c-0.862,0.123-1.746,0.318-2.65,0.591c-0.212,0.081-0.511,0.204-0.894,0.367
		c-0.386,0.176-0.778,0.427-1.177,0.753c-0.387,0.339-0.711,0.759-0.976,1.261c-0.306,0.53-0.458,1.168-0.458,1.914
		c0,1.465,0.662,2.672,1.991,3.621c1.263,0.949,2.987,1.438,5.179,1.466c1.966-0.028,3.467-0.462,4.502-1.303
		C25.438,37.002,25.942,35.938,25.942,34.635z M20.129,22.408c1.098-0.04,2.012-0.436,2.744-1.183
		c0.354-0.53,0.58-1.073,0.681-1.631c0.061-0.559,0.091-1.024,0.091-1.407c0-1.644-0.42-3.302-1.261-4.973
		c-0.395-0.801-0.915-1.455-1.558-1.957c-0.659-0.474-1.414-0.726-2.269-0.755c-1.13,0.029-2.069,0.483-2.818,1.367
		c-0.633,0.925-0.936,1.957-0.906,3.099c0,1.509,0.439,3.077,1.322,4.709c0.429,0.76,0.979,1.405,1.656,1.935
		C18.487,22.144,19.259,22.408,20.129,22.408z"/>
	<polygon fill="#FFFFFF" points="40.779,13.677 36.403,13.677 36.403,9.302 34.283,9.302 34.283,13.677 29.907,13.677 
		29.907,15.798 34.283,15.798 34.283,20.174 36.403,20.174 36.403,15.798 40.779,15.798 	"/>
</g>
</svg>
