<?xml version="1.0" encoding="utf-8"?>
<!-- Generator: Adobe Illustrator 16.0.0, SVG Export Plug-In . SVG Version: 6.00 Build 0)  -->
<!DOCTYPE svg PUBLIC "-//W3C//DTD SVG 1.1//EN" "http://www.w3.org/Graphics/SVG/1.1/DTD/svg11.dtd">
<svg version="1.1" id="图层_1" xmlns="http://www.w3.org/2000/svg" xmlns:xlink="http://www.w3.org/1999/xlink" x="0px" y="0px"
	 width="50px" height="50px" viewBox="0 0 50 50" enable-background="new 0 0 50 50" xml:space="preserve">
<path  d="M25,0.849C11.656,0.849,0.848,11.657,0.848,25c0,13.343,10.808,24.152,24.152,24.152
	S49.152,38.344,49.152,25C49.152,11.657,38.344,0.849,25,0.849z M27.416,41.907h-4.831v-4.831h4.831V41.907z M32.402,23.201
	l-2.162,2.223c-1.738,1.739-2.824,3.2-2.824,6.823h-4.831v-1.208c0-2.668,1.086-5.084,2.826-6.835l3.007-3.043
	c0.869-0.869,1.412-2.077,1.412-3.405c0-2.668-2.162-4.83-4.83-4.83c-2.669,0-4.831,2.162-4.831,4.83h-4.83
	c0-5.337,4.323-9.661,9.661-9.661c5.338,0,9.66,4.323,9.66,9.661C34.66,19.88,33.803,21.8,32.402,23.201z"/>
</svg>
