<?xml version="1.0" encoding="utf-8"?>
<!-- Generator: Adobe Illustrator 16.0.0, SVG Export Plug-In . SVG Version: 6.00 Build 0)  -->
<!DOCTYPE svg PUBLIC "-//W3C//DTD SVG 1.1//EN" "http://www.w3.org/Graphics/SVG/1.1/DTD/svg11.dtd">
<svg version="1.1" id="图层_1" xmlns="http://www.w3.org/2000/svg" xmlns:xlink="http://www.w3.org/1999/xlink" x="0px" y="0px"
	 width="50px" height="31.25px" viewBox="0 0 50 31.25" enable-background="new 0 0 50 31.25" xml:space="preserve">
<g>
	<path fill="#FAFAFB" d="M50,29.582c0,0.92-0.746,1.668-1.668,1.668H1.666C0.746,31.25,0,30.502,0,29.582V1.666
		c0-0.921,0.746-1.667,1.666-1.667h46.666C49.254-0.001,50,0.745,50,1.666V29.582z"/>
	<g>
		<path fill="#1A9E50" d="M33.703,16.685c0.061,1.821,0.121,3.702,0.029,5.555c-0.061,0.729-0.516,1.426-1.184,1.852
			c-0.516,0.332-1.152,0.363-1.82,0.395l-2.414-0.031l-0.016-15.45c0.123-1.033,0.881-1.913,1.852-2.186
			c1.184-0.151,2.277-0.091,3.521-0.122l0.061,0.79v8.772l-0.029,0.029V16.685z"/>
		<path fill="#0D6BAF" d="M16.219,16.109V8.823c0.152-0.82,0.82-1.578,1.608-1.882c1.185-0.364,2.551-0.151,3.765-0.183
			c0.061,1.185,0,2.672,0.03,3.704l0.061,9.499c-0.152,1.459,0.396,3.432-1.427,4.252c-1.152,0.576-2.701,0.211-4.007,0.334
			l-0.03-0.213v-7.922V16.109z"/>
		<path fill="#FFFFFF" d="M16.219,16.412c0.485,0.637,1.154,1.124,1.974,1.153c1.001,0.092,2.307,0.182,2.974-0.757
			c0.456-0.486,0.184-1.154,0.274-1.791l-0.03-1.154c-0.577-0.122-1.094,0-1.762-0.03c-0.333,1.245,0.547,2.642-0.88,3.278
			c-0.334,0.092-0.819,0.031-1.153-0.181c-0.546-0.121-0.242-1.002-0.971-0.76l-0.426-0.06V16.412z"/>
		<path fill="#DD2726" d="M27.662,7.761l0.031,14.782c-0.213,0.699-0.759,1.457-1.517,1.73c-1.154,0.393-2.582,0.213-3.856,0.213
			L22.26,8.914c0.061-0.729,0.546-1.366,1.184-1.76c0.455-0.304,1.002-0.396,1.579-0.426h2.579L27.662,7.761z"/>
		<path fill="#FFFFFF" d="M27.42,13.862c0.061,0.182,0,0.334,0.029,0.547c-0.909-0.243-2.032-0.517-2.853,0.151
			c-0.303,0.364-0.485,0.729-0.455,1.214c0.092,0.547,0.426,1.063,0.941,1.275c0.789,0.244,1.609,0.031,2.337-0.152
			c0.029,0.152,0.061,0.365,0,0.486h-3.491c-0.606-0.121-1.092-0.455-1.365-1.062c-0.243-0.577-0.122-1.365,0.304-1.852
			c0.364-0.425,0.88-0.668,1.456-0.638L27.42,13.862z"/>
		<path fill="#FFFFFF" d="M33.703,16.685c-0.092,0.364-0.395,0.698-0.76,0.758h-4.25l-0.15-0.061c0-1.214-0.031-2.367,0.029-3.551
			h2.701c0.85,0.091,1.791-0.273,2.188,0.517c0.121,0.273,0.09,0.637-0.123,0.85c-0.121,0.212-0.395,0.243-0.455,0.395
			c0.334,0.09,0.699,0.364,0.82,0.697V16.685z M30.059,14.196c-0.09,0.333-0.09,0.789-0.029,1.153
			c0.639-0.03,1.457,0.212,1.883-0.272c0.15-0.184,0.061-0.486-0.031-0.639C31.396,14.014,30.668,14.287,30.059,14.196z
			 M31.699,15.866c-0.576-0.092-1.154-0.062-1.699-0.031c-0.031,0.455,0,0.82,0.059,1.246c0.609,0,1.275,0.09,1.822-0.183
			c0.152-0.151,0.242-0.395,0.182-0.607C32.033,16.109,31.881,15.957,31.699,15.866z"/>
	</g>
</g>
</svg>
