<?xml version="1.0" encoding="utf-8"?>
<!-- Generator: Adobe Illustrator 16.0.0, SVG Export Plug-In . SVG Version: 6.00 Build 0)  -->
<!DOCTYPE svg PUBLIC "-//W3C//DTD SVG 1.1//EN" "http://www.w3.org/Graphics/SVG/1.1/DTD/svg11.dtd">
<svg version="1.1" id="online" xmlns="http://www.w3.org/2000/svg" xmlns:xlink="http://www.w3.org/1999/xlink" x="0px" y="0px"
	 width="466px" height="150px" viewBox="0 0 466 150" enable-background="new 0 0 466 150" xml:space="preserve">
<g>
	<g>
		<path fill-rule="evenodd" clip-rule="evenodd" fill="#373435" d="M29.256,62.554c0.686,0.685,0.686,1.798,0,2.486
			c-0.685,0.685-1.798,0.685-2.486,0l-8.788-8.792c-0.685-0.685-0.685-1.796,0-2.483c0.684-0.688,1.797-0.688,2.485,0L29.256,62.554
			z"/>
		<path fill-rule="evenodd" clip-rule="evenodd" fill="#373435" d="M20.464,65.04c-0.685,0.685-1.798,0.685-2.485,0
			c-0.682-0.688-0.682-1.801,0-2.486l8.791-8.789c0.685-0.688,1.798-0.688,2.484,0c0.688,0.688,0.688,1.798,0,2.483L20.464,65.04z"
			/>
		<path fill-rule="evenodd" clip-rule="evenodd" fill="#373435" d="M10.41,87.177c-0.968,0.005-1.758-0.77-1.762-1.738
			c-0.01-0.963,0.768-1.754,1.733-1.762l40.636-0.428c0.969-0.007,1.758,0.772,1.766,1.735c0.007,0.968-0.771,1.757-1.736,1.765
			L10.41,87.177z"/>
		<path fill-rule="evenodd" clip-rule="evenodd" fill="#373435" d="M70.087,87.203c-0.966,0.034-1.779-0.722-1.812-1.689
			c-0.035-0.966,0.721-1.777,1.688-1.811l11.953-0.429c0.966-0.034,1.776,0.722,1.811,1.687c0.033,0.968-0.722,1.779-1.688,1.813
			L70.087,87.203z"/>
		<path fill-rule="evenodd" clip-rule="evenodd" fill="#373435" d="M45.238,123.488c-0.964,0.01-1.755-0.768-1.762-1.736
			c-0.007-0.963,0.77-1.755,1.736-1.762l40.636-0.428c0.966-0.007,1.755,0.772,1.764,1.735c0.008,0.968-0.769,1.755-1.735,1.765
			L45.238,123.488z"/>
		<path fill-rule="evenodd" clip-rule="evenodd" fill="#373435" d="M52.436,15.027c-0.967,0.007-1.762-0.775-1.766-1.743
			c-0.005-0.971,0.774-1.765,1.743-1.77l3.515-0.024c0.968-0.004,1.762,0.775,1.766,1.746c0.008,0.969-0.774,1.762-1.743,1.767
			L52.436,15.027L52.436,15.027z M112.132,11.111c0.972-0.005,1.762,0.777,1.769,1.746c0.008,0.968-0.774,1.761-1.745,1.766
			l-3.512,0.027c-0.971,0.005-1.762-0.775-1.769-1.746c-0.005-0.97,0.774-1.764,1.745-1.769L112.132,11.111L112.132,11.111z
			 M98.082,11.205c0.971-0.005,1.762,0.777,1.769,1.748c0.005,0.969-0.775,1.76-1.745,1.767l-3.513,0.024
			c-0.97,0.007-1.762-0.777-1.769-1.746c-0.007-0.971,0.777-1.762,1.746-1.77L98.082,11.205L98.082,11.205z M84.03,11.302
			c0.968-0.007,1.762,0.774,1.767,1.746c0.008,0.97-0.774,1.762-1.743,1.767l-3.514,0.027c-0.969,0.005-1.762-0.777-1.768-1.748
			c-0.007-0.968,0.775-1.76,1.743-1.767L84.03,11.302L84.03,11.302z M69.977,11.396c0.971-0.006,1.762,0.775,1.77,1.746
			c0.006,0.97-0.775,1.761-1.746,1.766l-3.509,0.024c-0.974,0.008-1.763-0.774-1.772-1.743c-0.006-0.97,0.777-1.764,1.747-1.769
			L69.977,11.396z"/>
	</g>
	<g>
		<g>
			<path fill-rule="evenodd" clip-rule="evenodd" fill="#373435" d="M442.712,36.858c0.644,0.643,0.644,1.686,0,2.33
				c-0.641,0.642-1.685,0.642-2.329,0l-8.237-8.24c-0.641-0.642-0.641-1.684,0-2.327c0.642-0.644,1.685-0.644,2.329,0
				L442.712,36.858z"/>
			<path fill-rule="evenodd" clip-rule="evenodd" fill="#373435" d="M434.475,39.188c-0.645,0.642-1.688,0.642-2.331,0
				c-0.639-0.644-0.639-1.688,0-2.33l8.239-8.237c0.644-0.644,1.687-0.644,2.328,0c0.645,0.644,0.645,1.685,0,2.327L434.475,39.188z
				"/>
		</g>
		<path fill-rule="evenodd" clip-rule="evenodd" fill="#373435" d="M353.053,86.976c-0.907,0.005-1.646-0.721-1.651-1.628
			c-0.009-0.903,0.719-1.645,1.625-1.652l38.085-0.402c0.908-0.007,1.647,0.724,1.654,1.626c0.006,0.908-0.723,1.647-1.627,1.654
			L353.053,86.976z"/>
		<path fill-rule="evenodd" clip-rule="evenodd" fill="#373435" d="M404.303,86.976c-0.905,0.032-1.666-0.676-1.699-1.583
			c-0.032-0.905,0.677-1.665,1.583-1.697l11.204-0.402c0.905-0.032,1.664,0.676,1.696,1.581c0.031,0.908-0.676,1.668-1.581,1.7
			L404.303,86.976z"/>
		<path fill-rule="evenodd" clip-rule="evenodd" fill="#373435" d="M408.667,65.489c-0.901,0.009-1.646-0.719-1.651-1.627
			c-0.006-0.903,0.722-1.645,1.627-1.652l38.087-0.401c0.904-0.006,1.643,0.724,1.653,1.627c0.007,0.907-0.723,1.645-1.627,1.653
			L408.667,65.489z"/>
		<path fill-rule="evenodd" clip-rule="evenodd" fill="#373435" d="M399.724,113.82c-0.907,0.006-1.651-0.726-1.655-1.634
			c-0.004-0.909,0.726-1.654,1.634-1.658l3.295-0.023c0.906-0.005,1.651,0.726,1.654,1.636c0.007,0.907-0.725,1.651-1.634,1.656
			L399.724,113.82L399.724,113.82z M455.672,110.15c0.911-0.005,1.652,0.728,1.658,1.636c0.009,0.907-0.726,1.651-1.634,1.656
			l-3.293,0.025c-0.91,0.005-1.651-0.726-1.656-1.636c-0.006-0.91,0.724-1.654,1.633-1.658L455.672,110.15L455.672,110.15z
			 M442.504,110.238c0.907-0.005,1.65,0.728,1.658,1.638c0.003,0.907-0.728,1.649-1.637,1.656l-3.291,0.022
			c-0.91,0.007-1.652-0.728-1.659-1.636c-0.006-0.909,0.729-1.652,1.636-1.658L442.504,110.238L442.504,110.238z M429.334,110.329
			c0.906-0.007,1.651,0.726,1.654,1.636c0.009,0.91-0.724,1.652-1.632,1.657l-3.293,0.024c-0.907,0.005-1.651-0.728-1.656-1.638
			c-0.007-0.908,0.727-1.649,1.633-1.656L429.334,110.329L429.334,110.329z M416.161,110.417c0.912-0.006,1.653,0.726,1.66,1.636
			c0.006,0.909-0.728,1.651-1.636,1.655l-3.289,0.023c-0.912,0.007-1.652-0.726-1.661-1.634c-0.005-0.909,0.728-1.653,1.637-1.658
			L416.161,110.417z"/>
	</g>
	
		<rect x="157.129" y="23.777" fill="#E6E7E8" stroke="#373435" stroke-width="3" stroke-linejoin="round" stroke-miterlimit="10" width="174.78" height="116.518"/>
	
		<rect x="157.129" y="6" fill="#FFFFFF" stroke="#373435" stroke-width="3" stroke-miterlimit="10" width="174.78" height="32.043"/>
	<rect x="158.557" y="8.205" fill="#D1D3D4" width="171.739" height="24.504"/>
	
		<rect x="178.74" y="58.96" fill="#F1F2F2" stroke="#373435" stroke-width="3" stroke-miterlimit="10" width="30.318" height="25.368"/>
	
		<rect x="226.989" y="97.466" fill="#F1F2F2" stroke="#373435" stroke-width="3" stroke-miterlimit="10" width="30.318" height="25.368"/>
	
		<rect x="275.671" y="98.462" fill="#F1F2F2" stroke="#373435" stroke-width="3" stroke-miterlimit="10" width="30.318" height="25.368"/>
	<path fill="#373435" d="M172.27,14.303c0.91,0,1.647,0.738,1.647,1.647v11.058c0,0.91-0.737,1.648-1.647,1.648l0,0
		c-0.911,0-1.648-0.738-1.648-1.648V15.95C170.621,15.041,171.358,14.303,172.27,14.303L172.27,14.303z"/>
	<path fill="#373435" d="M183.188,14.303c0.912,0,1.648,0.738,1.648,1.647v11.058c0,0.91-0.736,1.648-1.648,1.648l0,0
		c-0.909,0-1.648-0.738-1.648-1.648V15.95C181.54,15.041,182.278,14.303,183.188,14.303L183.188,14.303z"/>
	<path fill="#373435" d="M298.608,60.665c0,0.824-0.647,1.493-1.444,1.493h-57.451c-0.798,0-1.444-0.669-1.444-1.493l0,0
		c0-0.824,0.646-1.492,1.444-1.492h57.451C297.961,59.172,298.608,59.841,298.608,60.665L298.608,60.665z"/>
	<path fill="#373435" d="M275.671,78.065c0,0.824-0.763,1.493-1.704,1.493h-39.627c-0.941,0-1.704-0.669-1.704-1.493l0,0
		c0-0.823,0.763-1.492,1.704-1.492h39.627C274.908,76.574,275.671,77.242,275.671,78.065L275.671,78.065z"/>
	<path fill="#373435" d="M208.812,111.146c0,0.824-0.763,1.492-1.706,1.492H180.69c-0.941,0-1.704-0.668-1.704-1.492l0,0
		c0-0.824,0.762-1.493,1.704-1.493h26.416C208.049,109.653,208.812,110.322,208.812,111.146L208.812,111.146z"/>
</g>
</svg>
