<?xml version="1.0" encoding="utf-8"?>
<!-- Generator: Adobe Illustrator 16.0.0, SVG Export Plug-In . SVG Version: 6.00 Build 0)  -->
<!DOCTYPE svg PUBLIC "-//W3C//DTD SVG 1.1//EN" "http://www.w3.org/Graphics/SVG/1.1/DTD/svg11.dtd">
<svg version="1.1" id="图层_1" xmlns="http://www.w3.org/2000/svg" xmlns:xlink="http://www.w3.org/1999/xlink" x="0px" y="0px"
	 width="50px" height="50px" viewBox="0 0 50 50" enable-background="new 0 0 50 50" xml:space="preserve">
<path  d="M39.371,16.788h-2.346v-4.692c0-6.475-5.256-11.731-11.731-11.731c-6.475,0-11.731,5.256-11.731,11.731
	v4.692h-2.347c-2.581,0-4.692,2.111-4.692,4.692v23.462c0,2.579,2.111,4.692,4.692,4.692h28.155c2.579,0,4.693-2.113,4.693-4.692
	V21.48C44.064,18.899,41.95,16.788,39.371,16.788z M25.294,37.904c-2.582,0-4.692-2.113-4.692-4.693s2.111-4.691,4.692-4.691
	c2.58,0,4.691,2.111,4.691,4.691S27.874,37.904,25.294,37.904z M32.566,16.788H18.021v-4.692c0-4.013,3.261-7.274,7.273-7.274
	c4.012,0,7.272,3.261,7.272,7.274V16.788z"/>
</svg>
