<?xml version="1.0" encoding="utf-8"?>
<!-- Generator: Adobe Illustrator 16.0.0, SVG Export Plug-In . SVG Version: 6.00 Build 0)  -->
<!DOCTYPE svg PUBLIC "-//W3C//DTD SVG 1.1//EN" "http://www.w3.org/Graphics/SVG/1.1/DTD/svg11.dtd">
<svg version="1.1" id="图层_1" xmlns="http://www.w3.org/2000/svg" xmlns:xlink="http://www.w3.org/1999/xlink" x="0px" y="0px"
	 width="199.999px" height="30px" viewBox="1.333 1 199.999 30" enable-background="new 1.333 1 199.999 30" xml:space="preserve">
<g>
	<path fill="#FDD835" d="M13.672,31v-4.913c-2.441-0.637-4.692-1.747-6.751-3.326c-1.679-1.483-2.772-2.72-3.281-3.704
		c-0.691-1.082-1.233-2.274-1.628-3.578C1.56,14.092,1.333,12.207,1.333,9.82V1.041H7.47v9.049c0,2.637,0.523,4.668,1.568,6.098
		c0.211,0.457,0.888,1.185,2.03,2.184c1.708,1.318,3.578,1.977,5.609,1.977c2.03,0,3.901-0.658,5.607-1.977
		c1.143-0.999,1.821-1.727,2.032-2.184c1.043-1.429,1.566-3.461,1.566-6.098V1.041h6.137V9.82c0,2.387-0.225,4.271-0.677,5.658
		c-0.381,1.304-0.923,2.496-1.63,3.578c-0.506,0.984-1.594,2.219-3.258,3.704c-2.075,1.58-4.333,2.689-6.774,3.326V31H13.672z"/>
	<path fill="#FDD835" d="M50.455,1.041h0.211c4.686,0,8.684,1.887,12,5.66c2.144,2.828,3.217,5.908,3.217,9.236v0.207
		c0,4.605-1.961,8.517-5.884,11.733C57.148,29.957,54.025,31,50.623,31h-0.211c-4.656,0-8.641-1.875-11.956-5.619
		c-1.159-1.596-1.969-3.059-2.436-4.39c-0.549-1.665-0.824-3.294-0.824-4.89v-0.207c0-4.521,1.897-8.39,5.692-11.606
		c2.568-1.803,4.91-2.817,7.026-3.038C48.565,1.11,49.412,1.041,50.455,1.041z M41.29,15.979c0,2.606,1.039,4.896,3.11,6.864
		c1.851,1.554,3.791,2.33,5.823,2.33h0.592c1.636,0,3.301-0.547,4.995-1.644c1.748-1.262,2.933-2.87,3.553-4.827
		c0.198-0.511,0.34-1.394,0.427-2.642c0-2.551-1.012-4.807-3.029-6.761c-1.89-1.651-3.965-2.476-6.223-2.476
		c-2.637,0-4.979,1.081-7.027,3.244c-0.859,1.111-1.403,2.053-1.63,2.83C41.488,13.98,41.29,15.007,41.29,15.979z"/>
	<path fill="#333333" d="M78.751,1.041h20.55v6.158H78.56c-1.623,0-2.617,0.783-2.985,2.352v0.436c0,0.93,0.531,1.707,1.589,2.33
		c0.324,0.125,0.664,0.188,1.015,0.188h10.434c2.681,0,4.501,0.271,5.46,0.812c2.371,1.041,4.006,2.629,4.911,4.764
		c0.509,1.318,0.763,2.6,0.763,3.849c0,2.995-1.426,5.519-4.275,7.57c-0.847,0.526-1.821,0.937-2.921,1.228
		C91.732,30.908,90.371,31,88.467,31H69.078l-0.021-6.161h20.827c1.748,0,2.863-0.846,3.344-2.536l0.041-0.562
		c0-1.192-0.6-2.11-1.798-2.746c-0.424-0.224-0.968-0.334-1.63-0.334H78.137c-3.062,0-5.617-1.316-7.664-3.953
		c-0.888-1.456-1.331-2.933-1.331-4.431V9.466c0-3.08,1.523-5.515,4.57-7.302C74.985,1.415,76.663,1.041,78.751,1.041z"/>
	<polygon fill="#333333" points="127.515,1.041 127.515,13.086 109.015,13.086 109.015,1 102.92,1 102.92,31 109.015,31 
		109.015,18.911 127.515,18.911 127.515,31 133.606,31 133.606,1.041 	"/>
	<path fill="#333333" d="M152.041,1.041h0.212c4.686,0,8.686,1.887,12.001,5.66c2.144,2.828,3.216,5.908,3.216,9.236v0.207
		c0,4.605-1.96,8.517-5.882,11.733C158.737,29.957,155.61,31,152.212,31h-0.213c-4.654,0-8.643-1.875-11.958-5.619
		c-1.157-1.596-1.969-3.059-2.435-4.39c-0.549-1.665-0.823-3.294-0.823-4.89v-0.207c0-4.521,1.896-8.39,5.692-11.606
		c2.566-1.803,4.908-2.817,7.024-3.038C150.151,1.11,150.997,1.041,152.041,1.041z M142.879,15.979c0,2.606,1.035,4.896,3.11,6.864
		c1.847,1.554,3.787,2.33,5.82,2.33h0.59c1.639,0,3.304-0.547,4.996-1.644c1.748-1.262,2.935-2.87,3.557-4.827
		c0.195-0.511,0.338-1.394,0.422-2.642c0-2.551-1.007-4.807-3.025-6.761c-1.89-1.651-3.967-2.476-6.224-2.476
		c-2.638,0-4.979,1.081-7.022,3.244c-0.862,1.111-1.404,2.053-1.633,2.83C143.075,13.98,142.879,15.007,142.879,15.979z"/>
	<path fill="#333333" d="M200.464,8.967c-2.383-5.284-6.652-7.926-12.803-7.926h-16.975V2.82h-0.043v17.548v5.928V31h6.16v-4.704
		l11.09-0.125c1.113,0,2.088-0.062,2.92-0.187c2.496-0.526,4.606-1.539,6.328-3.036c2.793-2.636,4.19-5.714,4.19-9.236
		C201.333,12.018,201.043,10.438,200.464,8.967z M195.174,13.939c0,0.318-0.058,0.742-0.168,1.27
		c-0.565,1.816-1.497,3.134-2.794,3.952c-1.018,0.806-2.619,1.208-4.804,1.208h-10.604V6.889h11.577c1.734,0,3.313,0.618,4.74,1.85
		c1.369,1.486,2.053,3.01,2.053,4.578V13.939L195.174,13.939z"/>
</g>
</svg>
