<?xml version="1.0" encoding="utf-8"?>
<!-- Generator: Adobe Illustrator 16.0.0, SVG Export Plug-In . SVG Version: 6.00 Build 0)  -->
<!DOCTYPE svg PUBLIC "-//W3C//DTD SVG 1.1//EN" "http://www.w3.org/Graphics/SVG/1.1/DTD/svg11.dtd">
<svg version="1.1" id="图层_1" xmlns="http://www.w3.org/2000/svg" xmlns:xlink="http://www.w3.org/1999/xlink" x="0px" y="0px"
	 width="50px" height="31.25px" viewBox="0 0 50 31.25" enable-background="new 0 0 50 31.25" xml:space="preserve">
<g>
	<path fill="#FAFAFB" d="M49.887,29.512c0,0.921-0.748,1.667-1.666,1.667H1.553c-0.92,0-1.667-0.746-1.667-1.667V1.596
		c0-0.921,0.747-1.667,1.667-1.667h46.667c0.918,0,1.666,0.746,1.666,1.667V29.512z"/>
	<g>
		<polygon fill-rule="evenodd" clip-rule="evenodd" fill="#F1AD38" points="30.887,24.523 31.349,24.512 31.806,24.479 
			32.254,24.421 32.699,24.343 33.132,24.242 33.559,24.121 33.975,23.979 34.384,23.819 34.783,23.638 35.171,23.441 
			35.546,23.223 35.912,22.99 36.264,22.738 36.604,22.472 36.928,22.191 37.242,21.892 37.541,21.579 37.822,21.253 38.088,20.914 
			38.34,20.563 38.572,20.198 38.79,19.822 38.987,19.435 39.168,19.035 39.328,18.626 39.471,18.208 39.593,17.782 39.691,17.35 
			39.77,16.906 39.828,16.457 39.862,16 39.873,15.537 39.862,15.078 39.828,14.623 39.77,14.176 39.691,13.736 39.593,13.305 
			39.471,12.88 39.328,12.462 39.168,12.057 38.987,11.662 38.79,11.273 38.572,10.901 38.34,10.535 38.088,10.184 37.822,9.849 
			37.541,9.522 37.242,9.209 36.928,8.913 36.604,8.632 36.264,8.366 35.912,8.115 35.546,7.881 35.171,7.667 34.783,7.471 
			34.384,7.288 33.975,7.127 33.559,6.985 33.132,6.865 32.699,6.766 32.254,6.687 31.806,6.63 31.349,6.596 30.887,6.583 
			30.427,6.596 29.97,6.63 29.522,6.687 29.08,6.766 28.647,6.865 28.221,6.985 27.806,7.127 27.397,7.288 27.001,7.471 
			26.616,7.667 26.241,7.881 25.878,8.115 25.528,8.366 25.189,8.632 24.865,8.913 24.553,9.209 24.257,9.522 23.975,9.849 
			23.709,10.184 23.461,10.535 23.228,10.901 23.013,11.273 22.814,11.662 22.635,12.057 22.474,12.462 22.335,12.88 22.214,13.305 
			22.114,13.736 22.036,14.176 21.978,14.623 21.945,15.078 21.932,15.537 21.945,16 21.978,16.457 22.036,16.906 22.114,17.35 
			22.214,17.782 22.335,18.208 22.474,18.626 22.635,19.035 22.814,19.435 23.013,19.822 23.228,20.198 23.461,20.563 
			23.709,20.914 23.975,21.253 24.257,21.579 24.553,21.892 24.865,22.191 25.189,22.472 25.528,22.738 25.878,22.99 26.241,23.223 
			26.616,23.441 27.001,23.638 27.397,23.819 27.806,23.979 28.221,24.121 28.647,24.242 29.08,24.343 29.522,24.421 29.97,24.479 
			30.427,24.512 30.887,24.523 30.887,24.523 		"/>
		<polygon fill-rule="evenodd" clip-rule="evenodd" fill="#DD262F" points="18.886,24.523 19.345,24.512 19.803,24.479 
			20.251,24.421 20.692,24.343 21.125,24.242 21.551,24.121 21.966,23.979 22.375,23.819 22.771,23.638 23.155,23.441 23.53,23.223 
			23.894,22.99 24.245,22.738 24.583,22.472 24.907,22.191 25.218,21.892 25.516,21.579 25.797,21.253 26.063,20.914 26.312,20.563 
			26.545,20.198 26.76,19.822 26.959,19.435 27.137,19.035 27.298,18.626 27.437,18.208 27.558,17.782 27.657,17.35 27.736,16.906 
			27.795,16.457 27.827,16 27.84,15.537 27.827,15.078 27.795,14.623 27.736,14.176 27.657,13.736 27.558,13.305 27.437,12.88 
			27.298,12.462 27.137,12.057 26.959,11.662 26.76,11.273 26.545,10.901 26.312,10.535 26.063,10.184 25.797,9.849 25.516,9.522 
			25.218,9.209 24.907,8.913 24.583,8.632 24.245,8.366 23.894,8.115 23.53,7.881 23.155,7.667 22.771,7.471 22.375,7.288 
			21.966,7.127 21.551,6.985 21.125,6.865 20.692,6.766 20.251,6.687 19.803,6.63 19.345,6.596 18.886,6.583 18.422,6.596 
			17.966,6.63 17.518,6.687 17.073,6.766 16.64,6.865 16.214,6.985 15.795,7.127 15.388,7.288 14.988,7.471 14.601,7.667 
			14.226,7.881 13.859,8.115 13.508,8.366 13.17,8.632 12.843,8.913 12.532,9.209 12.232,9.522 11.95,9.849 11.684,10.184 
			11.434,10.535 11.2,10.901 10.981,11.273 10.786,11.662 10.604,12.057 10.443,12.462 10.301,12.88 10.18,13.305 10.081,13.736 
			10.001,14.176 9.944,14.623 9.911,15.078 9.899,15.537 9.911,16 9.944,16.457 10.001,16.906 10.081,17.35 10.18,17.782 
			10.301,18.208 10.443,18.626 10.604,19.035 10.786,19.435 10.981,19.822 11.2,20.198 11.434,20.563 11.684,20.914 11.95,21.253 
			12.232,21.579 12.532,21.892 12.843,22.191 13.17,22.472 13.508,22.738 13.859,22.99 14.226,23.223 14.601,23.441 14.988,23.638 
			15.388,23.819 15.795,23.979 16.214,24.121 16.64,24.242 17.073,24.343 17.518,24.421 17.966,24.479 18.422,24.512 18.886,24.523 
			18.886,24.523 		"/>
		<polygon fill-rule="evenodd" clip-rule="evenodd" fill="#F1AD38" points="23.836,10.023 28.602,10.023 28.602,9.537 24.248,9.537 
			23.836,10.023 23.836,10.023 		"/>
		<polygon fill-rule="evenodd" clip-rule="evenodd" fill="#F1AD38" points="23.122,11.108 28.602,11.108 28.602,10.619 
			23.41,10.619 23.122,11.108 23.122,11.108 		"/>
		<polygon fill-rule="evenodd" clip-rule="evenodd" fill="#F1AD38" points="22.59,12.188 28.602,12.188 28.602,11.701 
			22.802,11.701 22.59,12.188 22.59,12.188 		"/>
		<polygon fill-rule="evenodd" clip-rule="evenodd" fill="#F1AD38" points="22.223,13.271 28.602,13.271 28.602,12.783 
			22.375,12.783 22.223,13.271 22.223,13.271 		"/>
		<polygon fill-rule="evenodd" clip-rule="evenodd" fill="#F1AD38" points="22.435,18.506 28.616,18.506 28.616,18.018 
			22.284,18.018 22.435,18.506 22.435,18.506 		"/>
		<polygon fill-rule="evenodd" clip-rule="evenodd" fill="#F1AD38" points="22.892,19.589 28.616,19.589 28.616,19.102 
			22.665,19.102 22.892,19.589 22.892,19.589 		"/>
		<polygon fill-rule="evenodd" clip-rule="evenodd" fill="#F1AD38" points="23.533,20.669 28.616,20.669 28.616,20.182 
			23.228,20.182 23.533,20.669 23.533,20.669 		"/>
		<polygon fill-rule="evenodd" clip-rule="evenodd" fill="#F1AD38" points="24.417,21.753 28.616,21.753 28.616,21.263 
			23.991,21.263 24.417,21.753 24.417,21.753 		"/>
		<polygon fill-rule="evenodd" clip-rule="evenodd" fill="#F1AD38" points="22.008,14.351 28.602,14.351 28.602,13.864 
			22.102,13.864 22.008,14.351 22.008,14.351 		"/>
		<polygon fill-rule="evenodd" clip-rule="evenodd" fill="#F1AD38" points="26.026,17.426 28.541,17.426 28.541,16.938 
			26.118,16.938 26.026,17.426 26.026,17.426 		"/>
		<polygon fill-rule="evenodd" clip-rule="evenodd" fill="#F1AD38" points="26.227,16.345 28.541,16.345 28.541,15.854 
			26.317,15.854 26.227,16.345 26.227,16.345 		"/>
		<polygon fill-rule="evenodd" clip-rule="evenodd" fill="#F1AD38" points="21.842,15.854 22.496,15.854 22.496,16.345 
			21.873,16.345 21.842,15.854 21.842,15.854 		"/>
		<polygon fill-rule="evenodd" clip-rule="evenodd" fill="#FFFFFF" points="20.622,15.265 20.58,15.261 20.538,15.255 20.499,15.25 
			20.459,15.243 20.422,15.238 20.384,15.232 20.345,15.226 20.302,15.219 20.259,15.214 20.211,15.21 20.157,15.208 20.099,15.204 
			20.036,15.204 19.966,15.208 19.887,15.214 19.8,15.219 19.739,15.229 19.681,15.238 19.63,15.255 19.585,15.273 19.542,15.295 
			19.503,15.32 19.473,15.35 19.445,15.376 19.427,15.41 19.412,15.443 19.406,15.48 19.406,15.517 19.416,15.555 19.427,15.594 
			19.451,15.634 19.482,15.673 19.542,15.73 19.615,15.776 19.7,15.815 19.791,15.848 19.887,15.878 19.987,15.913 20.086,15.949 
			20.184,15.988 20.274,16.039 20.359,16.102 20.435,16.179 20.499,16.272 20.547,16.388 20.578,16.524 20.589,16.687 
			20.578,16.877 20.557,17.02 20.52,17.144 20.471,17.259 20.411,17.358 20.341,17.447 20.262,17.521 20.178,17.588 20.084,17.646 
			19.987,17.691 19.887,17.73 19.784,17.761 19.678,17.785 19.575,17.803 19.476,17.813 19.376,17.819 19.282,17.822 19.152,17.822 
			19.03,17.819 18.925,17.819 18.826,17.816 18.734,17.813 18.653,17.807 18.581,17.8 18.511,17.791 18.447,17.785 18.39,17.772 
			18.332,17.763 18.281,17.749 18.229,17.736 18.182,17.719 18.132,17.7 18.081,17.682 18.217,17.014 18.245,17.02 18.277,17.029 
			18.32,17.04 18.371,17.054 18.426,17.065 18.486,17.076 18.553,17.093 18.625,17.104 18.701,17.116 18.78,17.129 18.861,17.137 
			18.946,17.146 19.034,17.149 19.122,17.151 19.209,17.151 19.297,17.149 19.385,17.131 19.455,17.106 19.509,17.074 
			19.551,17.032 19.582,16.989 19.606,16.941 19.621,16.892 19.633,16.847 19.64,16.759 19.612,16.685 19.56,16.624 19.485,16.571 
			19.394,16.526 19.289,16.481 19.17,16.438 19.052,16.39 18.931,16.335 18.816,16.272 18.71,16.193 18.613,16.1 18.538,15.984 
			18.483,15.848 18.456,15.685 18.459,15.492 18.474,15.374 18.496,15.261 18.526,15.159 18.562,15.062 18.61,14.972 18.665,14.893 
			18.729,14.816 18.804,14.751 18.892,14.692 18.989,14.644 19.098,14.599 19.218,14.566 19.355,14.539 19.503,14.518 
			19.666,14.505 19.846,14.501 19.957,14.501 20.06,14.505 20.154,14.509 20.239,14.511 20.314,14.518 20.384,14.523 20.444,14.529 
			20.499,14.536 20.55,14.542 20.593,14.55 20.631,14.557 20.668,14.563 20.699,14.569 20.725,14.572 20.752,14.578 20.777,14.581 
			20.622,15.265 20.622,15.265 		"/>
		<polyline fill="none" stroke="#FFFFFF" stroke-width="0.216" stroke-miterlimit="2.6131" points="20.622,15.265 20.622,15.265 
			20.58,15.261 20.538,15.255 20.499,15.25 20.459,15.243 20.422,15.238 20.384,15.232 20.345,15.226 20.302,15.219 20.259,15.214 
			20.211,15.21 20.157,15.208 20.099,15.204 20.036,15.204 19.966,15.208 19.887,15.214 19.8,15.219 19.8,15.219 19.739,15.229 
			19.681,15.238 19.63,15.255 19.585,15.273 19.542,15.295 19.503,15.32 19.473,15.35 19.445,15.376 19.427,15.41 19.412,15.443 
			19.406,15.48 19.406,15.517 19.416,15.555 19.427,15.594 19.451,15.634 19.482,15.673 19.482,15.673 19.542,15.73 19.615,15.776 
			19.7,15.815 19.791,15.848 19.887,15.878 19.987,15.913 20.086,15.949 20.184,15.988 20.274,16.039 20.359,16.102 20.435,16.179 
			20.499,16.272 20.547,16.388 20.578,16.524 20.589,16.687 20.578,16.877 20.578,16.877 20.557,17.02 20.52,17.144 20.471,17.259 
			20.411,17.358 20.341,17.447 20.262,17.521 20.178,17.588 20.084,17.646 19.987,17.691 19.887,17.73 19.784,17.761 19.678,17.785 
			19.575,17.803 19.476,17.813 19.376,17.819 19.282,17.822 19.282,17.822 19.152,17.822 19.03,17.819 18.925,17.819 18.826,17.816 
			18.734,17.813 18.653,17.807 18.581,17.8 18.511,17.791 18.447,17.785 18.39,17.772 18.332,17.763 18.281,17.749 18.229,17.736 
			18.182,17.719 18.132,17.7 18.081,17.682 18.217,17.014 18.217,17.014 18.245,17.02 18.277,17.029 18.32,17.04 18.371,17.054 
			18.426,17.065 18.486,17.076 18.553,17.093 18.625,17.104 18.701,17.116 18.78,17.129 18.861,17.137 18.946,17.146 19.034,17.149 
			19.122,17.151 19.209,17.151 19.297,17.149 19.297,17.149 19.385,17.131 19.455,17.106 19.509,17.074 19.551,17.032 
			19.582,16.989 19.606,16.941 19.621,16.892 19.633,16.847 19.633,16.847 19.64,16.759 19.612,16.685 19.56,16.624 19.485,16.571 
			19.394,16.526 19.289,16.481 19.17,16.438 19.052,16.39 18.931,16.335 18.816,16.272 18.71,16.193 18.613,16.1 18.538,15.984 
			18.483,15.848 18.456,15.685 18.459,15.492 18.459,15.492 18.474,15.374 18.496,15.261 18.526,15.159 18.562,15.062 18.61,14.972 
			18.665,14.893 18.729,14.816 18.804,14.751 18.892,14.692 18.989,14.644 19.098,14.599 19.218,14.566 19.355,14.539 
			19.503,14.518 19.666,14.505 19.846,14.501 19.846,14.501 19.957,14.501 20.06,14.505 20.154,14.509 20.239,14.511 20.314,14.518 
			20.384,14.523 20.444,14.529 20.499,14.536 20.55,14.542 20.593,14.55 20.631,14.557 20.668,14.563 20.699,14.569 20.725,14.572 
			20.752,14.578 20.777,14.581 20.622,15.265 		"/>
		<polygon fill-rule="evenodd" clip-rule="evenodd" fill="#FFFFFF" points="21.34,13.833 22.178,13.833 22.054,14.566 
			22.559,14.566 22.45,15.25 21.917,15.234 21.628,16.922 21.624,16.983 21.639,17.035 21.669,17.074 21.709,17.106 21.764,17.129 
			21.824,17.146 21.89,17.159 21.963,17.166 22.029,17.161 22.09,17.155 22.145,17.146 22.193,17.135 22.232,17.123 22.26,17.113 
			22.278,17.106 22.284,17.104 22.178,17.668 22.157,17.682 22.135,17.694 22.114,17.706 22.093,17.719 22.072,17.728 
			22.048,17.736 22.021,17.746 21.993,17.755 21.963,17.763 21.932,17.77 21.896,17.776 21.86,17.782 21.821,17.788 21.775,17.795 
			21.727,17.8 21.675,17.807 21.445,17.807 21.324,17.797 21.219,17.785 21.122,17.767 21.04,17.746 20.97,17.719 20.913,17.689 
			20.861,17.653 20.822,17.613 20.792,17.569 20.771,17.519 20.756,17.467 20.747,17.41 20.743,17.346 20.743,17.279 20.752,17.211 
			20.762,17.135 21.34,13.833 21.34,13.833 		"/>
		<polyline fill="none" stroke="#FFFFFF" stroke-width="0.216" stroke-miterlimit="2.6131" points="21.34,13.833 22.178,13.833 
			22.054,14.566 22.559,14.566 22.45,15.25 21.917,15.234 21.628,16.922 21.628,16.922 21.624,16.983 21.639,17.035 21.669,17.074 
			21.709,17.106 21.764,17.129 21.824,17.146 21.89,17.159 21.963,17.166 21.963,17.166 22.029,17.161 22.09,17.155 22.145,17.146 
			22.193,17.135 22.232,17.123 22.26,17.113 22.278,17.106 22.284,17.104 22.178,17.668 22.178,17.668 22.157,17.682 22.135,17.694 
			22.114,17.706 22.093,17.719 22.072,17.728 22.048,17.736 22.021,17.746 21.993,17.755 21.963,17.763 21.932,17.77 21.896,17.776 
			21.86,17.782 21.821,17.788 21.775,17.795 21.727,17.8 21.675,17.807 21.445,17.807 21.445,17.807 21.324,17.797 21.219,17.785 
			21.122,17.767 21.04,17.746 20.97,17.719 20.913,17.689 20.861,17.653 20.822,17.613 20.792,17.569 20.771,17.519 20.756,17.467 
			20.747,17.41 20.743,17.346 20.743,17.279 20.752,17.211 20.762,17.135 21.34,13.833 		"/>
		<polyline fill="none" stroke="#FFFFFF" stroke-width="0.216" stroke-miterlimit="2.6131" points="23.228,16.39 23.228,16.39 
			23.219,16.441 23.216,16.496 23.222,16.553 23.234,16.611 23.255,16.668 23.28,16.723 23.313,16.78 23.349,16.832 23.391,16.883 
			23.436,16.93 23.485,16.975 23.539,17.01 23.594,17.044 23.655,17.07 23.715,17.093 23.776,17.104 23.776,17.104 23.854,17.116 
			23.93,17.125 24.009,17.135 24.087,17.141 24.166,17.144 24.248,17.144 24.326,17.141 24.408,17.135 24.489,17.123 24.571,17.106 
			24.656,17.09 24.738,17.063 24.823,17.029 24.91,16.992 24.995,16.944 25.083,16.892 24.961,17.638 24.961,17.638 24.913,17.661 
			24.865,17.686 24.816,17.704 24.771,17.722 24.726,17.736 24.677,17.752 24.629,17.763 24.578,17.772 24.523,17.782 
			24.463,17.788 24.398,17.795 24.33,17.8 24.25,17.803 24.169,17.803 24.075,17.807 23.975,17.807 23.975,17.807 23.827,17.803 
			23.676,17.788 23.524,17.767 23.373,17.73 23.225,17.686 23.083,17.628 22.946,17.552 22.819,17.465 22.701,17.36 22.599,17.237 
			22.511,17.099 22.438,16.938 22.387,16.759 22.354,16.557 22.344,16.333 22.359,16.085 22.359,16.085 22.372,15.988 22.39,15.876 
			22.414,15.758 22.447,15.631 22.493,15.501 22.547,15.371 22.617,15.238 22.701,15.111 22.798,14.989 22.916,14.875 
			23.049,14.771 23.201,14.682 23.375,14.605 23.573,14.55 23.79,14.515 24.036,14.501 24.036,14.501 24.154,14.505 24.278,14.518 
			24.402,14.539 24.527,14.569 24.647,14.615 24.765,14.668 24.874,14.741 24.974,14.826 25.064,14.929 25.14,15.05 25.2,15.19 
			25.243,15.35 25.268,15.531 25.271,15.736 25.25,15.966 25.203,16.221 25.189,16.406 22.983,16.406 23.122,15.809 24.448,15.809 
			24.448,15.809 24.454,15.734 24.45,15.661 24.444,15.594 24.433,15.535 24.411,15.476 24.39,15.425 24.359,15.379 24.33,15.338 
			24.293,15.301 24.253,15.271 24.208,15.243 24.163,15.219 24.115,15.202 24.066,15.19 24.015,15.18 23.96,15.173 23.96,15.173 
			23.902,15.177 23.848,15.186 23.797,15.198 23.745,15.216 23.693,15.241 23.649,15.267 23.603,15.301 23.564,15.338 
			23.524,15.379 23.488,15.425 23.456,15.474 23.427,15.525 23.4,15.58 23.379,15.641 23.361,15.701 23.349,15.764 23.228,16.39 		
			"/>
		<polygon fill-rule="evenodd" clip-rule="evenodd" fill="#FFFFFF" points="30.444,14.747 30.405,14.727 30.366,14.708 
			30.322,14.687 30.278,14.666 30.232,14.648 30.183,14.629 30.129,14.611 30.075,14.593 30.019,14.578 29.96,14.566 29.896,14.554 
			29.834,14.544 29.764,14.539 29.693,14.532 29.622,14.532 29.546,14.532 29.47,14.532 29.392,14.539 29.31,14.548 29.225,14.563 
			29.141,14.587 29.056,14.621 28.971,14.664 28.887,14.717 28.805,14.784 28.726,14.863 28.65,14.958 28.578,15.072 28.512,15.204 
			28.447,15.354 28.39,15.525 28.342,15.72 28.323,15.828 28.312,15.934 28.306,16.039 28.309,16.142 28.317,16.245 28.338,16.341 
			28.365,16.433 28.398,16.524 28.444,16.605 28.499,16.685 28.563,16.753 28.635,16.817 28.717,16.871 28.81,16.917 28.914,16.957 
			29.028,16.983 29.067,16.992 29.114,17.001 29.168,17.008 29.229,17.014 29.295,17.02 29.364,17.02 29.439,17.02 29.516,17.014 
			29.594,17.004 29.673,16.989 29.749,16.968 29.824,16.944 29.899,16.911 29.97,16.871 30.032,16.823 30.093,16.769 29.958,17.577 
			29.939,17.592 29.921,17.61 29.896,17.631 29.869,17.649 29.837,17.674 29.794,17.694 29.745,17.716 29.69,17.732 29.622,17.755 
			29.543,17.77 29.452,17.782 29.347,17.795 29.229,17.8 29.093,17.803 28.938,17.8 28.769,17.791 28.629,17.776 28.49,17.746 
			28.351,17.7 28.211,17.64 28.078,17.567 27.95,17.477 27.831,17.37 27.718,17.251 27.618,17.113 27.534,16.962 27.461,16.792 
			27.407,16.609 27.371,16.406 27.358,16.191 27.364,15.955 27.397,15.703 27.422,15.58 27.448,15.458 27.479,15.34 27.51,15.229 
			27.542,15.123 27.582,15.017 27.622,14.917 27.664,14.822 27.71,14.729 27.754,14.641 27.806,14.557 27.86,14.479 27.915,14.402 
			27.975,14.331 28.036,14.264 28.1,14.2 28.169,14.14 28.238,14.081 28.312,14.03 28.387,13.981 28.47,13.937 28.55,13.898 
			28.635,13.861 28.723,13.827 28.816,13.797 28.91,13.772 29.007,13.752 29.11,13.734 29.213,13.718 29.322,13.707 29.431,13.701 
			29.546,13.697 29.643,13.701 29.737,13.707 29.828,13.715 29.917,13.728 30.003,13.74 30.084,13.758 30.164,13.772 30.235,13.791 
			30.305,13.809 30.366,13.827 30.424,13.846 30.472,13.864 30.515,13.878 30.55,13.892 30.578,13.904 30.597,13.91 30.444,14.747 
			30.444,14.747 		"/>
		<polyline fill="none" stroke="#FFFFFF" stroke-width="0.216" stroke-miterlimit="2.6131" points="30.444,14.747 30.444,14.747 
			30.405,14.727 30.366,14.708 30.322,14.687 30.278,14.666 30.232,14.648 30.183,14.629 30.129,14.611 30.075,14.593 
			30.019,14.578 29.96,14.566 29.896,14.554 29.834,14.544 29.764,14.539 29.693,14.532 29.622,14.532 29.546,14.532 29.546,14.532 
			29.47,14.532 29.392,14.539 29.31,14.548 29.225,14.563 29.141,14.587 29.056,14.621 28.971,14.664 28.887,14.717 28.805,14.784 
			28.726,14.863 28.65,14.958 28.578,15.072 28.512,15.204 28.447,15.354 28.39,15.525 28.342,15.72 28.342,15.72 28.323,15.828 
			28.312,15.934 28.306,16.039 28.309,16.142 28.317,16.245 28.338,16.341 28.365,16.433 28.398,16.524 28.444,16.605 
			28.499,16.685 28.563,16.753 28.635,16.817 28.717,16.871 28.81,16.917 28.914,16.957 29.028,16.983 29.028,16.983 29.067,16.992 
			29.114,17.001 29.168,17.008 29.229,17.014 29.295,17.02 29.364,17.02 29.439,17.02 29.516,17.014 29.594,17.004 29.673,16.989 
			29.749,16.968 29.824,16.944 29.899,16.911 29.97,16.871 30.032,16.823 30.093,16.769 29.958,17.577 29.958,17.577 29.939,17.592 
			29.921,17.61 29.896,17.631 29.869,17.649 29.837,17.674 29.794,17.694 29.745,17.716 29.69,17.732 29.622,17.755 29.543,17.77 
			29.452,17.782 29.347,17.795 29.229,17.8 29.093,17.803 28.938,17.8 28.769,17.791 28.769,17.791 28.629,17.776 28.49,17.746 
			28.351,17.7 28.211,17.64 28.078,17.567 27.95,17.477 27.831,17.37 27.718,17.251 27.618,17.113 27.534,16.962 27.461,16.792 
			27.407,16.609 27.371,16.406 27.358,16.191 27.364,15.955 27.397,15.703 27.397,15.703 27.422,15.58 27.448,15.458 27.479,15.34 
			27.51,15.229 27.542,15.123 27.582,15.017 27.622,14.917 27.664,14.822 27.71,14.729 27.754,14.641 27.806,14.557 27.86,14.479 
			27.915,14.402 27.975,14.331 28.036,14.264 28.1,14.2 28.169,14.14 28.238,14.081 28.312,14.03 28.387,13.981 28.47,13.937 
			28.55,13.898 28.635,13.861 28.723,13.827 28.816,13.797 28.91,13.772 29.007,13.752 29.11,13.734 29.213,13.718 29.322,13.707 
			29.431,13.701 29.546,13.697 29.546,13.697 29.643,13.701 29.737,13.707 29.828,13.715 29.917,13.728 30.003,13.74 30.084,13.758 
			30.164,13.772 30.235,13.791 30.305,13.809 30.366,13.827 30.424,13.846 30.472,13.864 30.515,13.878 30.55,13.892 30.578,13.904 
			30.597,13.91 30.444,14.747 		"/>
		<polygon fill-rule="evenodd" clip-rule="evenodd" fill="#FFFFFF" points="37.895,17.807 37.057,17.807 37.116,17.471 
			37.116,17.44 37.068,17.501 37.017,17.556 36.965,17.604 36.911,17.646 36.856,17.686 36.803,17.719 36.747,17.746 36.69,17.772 
			36.632,17.795 36.574,17.81 36.518,17.824 36.457,17.833 36.396,17.843 36.339,17.849 36.279,17.853 36.219,17.853 36.061,17.84 
			35.914,17.807 35.782,17.755 35.662,17.686 35.553,17.599 35.455,17.495 35.37,17.384 35.298,17.257 35.237,17.119 35.189,16.977 
			35.156,16.83 35.133,16.674 35.123,16.52 35.125,16.364 35.141,16.209 35.168,16.055 35.212,15.876 35.268,15.707 35.332,15.552 
			35.407,15.407 35.484,15.271 35.577,15.149 35.669,15.041 35.771,14.941 35.876,14.853 35.988,14.778 36.103,14.71 36.219,14.66 
			36.339,14.617 36.459,14.59 36.58,14.572 36.705,14.566 36.792,14.569 36.877,14.578 36.956,14.593 37.029,14.615 37.099,14.639 
			37.159,14.666 37.22,14.699 37.273,14.732 37.322,14.768 37.368,14.808 37.407,14.847 37.444,14.887 37.475,14.926 37.502,14.965 
			37.525,15.002 37.543,15.038 37.543,15.038 37.756,13.849 38.579,13.849 37.895,17.807 37.895,17.807 		"/>
		<polyline fill="none" stroke="#FFFFFF" stroke-width="0.216" stroke-miterlimit="2.6131" points="37.895,17.807 37.057,17.807 
			37.116,17.471 37.116,17.44 37.116,17.44 37.068,17.501 37.017,17.556 36.965,17.604 36.911,17.646 36.856,17.686 36.803,17.719 
			36.747,17.746 36.69,17.772 36.632,17.795 36.574,17.81 36.518,17.824 36.457,17.833 36.396,17.843 36.339,17.849 36.279,17.853 
			36.219,17.853 36.219,17.853 36.061,17.84 35.914,17.807 35.782,17.755 35.662,17.686 35.553,17.599 35.455,17.495 35.37,17.384 
			35.298,17.257 35.237,17.119 35.189,16.977 35.156,16.83 35.133,16.674 35.123,16.52 35.125,16.364 35.141,16.209 35.168,16.055 
			35.168,16.055 35.212,15.876 35.268,15.707 35.332,15.552 35.407,15.407 35.484,15.271 35.577,15.149 35.669,15.041 
			35.771,14.941 35.876,14.853 35.988,14.778 36.103,14.71 36.219,14.66 36.339,14.617 36.459,14.59 36.58,14.572 36.705,14.566 
			36.705,14.566 36.792,14.569 36.877,14.578 36.956,14.593 37.029,14.615 37.099,14.639 37.159,14.666 37.22,14.699 37.273,14.732 
			37.322,14.768 37.368,14.808 37.407,14.847 37.444,14.887 37.475,14.926 37.502,14.965 37.525,15.002 37.543,15.038 
			37.543,15.038 37.756,13.849 38.579,13.849 37.895,17.807 		"/>
		<polygon fill-rule="evenodd" clip-rule="evenodd" fill="#F1AD38" points="36.522,17.074 36.607,17.068 36.687,17.05 
			36.761,17.029 36.829,16.995 36.894,16.96 36.952,16.914 37.012,16.863 37.063,16.808 37.107,16.748 37.149,16.681 37.188,16.611 
			37.222,16.54 37.253,16.463 37.277,16.384 37.298,16.303 37.313,16.221 37.328,16.136 37.338,16.049 37.338,15.966 37.334,15.882 
			37.326,15.803 37.313,15.728 37.293,15.655 37.269,15.585 37.238,15.525 37.2,15.468 37.161,15.419 37.116,15.376 37.064,15.34 
			37.012,15.316 36.952,15.301 36.89,15.295 36.809,15.301 36.731,15.313 36.663,15.338 36.594,15.367 36.532,15.407 36.472,15.456 
			36.421,15.507 36.37,15.565 36.323,15.631 36.281,15.701 36.24,15.773 36.209,15.852 36.179,15.934 36.156,16.016 36.13,16.102 
			36.111,16.191 36.097,16.324 36.103,16.469 36.123,16.618 36.164,16.759 36.224,16.883 36.304,16.983 36.403,17.05 36.522,17.074 
			36.522,17.074 		"/>
		<polygon fill-rule="evenodd" clip-rule="evenodd" fill="#FFFFFF" points="17.942,17.135 17.82,17.807 17.058,17.807 
			17.079,17.682 17.095,17.569 17.106,17.486 17.119,17.44 17.077,17.488 17.028,17.537 16.97,17.582 16.907,17.625 16.834,17.668 
			16.758,17.704 16.68,17.739 16.598,17.77 16.51,17.797 16.423,17.819 16.334,17.838 16.244,17.849 16.156,17.854 16.069,17.858 
			15.984,17.849 15.902,17.838 15.795,17.81 15.699,17.778 15.615,17.739 15.539,17.694 15.472,17.646 15.413,17.592 15.364,17.533 
			15.321,17.475 15.286,17.41 15.254,17.343 15.23,17.277 15.212,17.211 15.201,17.141 15.191,17.07 15.186,17.004 15.186,16.938 
			15.194,16.82 15.212,16.708 15.243,16.602 15.282,16.5 15.331,16.402 15.384,16.315 15.448,16.231 15.521,16.155 15.597,16.085 
			15.682,16.021 15.77,15.964 15.86,15.915 15.957,15.874 16.057,15.84 16.159,15.813 16.266,15.794 16.271,15.794 16.286,15.791 
			16.308,15.789 16.341,15.785 16.377,15.779 16.419,15.776 16.465,15.771 16.517,15.764 16.568,15.758 16.62,15.752 16.674,15.749 
			16.723,15.743 16.771,15.74 16.816,15.736 16.858,15.734 16.891,15.734 16.962,15.734 17.034,15.736 17.1,15.74 17.167,15.74 
			17.222,15.743 17.264,15.746 17.293,15.749 17.302,15.749 17.309,15.728 17.328,15.673 17.342,15.61 17.348,15.552 17.336,15.486 
			17.309,15.425 17.273,15.371 17.225,15.326 17.167,15.287 17.103,15.259 17.031,15.241 16.952,15.234 16.868,15.232 
			16.776,15.229 16.683,15.229 16.586,15.232 16.486,15.238 16.389,15.247 16.293,15.255 16.199,15.267 16.107,15.279 16.02,15.295 
			15.942,15.31 15.869,15.326 15.802,15.344 15.748,15.362 15.705,15.382 15.672,15.401 15.887,14.672 15.954,14.644 16.02,14.621 
			16.093,14.599 16.166,14.583 16.239,14.569 16.317,14.557 16.396,14.544 16.477,14.539 16.561,14.532 16.649,14.529 16.74,14.526 
			16.834,14.526 16.931,14.526 17.031,14.526 17.137,14.529 17.243,14.532 17.328,14.539 17.418,14.554 17.512,14.575 
			17.608,14.603 17.703,14.639 17.793,14.682 17.884,14.732 17.969,14.79 18.044,14.857 18.111,14.929 18.172,15.011 18.217,15.101 
			18.248,15.198 18.265,15.301 18.265,15.416 18.248,15.537 17.942,17.135 17.942,17.135 		"/>
		<polyline fill="none" stroke="#FFFFFF" stroke-width="0.216" stroke-miterlimit="2.6131" points="17.942,17.135 17.82,17.807 
			17.058,17.807 17.058,17.807 17.079,17.682 17.095,17.569 17.106,17.486 17.119,17.44 17.119,17.44 17.077,17.488 17.028,17.537 
			16.97,17.582 16.907,17.625 16.834,17.668 16.758,17.704 16.68,17.739 16.598,17.77 16.51,17.797 16.423,17.819 16.334,17.838 
			16.244,17.849 16.156,17.854 16.069,17.858 15.984,17.849 15.902,17.838 15.902,17.838 15.795,17.81 15.699,17.778 15.615,17.739 
			15.539,17.694 15.472,17.646 15.413,17.592 15.364,17.533 15.321,17.475 15.286,17.41 15.254,17.343 15.23,17.277 15.212,17.211 
			15.201,17.141 15.191,17.07 15.186,17.004 15.186,16.938 15.186,16.938 15.194,16.82 15.212,16.708 15.243,16.602 15.282,16.5 
			15.331,16.402 15.384,16.315 15.448,16.231 15.521,16.155 15.597,16.085 15.682,16.021 15.77,15.964 15.86,15.915 15.957,15.874 
			16.057,15.84 16.159,15.813 16.266,15.794 16.266,15.794 16.271,15.794 16.286,15.791 16.308,15.789 16.341,15.785 16.377,15.779 
			16.419,15.776 16.465,15.771 16.517,15.764 16.568,15.758 16.62,15.752 16.674,15.749 16.723,15.743 16.771,15.74 16.816,15.736 
			16.858,15.734 16.891,15.734 16.891,15.734 16.962,15.734 17.034,15.736 17.1,15.74 17.167,15.74 17.222,15.743 17.264,15.746 
			17.293,15.749 17.302,15.749 17.302,15.749 17.309,15.728 17.328,15.673 17.342,15.61 17.348,15.552 17.348,15.552 17.336,15.486 
			17.309,15.425 17.273,15.371 17.225,15.326 17.167,15.287 17.103,15.259 17.031,15.241 16.952,15.234 16.952,15.234 
			16.868,15.232 16.776,15.229 16.683,15.229 16.586,15.232 16.486,15.238 16.389,15.247 16.293,15.255 16.199,15.267 
			16.107,15.279 16.02,15.295 15.942,15.31 15.869,15.326 15.802,15.344 15.748,15.362 15.705,15.382 15.672,15.401 15.887,14.672 
			15.887,14.672 15.954,14.644 16.02,14.621 16.093,14.599 16.166,14.583 16.239,14.569 16.317,14.557 16.396,14.544 16.477,14.539 
			16.561,14.532 16.649,14.529 16.74,14.526 16.834,14.526 16.931,14.526 17.031,14.526 17.137,14.529 17.243,14.532 17.243,14.532 
			17.328,14.539 17.418,14.554 17.512,14.575 17.608,14.603 17.703,14.639 17.793,14.682 17.884,14.732 17.969,14.79 18.044,14.857 
			18.111,14.929 18.172,15.011 18.217,15.101 18.248,15.198 18.265,15.301 18.265,15.416 18.248,15.537 17.942,17.135 		"/>
		<polygon fill-rule="evenodd" clip-rule="evenodd" fill="#DD262F" points="17.212,16.345 17.209,16.329 17.197,16.315 
			17.179,16.305 17.149,16.3 17.116,16.294 17.077,16.291 17.031,16.291 16.985,16.291 16.938,16.294 16.886,16.3 16.837,16.305 
			16.789,16.311 16.744,16.318 16.701,16.327 16.665,16.335 16.631,16.345 16.611,16.351 16.586,16.361 16.553,16.372 
			16.519,16.388 16.48,16.406 16.44,16.427 16.398,16.448 16.359,16.472 16.317,16.502 16.278,16.532 16.24,16.568 16.208,16.605 
			16.177,16.644 16.156,16.687 16.138,16.735 16.128,16.784 16.126,16.887 16.141,16.968 16.171,17.029 16.211,17.074 
			16.256,17.104 16.308,17.123 16.357,17.131 16.405,17.135 16.495,17.131 16.577,17.123 16.655,17.109 16.726,17.093 16.785,17.07 
			16.843,17.044 16.895,17.018 16.94,16.983 16.979,16.953 17.016,16.917 17.046,16.883 17.07,16.847 17.091,16.811 17.11,16.775 
			17.125,16.741 17.133,16.708 17.158,16.621 17.179,16.52 17.197,16.424 17.212,16.345 17.212,16.345 		"/>
		<polygon fill-rule="evenodd" clip-rule="evenodd" fill="#FFFFFF" points="11.575,17.807 10.752,17.807 11.439,13.833 
			12.87,13.833 13.007,16.191 13.996,13.833 15.491,13.833 14.789,17.807 13.965,17.807 14.486,14.838 14.453,14.838 13.221,17.807 
			12.293,17.807 12.287,17.682 12.265,17.353 12.238,16.883 12.208,16.345 12.177,15.803 12.15,15.329 12.129,14.984 12.123,14.838 
			12.114,14.838 12.096,14.838 12.078,14.838 12.078,14.838 11.575,17.807 11.575,17.807 		"/>
		<polyline fill="none" stroke="#FFFFFF" stroke-width="0.216" stroke-miterlimit="2.6131" points="11.575,17.807 10.752,17.807 
			11.439,13.833 12.87,13.833 13.007,16.191 13.996,13.833 15.491,13.833 14.789,17.807 13.965,17.807 14.486,14.838 14.453,14.838 
			13.221,17.807 12.293,17.807 12.293,17.807 12.287,17.682 12.265,17.353 12.238,16.883 12.208,16.345 12.177,15.803 12.15,15.329 
			12.129,14.984 12.123,14.838 12.123,14.838 12.114,14.838 12.096,14.838 12.078,14.838 12.078,14.838 11.575,17.807 		"/>
		<polygon fill-rule="evenodd" clip-rule="evenodd" fill="#FFFFFF" points="32.96,17.135 32.835,17.807 32.076,17.807 
			32.082,17.682 32.085,17.573 32.085,17.492 32.091,17.456 32.052,17.501 32.006,17.547 31.951,17.588 31.891,17.631 31.827,17.67 
			31.755,17.706 31.68,17.742 31.603,17.772 31.521,17.797 31.438,17.822 31.353,17.838 31.269,17.849 31.18,17.854 31.096,17.858 
			31.014,17.849 30.931,17.838 30.823,17.81 30.727,17.778 30.642,17.739 30.562,17.694 30.496,17.646 30.438,17.592 30.391,17.533 
			30.348,17.475 30.312,17.41 30.284,17.343 30.26,17.277 30.245,17.211 30.232,17.141 30.224,17.07 30.218,17.004 30.218,16.938 
			30.224,16.82 30.241,16.708 30.269,16.602 30.309,16.5 30.354,16.402 30.412,16.315 30.475,16.231 30.545,16.155 30.623,16.085 
			30.705,16.021 30.793,15.964 30.887,15.915 30.98,15.874 31.08,15.84 31.18,15.813 31.282,15.794 31.289,15.794 31.304,15.791 
			31.325,15.789 31.355,15.785 31.395,15.779 31.438,15.776 31.483,15.771 31.53,15.764 31.582,15.758 31.636,15.752 31.688,15.749 
			31.74,15.743 31.788,15.74 31.829,15.736 31.873,15.734 31.906,15.734 31.979,15.734 32.052,15.736 32.121,15.74 32.188,15.74 
			32.244,15.743 32.294,15.746 32.32,15.749 32.333,15.749 32.34,15.728 32.349,15.673 32.356,15.61 32.363,15.552 32.351,15.486 
			32.328,15.425 32.288,15.371 32.242,15.326 32.188,15.287 32.125,15.259 32.057,15.241 31.984,15.234 31.9,15.232 31.809,15.229 
			31.716,15.229 31.618,15.232 31.519,15.238 31.422,15.247 31.325,15.255 31.231,15.267 31.14,15.279 31.053,15.295 30.974,15.31 
			30.901,15.326 30.836,15.344 30.78,15.362 30.737,15.382 30.705,15.401 30.917,14.672 30.982,14.644 31.053,14.621 31.122,14.599 
			31.194,14.583 31.271,14.569 31.346,14.557 31.424,14.544 31.507,14.539 31.591,14.532 31.68,14.529 31.767,14.526 31.861,14.526 
			31.954,14.526 32.052,14.526 32.154,14.529 32.257,14.532 32.343,14.539 32.432,14.554 32.527,14.575 32.624,14.603 
			32.717,14.639 32.812,14.682 32.9,14.732 32.986,14.79 33.063,14.857 33.132,14.929 33.191,15.011 33.238,15.101 33.271,15.198 
			33.292,15.301 33.292,15.416 33.277,15.537 32.96,17.135 32.96,17.135 		"/>
		<polygon fill-rule="evenodd" clip-rule="evenodd" fill="#FFFFFF" points="32.835,17.828 32.853,17.81 32.977,17.137 
			32.941,17.131 32.816,17.803 32.835,17.785 32.835,17.828 32.85,17.824 32.853,17.81 32.835,17.828 32.835,17.828 		"/>
		<polygon fill-rule="evenodd" clip-rule="evenodd" fill="#FFFFFF" points="32.057,17.807 32.076,17.828 32.835,17.828 
			32.835,17.785 32.076,17.785 32.095,17.807 32.057,17.807 32.055,17.828 32.076,17.828 32.057,17.807 32.057,17.807 		"/>
		<polygon fill-rule="evenodd" clip-rule="evenodd" fill="#FFFFFF" points="32.106,17.467 32.079,17.444 32.066,17.492 
			32.063,17.573 32.063,17.682 32.057,17.807 32.095,17.807 32.1,17.682 32.106,17.573 32.104,17.492 32.104,17.467 32.076,17.444 
			32.106,17.467 32.106,17.467 		"/>
		<polygon fill-rule="evenodd" clip-rule="evenodd" fill="#FFFFFF" points="30.929,17.854 30.929,17.854 31.014,17.868 
			31.096,17.877 31.18,17.874 31.269,17.868 31.355,17.854 31.44,17.84 31.525,17.816 31.609,17.791 31.686,17.761 31.764,17.725 
			31.837,17.689 31.9,17.646 31.964,17.604 32.018,17.562 32.066,17.513 32.106,17.467 32.076,17.444 32.036,17.488 31.994,17.531 
			31.939,17.573 31.883,17.616 31.818,17.653 31.746,17.689 31.674,17.725 31.597,17.755 31.519,17.778 31.435,17.803 
			31.349,17.819 31.269,17.83 31.18,17.838 31.096,17.84 31.014,17.83 30.935,17.819 30.935,17.819 30.929,17.854 30.929,17.854 		
			"/>
		<polygon fill-rule="evenodd" clip-rule="evenodd" fill="#FFFFFF" points="30.197,16.938 30.197,16.938 30.199,17.004 
			30.206,17.07 30.215,17.144 30.228,17.213 30.241,17.279 30.267,17.35 30.293,17.42 30.332,17.482 30.375,17.547 30.424,17.604 
			30.484,17.661 30.553,17.71 30.633,17.758 30.721,17.797 30.819,17.828 30.929,17.854 30.935,17.819 30.826,17.791 30.731,17.761 
			30.65,17.722 30.571,17.68 30.508,17.631 30.454,17.579 30.405,17.521 30.363,17.465 30.329,17.401 30.302,17.338 30.278,17.274 
			30.263,17.208 30.251,17.137 30.241,17.07 30.235,17.004 30.238,16.938 30.238,16.938 30.197,16.938 30.197,16.938 		"/>
		<polygon fill-rule="evenodd" clip-rule="evenodd" fill="#FFFFFF" points="31.282,15.776 31.282,15.776 31.177,15.794 
			31.074,15.821 30.974,15.854 30.877,15.896 30.782,15.945 30.693,16.006 30.611,16.071 30.532,16.142 30.46,16.217 30.396,16.303 
			30.335,16.394 30.29,16.494 30.251,16.596 30.224,16.705 30.206,16.82 30.197,16.938 30.238,16.938 30.241,16.82 30.26,16.711 
			30.287,16.609 30.326,16.506 30.372,16.411 30.427,16.327 30.49,16.242 30.556,16.167 30.635,16.1 30.717,16.036 30.802,15.982 
			30.896,15.934 30.985,15.892 31.086,15.858 31.183,15.832 31.282,15.813 31.282,15.813 31.282,15.776 31.282,15.776 		"/>
		<polygon fill-rule="evenodd" clip-rule="evenodd" fill="#FFFFFF" points="31.906,15.712 31.906,15.712 31.873,15.712 
			31.829,15.72 31.788,15.722 31.74,15.725 31.688,15.73 31.636,15.734 31.582,15.74 31.53,15.746 31.483,15.752 31.438,15.758 
			31.395,15.761 31.355,15.767 31.325,15.771 31.301,15.773 31.289,15.776 31.282,15.776 31.282,15.813 31.289,15.813 
			31.307,15.809 31.325,15.807 31.355,15.803 31.395,15.797 31.438,15.794 31.483,15.789 31.53,15.781 31.582,15.776 31.636,15.771 
			31.688,15.767 31.74,15.761 31.788,15.758 31.829,15.755 31.873,15.755 31.906,15.755 31.906,15.755 31.906,15.712 31.906,15.712 
					"/>
		<polygon fill-rule="evenodd" clip-rule="evenodd" fill="#FFFFFF" points="32.315,15.746 32.333,15.73 32.32,15.73 32.294,15.728 
			32.244,15.725 32.188,15.72 32.121,15.72 32.052,15.72 31.979,15.712 31.906,15.712 31.906,15.755 31.979,15.755 32.052,15.755 
			32.121,15.761 32.188,15.761 32.244,15.761 32.294,15.764 32.32,15.767 32.333,15.767 32.351,15.752 32.333,15.767 32.349,15.771 
			32.351,15.752 32.315,15.746 32.315,15.746 		"/>
		<polygon fill-rule="evenodd" clip-rule="evenodd" fill="#FFFFFF" points="32.345,15.552 32.343,15.552 32.34,15.61 32.33,15.671 
			32.32,15.725 32.315,15.746 32.351,15.752 32.356,15.73 32.366,15.676 32.375,15.61 32.384,15.552 32.381,15.552 32.345,15.552 
			32.345,15.552 		"/>
		<polygon fill-rule="evenodd" clip-rule="evenodd" fill="#FFFFFF" points="31.984,15.252 31.984,15.255 32.055,15.259 
			32.118,15.277 32.178,15.304 32.229,15.34 32.271,15.382 32.309,15.434 32.333,15.488 32.345,15.552 32.381,15.552 32.369,15.482 
			32.345,15.416 32.304,15.358 32.254,15.31 32.197,15.267 32.13,15.241 32.06,15.222 31.984,15.214 31.984,15.216 31.984,15.252 
			31.984,15.252 		"/>
		<polygon fill-rule="evenodd" clip-rule="evenodd" fill="#FFFFFF" points="30.687,15.399 30.717,15.416 30.747,15.401 
			30.786,15.379 30.839,15.362 30.904,15.344 30.977,15.329 31.056,15.313 31.144,15.298 31.231,15.287 31.325,15.273 
			31.422,15.265 31.519,15.255 31.618,15.25 31.716,15.25 31.809,15.25 31.9,15.25 31.984,15.252 31.984,15.216 31.9,15.214 
			31.809,15.208 31.716,15.208 31.618,15.214 31.519,15.219 31.422,15.229 31.325,15.238 31.231,15.25 31.137,15.261 31.05,15.277 
			30.971,15.292 30.897,15.308 30.832,15.326 30.774,15.344 30.729,15.364 30.693,15.386 30.723,15.404 30.687,15.399 
			30.687,15.399 		"/>
		<polygon fill-rule="evenodd" clip-rule="evenodd" fill="#FFFFFF" points="30.911,14.654 30.897,14.668 30.687,15.399 
			30.723,15.404 30.935,14.674 30.923,14.69 30.911,14.654 30.901,14.656 30.897,14.668 30.911,14.654 30.911,14.654 		"/>
		<polygon fill-rule="evenodd" clip-rule="evenodd" fill="#FFFFFF" points="32.257,14.515 32.257,14.515 32.154,14.509 
			32.052,14.505 31.954,14.505 31.861,14.505 31.767,14.505 31.68,14.511 31.591,14.515 31.507,14.521 31.424,14.526 31.343,14.539 
			31.269,14.55 31.192,14.566 31.119,14.581 31.047,14.603 30.977,14.626 30.911,14.654 30.923,14.69 30.989,14.664 31.059,14.639 
			31.126,14.617 31.197,14.603 31.274,14.587 31.349,14.575 31.424,14.563 31.507,14.557 31.591,14.55 31.68,14.548 31.767,14.548 
			31.861,14.548 31.954,14.548 32.052,14.548 32.154,14.55 32.257,14.55 32.257,14.55 32.257,14.515 32.257,14.515 		"/>
		<polygon fill-rule="evenodd" clip-rule="evenodd" fill="#FFFFFF" points="33.295,15.541 33.295,15.541 33.31,15.416 33.31,15.301 
			33.289,15.194 33.256,15.095 33.208,15.002 33.146,14.917 33.073,14.842 32.998,14.775 32.91,14.717 32.819,14.664 32.725,14.621 
			32.629,14.583 32.529,14.557 32.435,14.536 32.343,14.521 32.257,14.515 32.257,14.55 32.343,14.557 32.43,14.572 32.523,14.593 
			32.617,14.621 32.711,14.656 32.802,14.699 32.893,14.747 32.975,14.804 33.05,14.871 33.116,14.941 33.178,15.02 33.22,15.108 
			33.252,15.202 33.272,15.301 33.272,15.416 33.259,15.535 33.259,15.535 33.295,15.541 33.295,15.541 		"/>
		<polygon fill-rule="evenodd" clip-rule="evenodd" fill="#FFFFFF" points="32.977,17.137 32.977,17.137 33.295,15.541 
			33.259,15.535 32.941,17.131 32.941,17.131 32.977,17.137 32.977,17.137 		"/>
		<polygon fill-rule="evenodd" clip-rule="evenodd" fill="#F1AD38" points="32.227,16.345 32.221,16.327 32.209,16.311 
			32.188,16.303 32.157,16.294 32.125,16.291 32.085,16.287 32.039,16.287 31.994,16.291 31.945,16.296 31.897,16.303 
			31.849,16.309 31.803,16.315 31.758,16.324 31.719,16.329 31.68,16.339 31.649,16.345 31.628,16.348 31.603,16.357 31.573,16.366 
			31.539,16.378 31.501,16.396 31.465,16.415 31.422,16.436 31.383,16.463 31.343,16.49 31.304,16.524 31.271,16.557 31.238,16.596 
			31.21,16.638 31.188,16.685 31.171,16.731 31.162,16.784 31.159,16.887 31.173,16.968 31.197,17.029 31.234,17.074 31.279,17.104 
			31.331,17.123 31.383,17.131 31.435,17.135 31.525,17.131 31.609,17.123 31.688,17.106 31.758,17.086 31.824,17.063 
			31.883,17.035 31.937,17.004 31.984,16.968 32.027,16.935 32.063,16.896 32.097,16.859 32.125,16.82 32.146,16.784 32.16,16.748 
			32.173,16.711 32.181,16.678 32.193,16.593 32.209,16.506 32.221,16.42 32.227,16.345 32.227,16.345 		"/>
		<polygon fill-rule="evenodd" clip-rule="evenodd" fill="#FFFFFF" points="38.459,17.394 38.467,17.322 38.489,17.241 
			38.533,17.168 38.584,17.104 38.647,17.054 38.721,17.018 38.8,16.992 38.884,16.983 38.969,16.992 39.048,17.018 39.12,17.054 
			39.185,17.104 39.235,17.168 39.277,17.241 39.3,17.322 39.308,17.394 39.217,17.394 39.214,17.338 39.196,17.271 39.165,17.211 
			39.125,17.159 39.077,17.116 39.021,17.086 38.953,17.065 38.884,17.06 38.814,17.065 38.749,17.086 38.69,17.116 38.642,17.159 
			38.603,17.211 38.572,17.271 38.555,17.338 38.547,17.394 38.459,17.394 38.459,17.394 		"/>
		<polygon fill-rule="evenodd" clip-rule="evenodd" fill="#FFFFFF" points="38.732,17.394 38.732,17.211 38.899,17.211 
			38.936,17.213 38.969,17.221 38.993,17.229 39.014,17.241 39.028,17.259 39.04,17.277 39.048,17.298 39.05,17.319 39.048,17.346 
			39.04,17.367 39.032,17.387 39.025,17.394 38.899,17.394 38.911,17.39 38.932,17.387 38.951,17.38 38.966,17.373 38.978,17.364 
			38.984,17.354 38.989,17.34 38.989,17.319 38.987,17.304 38.979,17.292 38.973,17.286 38.963,17.279 38.947,17.277 38.932,17.274 
			38.916,17.274 38.899,17.274 38.809,17.274 38.809,17.394 38.732,17.394 38.732,17.394 		"/>
		<polygon fill-rule="evenodd" clip-rule="evenodd" fill="#FFFFFF" points="38.459,17.394 38.457,17.41 38.467,17.498 
			38.489,17.579 38.533,17.653 38.584,17.712 38.647,17.763 38.721,17.803 38.8,17.828 38.884,17.838 38.969,17.828 39.048,17.803 
			39.12,17.763 39.185,17.712 39.235,17.653 39.277,17.579 39.3,17.498 39.31,17.41 39.308,17.394 39.217,17.394 39.221,17.41 
			39.214,17.482 39.196,17.549 39.165,17.608 39.125,17.658 39.077,17.7 39.021,17.732 38.953,17.755 38.884,17.761 38.814,17.755 
			38.749,17.732 38.69,17.7 38.642,17.658 38.603,17.608 38.572,17.549 38.555,17.482 38.547,17.41 38.547,17.394 38.459,17.394 
			38.459,17.394 		"/>
		<polygon fill-rule="evenodd" clip-rule="evenodd" fill="#FFFFFF" points="38.732,17.394 38.732,17.577 38.809,17.577 
			38.809,17.426 38.884,17.426 38.975,17.577 39.035,17.577 38.945,17.426 38.966,17.426 38.987,17.42 39.004,17.414 39.021,17.401 
			39.025,17.394 38.899,17.394 38.884,17.396 38.809,17.396 38.809,17.394 38.732,17.394 38.732,17.394 		"/>
		<path fill="none" stroke="#FFFFFF" stroke-width="0.216" stroke-miterlimit="2.6131" d="M38.457,17.41L38.457,17.41l0.01-0.088
			l0.022-0.081l0.044-0.073l0.051-0.063l0.063-0.051l0.073-0.036l0.079-0.026l0.084-0.009l0,0l0.085,0.009l0.079,0.026l0.072,0.036
			l0.064,0.051l0.051,0.063l0.042,0.073l0.022,0.081l0.01,0.088l0,0l-0.01,0.088l-0.022,0.081l-0.042,0.074l-0.051,0.059
			l-0.064,0.051l-0.072,0.04l-0.079,0.025l-0.085,0.01l0,0l-0.084-0.01l-0.079-0.025l-0.073-0.04l-0.063-0.051l-0.051-0.059
			l-0.044-0.074l-0.022-0.081L38.457,17.41 M38.809,17.577h-0.076v-0.366h0.167l0,0l0.036,0.002l0.033,0.008l0.024,0.008
			l0.021,0.013l0.015,0.018l0.012,0.019l0.008,0.021l0.002,0.021l0,0l-0.002,0.026l-0.008,0.021l-0.008,0.02l-0.011,0.015
			l-0.018,0.013l-0.017,0.006l-0.021,0.006h-0.021l0.09,0.151h-0.061l-0.091-0.151h-0.075V17.577 M38.884,17.396L38.884,17.396
			l0.027-0.006l0.021-0.003l0.02-0.007l0.015-0.007l0.012-0.009l0.007-0.01l0.005-0.015v-0.021l0,0l-0.002-0.016l-0.008-0.012
			l-0.007-0.006l-0.01-0.007l-0.016-0.002l-0.016-0.003h-0.016h-0.017h-0.091v0.121H38.884 M38.884,17.761L38.884,17.761
			l0.069-0.006l0.068-0.022l0.056-0.032l0.048-0.042l0.04-0.05l0.031-0.06l0.018-0.066l0.007-0.072l0,0l-0.007-0.072l-0.018-0.066
			l-0.031-0.061l-0.04-0.052l-0.048-0.043l-0.056-0.03l-0.068-0.021l-0.069-0.006l0,0l-0.069,0.006l-0.065,0.021l-0.059,0.03
			l-0.049,0.043l-0.039,0.052l-0.03,0.061l-0.018,0.066l-0.008,0.072l0,0l0.008,0.072l0.018,0.066l0.03,0.06l0.039,0.05L38.69,17.7
			l0.059,0.032l0.065,0.022L38.884,17.761"/>
		<polygon fill-rule="evenodd" clip-rule="evenodd" fill="#FFFFFF" points="33.186,17.807 34.04,17.807 34.04,17.807 34.345,16.085 
			34.356,16.018 34.376,15.952 34.394,15.885 34.417,15.819 34.448,15.752 34.483,15.688 34.524,15.628 34.572,15.57 34.626,15.519 
			34.688,15.47 34.757,15.425 34.835,15.389 34.924,15.358 35.021,15.334 35.125,15.316 35.244,15.31 35.285,15.31 35.311,15.31 
			35.319,15.31 35.319,15.31 35.455,14.532 35.37,14.539 35.288,14.548 35.212,14.563 35.141,14.583 35.073,14.607 35.011,14.639 
			34.95,14.672 34.892,14.708 34.838,14.751 34.787,14.793 34.738,14.842 34.69,14.89 34.644,14.941 34.6,14.999 34.554,15.052 
			34.513,15.113 34.603,14.566 33.751,14.566 33.186,17.807 33.186,17.807 33.186,17.807 		"/>
		<polyline fill="none" stroke="#FFFFFF" stroke-width="0.216" stroke-miterlimit="2.6131" points="33.186,17.807 34.04,17.807 
			34.04,17.807 34.345,16.085 34.345,16.085 34.356,16.018 34.376,15.952 34.394,15.885 34.417,15.819 34.448,15.752 34.483,15.688 
			34.524,15.628 34.572,15.57 34.626,15.519 34.688,15.47 34.757,15.425 34.835,15.389 34.924,15.358 35.021,15.334 35.125,15.316 
			35.244,15.31 35.244,15.31 35.285,15.31 35.311,15.31 35.319,15.31 35.319,15.31 35.455,14.532 35.455,14.532 35.37,14.539 
			35.288,14.548 35.212,14.563 35.141,14.583 35.073,14.607 35.011,14.639 34.95,14.672 34.892,14.708 34.838,14.751 34.787,14.793 
			34.738,14.842 34.69,14.89 34.644,14.941 34.6,14.999 34.554,15.052 34.513,15.113 34.603,14.566 33.751,14.566 33.186,17.807 
			33.186,17.807 		"/>
		<polygon fill-rule="evenodd" clip-rule="evenodd" fill="#FFFFFF" points="25.174,17.807 26.026,17.807 26.041,17.807 
			26.333,16.085 26.345,16.018 26.359,15.955 26.375,15.892 26.396,15.832 26.42,15.771 26.45,15.712 26.486,15.659 26.529,15.606 
			26.577,15.562 26.632,15.517 26.698,15.48 26.771,15.446 26.855,15.419 26.95,15.395 27.053,15.379 27.171,15.371 27.181,15.371 
			27.192,15.374 27.207,15.376 27.222,15.376 27.237,15.379 27.25,15.382 27.258,15.386 27.262,15.386 27.265,15.374 27.273,15.338 
			27.285,15.283 27.301,15.216 27.321,15.137 27.343,15.052 27.371,14.969 27.397,14.883 27.422,14.826 27.452,14.768 27.482,14.71 
			27.512,14.66 27.539,14.615 27.561,14.578 27.576,14.557 27.582,14.548 27.58,14.548 27.566,14.544 27.552,14.542 27.53,14.539 
			27.51,14.539 27.485,14.536 27.464,14.532 27.443,14.532 27.349,14.539 27.265,14.548 27.187,14.563 27.113,14.581 27.044,14.605 
			26.98,14.635 26.922,14.666 26.867,14.702 26.816,14.741 26.769,14.788 26.723,14.832 26.677,14.883 26.632,14.936 26.59,14.993 
			26.545,15.052 26.499,15.113 26.607,14.566 25.739,14.566 25.174,17.807 25.174,17.807 25.174,17.807 		"/>
		<polyline fill="none" stroke="#FFFFFF" stroke-width="0.216" stroke-miterlimit="2.6131" points="25.174,17.807 26.026,17.807 
			26.041,17.807 26.333,16.085 26.333,16.085 26.345,16.018 26.359,15.955 26.375,15.892 26.396,15.832 26.42,15.771 26.45,15.712 
			26.486,15.659 26.529,15.606 26.577,15.562 26.632,15.517 26.698,15.48 26.771,15.446 26.855,15.419 26.95,15.395 27.053,15.379 
			27.171,15.371 27.171,15.371 27.181,15.371 27.192,15.374 27.207,15.376 27.222,15.376 27.237,15.379 27.25,15.382 27.258,15.386 
			27.262,15.386 27.262,15.386 27.265,15.374 27.273,15.338 27.285,15.283 27.301,15.216 27.321,15.137 27.343,15.052 
			27.371,14.969 27.397,14.883 27.397,14.883 27.422,14.826 27.452,14.768 27.482,14.71 27.512,14.66 27.539,14.615 27.561,14.578 
			27.576,14.557 27.582,14.548 27.582,14.548 27.58,14.548 27.566,14.544 27.552,14.542 27.53,14.539 27.51,14.539 27.485,14.536 
			27.464,14.532 27.443,14.532 27.443,14.532 27.349,14.539 27.265,14.548 27.187,14.563 27.113,14.581 27.044,14.605 26.98,14.635 
			26.922,14.666 26.867,14.702 26.816,14.741 26.769,14.788 26.723,14.832 26.677,14.883 26.632,14.936 26.59,14.993 26.545,15.052 
			26.499,15.113 26.607,14.566 25.739,14.566 25.174,17.807 25.174,17.807 		"/>
		<polygon fill-rule="evenodd" clip-rule="evenodd" fill="#F1AD38" points="38.467,20.989 38.467,20.978 38.489,20.898 
			38.533,20.83 38.584,20.769 38.647,20.721 38.721,20.685 38.8,20.663 38.884,20.654 38.969,20.663 39.048,20.685 39.12,20.721 
			39.185,20.769 39.235,20.83 39.277,20.898 39.3,20.978 39.3,20.989 39.214,20.989 39.196,20.927 39.165,20.868 39.125,20.817 
			39.077,20.775 39.021,20.741 38.953,20.721 38.884,20.715 38.814,20.721 38.749,20.741 38.69,20.775 38.642,20.817 38.603,20.868 
			38.572,20.927 38.555,20.989 38.467,20.989 38.467,20.989 		"/>
		<polygon fill-rule="evenodd" clip-rule="evenodd" fill="#F1AD38" points="38.732,20.989 38.732,20.884 38.899,20.884 
			38.936,20.884 38.969,20.891 38.993,20.896 39.014,20.907 39.028,20.923 39.04,20.941 39.048,20.963 39.05,20.989 38.989,20.989 
			38.989,20.975 38.987,20.959 38.979,20.947 38.973,20.941 38.963,20.935 38.947,20.933 38.932,20.929 38.916,20.929 
			38.899,20.929 38.809,20.929 38.809,20.989 38.732,20.989 38.732,20.989 		"/>
		<polygon fill-rule="evenodd" clip-rule="evenodd" fill="#F1AD38" points="38.457,21.057 38.467,20.989 38.555,20.989 
			38.555,20.992 38.547,21.057 38.457,21.057 38.457,21.057 		"/>
		<polygon fill-rule="evenodd" clip-rule="evenodd" fill="#F1AD38" points="38.732,21.057 38.732,20.989 38.809,20.989 
			38.809,21.051 38.884,21.051 38.911,21.045 38.932,21.042 38.951,21.035 38.966,21.029 38.978,21.02 38.984,21.01 38.989,20.995 
			38.989,20.989 39.05,20.989 39.05,20.989 39.048,21.01 39.04,21.029 39.032,21.045 39.021,21.057 38.732,21.057 38.732,21.057 		
			"/>
		<polygon fill-rule="evenodd" clip-rule="evenodd" fill="#F1AD38" points="39.221,21.057 39.214,20.992 39.214,20.989 39.3,20.989 
			39.31,21.057 39.221,21.057 39.221,21.057 		"/>
		<polygon fill-rule="evenodd" clip-rule="evenodd" fill="#F1AD38" points="38.457,21.057 38.457,21.065 38.467,21.152 
			38.489,21.234 38.533,21.307 38.584,21.371 38.647,21.422 38.721,21.459 38.8,21.483 38.884,21.492 38.969,21.483 39.048,21.459 
			39.12,21.422 39.185,21.371 39.235,21.307 39.277,21.234 39.3,21.152 39.31,21.065 39.31,21.057 39.221,21.057 39.221,21.065 
			39.214,21.138 39.196,21.204 39.165,21.263 39.125,21.313 39.077,21.355 39.021,21.39 38.953,21.41 38.884,21.416 38.814,21.41 
			38.749,21.39 38.69,21.355 38.642,21.313 38.603,21.263 38.572,21.204 38.555,21.138 38.547,21.065 38.547,21.057 38.457,21.057 
			38.457,21.057 		"/>
		<polygon fill-rule="evenodd" clip-rule="evenodd" fill="#F1AD38" points="38.732,21.057 38.732,21.231 38.809,21.231 
			38.809,21.081 38.884,21.081 38.975,21.231 39.035,21.231 38.945,21.081 38.966,21.081 38.987,21.075 39.004,21.069 
			39.021,21.057 39.021,21.057 38.732,21.057 38.732,21.057 		"/>
		<path fill-rule="evenodd" clip-rule="evenodd" fill="#FFFFFF" d="M25.268,15.531l-0.025-0.181L25.2,15.19l-0.06-0.14l-0.076-0.121
			l-0.091-0.103l-0.1-0.085l-0.109-0.072l-0.118-0.054l-0.12-0.046l-0.125-0.03l-0.124-0.021l-0.124-0.012l-0.118-0.004
			l-0.246,0.014l-0.217,0.035l-0.198,0.055l-0.175,0.077l-0.151,0.09l-0.133,0.104l-0.118,0.114l-0.097,0.122l-0.084,0.127
			l-0.07,0.132l-0.054,0.13l-0.046,0.13l-0.033,0.127l-0.024,0.118l-0.018,0.112l-0.013,0.097l-0.015,0.248l0.009,0.224l0.033,0.203
			l0.051,0.179l0.074,0.16l0.087,0.139l0.103,0.123l0.118,0.104l0.127,0.087l0.136,0.076l0.143,0.058l0.148,0.045l0.151,0.036
			l0.151,0.021l0.151,0.015l0.148,0.004h0.1l0.094-0.004h0.082L24.33,17.8l0.069-0.005l0.064-0.007l0.06-0.006l0.055-0.01
			l0.051-0.01l0.048-0.011l0.049-0.016l0.045-0.015l0.044-0.018l0.049-0.019l0.047-0.024l0.049-0.023l0.121-0.746l-0.087,0.053
			l-0.085,0.047l-0.087,0.038l-0.084,0.033l-0.083,0.027l-0.084,0.017l-0.082,0.017l-0.081,0.012l-0.082,0.006l-0.079,0.003h-0.082
			l-0.078-0.003l-0.079-0.006l-0.079-0.01l-0.076-0.009l-0.078-0.012l-0.061-0.012l-0.06-0.022l-0.061-0.026l-0.055-0.034
			l-0.054-0.035l-0.049-0.045l-0.045-0.046l-0.042-0.052l-0.037-0.052l-0.033-0.057l-0.024-0.055l-0.021-0.057l-0.013-0.059
			l-0.006-0.057l0.002-0.051l0.007-0.039h1.963l0.014-0.185l0.046-0.255l0.021-0.23L25.268,15.531z M24.448,15.809h-1.106
			l0.001-0.002h-0.002l0.008-0.042l0.012-0.063l0.018-0.061L23.4,15.58l0.027-0.055l0.028-0.051l0.033-0.048l0.036-0.046l0.04-0.041
			l0.039-0.037l0.046-0.034l0.044-0.026l0.052-0.024l0.052-0.018l0.051-0.012l0.054-0.009l0.058-0.004l0.055,0.007l0.051,0.01
			l0.049,0.012l0.048,0.017l0.045,0.024l0.045,0.028l0.04,0.03l0.036,0.037l0.03,0.041l0.03,0.046l0.021,0.051l0.021,0.059
			l0.011,0.06l0.006,0.067l0.004,0.073L24.448,15.809z"/>
	</g>
</g>
</svg>
