<?xml version="1.0" encoding="utf-8"?>
<!-- Generator: Adobe Illustrator 16.0.0, SVG Export Plug-In . SVG Version: 6.00 Build 0)  -->
<!DOCTYPE svg PUBLIC "-//W3C//DTD SVG 1.1//EN" "http://www.w3.org/Graphics/SVG/1.1/DTD/svg11.dtd">
<svg version="1.1" id="图层_1" xmlns="http://www.w3.org/2000/svg" xmlns:xlink="http://www.w3.org/1999/xlink" x="0px" y="0px"
	 width="50px" height="31.25px" viewBox="0 0 50 31.25" enable-background="new 0 0 50 31.25" xml:space="preserve">
<path fill="#FAFAFB" d="M50,29.584c0,0.922-0.747,1.666-1.666,1.666H1.667C0.747,31.25,0,30.506,0,29.584V1.667
	C0,0.747,0.747,0,1.667,0h46.667C49.253,0,50,0.747,50,1.667V29.584z"/>
<g>
	<polygon fill="#F1AD38" points="30.4,21.698 30.816,21.688 31.228,21.658 31.632,21.606 32.031,21.536 32.421,21.445 
		32.805,21.337 33.181,21.209 33.549,21.064 33.907,20.901 34.257,20.725 34.594,20.527 34.923,20.318 35.24,20.094 35.544,19.853 
		35.839,19.6 36.12,19.33 36.389,19.048 36.644,18.755 36.882,18.45 37.107,18.134 37.318,17.805 37.512,17.468 37.691,17.118 
		37.854,16.759 37.999,16.392 38.126,16.016 38.236,15.631 38.326,15.242 38.396,14.843 38.447,14.437 38.479,14.027 38.487,13.611 
		38.479,13.196 38.447,12.788 38.396,12.386 38.326,11.991 38.236,11.602 38.126,11.219 37.999,10.844 37.854,10.479 37.691,10.122 
		37.512,9.774 37.318,9.439 37.107,9.109 36.882,8.793 36.644,8.49 36.389,8.197 36.12,7.917 35.839,7.649 35.544,7.396 
		35.24,7.157 34.923,6.931 34.594,6.72 34.257,6.526 33.907,6.35 33.549,6.187 33.181,6.042 32.805,5.916 32.421,5.806 
		32.031,5.716 31.632,5.646 31.228,5.594 30.816,5.563 30.4,5.552 29.987,5.563 29.575,5.594 29.172,5.646 28.774,5.716 
		28.386,5.806 28.002,5.916 27.628,6.042 27.26,6.187 26.903,6.35 26.558,6.526 26.22,6.72 25.894,6.931 25.578,7.157 25.273,7.396 
		24.981,7.649 24.7,7.917 24.434,8.197 24.181,8.49 23.941,8.793 23.718,9.109 23.508,9.439 23.314,9.774 23.135,10.122 
		22.973,10.479 22.829,10.844 22.704,11.219 22.595,11.602 22.506,11.991 22.434,12.386 22.383,12.788 22.353,13.196 22.341,13.611 
		22.353,14.027 22.383,14.437 22.434,14.843 22.506,15.242 22.595,15.631 22.704,16.016 22.829,16.392 22.973,16.759 23.135,17.118 
		23.314,17.468 23.508,17.805 23.718,18.134 23.941,18.45 24.181,18.755 24.434,19.048 24.7,19.33 24.981,19.6 25.273,19.853 
		25.578,20.094 25.894,20.318 26.22,20.527 26.558,20.725 26.903,20.901 27.26,21.064 27.628,21.209 28.002,21.337 28.386,21.445 
		28.774,21.536 29.172,21.606 29.575,21.658 29.987,21.688 30.4,21.698 	"/>
	<polygon fill="#DD262F" points="19.6,21.698 20.013,21.688 20.424,21.658 20.828,21.606 21.226,21.536 21.615,21.445 
		21.999,21.337 22.372,21.209 22.739,21.064 23.096,20.901 23.443,20.725 23.781,20.527 24.106,20.318 24.422,20.094 24.727,19.853 
		25.019,19.6 25.3,19.33 25.567,19.048 25.82,18.755 26.06,18.45 26.282,18.134 26.492,17.805 26.686,17.468 26.865,17.118 
		27.026,16.759 27.171,16.392 27.296,16.016 27.404,15.631 27.494,15.242 27.566,14.843 27.617,14.437 27.646,14.027 27.658,13.611 
		27.646,13.196 27.617,12.788 27.566,12.386 27.494,11.991 27.404,11.602 27.296,11.219 27.171,10.844 27.026,10.479 26.865,10.122 
		26.686,9.774 26.492,9.439 26.282,9.109 26.06,8.793 25.82,8.49 25.567,8.197 25.3,7.917 25.019,7.649 24.727,7.396 24.422,7.157 
		24.106,6.931 23.781,6.72 23.443,6.526 23.096,6.35 22.739,6.187 22.372,6.042 21.999,5.916 21.615,5.806 21.226,5.716 
		20.828,5.646 20.424,5.594 20.013,5.563 19.6,5.552 19.183,5.563 18.772,5.594 18.369,5.646 17.969,5.716 17.58,5.806 
		17.195,5.916 16.819,6.042 16.452,6.187 16.093,6.35 15.743,6.526 15.406,6.72 15.077,6.931 14.76,7.157 14.456,7.396 
		14.161,7.649 13.881,7.917 13.612,8.197 13.357,8.49 13.118,8.793 12.892,9.109 12.683,9.439 12.487,9.774 12.309,10.122 
		12.146,10.479 12.002,10.844 11.874,11.219 11.766,11.602 11.674,11.991 11.604,12.386 11.552,12.788 11.521,13.196 11.512,13.611 
		11.521,14.027 11.552,14.437 11.604,14.843 11.674,15.242 11.766,15.631 11.874,16.016 12.002,16.392 12.146,16.759 12.309,17.118 
		12.487,17.468 12.683,17.805 12.892,18.134 13.118,18.45 13.357,18.755 13.612,19.048 13.881,19.33 14.161,19.6 14.456,19.853 
		14.76,20.094 15.077,20.318 15.406,20.527 15.743,20.725 16.093,20.901 16.452,21.064 16.819,21.209 17.195,21.337 17.58,21.445 
		17.969,21.536 18.369,21.606 18.772,21.658 19.183,21.688 19.6,21.698 	"/>
	<polygon fill="#F1AD38" points="24.055,8.65 28.345,8.65 28.345,8.21 24.425,8.21 24.055,8.65 	"/>
	<polygon fill="#F1AD38" points="23.412,9.624 28.345,9.624 28.345,9.185 23.671,9.185 23.412,9.624 	"/>
	<polygon fill="#F1AD38" points="22.933,10.595 28.345,10.595 28.345,10.157 23.124,10.157 22.933,10.595 	"/>
	<polygon fill="#F1AD38" points="22.604,11.571 28.345,11.571 28.345,11.132 22.739,11.132 22.604,11.571 	"/>
	<polygon fill="#F1AD38" points="22.795,16.283 28.357,16.283 28.357,15.844 22.657,15.844 22.795,16.283 	"/>
	<polygon fill="#F1AD38" points="23.205,17.258 28.357,17.258 28.357,16.819 23.001,16.819 23.205,17.258 	"/>
	<polygon fill="#F1AD38" points="23.781,18.229 28.357,18.229 28.357,17.792 23.508,17.792 23.781,18.229 	"/>
	<polygon fill="#F1AD38" points="24.578,19.204 28.357,19.204 28.357,18.764 24.194,18.764 24.578,19.204 	"/>
	<polygon fill="#F1AD38" points="22.411,12.543 28.345,12.543 28.345,12.105 22.494,12.105 22.411,12.543 	"/>
	<polygon fill="#F1AD38" points="26.026,15.311 28.289,15.311 28.289,14.871 26.107,14.871 26.026,15.311 	"/>
	<polygon fill="#F1AD38" points="26.207,14.337 28.289,14.337 28.289,13.896 26.288,13.896 26.207,14.337 	"/>
	<polygon fill="#F1AD38" points="22.26,13.896 22.849,13.896 22.849,14.337 22.287,14.337 22.26,13.896 	"/>
	<polygon fill="#FFFFFF" points="21.162,13.366 21.124,13.363 21.087,13.357 21.051,13.353 21.016,13.346 20.983,13.342 
		20.948,13.335 20.913,13.331 20.875,13.324 20.836,13.319 20.792,13.316 20.744,13.314 20.692,13.311 20.634,13.311 20.572,13.314 
		20.501,13.319 20.423,13.324 20.369,13.333 20.316,13.342 20.27,13.357 20.229,13.374 20.19,13.393 20.155,13.416 20.128,13.442 
		20.103,13.467 20.087,13.497 20.073,13.526 20.068,13.559 20.068,13.592 20.076,13.627 20.087,13.663 20.108,13.698 20.137,13.734 
		20.19,13.785 20.256,13.827 20.332,13.86 20.414,13.891 20.501,13.918 20.591,13.948 20.681,13.982 20.768,14.017 20.85,14.063 
		20.926,14.12 20.994,14.188 21.051,14.273 21.095,14.375 21.122,14.499 21.133,14.646 21.122,14.818 21.103,14.945 21.07,15.058 
		21.026,15.161 20.973,15.251 20.911,15.33 20.838,15.397 20.762,15.458 20.678,15.508 20.591,15.55 20.501,15.585 20.408,15.612 
		20.313,15.634 20.22,15.651 20.131,15.659 20.041,15.664 19.957,15.667 19.839,15.667 19.73,15.664 19.635,15.664 19.545,15.662 
		19.463,15.659 19.391,15.653 19.325,15.648 19.262,15.64 19.205,15.634 19.153,15.624 19.101,15.616 19.056,15.603 19.008,15.59 
		18.965,15.574 18.921,15.559 18.875,15.542 18.998,14.94 19.022,14.945 19.052,14.954 19.091,14.964 19.136,14.975 19.185,14.987 
		19.241,14.996 19.3,15.01 19.365,15.021 19.434,15.031 19.505,15.042 19.579,15.051 19.655,15.06 19.732,15.063 19.813,15.066 
		19.89,15.066 19.97,15.063 20.049,15.046 20.111,15.024 20.16,14.994 20.199,14.956 20.226,14.919 20.248,14.875 20.261,14.831 
		20.272,14.791 20.278,14.711 20.254,14.643 20.207,14.588 20.139,14.542 20.057,14.502 19.962,14.46 19.856,14.422 19.75,14.379 
		19.641,14.33 19.538,14.273 19.442,14.202 19.355,14.117 19.286,14.014 19.238,13.891 19.213,13.745 19.216,13.57 19.229,13.463 
		19.248,13.363 19.277,13.27 19.308,13.184 19.353,13.101 19.4,13.031 19.458,12.963 19.526,12.903 19.605,12.852 19.693,12.808 
		19.791,12.766 19.899,12.737 20.023,12.711 20.155,12.693 20.302,12.682 20.463,12.678 20.563,12.678 20.656,12.682 20.742,12.686 
		20.818,12.688 20.885,12.693 20.948,12.699 21.002,12.705 21.051,12.709 21.098,12.714 21.135,12.723 21.17,12.729 21.204,12.734 
		21.232,12.74 21.256,12.742 21.28,12.748 21.302,12.75 21.162,13.366 	"/>
	<polyline fill="none" stroke="#FFFFFF" stroke-width="0.216" stroke-miterlimit="2.6131" points="21.162,13.366 21.162,13.366 
		21.124,13.363 21.087,13.357 21.051,13.353 21.016,13.346 20.983,13.342 20.948,13.335 20.913,13.331 20.875,13.324 20.836,13.319 
		20.792,13.316 20.744,13.314 20.692,13.311 20.634,13.311 20.572,13.314 20.501,13.319 20.423,13.324 20.423,13.324 20.369,13.333 
		20.316,13.342 20.27,13.357 20.229,13.374 20.19,13.393 20.155,13.416 20.128,13.442 20.103,13.467 20.087,13.497 20.073,13.526 
		20.068,13.559 20.068,13.592 20.076,13.627 20.087,13.663 20.108,13.698 20.137,13.734 20.137,13.734 20.19,13.785 20.256,13.827 
		20.332,13.86 20.414,13.891 20.501,13.918 20.591,13.948 20.681,13.982 20.768,14.017 20.85,14.063 20.926,14.12 20.994,14.188 
		21.051,14.273 21.095,14.375 21.122,14.499 21.133,14.646 21.122,14.818 21.122,14.818 21.103,14.945 21.07,15.058 21.026,15.161 
		20.973,15.251 20.911,15.33 20.838,15.397 20.762,15.458 20.678,15.508 20.591,15.55 20.501,15.585 20.408,15.612 20.313,15.634 
		20.22,15.651 20.131,15.659 20.041,15.664 19.957,15.667 19.957,15.667 19.839,15.667 19.73,15.664 19.635,15.664 19.545,15.662 
		19.463,15.659 19.391,15.653 19.325,15.648 19.262,15.64 19.205,15.634 19.153,15.624 19.101,15.616 19.056,15.603 19.008,15.59 
		18.965,15.574 18.921,15.559 18.875,15.542 18.998,14.94 18.998,14.94 19.022,14.945 19.052,14.954 19.091,14.964 19.136,14.975 
		19.185,14.987 19.241,14.996 19.3,15.01 19.365,15.021 19.434,15.031 19.505,15.042 19.579,15.051 19.655,15.06 19.732,15.063 
		19.813,15.066 19.89,15.066 19.97,15.063 19.97,15.063 20.049,15.046 20.111,15.024 20.16,14.994 20.199,14.956 20.226,14.919 
		20.248,14.875 20.261,14.831 20.272,14.791 20.272,14.791 20.278,14.711 20.254,14.643 20.207,14.588 20.139,14.542 20.057,14.502 
		19.962,14.46 19.856,14.422 19.75,14.379 19.641,14.33 19.538,14.273 19.442,14.202 19.355,14.117 19.286,14.014 19.238,13.891 
		19.213,13.745 19.216,13.57 19.216,13.57 19.229,13.463 19.248,13.363 19.277,13.27 19.308,13.184 19.353,13.101 19.4,13.031 
		19.458,12.963 19.526,12.903 19.605,12.852 19.693,12.808 19.791,12.766 19.899,12.737 20.023,12.711 20.155,12.693 20.302,12.682 
		20.463,12.678 20.463,12.678 20.563,12.678 20.656,12.682 20.742,12.686 20.818,12.688 20.885,12.693 20.948,12.699 21.002,12.705 
		21.051,12.709 21.098,12.714 21.135,12.723 21.17,12.729 21.204,12.734 21.232,12.74 21.256,12.742 21.28,12.748 21.302,12.75 
		21.162,13.366 	"/>
	<polygon fill="#FFFFFF" points="21.809,12.078 22.563,12.078 22.451,12.737 22.906,12.737 22.808,13.353 22.328,13.338 
		22.067,14.858 22.064,14.914 22.078,14.959 22.105,14.994 22.141,15.024 22.189,15.042 22.244,15.06 22.304,15.07 22.37,15.075 
		22.43,15.073 22.484,15.068 22.533,15.06 22.577,15.049 22.612,15.037 22.637,15.031 22.653,15.024 22.657,15.021 22.563,15.529 
		22.544,15.542 22.525,15.553 22.506,15.562 22.487,15.574 22.467,15.582 22.446,15.59 22.421,15.599 22.396,15.608 22.37,15.616 
		22.341,15.621 22.31,15.627 22.278,15.631 22.242,15.638 22.201,15.642 22.157,15.648 22.11,15.653 21.904,15.653 21.794,15.645 
		21.699,15.634 21.611,15.618 21.539,15.599 21.476,15.574 21.424,15.548 21.378,15.517 21.342,15.479 21.314,15.442 21.296,15.395 
		21.283,15.348 21.274,15.297 21.271,15.24 21.271,15.181 21.28,15.117 21.289,15.049 21.809,12.078 	"/>
	<polyline fill="none" stroke="#FFFFFF" stroke-width="0.216" stroke-miterlimit="2.6131" points="21.809,12.078 22.563,12.078 
		22.451,12.737 22.906,12.737 22.808,13.353 22.328,13.338 22.067,14.858 22.067,14.858 22.064,14.914 22.078,14.959 22.105,14.994 
		22.141,15.024 22.189,15.042 22.244,15.06 22.304,15.07 22.37,15.075 22.37,15.075 22.43,15.073 22.484,15.068 22.533,15.06 
		22.577,15.049 22.612,15.037 22.637,15.031 22.653,15.024 22.657,15.021 22.563,15.529 22.563,15.529 22.544,15.542 22.525,15.553 
		22.506,15.562 22.487,15.574 22.467,15.582 22.446,15.59 22.421,15.599 22.396,15.608 22.37,15.616 22.341,15.621 22.31,15.627 
		22.278,15.631 22.242,15.638 22.201,15.642 22.157,15.648 22.11,15.653 21.904,15.653 21.904,15.653 21.794,15.645 21.699,15.634 
		21.611,15.618 21.539,15.599 21.476,15.574 21.424,15.548 21.378,15.517 21.342,15.479 21.314,15.442 21.296,15.395 21.283,15.348 
		21.274,15.297 21.271,15.24 21.271,15.181 21.28,15.117 21.289,15.049 21.809,12.078 	"/>
	<polyline fill="none" stroke="#FFFFFF" stroke-width="0.216" stroke-miterlimit="2.6131" points="23.508,14.379 23.508,14.379 
		23.499,14.425 23.497,14.472 23.502,14.525 23.513,14.578 23.532,14.629 23.556,14.679 23.584,14.73 23.617,14.776 23.654,14.823 
		23.696,14.863 23.739,14.905 23.788,14.937 23.837,14.967 23.892,14.991 23.946,15.01 24.001,15.021 24.001,15.021 24.071,15.031 
		24.14,15.04 24.211,15.049 24.281,15.055 24.352,15.058 24.425,15.058 24.496,15.055 24.57,15.049 24.644,15.037 24.717,15.024 
		24.794,15.008 24.867,14.984 24.944,14.954 25.021,14.92 25.098,14.876 25.176,14.831 25.068,15.5 25.068,15.5 25.024,15.521 
		24.981,15.545 24.937,15.561 24.896,15.577 24.856,15.59 24.812,15.605 24.768,15.616 24.722,15.624 24.673,15.631 24.619,15.638 
		24.562,15.642 24.499,15.648 24.428,15.651 24.355,15.651 24.269,15.653 24.181,15.653 24.181,15.653 24.046,15.651 23.911,15.638 
		23.775,15.618 23.638,15.585 23.505,15.545 23.377,15.493 23.255,15.424 23.141,15.345 23.034,15.253 22.941,15.142 22.862,15.016 
		22.796,14.871 22.751,14.711 22.721,14.528 22.712,14.326 22.727,14.103 22.727,14.103 22.736,14.017 22.753,13.916 22.775,13.81 
		22.805,13.695 22.845,13.579 22.895,13.46 22.957,13.342 23.034,13.228 23.121,13.118 23.226,13.014 23.347,12.922 23.482,12.84 
		23.641,12.773 23.818,12.723 24.013,12.691 24.235,12.678 24.235,12.678 24.341,12.682 24.454,12.693 24.565,12.711 24.677,12.74 
		24.785,12.781 24.892,12.829 24.989,12.894 25.079,12.97 25.161,13.063 25.229,13.172 25.283,13.298 25.321,13.442 25.344,13.605 
		25.346,13.79 25.327,13.997 25.285,14.226 25.273,14.393 23.289,14.393 23.412,13.855 24.606,13.855 24.606,13.855 24.61,13.789 
		24.607,13.722 24.603,13.663 24.591,13.607 24.572,13.557 24.554,13.51 24.527,13.469 24.499,13.431 24.466,13.398 24.431,13.371 
		24.39,13.346 24.349,13.324 24.306,13.309 24.262,13.298 24.216,13.289 24.167,13.284 24.167,13.284 24.115,13.287 24.066,13.294 
		24.02,13.307 23.973,13.322 23.927,13.344 23.887,13.368 23.845,13.398 23.811,13.431 23.775,13.469 23.742,13.51 23.712,13.553 
		23.688,13.601 23.663,13.649 23.644,13.703 23.627,13.757 23.617,13.815 23.508,14.379 	"/>
	<polygon fill="#FFFFFF" points="30.003,12.899 29.968,12.881 29.933,12.864 29.894,12.845 29.854,12.826 29.812,12.811 
		29.767,12.793 29.719,12.777 29.671,12.761 29.619,12.748 29.566,12.737 29.51,12.726 29.453,12.717 29.391,12.711 29.328,12.706 
		29.261,12.706 29.193,12.706 29.127,12.706 29.056,12.711 28.981,12.721 28.905,12.734 28.829,12.755 28.753,12.785 28.678,12.823 
		28.601,12.872 28.527,12.932 28.455,13.004 28.388,13.091 28.322,13.191 28.263,13.311 28.206,13.447 28.153,13.601 28.11,13.774 
		28.094,13.871 28.083,13.968 28.078,14.063 28.081,14.155 28.089,14.247 28.107,14.335 28.131,14.417 28.162,14.499 28.203,14.572 
		28.25,14.643 28.31,14.705 28.374,14.764 28.448,14.812 28.531,14.853 28.625,14.887 28.729,14.914 28.764,14.92 28.806,14.929 
		28.854,14.935 28.908,14.94 28.968,14.945 29.03,14.945 29.1,14.945 29.166,14.94 29.237,14.931 29.309,14.919 29.375,14.898 
		29.443,14.876 29.514,14.847 29.575,14.812 29.632,14.77 29.687,14.719 29.563,15.446 29.548,15.46 29.531,15.476 29.51,15.496 
		29.484,15.511 29.456,15.533 29.417,15.553 29.373,15.572 29.326,15.588 29.261,15.608 29.19,15.621 29.109,15.631 29.014,15.642 
		28.908,15.648 28.785,15.651 28.646,15.648 28.494,15.64 28.369,15.627 28.243,15.599 28.117,15.559 27.993,15.503 27.872,15.439 
		27.758,15.356 27.649,15.26 27.549,15.152 27.459,15.031 27.384,14.894 27.316,14.741 27.27,14.576 27.236,14.393 27.226,14.2 
		27.23,13.985 27.26,13.76 27.282,13.649 27.307,13.539 27.334,13.434 27.361,13.333 27.391,13.236 27.426,13.143 27.461,13.052 
		27.5,12.969 27.542,12.883 27.581,12.804 27.628,12.729 27.677,12.658 27.725,12.589 27.78,12.523 27.834,12.465 27.893,12.406 
		27.954,12.353 28.019,12.301 28.083,12.254 28.151,12.211 28.225,12.17 28.298,12.136 28.374,12.103 28.453,12.072 28.538,12.045 
		28.621,12.023 28.709,12.003 28.802,11.989 28.894,11.974 28.992,11.962 29.091,11.958 29.193,11.956 29.282,11.958 29.366,11.962 
		29.447,11.971 29.529,11.982 29.605,11.993 29.68,12.01 29.75,12.023 29.814,12.039 29.877,12.055 29.933,12.072 29.984,12.089 
		30.026,12.105 30.066,12.119 30.098,12.129 30.122,12.14 30.139,12.146 30.003,12.899 	"/>
	<polyline fill="none" stroke="#FFFFFF" stroke-width="0.216" stroke-miterlimit="2.6131" points="30.003,12.899 30.003,12.899 
		29.968,12.881 29.933,12.864 29.894,12.845 29.854,12.826 29.812,12.811 29.767,12.793 29.719,12.777 29.671,12.761 29.619,12.748 
		29.566,12.737 29.51,12.726 29.453,12.717 29.391,12.711 29.328,12.706 29.261,12.706 29.193,12.706 29.193,12.706 29.127,12.706 
		29.056,12.711 28.981,12.721 28.905,12.734 28.829,12.755 28.753,12.785 28.678,12.823 28.601,12.872 28.527,12.932 28.455,13.004 
		28.388,13.091 28.322,13.191 28.263,13.311 28.206,13.447 28.153,13.601 28.11,13.774 28.11,13.774 28.094,13.871 28.083,13.968 
		28.078,14.063 28.081,14.155 28.089,14.247 28.107,14.335 28.131,14.417 28.162,14.499 28.203,14.572 28.25,14.643 28.31,14.705 
		28.374,14.764 28.448,14.812 28.531,14.853 28.625,14.887 28.729,14.914 28.729,14.914 28.764,14.92 28.806,14.929 28.854,14.935 
		28.908,14.94 28.968,14.945 29.03,14.945 29.1,14.945 29.166,14.94 29.237,14.931 29.309,14.919 29.375,14.898 29.443,14.876 
		29.514,14.847 29.575,14.812 29.632,14.77 29.687,14.719 29.563,15.446 29.563,15.446 29.548,15.46 29.531,15.476 29.51,15.496 
		29.484,15.511 29.456,15.533 29.417,15.553 29.373,15.572 29.326,15.588 29.261,15.608 29.19,15.621 29.109,15.631 29.014,15.642 
		28.908,15.648 28.785,15.651 28.646,15.648 28.494,15.64 28.494,15.64 28.369,15.627 28.243,15.599 28.117,15.559 27.993,15.503 
		27.872,15.439 27.758,15.356 27.649,15.26 27.549,15.152 27.459,15.031 27.384,14.894 27.316,14.741 27.27,14.576 27.236,14.393 
		27.226,14.2 27.23,13.985 27.26,13.76 27.26,13.76 27.282,13.649 27.307,13.539 27.334,13.434 27.361,13.333 27.391,13.236 
		27.426,13.143 27.461,13.052 27.5,12.969 27.542,12.883 27.581,12.804 27.628,12.729 27.677,12.658 27.725,12.589 27.78,12.523 
		27.834,12.465 27.893,12.406 27.954,12.353 28.019,12.301 28.083,12.254 28.151,12.211 28.225,12.17 28.298,12.136 28.374,12.103 
		28.453,12.072 28.538,12.045 28.621,12.023 28.709,12.003 28.802,11.989 28.894,11.974 28.992,11.962 29.091,11.958 29.193,11.956 
		29.193,11.956 29.282,11.958 29.366,11.962 29.447,11.971 29.529,11.982 29.605,11.993 29.68,12.01 29.75,12.023 29.814,12.039 
		29.877,12.055 29.933,12.072 29.984,12.089 30.026,12.105 30.066,12.119 30.098,12.129 30.122,12.14 30.139,12.146 30.003,12.899 	
		"/>
	<polygon fill="#FFFFFF" points="36.708,15.653 35.953,15.653 36.008,15.351 36.008,15.325 35.965,15.379 35.918,15.427 
		35.872,15.471 35.821,15.508 35.773,15.545 35.725,15.574 35.675,15.599 35.624,15.624 35.571,15.642 35.519,15.656 35.469,15.669 
		35.413,15.678 35.358,15.686 35.308,15.691 35.253,15.695 35.199,15.695 35.058,15.684 34.927,15.653 34.807,15.608 34.698,15.545 
		34.6,15.465 34.512,15.374 34.436,15.271 34.371,15.159 34.318,15.035 34.274,14.907 34.244,14.773 34.222,14.635 34.213,14.496 
		34.216,14.354 34.229,14.216 34.254,14.077 34.295,13.916 34.344,13.764 34.4,13.624 34.47,13.493 34.54,13.371 34.62,13.263 
		34.706,13.164 34.796,13.074 34.892,12.995 34.993,12.928 35.095,12.867 35.199,12.82 35.308,12.782 35.417,12.758 35.524,12.742 
		35.637,12.737 35.717,12.74 35.792,12.748 35.863,12.761 35.929,12.781 35.991,12.802 36.046,12.826 36.1,12.856 36.149,12.887 
		36.193,12.918 36.232,12.955 36.27,12.99 36.303,13.025 36.329,13.061 36.354,13.096 36.375,13.128 36.392,13.162 36.392,13.162 
		36.583,12.091 37.322,12.091 36.708,15.653 	"/>
	<polyline fill="none" stroke="#FFFFFF" stroke-width="0.216" stroke-miterlimit="2.6131" points="36.708,15.653 35.953,15.653 
		36.008,15.351 36.008,15.325 36.008,15.325 35.965,15.379 35.918,15.427 35.872,15.471 35.821,15.508 35.773,15.545 35.725,15.574 
		35.675,15.599 35.624,15.624 35.571,15.642 35.519,15.656 35.469,15.669 35.413,15.678 35.358,15.686 35.308,15.691 35.253,15.695 
		35.199,15.695 35.199,15.695 35.058,15.684 34.927,15.653 34.807,15.608 34.698,15.545 34.6,15.465 34.512,15.374 34.436,15.271 
		34.371,15.159 34.318,15.035 34.274,14.907 34.244,14.773 34.222,14.635 34.213,14.496 34.216,14.354 34.229,14.216 34.254,14.077 
		34.254,14.077 34.295,13.916 34.344,13.764 34.4,13.624 34.47,13.493 34.54,13.371 34.62,13.263 34.706,13.164 34.796,13.074 
		34.892,12.995 34.993,12.928 35.095,12.867 35.199,12.82 35.308,12.782 35.417,12.758 35.524,12.742 35.637,12.737 35.637,12.737 
		35.717,12.74 35.792,12.748 35.863,12.761 35.929,12.781 35.991,12.802 36.046,12.826 36.1,12.856 36.149,12.887 36.193,12.918 
		36.232,12.955 36.27,12.99 36.303,13.025 36.329,13.061 36.354,13.096 36.375,13.128 36.392,13.162 36.392,13.162 36.583,12.091 
		37.322,12.091 36.708,15.653 	"/>
	<polygon fill="#F1AD38" points="35.475,14.994 35.551,14.989 35.621,14.972 35.687,14.954 35.749,14.922 35.807,14.892 
		35.859,14.85 35.912,14.805 35.958,14.754 36,14.699 36.037,14.64 36.074,14.578 36.104,14.513 36.13,14.444 36.153,14.373 
		36.171,14.299 36.185,14.226 36.197,14.15 36.206,14.071 36.206,13.997 36.203,13.921 36.195,13.851 36.185,13.782 36.167,13.716 
		36.143,13.654 36.116,13.601 36.083,13.548 36.048,13.504 36.008,13.467 35.962,13.434 35.912,13.412 35.859,13.398 35.804,13.393 
		35.729,13.398 35.661,13.409 35.598,13.431 35.537,13.458 35.481,13.493 35.428,13.537 35.382,13.583 35.334,13.636 35.294,13.695 
		35.257,13.757 35.22,13.824 35.19,13.894 35.164,13.968 35.141,14.042 35.12,14.12 35.104,14.2 35.09,14.319 35.095,14.449 
		35.114,14.583 35.149,14.711 35.204,14.823 35.275,14.914 35.366,14.972 35.475,14.994 	"/>
	<polygon fill="#FFFFFF" points="18.751,15.049 18.642,15.653 17.955,15.653 17.974,15.542 17.988,15.442 17.998,15.365 
		18.009,15.325 17.971,15.369 17.928,15.411 17.875,15.451 17.819,15.488 17.753,15.529 17.685,15.561 17.614,15.594 17.541,15.621 
		17.461,15.645 17.382,15.664 17.303,15.682 17.222,15.691 17.143,15.697 17.065,15.701 16.988,15.691 16.915,15.682 16.819,15.656 
		16.732,15.629 16.656,15.594 16.587,15.553 16.527,15.508 16.473,15.46 16.43,15.407 16.393,15.354 16.358,15.297 16.332,15.237 
		16.311,15.177 16.293,15.117 16.283,15.055 16.275,14.991 16.27,14.931 16.27,14.871 16.277,14.766 16.293,14.664 16.32,14.569 
		16.356,14.476 16.399,14.39 16.448,14.311 16.507,14.235 16.571,14.167 16.64,14.103 16.715,14.046 16.794,13.995 16.877,13.95 
		16.963,13.913 17.054,13.882 17.146,13.859 17.242,13.842 17.247,13.842 17.26,13.839 17.28,13.836 17.31,13.834 17.342,13.829 
		17.38,13.827 17.42,13.82 17.468,13.815 17.514,13.81 17.56,13.804 17.609,13.801 17.652,13.795 17.697,13.794 17.737,13.79 
		17.776,13.789 17.804,13.789 17.868,13.789 17.933,13.79 17.993,13.794 18.052,13.794 18.102,13.795 18.14,13.797 18.167,13.801 
		18.175,13.801 18.181,13.782 18.197,13.734 18.21,13.676 18.216,13.624 18.205,13.565 18.181,13.51 18.148,13.46 18.104,13.419 
		18.052,13.384 17.996,13.359 17.931,13.344 17.859,13.338 17.783,13.335 17.702,13.333 17.617,13.333 17.53,13.335 17.441,13.342 
		17.353,13.349 17.266,13.357 17.182,13.368 17.1,13.379 17.021,13.393 16.95,13.406 16.885,13.419 16.825,13.437 16.775,13.453 
		16.737,13.472 16.708,13.488 16.901,12.832 16.961,12.808 17.021,12.785 17.086,12.766 17.151,12.752 17.218,12.74 17.288,12.729 
		17.358,12.717 17.432,12.711 17.508,12.706 17.588,12.705 17.668,12.701 17.753,12.701 17.84,12.701 17.931,12.701 18.026,12.705 
		18.121,12.706 18.197,12.711 18.279,12.726 18.363,12.744 18.451,12.769 18.534,12.802 18.617,12.84 18.698,12.887 18.775,12.938 
		18.842,12.999 18.903,13.063 18.958,13.136 18.998,13.218 19.025,13.307 19.041,13.398 19.041,13.502 19.025,13.611 18.751,15.049 
			"/>
	<polyline fill="none" stroke="#FFFFFF" stroke-width="0.216" stroke-miterlimit="2.6131" points="18.751,15.049 18.642,15.653 
		17.955,15.653 17.955,15.653 17.974,15.542 17.988,15.442 17.998,15.365 18.009,15.325 18.009,15.325 17.971,15.369 17.928,15.411 
		17.875,15.451 17.819,15.488 17.753,15.529 17.685,15.561 17.614,15.594 17.541,15.621 17.461,15.645 17.382,15.664 17.303,15.682 
		17.222,15.691 17.143,15.697 17.065,15.701 16.988,15.691 16.915,15.682 16.915,15.682 16.819,15.656 16.732,15.629 16.656,15.594 
		16.587,15.553 16.527,15.508 16.473,15.46 16.43,15.407 16.393,15.354 16.358,15.297 16.332,15.237 16.311,15.177 16.293,15.117 
		16.283,15.055 16.275,14.991 16.27,14.931 16.27,14.871 16.27,14.871 16.277,14.766 16.293,14.664 16.32,14.569 16.356,14.476 
		16.399,14.39 16.448,14.311 16.507,14.235 16.571,14.167 16.64,14.103 16.715,14.046 16.794,13.995 16.877,13.95 16.963,13.913 
		17.054,13.882 17.146,13.859 17.242,13.842 17.242,13.842 17.247,13.842 17.26,13.839 17.28,13.836 17.31,13.834 17.342,13.829 
		17.38,13.827 17.42,13.82 17.468,13.815 17.514,13.81 17.56,13.804 17.609,13.801 17.652,13.795 17.697,13.794 17.737,13.79 
		17.776,13.789 17.804,13.789 17.804,13.789 17.868,13.789 17.933,13.79 17.993,13.794 18.052,13.794 18.102,13.795 18.14,13.797 
		18.167,13.801 18.175,13.801 18.175,13.801 18.181,13.782 18.197,13.734 18.21,13.676 18.216,13.624 18.216,13.624 18.205,13.565 
		18.181,13.51 18.148,13.46 18.104,13.419 18.052,13.384 17.996,13.359 17.931,13.344 17.859,13.338 17.859,13.338 17.783,13.335 
		17.702,13.333 17.617,13.333 17.53,13.335 17.441,13.342 17.353,13.349 17.266,13.357 17.182,13.368 17.1,13.379 17.021,13.393 
		16.95,13.406 16.885,13.419 16.825,13.437 16.775,13.453 16.737,13.472 16.708,13.488 16.901,12.832 16.901,12.832 16.961,12.808 
		17.021,12.785 17.086,12.766 17.151,12.752 17.218,12.74 17.288,12.729 17.358,12.717 17.432,12.711 17.508,12.706 17.588,12.705 
		17.668,12.701 17.753,12.701 17.84,12.701 17.931,12.701 18.026,12.705 18.121,12.706 18.121,12.706 18.197,12.711 18.279,12.726 
		18.363,12.744 18.451,12.769 18.534,12.802 18.617,12.84 18.698,12.887 18.775,12.938 18.842,12.999 18.903,13.063 18.958,13.136 
		18.998,13.218 19.025,13.307 19.041,13.398 19.041,13.502 19.025,13.611 18.751,15.049 	"/>
	<polygon fill="#DD262F" points="18.094,14.337 18.091,14.323 18.081,14.311 18.063,14.303 18.037,14.296 18.006,14.292 
		17.971,14.288 17.931,14.288 17.89,14.288 17.846,14.292 17.799,14.296 17.756,14.303 17.712,14.308 17.671,14.314 17.633,14.321 
		17.601,14.33 17.571,14.337 17.553,14.343 17.53,14.353 17.5,14.361 17.47,14.375 17.435,14.393 17.4,14.412 17.362,14.432 
		17.327,14.452 17.288,14.479 17.253,14.506 17.219,14.539 17.189,14.572 17.162,14.607 17.143,14.646 17.127,14.69 17.119,14.732 
		17.116,14.825 17.129,14.898 17.158,14.954 17.193,14.994 17.233,15.021 17.28,15.037 17.324,15.046 17.367,15.049 17.448,15.046 
		17.522,15.037 17.593,15.028 17.656,15.01 17.709,14.991 17.761,14.967 17.808,14.942 17.85,14.914 17.884,14.885 17.916,14.853 
		17.944,14.823 17.967,14.791 17.984,14.757 18.002,14.726 18.014,14.694 18.022,14.664 18.045,14.586 18.063,14.496 18.081,14.409 
		18.094,14.337 	"/>
	<polygon fill="#FFFFFF" points="13.019,15.653 12.28,15.653 12.898,12.078 14.186,12.078 14.309,14.2 15.199,12.078 16.543,12.078 
		15.912,15.653 15.171,15.653 15.64,12.981 15.61,12.981 14.501,15.653 13.667,15.653 13.66,15.542 13.641,15.245 13.618,14.823 
		13.589,14.337 13.562,13.851 13.538,13.423 13.518,13.113 13.512,12.981 13.505,12.981 13.489,12.981 13.472,12.981 13.472,12.981 
		13.019,15.653 	"/>
	<polyline fill="none" stroke="#FFFFFF" stroke-width="0.216" stroke-miterlimit="2.6131" points="13.019,15.653 12.28,15.653 
		12.898,12.078 14.186,12.078 14.309,14.2 15.199,12.078 16.543,12.078 15.912,15.653 15.171,15.653 15.64,12.981 15.61,12.981 
		14.501,15.653 13.667,15.653 13.667,15.653 13.66,15.542 13.641,15.245 13.618,14.823 13.589,14.337 13.562,13.851 13.538,13.423 
		13.518,13.113 13.512,12.981 13.512,12.981 13.505,12.981 13.489,12.981 13.472,12.981 13.472,12.981 13.019,15.653 	"/>
	<polygon fill="#FFFFFF" points="32.266,15.049 32.154,15.653 31.471,15.653 31.476,15.542 31.479,15.444 31.479,15.371 
		31.483,15.337 31.449,15.379 31.408,15.42 31.358,15.458 31.305,15.496 31.247,15.531 31.182,15.562 31.113,15.596 31.045,15.624 
		30.973,15.645 30.896,15.667 30.82,15.682 30.744,15.691 30.665,15.697 30.588,15.701 30.516,15.691 30.441,15.682 30.344,15.656 
		30.256,15.629 30.18,15.594 30.108,15.553 30.049,15.508 29.997,15.46 29.953,15.407 29.916,15.354 29.883,15.297 29.856,15.237 
		29.837,15.177 29.823,15.117 29.812,15.055 29.804,14.991 29.798,14.931 29.798,14.871 29.804,14.766 29.82,14.664 29.845,14.569 
		29.881,14.476 29.921,14.39 29.973,14.311 30.03,14.235 30.093,14.167 30.163,14.103 30.236,14.046 30.315,13.995 30.4,13.95 
		30.484,13.913 30.574,13.882 30.665,13.859 30.757,13.842 30.762,13.842 30.776,13.839 30.794,13.836 30.822,13.834 30.858,13.829 
		30.896,13.827 30.938,13.82 30.98,13.815 31.025,13.81 31.076,13.804 31.122,13.801 31.168,13.795 31.212,13.794 31.249,13.79 
		31.288,13.789 31.317,13.789 31.384,13.789 31.449,13.79 31.511,13.794 31.571,13.794 31.623,13.795 31.667,13.797 31.692,13.801 
		31.702,13.801 31.708,13.782 31.716,13.734 31.724,13.676 31.729,13.624 31.719,13.565 31.697,13.51 31.66,13.46 31.62,13.419 
		31.571,13.384 31.515,13.359 31.455,13.344 31.39,13.338 31.313,13.335 31.23,13.333 31.147,13.333 31.06,13.335 30.969,13.342 
		30.883,13.349 30.794,13.357 30.711,13.368 30.629,13.379 30.551,13.393 30.479,13.406 30.414,13.419 30.354,13.437 30.305,13.453 
		30.267,13.472 30.236,13.488 30.427,12.832 30.488,12.808 30.551,12.785 30.612,12.766 30.68,12.752 30.746,12.74 30.814,12.729 
		30.885,12.717 30.959,12.711 31.034,12.706 31.113,12.705 31.192,12.701 31.277,12.701 31.361,12.701 31.449,12.701 31.543,12.705 
		31.634,12.706 31.711,12.711 31.792,12.726 31.877,12.744 31.963,12.769 32.048,12.802 32.132,12.84 32.214,12.887 32.291,12.938 
		32.358,12.999 32.421,13.063 32.476,13.136 32.517,13.218 32.546,13.307 32.565,13.398 32.565,13.502 32.552,13.611 32.266,15.049 
			"/>
	<polygon fill="#FFFFFF" points="32.154,15.673 32.17,15.656 32.282,15.051 32.249,15.046 32.139,15.651 32.154,15.634 
		32.154,15.673 32.168,15.669 32.17,15.656 32.154,15.673 	"/>
	<polygon fill="#FFFFFF" points="31.455,15.653 31.471,15.673 32.154,15.673 32.154,15.634 31.471,15.634 31.487,15.653 
		31.455,15.653 31.452,15.673 31.471,15.673 31.455,15.653 	"/>
	<polygon fill="#FFFFFF" points="31.499,15.348 31.473,15.327 31.464,15.371 31.459,15.444 31.459,15.542 31.455,15.653 
		31.487,15.653 31.491,15.542 31.499,15.444 31.495,15.371 31.495,15.348 31.471,15.327 31.499,15.348 	"/>
	<polygon fill="#FFFFFF" points="30.438,15.697 30.438,15.697 30.516,15.708 30.588,15.716 30.665,15.713 30.744,15.708 
		30.822,15.697 30.899,15.684 30.975,15.662 31.051,15.64 31.119,15.612 31.19,15.58 31.256,15.548 31.313,15.508 31.37,15.471 
		31.419,15.433 31.464,15.39 31.499,15.348 31.471,15.327 31.436,15.369 31.396,15.406 31.348,15.444 31.298,15.481 31.24,15.517 
		31.174,15.548 31.108,15.58 31.04,15.608 30.969,15.629 30.894,15.651 30.816,15.664 30.744,15.675 30.665,15.682 30.588,15.684 
		30.516,15.675 30.444,15.664 30.444,15.664 30.438,15.697 	"/>
	<polygon fill="#FFFFFF" points="29.779,14.871 29.779,14.871 29.781,14.931 29.786,14.991 29.795,15.058 29.807,15.119 
		29.82,15.181 29.842,15.242 29.866,15.305 29.902,15.363 29.94,15.42 29.984,15.471 30.038,15.521 30.101,15.565 30.172,15.61 
		30.252,15.645 30.34,15.673 30.438,15.697 30.444,15.664 30.346,15.64 30.261,15.612 30.189,15.577 30.117,15.539 30.06,15.496 
		30.01,15.45 29.968,15.397 29.929,15.345 29.899,15.29 29.874,15.231 29.854,15.175 29.839,15.114 29.829,15.051 29.82,14.991 
		29.814,14.931 29.818,14.871 29.818,14.871 29.779,14.871 	"/>
	<polygon fill="#FFFFFF" points="30.757,13.827 30.757,13.827 30.661,13.842 30.568,13.868 30.479,13.896 30.393,13.935 
		30.307,13.979 30.226,14.033 30.152,14.091 30.082,14.155 30.017,14.224 29.959,14.299 29.904,14.382 29.864,14.471 29.829,14.563 
		29.804,14.662 29.786,14.766 29.779,14.871 29.818,14.871 29.82,14.766 29.837,14.667 29.86,14.576 29.896,14.483 29.936,14.396 
		29.987,14.321 30.043,14.244 30.103,14.178 30.174,14.117 30.248,14.059 30.323,14.012 30.409,13.968 30.489,13.93 30.579,13.899 
		30.667,13.875 30.757,13.859 30.757,13.859 30.757,13.827 	"/>
	<polygon fill="#FFFFFF" points="31.317,13.768 31.317,13.768 31.288,13.768 31.249,13.774 31.212,13.778 31.168,13.78 
		31.122,13.785 31.076,13.789 31.025,13.794 30.98,13.797 30.938,13.804 30.896,13.81 30.858,13.812 30.822,13.818 30.794,13.82 
		30.773,13.824 30.762,13.827 30.757,13.827 30.757,13.859 30.762,13.859 30.779,13.855 30.794,13.854 30.822,13.851 30.858,13.845 
		30.896,13.842 30.938,13.836 30.98,13.831 31.025,13.827 31.076,13.82 31.122,13.818 31.168,13.812 31.212,13.81 31.249,13.807 
		31.288,13.807 31.317,13.807 31.317,13.807 31.317,13.768 	"/>
	<polygon fill="#FFFFFF" points="31.687,13.797 31.702,13.785 31.692,13.785 31.667,13.782 31.623,13.78 31.571,13.774 
		31.511,13.774 31.449,13.774 31.384,13.768 31.317,13.768 31.317,13.807 31.384,13.807 31.449,13.807 31.511,13.812 31.571,13.812 
		31.623,13.812 31.667,13.815 31.692,13.818 31.702,13.818 31.719,13.804 31.702,13.818 31.716,13.82 31.719,13.804 31.687,13.797 	
		"/>
	<polygon fill="#FFFFFF" points="31.713,13.624 31.711,13.624 31.708,13.676 31.699,13.73 31.692,13.78 31.687,13.797 
		31.719,13.804 31.724,13.785 31.73,13.736 31.739,13.676 31.748,13.624 31.746,13.624 31.713,13.624 	"/>
	<polygon fill="#FFFFFF" points="31.39,13.355 31.39,13.357 31.452,13.359 31.508,13.377 31.563,13.401 31.609,13.434 
		31.647,13.472 31.681,13.519 31.702,13.569 31.713,13.624 31.746,13.624 31.734,13.562 31.713,13.502 31.676,13.451 31.632,13.406 
		31.579,13.368 31.52,13.344 31.457,13.328 31.39,13.319 31.39,13.322 31.39,13.355 	"/>
	<polygon fill="#FFFFFF" points="30.221,13.486 30.248,13.502 30.273,13.488 30.311,13.469 30.357,13.453 30.418,13.437 
		30.482,13.423 30.553,13.409 30.632,13.396 30.711,13.384 30.794,13.374 30.883,13.366 30.969,13.357 31.06,13.353 31.147,13.353 
		31.23,13.353 31.313,13.353 31.39,13.355 31.39,13.322 31.313,13.319 31.23,13.314 31.147,13.314 31.06,13.319 30.969,13.324 
		30.883,13.333 30.794,13.342 30.711,13.353 30.626,13.363 30.547,13.377 30.477,13.39 30.41,13.404 30.351,13.419 30.3,13.437 
		30.259,13.456 30.226,13.475 30.253,13.491 30.221,13.486 	"/>
	<polygon fill="#FFFFFF" points="30.421,12.816 30.41,12.829 30.221,13.486 30.253,13.491 30.444,12.834 30.433,12.85 
		30.421,12.816 30.414,12.819 30.41,12.829 30.421,12.816 	"/>
	<polygon fill="#FFFFFF" points="31.634,12.691 31.634,12.691 31.543,12.686 31.449,12.682 31.361,12.682 31.277,12.682 
		31.192,12.682 31.113,12.688 31.034,12.691 30.959,12.696 30.885,12.701 30.811,12.711 30.744,12.723 30.676,12.737 30.609,12.75 
		30.545,12.769 30.482,12.791 30.421,12.816 30.433,12.85 30.493,12.823 30.556,12.802 30.615,12.782 30.682,12.769 30.75,12.755 
		30.816,12.744 30.885,12.734 30.959,12.729 31.034,12.723 31.113,12.721 31.192,12.721 31.277,12.721 31.361,12.721 31.449,12.721 
		31.543,12.723 31.634,12.723 31.634,12.723 31.634,12.691 	"/>
	<polygon fill="#FFFFFF" points="32.568,13.613 32.568,13.613 32.581,13.502 32.581,13.398 32.563,13.303 32.533,13.213 
		32.488,13.128 32.434,13.052 32.369,12.984 32.302,12.925 32.223,12.872 32.142,12.823 32.054,12.785 31.968,12.752 31.88,12.729 
		31.794,12.709 31.711,12.696 31.634,12.691 31.634,12.723 31.711,12.729 31.79,12.742 31.873,12.761 31.957,12.785 32.043,12.819 
		32.124,12.856 32.206,12.899 32.279,12.952 32.348,13.011 32.407,13.074 32.462,13.145 32.5,13.224 32.53,13.309 32.55,13.398 
		32.55,13.502 32.536,13.607 32.536,13.607 32.568,13.613 	"/>
	<polygon fill="#FFFFFF" points="32.282,15.051 32.282,15.051 32.568,13.613 32.536,13.607 32.249,15.046 32.249,15.046 
		32.282,15.051 	"/>
	<polygon fill="#F1AD38" points="31.606,14.337 31.602,14.321 31.591,14.308 31.571,14.299 31.544,14.292 31.515,14.288 
		31.479,14.286 31.438,14.286 31.396,14.288 31.353,14.294 31.311,14.299 31.267,14.305 31.226,14.311 31.185,14.319 31.149,14.323 
		31.113,14.333 31.087,14.337 31.068,14.34 31.045,14.349 31.019,14.356 30.989,14.368 30.953,14.383 30.92,14.4 30.883,14.419 
		30.848,14.444 30.811,14.469 30.776,14.499 30.746,14.528 30.717,14.563 30.691,14.602 30.673,14.643 30.656,14.687 30.647,14.732 
		30.645,14.825 30.658,14.898 30.682,14.954 30.715,14.994 30.755,15.021 30.801,15.037 30.848,15.046 30.894,15.049 30.975,15.046 
		31.051,15.037 31.122,15.024 31.185,15.006 31.244,14.984 31.298,14.959 31.345,14.931 31.39,14.898 31.427,14.869 31.459,14.833 
		31.489,14.801 31.515,14.766 31.533,14.732 31.546,14.699 31.559,14.667 31.565,14.638 31.578,14.561 31.591,14.483 31.602,14.406 
		31.606,14.337 	"/>
	<polygon fill="#FFFFFF" points="37.216,15.281 37.222,15.219 37.243,15.144 37.282,15.08 37.328,15.021 37.388,14.975 
		37.45,14.942 37.521,14.92 37.599,14.914 37.675,14.92 37.745,14.942 37.81,14.975 37.868,15.021 37.915,15.08 37.953,15.144 
		37.974,15.219 37.979,15.281 37.897,15.281 37.896,15.231 37.88,15.172 37.852,15.117 37.816,15.07 37.772,15.031 37.722,15.006 
		37.66,14.987 37.599,14.98 37.537,14.987 37.476,15.006 37.424,15.031 37.38,15.07 37.345,15.117 37.318,15.172 37.301,15.231 
		37.295,15.281 37.216,15.281 	"/>
	<polygon fill="#FFFFFF" points="37.463,15.281 37.463,15.117 37.612,15.117 37.645,15.119 37.675,15.125 37.696,15.133 
		37.715,15.144 37.729,15.161 37.739,15.177 37.745,15.196 37.748,15.216 37.745,15.24 37.739,15.258 37.731,15.275 37.727,15.281 
		37.612,15.281 37.621,15.277 37.642,15.275 37.658,15.27 37.671,15.263 37.682,15.256 37.688,15.248 37.693,15.235 37.693,15.216 
		37.691,15.201 37.685,15.19 37.678,15.184 37.669,15.181 37.654,15.177 37.642,15.175 37.628,15.175 37.612,15.175 37.529,15.175 
		37.529,15.281 37.463,15.281 	"/>
	<polygon fill="#FFFFFF" points="37.216,15.281 37.213,15.297 37.222,15.376 37.243,15.45 37.282,15.517 37.328,15.568 
		37.388,15.616 37.45,15.651 37.521,15.673 37.599,15.682 37.675,15.673 37.745,15.651 37.81,15.616 37.868,15.568 37.915,15.517 
		37.953,15.45 37.974,15.376 37.981,15.297 37.979,15.281 37.897,15.281 37.899,15.297 37.896,15.363 37.88,15.422 37.852,15.474 
		37.816,15.52 37.772,15.559 37.722,15.588 37.66,15.608 37.599,15.612 37.537,15.608 37.476,15.588 37.424,15.559 37.38,15.52 
		37.345,15.474 37.318,15.422 37.301,15.363 37.295,15.297 37.295,15.281 37.216,15.281 	"/>
	<polygon fill="#FFFFFF" points="37.463,15.281 37.463,15.446 37.529,15.446 37.529,15.311 37.599,15.311 37.679,15.446 
		37.733,15.446 37.652,15.311 37.671,15.311 37.691,15.305 37.707,15.298 37.722,15.29 37.727,15.281 37.612,15.281 37.599,15.283 
		37.529,15.283 37.529,15.281 37.463,15.281 	"/>
	<path fill="none" stroke="#FFFFFF" stroke-width="0.216" stroke-miterlimit="2.6131" d="M37.213,15.297L37.213,15.297l0.009-0.079
		l0.021-0.074l0.039-0.064l0.046-0.058l0.058-0.046l0.064-0.033l0.07-0.022l0.077-0.007l0,0l0.076,0.007l0.07,0.022l0.065,0.033
		l0.057,0.046l0.047,0.058l0.038,0.064l0.021,0.074l0.008,0.079l0,0l-0.008,0.079l-0.021,0.074l-0.038,0.065l-0.047,0.054
		l-0.057,0.047l-0.065,0.035l-0.069,0.022l-0.076,0.009l0,0l-0.077-0.009l-0.071-0.022l-0.063-0.035l-0.059-0.047l-0.047-0.054
		l-0.037-0.065l-0.023-0.074L37.213,15.297 M37.529,15.446h-0.066v-0.33h0.149l0,0l0.032,0.002l0.03,0.006l0.021,0.008l0.019,0.012
		l0.014,0.016l0.012,0.018l0.006,0.019l0.003,0.019l0,0l-0.003,0.024l-0.006,0.02l-0.009,0.017l-0.01,0.015l-0.015,0.01
		l-0.016,0.005l-0.021,0.006h-0.019l0.081,0.136h-0.055l-0.081-0.136h-0.068V15.446 M37.599,15.283L37.599,15.283l0.022-0.005
		l0.02-0.002l0.018-0.005l0.013-0.006l0.011-0.007l0.006-0.01l0.008-0.012v-0.021l0,0L37.691,15.2l-0.007-0.011l-0.007-0.005
		l-0.009-0.005l-0.015-0.003l-0.014-0.001h-0.015H37.61h-0.082v0.107h0.07 M37.599,15.612L37.599,15.612l0.062-0.004l0.061-0.02
		l0.052-0.03l0.044-0.039l0.035-0.046l0.026-0.052l0.018-0.059l0.004-0.065l0,0l-0.004-0.066l-0.018-0.059l-0.026-0.057
		l-0.035-0.045l-0.044-0.039l-0.052-0.026l-0.061-0.02l-0.062-0.006l0,0l-0.062,0.006l-0.061,0.02l-0.053,0.026l-0.044,0.039
		l-0.035,0.045l-0.026,0.057l-0.018,0.059l-0.006,0.066l0,0l0.006,0.065l0.018,0.059l0.026,0.052l0.035,0.046l0.044,0.039
		l0.053,0.03l0.061,0.02L37.599,15.612"/>
	<polygon fill="#FFFFFF" points="32.471,15.653 33.239,15.653 33.239,15.653 33.513,14.103 33.525,14.044 33.54,13.983 
		33.557,13.924 33.579,13.864 33.606,13.804 33.64,13.746 33.675,13.693 33.719,13.641 33.768,13.594 33.82,13.55 33.883,13.51 
		33.954,13.478 34.032,13.451 34.12,13.429 34.216,13.412 34.321,13.406 34.358,13.406 34.383,13.406 34.391,13.406 34.391,13.406 
		34.512,12.706 34.436,12.711 34.362,12.721 34.295,12.734 34.229,12.752 34.169,12.775 34.111,12.802 34.057,12.832 34.006,12.864 
		33.957,12.903 33.91,12.941 33.868,12.984 33.824,13.028 33.783,13.074 33.741,13.125 33.701,13.175 33.662,13.229 33.744,12.737 
		32.979,12.737 32.471,15.653 32.471,15.653 	"/>
	<polyline fill="none" stroke="#FFFFFF" stroke-width="0.216" stroke-miterlimit="2.6131" points="32.471,15.653 33.239,15.653 
		33.239,15.653 33.513,14.103 33.513,14.103 33.525,14.044 33.54,13.983 33.557,13.924 33.579,13.864 33.606,13.804 33.64,13.746 
		33.675,13.693 33.719,13.641 33.768,13.594 33.82,13.55 33.883,13.51 33.954,13.478 34.032,13.451 34.12,13.429 34.216,13.412 
		34.321,13.406 34.321,13.406 34.358,13.406 34.383,13.406 34.391,13.406 34.391,13.406 34.512,12.706 34.512,12.706 34.436,12.711 
		34.362,12.721 34.295,12.734 34.229,12.752 34.169,12.775 34.111,12.802 34.057,12.832 34.006,12.864 33.957,12.903 33.91,12.941 
		33.868,12.984 33.824,13.028 33.783,13.074 33.741,13.125 33.701,13.175 33.662,13.229 33.744,12.737 32.979,12.737 32.471,15.653 
		32.471,15.653 	"/>
	<polygon fill="#FFFFFF" points="25.259,15.653 26.026,15.653 26.039,15.653 26.301,14.103 26.313,14.044 26.327,13.985 
		26.34,13.93 26.358,13.875 26.381,13.82 26.406,13.768 26.441,13.718 26.479,13.674 26.522,13.632 26.57,13.592 26.631,13.559 
		26.696,13.528 26.773,13.504 26.856,13.483 26.949,13.469 27.057,13.46 27.064,13.46 27.076,13.463 27.088,13.467 27.103,13.467 
		27.116,13.469 27.128,13.472 27.135,13.475 27.139,13.475 27.141,13.463 27.149,13.431 27.158,13.382 27.174,13.322 27.192,13.251 
		27.211,13.175 27.236,13.099 27.26,13.022 27.282,12.97 27.31,12.918 27.338,12.867 27.364,12.82 27.387,12.781 27.406,12.748 
		27.421,12.729 27.426,12.721 27.422,12.721 27.413,12.717 27.399,12.714 27.38,12.711 27.361,12.711 27.34,12.709 27.32,12.706 
		27.301,12.706 27.217,12.711 27.141,12.721 27.07,12.734 27.006,12.75 26.941,12.773 26.884,12.8 26.833,12.826 26.782,12.858 
		26.738,12.894 26.693,12.935 26.652,12.976 26.613,13.022 26.57,13.069 26.534,13.121 26.492,13.175 26.45,13.229 26.551,12.737 
		25.769,12.737 25.259,15.653 25.259,15.653 	"/>
	<polyline fill="none" stroke="#FFFFFF" stroke-width="0.216" stroke-miterlimit="2.6131" points="25.259,15.653 26.026,15.653 
		26.039,15.653 26.301,14.103 26.301,14.103 26.313,14.044 26.327,13.985 26.34,13.93 26.358,13.875 26.381,13.82 26.406,13.768 
		26.441,13.718 26.479,13.674 26.522,13.632 26.57,13.592 26.631,13.559 26.696,13.528 26.773,13.504 26.856,13.483 26.949,13.469 
		27.057,13.46 27.057,13.46 27.064,13.46 27.076,13.463 27.088,13.467 27.103,13.467 27.116,13.469 27.128,13.472 27.135,13.475 
		27.139,13.475 27.139,13.475 27.141,13.463 27.149,13.431 27.158,13.382 27.174,13.322 27.192,13.251 27.211,13.175 27.236,13.099 
		27.26,13.022 27.26,13.022 27.282,12.97 27.31,12.918 27.338,12.867 27.364,12.82 27.387,12.781 27.406,12.748 27.421,12.729 
		27.426,12.721 27.426,12.721 27.422,12.721 27.413,12.717 27.399,12.714 27.38,12.711 27.361,12.711 27.34,12.709 27.32,12.706 
		27.301,12.706 27.301,12.706 27.217,12.711 27.141,12.721 27.07,12.734 27.006,12.75 26.941,12.773 26.884,12.8 26.833,12.826 
		26.782,12.858 26.738,12.894 26.693,12.935 26.652,12.976 26.613,13.022 26.57,13.069 26.534,13.121 26.492,13.175 26.45,13.229 
		26.551,12.737 25.769,12.737 25.259,15.653 25.259,15.653 	"/>
	<polygon fill="#F1AD38" points="37.222,18.519 37.222,18.507 37.243,18.437 37.282,18.375 37.328,18.32 37.388,18.276 
		37.45,18.243 37.521,18.226 37.599,18.217 37.675,18.226 37.745,18.243 37.81,18.276 37.868,18.32 37.915,18.375 37.953,18.437 
		37.974,18.507 37.974,18.519 37.896,18.519 37.88,18.462 37.852,18.41 37.816,18.364 37.772,18.325 37.722,18.296 37.66,18.276 
		37.599,18.271 37.537,18.276 37.476,18.296 37.424,18.325 37.38,18.364 37.345,18.41 37.318,18.462 37.301,18.519 37.222,18.519 	
		"/>
	<polygon fill="#F1AD38" points="37.463,18.519 37.463,18.424 37.612,18.424 37.645,18.424 37.675,18.428 37.696,18.434 
		37.715,18.443 37.729,18.459 37.739,18.475 37.745,18.493 37.748,18.519 37.693,18.519 37.693,18.505 37.691,18.49 37.685,18.48 
		37.678,18.475 37.669,18.47 37.654,18.467 37.642,18.464 37.628,18.464 37.612,18.464 37.529,18.464 37.529,18.519 37.463,18.519 	
		"/>
	<polygon fill="#F1AD38" points="37.213,18.578 37.222,18.519 37.301,18.519 37.301,18.521 37.295,18.578 37.213,18.578 	"/>
	<polygon fill="#F1AD38" points="37.463,18.578 37.463,18.519 37.529,18.519 37.529,18.572 37.599,18.572 37.621,18.568 
		37.642,18.565 37.658,18.56 37.671,18.554 37.682,18.546 37.688,18.537 37.693,18.524 37.693,18.519 37.748,18.519 37.748,18.519 
		37.745,18.537 37.739,18.554 37.731,18.568 37.722,18.578 37.463,18.578 	"/>
	<polygon fill="#F1AD38" points="37.899,18.578 37.896,18.521 37.896,18.519 37.974,18.519 37.981,18.578 37.899,18.578 	"/>
	<polygon fill="#F1AD38" points="37.213,18.578 37.213,18.586 37.222,18.665 37.243,18.738 37.282,18.804 37.328,18.861 
		37.388,18.907 37.45,18.938 37.521,18.964 37.599,18.969 37.675,18.964 37.745,18.938 37.81,18.907 37.868,18.861 37.915,18.804 
		37.953,18.738 37.974,18.665 37.981,18.586 37.981,18.578 37.899,18.578 37.899,18.586 37.896,18.651 37.88,18.71 37.852,18.764 
		37.816,18.809 37.772,18.85 37.722,18.877 37.66,18.896 37.599,18.902 37.537,18.896 37.476,18.877 37.424,18.85 37.38,18.809 
		37.345,18.764 37.318,18.71 37.301,18.651 37.295,18.586 37.295,18.578 37.213,18.578 	"/>
	<polygon fill="#F1AD38" points="37.463,18.578 37.463,18.736 37.529,18.736 37.529,18.6 37.599,18.6 37.679,18.736 37.733,18.736 
		37.652,18.6 37.671,18.6 37.691,18.595 37.707,18.589 37.722,18.578 37.722,18.578 37.463,18.578 	"/>
	<path fill="#FFFFFF" d="M25.344,13.605l-0.021-0.163l-0.039-0.145l-0.054-0.125l-0.068-0.109l-0.082-0.094l-0.09-0.076
		l-0.097-0.065l-0.107-0.049l-0.107-0.041l-0.112-0.027l-0.112-0.019l-0.112-0.011l-0.105-0.004l-0.222,0.013l-0.195,0.032
		l-0.176,0.049l-0.159,0.068l-0.136,0.082l-0.121,0.093l-0.105,0.104l-0.087,0.108l-0.077,0.116l-0.062,0.12l-0.05,0.118
		l-0.041,0.117l-0.029,0.114l-0.021,0.106l-0.017,0.1l-0.01,0.087l-0.015,0.224l0.009,0.2l0.03,0.184l0.046,0.16l0.066,0.144
		l0.079,0.127l0.093,0.111l0.106,0.092l0.114,0.079l0.123,0.069l0.128,0.053l0.133,0.04l0.136,0.033l0.136,0.02l0.135,0.013
		l0.134,0.002h0.089l0.085-0.002h0.073l0.071-0.003l0.062-0.006l0.057-0.004l0.055-0.007l0.05-0.007l0.046-0.009l0.044-0.011
		l0.044-0.016l0.041-0.013l0.041-0.017l0.044-0.016l0.043-0.023l0.044-0.021l0.108-0.669l-0.078,0.045l-0.077,0.044l-0.078,0.034
		l-0.077,0.03l-0.073,0.024l-0.076,0.016l-0.074,0.014L24.57,15.05l-0.074,0.006l-0.071,0.003h-0.073l-0.071-0.003l-0.07-0.006
		l-0.071-0.009l-0.069-0.008l-0.07-0.012l-0.055-0.011l-0.055-0.02l-0.055-0.023l-0.05-0.031l-0.049-0.031l-0.043-0.042
		l-0.041-0.041l-0.038-0.047l-0.032-0.046l-0.029-0.052l-0.022-0.05l-0.019-0.053l-0.011-0.052l-0.005-0.052l0.002-0.045
		l0.007-0.035h1.767l0.014-0.167l0.042-0.229l0.019-0.207L25.344,13.605z M24.606,13.855h-0.995l0.001-0.002H23.61l0.007-0.039
		l0.011-0.056l0.017-0.056l0.019-0.054l0.025-0.049l0.024-0.048l0.029-0.043l0.034-0.04l0.035-0.039l0.035-0.032l0.042-0.03
		l0.041-0.024l0.046-0.022l0.047-0.017l0.046-0.012l0.049-0.008l0.052-0.002l0.049,0.005l0.046,0.009l0.044,0.011l0.044,0.016
		l0.041,0.021l0.041,0.024l0.036,0.027l0.032,0.032l0.027,0.039l0.027,0.04l0.019,0.047l0.019,0.052l0.012,0.055l0.005,0.059
		l0.002,0.065L24.606,13.855z"/>
</g>
<text transform="matrix(0.9563 0 -0.2924 0.9563 15.5415 28.75)" fill="#001412" font-family="'MicrosoftYaHei'" font-size="6">DEBIT</text>
</svg>
