<?xml version="1.0" encoding="utf-8"?>
<!-- Generator: Adobe Illustrator 16.0.0, SVG Export Plug-In . SVG Version: 6.00 Build 0)  -->
<!DOCTYPE svg PUBLIC "-//W3C//DTD SVG 1.1//EN" "http://www.w3.org/Graphics/SVG/1.1/DTD/svg11.dtd">
<svg version="1.1" id="图层_1" xmlns="http://www.w3.org/2000/svg" xmlns:xlink="http://www.w3.org/1999/xlink" x="0px" y="0px"
	 width="50px" height="50px" viewBox="0 0 50 50" enable-background="new 0 0 50 50" xml:space="preserve">
<g>
	<g>
		<path fill="#3BB4E5" d="M49.369,10.155L39.35,2.368V2.366h-6.587c-0.198,3.974-3.474,7.138-7.497,7.138
			c-4.023,0-7.298-3.164-7.497-7.138h-7.136v0.018l-10,7.771l7.167,9.222l2.834-2.202v30.132H39.35V17.16l2.854,2.217L49.369,10.155
			z"/>
		<g>
			<path fill="#176080" d="M25.306,10.726c4.563,0,8.287-3.873,8.627-8.36h-1.17c-0.198,3.974-3.474,7.138-7.497,7.138
				c-4.023,0-7.298-3.164-7.497-7.138h-1.088C17.018,6.853,20.744,10.726,25.306,10.726z"/>
		</g>
		<rect x="10.632" y="33.979" fill="#176080" width="28.717" height="13.327"/>
	</g>
	<path opacity="0.4" fill="#040000" d="M39.35,2.368V2.366h-6.587c-0.198,3.974-3.474,7.138-7.497,7.138
		c-0.049,0-0.097-0.006-0.146-0.007v37.811h14.23V17.16l2.854,2.217l7.166-9.222L39.35,2.368z"/>
</g>
</svg>
