<?xml version="1.0" encoding="utf-8"?>
<!-- Generator: Adobe Illustrator 16.0.0, SVG Export Plug-In . SVG Version: 6.00 Build 0)  -->
<!DOCTYPE svg PUBLIC "-//W3C//DTD SVG 1.1//EN" "http://www.w3.org/Graphics/SVG/1.1/DTD/svg11.dtd">
<svg version="1.1" id="图层_1" xmlns="http://www.w3.org/2000/svg" xmlns:xlink="http://www.w3.org/1999/xlink" x="0px" y="0px"
	 width="440.5px" height="292px" viewBox="0 -55.5 440.5 292" enable-background="new 0 -55.5 440.5 292" xml:space="preserve">
<g>
	<g>
		<path fill="#363435" d="M23.109,68.049c0.659,0.659,0.659,1.728,0,2.389c-0.659,0.661-1.729,0.661-2.389,0l-8.447-8.448
			c-0.658-0.659-0.658-1.727,0-2.389c0.658-0.661,1.729-0.661,2.389,0L23.109,68.049z"/>
		<path fill="#363435" d="M14.657,70.438c-0.657,0.661-1.728,0.661-2.389,0c-0.655-0.661-0.655-1.729,0-2.389l8.45-8.448
			c0.658-0.661,1.729-0.661,2.387,0c0.661,0.662,0.661,1.729,0,2.389L14.657,70.438z"/>
		<path fill="#363435" d="M4.994,91.714c-0.93,0.007-1.689-0.739-1.694-1.667c-0.008-0.927,0.738-1.688,1.665-1.695l39.06-0.412
			c0.931-0.004,1.689,0.743,1.696,1.67c0.006,0.93-0.74,1.689-1.669,1.695L4.994,91.714z"/>
		<path fill="#363435" d="M62.355,91.739c-0.929,0.033-1.71-0.695-1.741-1.625c-0.034-0.926,0.693-1.708,1.622-1.74l11.49-0.41
			c0.928-0.034,1.707,0.693,1.741,1.622c0.032,0.929-0.695,1.712-1.623,1.74L62.355,91.739z"/>
		<path fill="#363435" d="M38.47,126.615c-0.925,0.01-1.686-0.736-1.692-1.669c-0.006-0.924,0.74-1.685,1.668-1.692l39.058-0.411
			c0.929-0.01,1.686,0.741,1.695,1.665c0.007,0.934-0.739,1.691-1.668,1.697L38.47,126.615z"/>
		<path fill="#363435" d="M45.39,22.368c-0.931,0.007-1.695-0.745-1.698-1.674c-0.004-0.935,0.743-1.696,1.677-1.703l3.377-0.024
			c0.93-0.003,1.694,0.746,1.698,1.68c0.006,0.931-0.745,1.692-1.675,1.698L45.39,22.368L45.39,22.368z M102.768,18.605
			c0.934-0.005,1.692,0.746,1.699,1.676c0.009,0.931-0.743,1.693-1.676,1.698l-3.376,0.027c-0.935,0.003-1.694-0.747-1.7-1.678
			c-0.005-0.932,0.744-1.696,1.678-1.701L102.768,18.605L102.768,18.605z M89.262,18.693c0.933-0.003,1.694,0.748,1.7,1.682
			c0.004,0.93-0.745,1.69-1.677,1.698l-3.377,0.023c-0.932,0.007-1.694-0.746-1.701-1.676c-0.006-0.935,0.747-1.695,1.678-1.703
			L89.262,18.693L89.262,18.693z M75.756,18.787c0.931-0.006,1.695,0.743,1.698,1.678c0.006,0.932-0.743,1.692-1.675,1.697
			l-3.378,0.026c-0.931,0.005-1.694-0.746-1.7-1.68c-0.006-0.932,0.745-1.691,1.677-1.699L75.756,18.787L75.756,18.787z
			 M62.249,18.879c0.933-0.006,1.692,0.743,1.7,1.677c0.006,0.931-0.744,1.694-1.678,1.697l-3.373,0.024
			c-0.937,0.006-1.694-0.745-1.703-1.675c-0.005-0.934,0.746-1.696,1.679-1.701L62.249,18.879z"/>
	</g>
	<g>
		<g>
			<path fill="#363435" d="M425.132,62.569c0.618,0.617,0.618,1.62,0,2.24c-0.616,0.617-1.616,0.617-2.238,0l-7.917-7.921
				c-0.615-0.617-0.615-1.617,0-2.236c0.616-0.619,1.619-0.619,2.239,0L425.132,62.569z"/>
			<path fill="#363435" d="M417.216,64.809c-0.62,0.617-1.623,0.617-2.239,0c-0.615-0.621-0.615-1.624,0-2.24l7.917-7.917
				c0.62-0.619,1.622-0.619,2.238,0c0.618,0.618,0.618,1.62,0,2.236L417.216,64.809z"/>
		</g>
		<path fill="#363435" d="M338.957,110.737c-0.874,0.008-1.583-0.692-1.59-1.563c-0.006-0.867,0.694-1.581,1.566-1.588l36.605-0.383
			c0.871-0.01,1.581,0.696,1.587,1.564c0.006,0.87-0.694,1.58-1.564,1.587L338.957,110.737z"/>
		<path fill="#363435" d="M388.214,110.737c-0.867,0.033-1.6-0.648-1.631-1.521c-0.034-0.869,0.646-1.598,1.521-1.631l10.77-0.383
			c0.87-0.032,1.599,0.647,1.629,1.519c0.031,0.872-0.648,1.601-1.518,1.633L388.214,110.737z"/>
		<path fill="#363435" d="M392.409,90.088c-0.867,0.008-1.58-0.693-1.587-1.565c-0.004-0.869,0.697-1.582,1.563-1.588l36.609-0.386
			c0.867-0.006,1.58,0.696,1.588,1.563c0.008,0.872-0.695,1.581-1.563,1.59L392.409,90.088z"/>
		<path fill="#363435" d="M383.813,136.542c-0.871,0.007-1.587-0.697-1.592-1.57c-0.003-0.876,0.699-1.59,1.573-1.594l3.167-0.021
			c0.87-0.003,1.586,0.697,1.588,1.57c0.008,0.874-0.695,1.59-1.569,1.594L383.813,136.542L383.813,136.542z M437.589,133.013
			c0.877-0.003,1.589,0.703,1.595,1.574c0.006,0.872-0.699,1.585-1.572,1.59l-3.166,0.024c-0.872,0.007-1.586-0.696-1.59-1.57
			c-0.006-0.876,0.697-1.59,1.569-1.597L437.589,133.013L437.589,133.013z M424.934,133.1c0.872-0.005,1.585,0.698,1.595,1.575
			c0.003,0.871-0.702,1.584-1.577,1.59l-3.163,0.022c-0.875,0.009-1.585-0.699-1.595-1.574c-0.003-0.872,0.704-1.584,1.574-1.593
			L424.934,133.1L424.934,133.1z M412.276,133.186c0.87-0.006,1.586,0.701,1.586,1.574c0.01,0.872-0.695,1.584-1.567,1.594
			l-3.167,0.021c-0.871,0.003-1.587-0.7-1.59-1.577c-0.008-0.87,0.698-1.584,1.571-1.59L412.276,133.186L412.276,133.186z
			 M399.614,133.271c0.877-0.01,1.587,0.695,1.593,1.57c0.007,0.876-0.698,1.587-1.571,1.59l-3.162,0.023
			c-0.877,0.007-1.588-0.695-1.598-1.572c-0.003-0.87,0.7-1.587,1.574-1.591L399.614,133.271z"/>
	</g>
	<g>
		<g>
			<circle fill="#F1F2F1" cx="207.215" cy="85.171" r="86.181"/>
			<g>
				<path fill="#F1F2F1" stroke="#363435" stroke-width="3" stroke-linecap="round" stroke-linejoin="round" d="M216.118,171.78
					c-2.927,0.3-5.894,0.448-8.901,0.448c-48.085,0-87.061-38.982-87.061-87.061c0-48.081,38.975-87.06,87.061-87.06
					c48.075,0,87.061,38.98,87.061,87.06c0,5.129-0.444,10.159-1.3,15.045"/>
				<path fill="#F1F2F1" stroke="#363435" stroke-width="3" stroke-linecap="round" stroke-linejoin="round" d="M207.217,172.229
					c-27.813,0-50.368-38.982-50.368-87.061c0-48.081,22.555-87.06,50.368-87.06c25.256,0,46.182,32.188,49.787,74.143"/>
				<path fill="none" stroke="#363435" stroke-width="3" stroke-linecap="round" stroke-linejoin="round" d="M292.757,99.421
					c0.762-4.638,1.161-9.399,1.161-14.253c0-48.081-38.986-87.06-87.06-87.06V85.79"/>
				<path fill="none" stroke="#363435" stroke-width="3" stroke-linecap="round" stroke-linejoin="round" d="M293.271,98.247
					c0.659-4.262,1.006-8.625,1.006-13.078c0-10.813-2.06-21.13-5.672-30.691H125.823c-3.603,9.561-5.666,19.878-5.666,30.691
					c0,10.824,2.063,21.133,5.659,30.687h64.411"/>
			</g>
		</g>
	</g>
	<g>
		<g>
			
				<line fill="none" stroke="#363435" stroke-width="3" stroke-linejoin="round" x1="284.199" y1="175.148" x2="273.681" y2="164.633"/>
			
				<line fill="none" stroke="#363435" stroke-width="3" stroke-linejoin="round" x1="284.546" y1="153.769" x2="295.063" y2="164.282"/>
			<g>
				<path fill="#F1F2F1" stroke="#363435" stroke-width="3" stroke-linejoin="round" d="M279.546,159.63"/>
			</g>
			<path fill="#D1D3D4" stroke="#363435" stroke-width="3" stroke-linejoin="round" d="M280.553,84.358
				c-10.205-10.193-23.753-15.809-38.15-15.804c-14.425-0.004-27.998,5.639-38.202,15.886
				c-10.151,10.207-15.747,23.738-15.741,38.08c0.011,29.748,24.225,53.96,53.968,53.937c14.438,0,28.012-5.656,38.221-15.895
				c10.159-10.203,15.736-23.72,15.736-38.066C296.382,108.099,290.767,94.554,280.553,84.358z"/>
			<path fill="#F1F2F1" stroke="#363435" stroke-width="3" stroke-linejoin="round" d="M270.342,150.276
				c-7.474,7.507-17.378,11.62-27.921,11.628c-21.726,0.016-39.4-17.652-39.396-39.385c0-10.484,4.08-20.357,11.499-27.804
				c7.454-7.488,17.357-11.604,27.886-11.607c10.515,0,20.402,4.085,27.856,11.548c7.452,7.445,11.562,17.345,11.567,27.849
				C281.836,132.98,277.759,142.844,270.342,150.276z"/>
			
				<rect x="303.47" y="160.191" transform="matrix(-0.707 0.7072 -0.7072 -0.707 674.4493 109.757)" fill="#F1F2F1" stroke="#363435" stroke-width="3" stroke-linejoin="round" width="22.04" height="68.778"/>
			<path fill="#D1D3D4" stroke="#363435" stroke-width="3" stroke-linejoin="round" d="M350.342,214.842
				c0,8.603-6.97,15.58-15.58,15.58c-1.246-1.241-2.494-2.488-3.738-3.736c5.195-5.197,10.388-10.39,15.58-15.586
				C347.847,212.344,349.096,213.6,350.342,214.842z"/>
		</g>
		
			<line fill="none" stroke="#363435" stroke-width="3" stroke-linejoin="round" x1="267.433" y1="95.364" x2="229.065" y2="133.729"/>
		
			<line fill="none" stroke="#363435" stroke-width="3" stroke-linejoin="round" x1="254.926" y1="87.858" x2="229.901" y2="112.878"/>
	</g>
	<g>
		
			<ellipse transform="matrix(0.6135 -0.7897 0.7897 0.6135 95.025 217.3869)" fill="#F1F2F1" stroke="#363435" stroke-width="3" stroke-linecap="round" stroke-linejoin="round" cx="269.58" cy="11.623" rx="8.416" ry="41.282"/>
		<path fill="#F1F2F1" stroke="#363435" stroke-width="3" stroke-linecap="round" stroke-linejoin="round" d="M267.37,4.965
			l26.615-23.473l-19.612,28.962c0,0-2.735,3.673-5.723,1.171C264.504,8.154,267.37,4.965,267.37,4.965z"/>
		<path fill="none" stroke="#363435" stroke-width="3" stroke-linecap="round" stroke-linejoin="round" d="M275.704-23.14
			c1.47-6.477,7.898-10.527,14.375-9.057"/>
		<path fill="none" stroke="#363435" stroke-width="3" stroke-linecap="round" stroke-linejoin="round" d="M267.801-24.936
			c2.637-11.626,14.714-18.775,27.005-15.987"/>
		<path fill="none" stroke="#363435" stroke-width="3" stroke-linecap="round" stroke-linejoin="round" d="M258.782-26.984
			c3.79-16.696,21.373-26.914,39.315-22.84"/>
		<path fill="none" stroke="#363435" stroke-width="3" stroke-linecap="round" stroke-linejoin="round" d="M309.176-16.507
			c3.866,6.135,2.03,14.229-4.11,18.095"/>
		<path fill="none" stroke="#363435" stroke-width="3" stroke-linecap="round" stroke-linejoin="round" d="M316.665-21.223
			c6.938,11.015,3.132,25.862-8.508,33.196"/>
		<path fill="none" stroke="#363435" stroke-width="3" stroke-linecap="round" stroke-linejoin="round" d="M325.21-26.606
			c9.967,15.821,4.277,37.289-12.721,47.997"/>
	</g>
</g>
</svg>
