<?xml version="1.0" encoding="utf-8"?>
<!-- Generator: Adobe Illustrator 16.0.0, SVG Export Plug-In . SVG Version: 6.00 Build 0)  -->
<!DOCTYPE svg PUBLIC "-//W3C//DTD SVG 1.1//EN" "http://www.w3.org/Graphics/SVG/1.1/DTD/svg11.dtd">
<svg version="1.1" id="图层_1" xmlns="http://www.w3.org/2000/svg" xmlns:xlink="http://www.w3.org/1999/xlink" x="0px" y="0px"
	 width="440.5px" height="218.057px" viewBox="0 0 440.5 218.057" enable-background="new 0 0 440.5 218.057" xml:space="preserve">
<g>
	<g>
		<path fill="#363435" d="M26.968,112.106c0.745,0.742,0.745,1.952,0,2.7c-0.745,0.744-1.954,0.744-2.703,0l-9.553-9.558
			c-0.746-0.744-0.746-1.953,0-2.701c0.743-0.747,1.954-0.747,2.701,0L26.968,112.106z"/>
		<path fill="#363435" d="M17.41,114.808c-0.746,0.746-1.955,0.746-2.701,0c-0.743-0.746-0.743-1.959,0-2.701l9.556-9.556
			c0.746-0.747,1.955-0.747,2.701,0c0.747,0.748,0.747,1.956,0,2.702L17.41,114.808z"/>
		<path fill="#363435" d="M6.48,138.873c-1.053,0.008-1.913-0.836-1.916-1.887c-0.01-1.049,0.834-1.909,1.884-1.918l44.177-0.465
			c1.054-0.008,1.911,0.84,1.92,1.886c0.007,1.054-0.838,1.912-1.887,1.919L6.48,138.873z"/>
		<path fill="#363435" d="M71.358,138.902c-1.051,0.036-1.934-0.785-1.97-1.837c-0.038-1.051,0.784-1.931,1.835-1.969l12.995-0.466
			c1.05-0.036,1.93,0.785,1.968,1.834c0.036,1.052-0.785,1.936-1.834,1.971L71.358,138.902z"/>
		<path fill="#363435" d="M44.342,178.348c-1.048,0.012-1.908-0.834-1.915-1.886c-0.008-1.048,0.836-1.907,1.887-1.916l44.177-0.468
			c1.051-0.007,1.907,0.843,1.918,1.888c0.008,1.055-0.836,1.909-1.886,1.919L44.342,178.348z"/>
		<path fill="#363435" d="M52.168,60.438c-1.052,0.007-1.917-0.843-1.92-1.896c-0.005-1.055,0.841-1.918,1.894-1.923l3.821-0.026
			c1.052-0.005,1.916,0.843,1.919,1.897c0.009,1.054-0.842,1.915-1.895,1.922L52.168,60.438L52.168,60.438z M117.065,56.179
			c1.057-0.005,1.917,0.846,1.924,1.898c0.009,1.051-0.842,1.915-1.897,1.92l-3.817,0.03c-1.055,0.005-1.916-0.842-1.923-1.898
			c-0.005-1.055,0.842-1.918,1.897-1.924L117.065,56.179L117.065,56.179z M101.791,56.282c1.055-0.005,1.916,0.845,1.923,1.901
			c0.005,1.054-0.843,1.914-1.897,1.921l-3.82,0.027c-1.054,0.007-1.916-0.846-1.923-1.898c-0.007-1.055,0.845-1.917,1.898-1.924
			L101.791,56.282L101.791,56.282z M86.514,56.388c1.053-0.007,1.916,0.842,1.921,1.897c0.008,1.054-0.842,1.916-1.895,1.922
			l-3.819,0.03c-1.053,0.003-1.916-0.846-1.923-1.901c-0.007-1.053,0.843-1.913,1.896-1.922L86.514,56.388L86.514,56.388z
			 M71.237,56.49c1.054-0.007,1.916,0.842,1.923,1.898c0.007,1.054-0.843,1.915-1.898,1.92l-3.814,0.027
			c-1.059,0.008-1.916-0.843-1.926-1.895c-0.008-1.054,0.846-1.919,1.899-1.924L71.237,56.49z"/>
	</g>
	<g>
		<g>
			<path fill="#363435" d="M420.753,77.388c0.699,0.699,0.699,1.833,0,2.534c-0.695,0.698-1.83,0.698-2.532,0l-8.954-8.957
				c-0.696-0.7-0.696-1.832,0-2.53c0.697-0.699,1.83-0.699,2.531,0L420.753,77.388z"/>
			<path fill="#363435" d="M411.798,79.92c-0.699,0.697-1.834,0.697-2.533,0c-0.694-0.7-0.694-1.833,0-2.533l8.956-8.953
				c0.7-0.7,1.834-0.7,2.532,0c0.699,0.698,0.699,1.83,0,2.53L411.798,79.92z"/>
		</g>
		<path fill="#363435" d="M323.28,131.873c-0.985,0.004-1.788-0.783-1.796-1.769c-0.01-0.984,0.783-1.792,1.77-1.799l41.402-0.437
			c0.988-0.008,1.791,0.786,1.798,1.77c0.008,0.986-0.785,1.791-1.767,1.796L323.28,131.873z"/>
		<path fill="#363435" d="M378.997,131.873c-0.983,0.034-1.813-0.735-1.847-1.724c-0.035-0.983,0.735-1.809,1.721-1.844
			l12.182-0.437c0.984-0.033,1.808,0.735,1.844,1.719c0.033,0.986-0.735,1.814-1.722,1.847L378.997,131.873z"/>
		<path fill="#363435" d="M383.742,108.514c-0.98,0.011-1.79-0.782-1.796-1.769c-0.006-0.983,0.784-1.788,1.769-1.796l41.406-0.438
			c0.983-0.007,1.784,0.787,1.799,1.771c0.007,0.985-0.788,1.788-1.77,1.797L383.742,108.514z"/>
		<path fill="#363435" d="M374.017,161.059c-0.986,0.005-1.794-0.791-1.799-1.776c-0.005-0.988,0.79-1.797,1.775-1.802l3.583-0.025
			c0.984-0.007,1.796,0.788,1.799,1.777c0.008,0.986-0.79,1.795-1.776,1.8L374.017,161.059L374.017,161.059z M434.844,157.066
			c0.99-0.007,1.796,0.791,1.803,1.777c0.01,0.985-0.789,1.796-1.776,1.8l-3.577,0.028c-0.991,0.005-1.799-0.792-1.804-1.778
			c-0.006-0.991,0.788-1.798,1.775-1.803L434.844,157.066L434.844,157.066z M420.526,157.163c0.987-0.007,1.795,0.792,1.804,1.779
			c0.002,0.985-0.791,1.792-1.779,1.801l-3.578,0.025c-0.988,0.008-1.795-0.792-1.803-1.778c-0.006-0.989,0.794-1.796,1.777-1.803
			L420.526,157.163L420.526,157.163z M406.208,157.262c0.987-0.01,1.796,0.788,1.801,1.775c0.01,0.99-0.789,1.797-1.775,1.802
			l-3.579,0.027c-0.988,0.003-1.798-0.794-1.803-1.78c-0.008-0.986,0.79-1.794,1.775-1.801L406.208,157.262L406.208,157.262z
			 M391.89,157.355c0.992-0.004,1.796,0.792,1.805,1.78c0.005,0.99-0.791,1.795-1.779,1.799l-3.575,0.025
			c-0.991,0.007-1.795-0.791-1.807-1.776c-0.005-0.987,0.792-1.796,1.78-1.801L391.89,157.355z"/>
	</g>
	<path fill="#363435" d="M156.073,61.648c-0.287-0.498-0.114-1.134,0.385-1.421c0.494-0.287,1.132-0.112,1.417,0.385l2.15,3.724
		l0.001-0.001l1.252,2.165l1.249-2.165l0.035-0.052l2.117-3.671c0.285-0.497,0.924-0.67,1.418-0.385
		c0.499,0.287,0.67,0.923,0.386,1.421l-2.121,3.673l-0.028,0.058l-2.153,3.726c-0.09,0.153-0.216,0.286-0.38,0.38
		c-0.496,0.287-1.135,0.117-1.423-0.38l-2.154-3.726l0.002-0.001l-0.002-0.002L156.073,61.648z"/>
	<polygon fill="#D1D3D4" stroke="#363435" stroke-width="3" stroke-miterlimit="10" points="289.255,206.302 289.255,97.917 
		289.255,43.585 250.313,4.638 141.7,4.638 141.7,44.87 141.7,97.917 141.7,206.302 	"/>
	<g>
		<polygon fill="#F1F2F1" stroke="#363435" stroke-width="3" stroke-linejoin="bevel" points="248.651,44.917 289.255,44.917 
			248.651,4.307 		"/>
	</g>
	
		<line fill="none" stroke="#363435" stroke-width="3.3928" stroke-miterlimit="10" x1="185.572" y1="69.351" x2="270.032" y2="69.351"/>
	
		<line fill="none" stroke="#363435" stroke-width="3.3928" stroke-miterlimit="10" x1="185.572" y1="83.282" x2="251.835" y2="83.282"/>
	
		<line fill="none" stroke="#363435" stroke-width="3.3928" stroke-miterlimit="10" x1="185.572" y1="104.719" x2="270.032" y2="104.719"/>
	
		<line fill="none" stroke="#363435" stroke-width="3.3928" stroke-miterlimit="10" x1="185.572" y1="118.65" x2="251.835" y2="118.65"/>
	
		<line fill="none" stroke="#363435" stroke-width="3.3928" stroke-miterlimit="10" x1="185.572" y1="140.086" x2="270.032" y2="140.086"/>
	
		<line fill="none" stroke="#363435" stroke-width="3.3928" stroke-miterlimit="10" x1="185.572" y1="154.018" x2="251.835" y2="154.018"/>
	
		<rect x="161.781" y="140.13" fill="#FFFFFF" stroke="#363435" stroke-width="3" stroke-miterlimit="10" width="13.964" height="13.965"/>
	<polyline fill="#D1D3D4" stroke="#363435" stroke-width="3.3928" points="178.201,64.857 167.258,78.571 162.237,73.931 	"/>
	<polyline fill="#D1D3D4" stroke="#363435" stroke-width="3.3928" points="178.201,100.769 167.258,114.483 162.237,109.844 	"/>
	<circle fill="#FFFFFF" cx="296.692" cy="187.538" r="30.519"/>
	<circle fill="none" stroke="#424042" stroke-width="3" stroke-miterlimit="10" cx="290.924" cy="184.958" r="30.518"/>
	<g>
		<path fill="#363435" d="M296.612,188.138c0.691,0.693,0.691,1.816,0,2.508c-0.694,0.692-1.818,0.692-2.51,0l-8.866-8.868
			c-0.69-0.691-0.69-1.813,0-2.507c0.689-0.692,1.815-0.692,2.508,0L296.612,188.138z"/>
		<path fill="#363435" d="M287.739,190.646c-0.69,0.692-1.813,0.692-2.505,0c-0.688-0.693-0.688-1.816,0-2.508l8.868-8.867
			c0.691-0.692,1.816-0.692,2.505,0c0.695,0.695,0.695,1.816,0,2.507L287.739,190.646z"/>
	</g>
</g>
</svg>
