<?xml version="1.0" encoding="utf-8"?>
<!-- Generator: Adobe Illustrator 16.0.0, SVG Export Plug-In . SVG Version: 6.00 Build 0)  -->
<!DOCTYPE svg PUBLIC "-//W3C//DTD SVG 1.1//EN" "http://www.w3.org/Graphics/SVG/1.1/DTD/svg11.dtd">
<svg version="1.1" id="图层_1" xmlns="http://www.w3.org/2000/svg" xmlns:xlink="http://www.w3.org/1999/xlink" x="0px" y="0px"
	 width="400px" height="180px" viewBox="0 0 400 180" enable-background="new 0 0 400 180" xml:space="preserve">
<g>
	<path fill="#D1D3D4" stroke="#373435" stroke-width="3" stroke-miterlimit="10" d="M263.264,149.099
		c0,7.728-6.761,13.991-15.102,13.991H140.978c-8.341,0-15.101-6.264-15.101-13.991V20.387c0-7.727,6.76-13.991,15.101-13.991
		h107.185c8.341,0,15.102,6.264,15.102,13.991V149.099z"/>
	<path fill-rule="evenodd" clip-rule="evenodd" fill="#373435" d="M242.853,26.638c-0.238-0.414-0.096-0.943,0.318-1.181
		c0.413-0.238,0.941-0.095,1.18,0.32l1.787,3.097l0.003-0.001l1.04,1.802l1.04-1.802l0.029-0.043l1.761-3.052
		c0.236-0.415,0.768-0.558,1.18-0.32c0.416,0.238,0.558,0.768,0.319,1.181l-1.764,3.056l-0.024,0.048l-1.791,3.1
		c-0.073,0.127-0.18,0.238-0.314,0.316c-0.415,0.24-0.945,0.098-1.185-0.316l-1.791-3.1l0.002-0.001l-0.002-0.003L242.853,26.638z"
		/>
	<g>
		<path fill-rule="evenodd" clip-rule="evenodd" fill="#373435" d="M317.063,56.351c0.621,0.62,0.621,1.626,0,2.249
			c-0.619,0.62-1.626,0.62-2.248,0l-7.949-7.952c-0.619-0.62-0.619-1.625,0-2.247s1.626-0.622,2.248,0L317.063,56.351z"/>
		<path fill-rule="evenodd" clip-rule="evenodd" fill="#373435" d="M309.111,58.6c-0.619,0.62-1.626,0.62-2.248,0
			c-0.616-0.622-0.616-1.629,0-2.249l7.952-7.95c0.619-0.622,1.626-0.622,2.246,0c0.623,0.622,0.623,1.626,0,2.247L309.111,58.6z"/>
		<path fill-rule="evenodd" clip-rule="evenodd" fill="#373435" d="M300.018,78.623c-0.876,0.004-1.591-0.696-1.594-1.572
			c-0.009-0.871,0.694-1.587,1.567-1.594l36.755-0.387c0.876-0.007,1.59,0.698,1.597,1.57c0.006,0.875-0.697,1.589-1.57,1.596
			L300.018,78.623z"/>
		<path fill-rule="evenodd" clip-rule="evenodd" fill="#373435" d="M349.478,78.623c-0.874,0.031-1.609-0.653-1.64-1.528
			c-0.031-0.874,0.652-1.607,1.527-1.638l10.812-0.387c0.874-0.031,1.606,0.652,1.639,1.526c0.029,0.875-0.653,1.609-1.526,1.64
			L349.478,78.623z"/>
		<path fill-rule="evenodd" clip-rule="evenodd" fill="#373435" d="M321.018,100.353c-0.871,0.009-1.587-0.694-1.594-1.569
			c-0.006-0.872,0.696-1.587,1.57-1.594l36.755-0.389c0.874-0.005,1.587,0.699,1.596,1.571c0.008,0.875-0.695,1.587-1.569,1.596
			L321.018,100.353z"/>
		<path fill-rule="evenodd" clip-rule="evenodd" fill="#373435" d="M339.939,121.551c-0.875,0.005-1.594-0.701-1.598-1.576
			c-0.004-0.879,0.7-1.598,1.576-1.602l3.18-0.022c0.875-0.004,1.594,0.701,1.598,1.58c0.007,0.875-0.7,1.594-1.577,1.598
			L339.939,121.551L339.939,121.551z M393.935,118.008c0.878-0.005,1.594,0.703,1.6,1.578c0.007,0.875-0.7,1.594-1.578,1.598
			l-3.177,0.024c-0.879,0.006-1.594-0.699-1.6-1.578c-0.005-0.879,0.7-1.596,1.578-1.601L393.935,118.008L393.935,118.008z
			 M381.226,118.092c0.877-0.003,1.594,0.703,1.6,1.582c0.005,0.875-0.701,1.593-1.578,1.598l-3.178,0.022
			c-0.877,0.007-1.594-0.703-1.6-1.578c-0.006-0.879,0.703-1.594,1.579-1.601L381.226,118.092L381.226,118.092z M368.516,118.18
			c0.876-0.005,1.594,0.701,1.599,1.58c0.007,0.877-0.701,1.593-1.577,1.598l-3.178,0.024c-0.876,0.004-1.595-0.703-1.6-1.581
			c-0.006-0.876,0.701-1.591,1.576-1.598L368.516,118.18L368.516,118.18z M355.805,118.267c0.878-0.008,1.593,0.701,1.601,1.578
			c0.006,0.878-0.701,1.594-1.579,1.597l-3.174,0.023c-0.881,0.007-1.595-0.701-1.604-1.576c-0.005-0.877,0.703-1.596,1.58-1.602
			L355.805,118.267z"/>
	</g>
	<g>
		<g>
			<path fill-rule="evenodd" clip-rule="evenodd" fill="#373435" d="M86.59,50.368c0.582,0.581,0.582,1.525,0,2.107
				c-0.579,0.581-1.523,0.581-2.106,0l-7.451-7.453c-0.58-0.581-0.58-1.523,0-2.105c0.58-0.583,1.524-0.583,2.106,0L86.59,50.368z"
				/>
			<path fill-rule="evenodd" clip-rule="evenodd" fill="#373435" d="M79.139,52.475c-0.583,0.581-1.526,0.581-2.108,0
				c-0.578-0.583-0.578-1.526,0-2.107l7.452-7.45c0.582-0.583,1.526-0.583,2.105,0c0.583,0.582,0.583,1.524,0,2.105L79.139,52.475z"
				/>
		</g>
		<path fill-rule="evenodd" clip-rule="evenodd" fill="#373435" d="M5.494,95.699C4.673,95.702,4.004,95.047,4,94.227
			c-0.008-0.817,0.65-1.488,1.47-1.496l34.447-0.361c0.822-0.008,1.49,0.653,1.497,1.471c0.005,0.82-0.654,1.49-1.472,1.495
			L5.494,95.699z"/>
		<path fill-rule="evenodd" clip-rule="evenodd" fill="#373435" d="M51.849,95.699c-0.818,0.027-1.507-0.612-1.537-1.433
			c-0.029-0.819,0.612-1.507,1.432-1.536l10.134-0.361c0.819-0.03,1.505,0.611,1.534,1.428c0.029,0.822-0.611,1.51-1.43,1.538
			L51.849,95.699z"/>
		<path fill-rule="evenodd" clip-rule="evenodd" fill="#373435" d="M55.797,76.264c-0.815,0.008-1.488-0.65-1.494-1.471
			c-0.005-0.817,0.653-1.488,1.471-1.494l34.45-0.363c0.818-0.005,1.486,0.655,1.495,1.472c0.006,0.82-0.653,1.488-1.471,1.496
			L55.797,76.264z"/>
		<path fill-rule="evenodd" clip-rule="evenodd" fill="#373435" d="M47.708,119.979c-0.821,0.006-1.494-0.657-1.498-1.478
			c-0.003-0.823,0.657-1.496,1.478-1.499l2.98-0.021c0.82-0.005,1.494,0.655,1.497,1.479c0.006,0.821-0.656,1.494-1.478,1.498
			L47.708,119.979L47.708,119.979z M98.312,116.66c0.824-0.006,1.495,0.657,1.5,1.478c0.008,0.821-0.656,1.494-1.478,1.499
			l-2.978,0.023c-0.823,0.003-1.494-0.657-1.498-1.48c-0.005-0.824,0.654-1.497,1.477-1.5L98.312,116.66L98.312,116.66z
			 M86.402,116.739c0.821-0.004,1.493,0.659,1.5,1.481c0.002,0.82-0.658,1.492-1.48,1.497l-2.978,0.021
			c-0.822,0.007-1.494-0.659-1.5-1.48c-0.005-0.822,0.66-1.493,1.479-1.499L86.402,116.739L86.402,116.739z M74.49,116.821
			c0.82-0.007,1.494,0.656,1.497,1.479c0.008,0.824-0.655,1.495-1.476,1.499l-2.979,0.022c-0.821,0.004-1.494-0.659-1.498-1.481
			c-0.006-0.82,0.657-1.492,1.477-1.497L74.49,116.821L74.49,116.821z M62.575,116.9c0.824-0.005,1.495,0.657,1.501,1.48
			c0.005,0.822-0.657,1.493-1.479,1.497l-2.975,0.021c-0.825,0.006-1.495-0.657-1.502-1.478c-0.004-0.822,0.658-1.496,1.48-1.499
			L62.575,116.9z"/>
	</g>
	<path fill="#373435" d="M208.356,57.236c0,0.813-0.701,1.472-1.564,1.472h-64.976c-0.864,0-1.565-0.659-1.565-1.472l0,0
		c0-0.813,0.701-1.471,1.565-1.471h64.976C207.655,55.765,208.356,56.423,208.356,57.236L208.356,57.236z"/>
	<path fill="#373435" d="M242.409,88.611c0,0.813-0.702,1.471-1.565,1.471h-64.975c-0.864,0-1.565-0.658-1.565-1.471l0,0
		c0-0.814,0.701-1.472,1.565-1.472h64.975C241.707,87.139,242.409,87.797,242.409,88.611L242.409,88.611z"/>
	<path fill="#373435" d="M209.116,44.264c0,0.813-0.701,1.472-1.565,1.472h-31.682c-0.864,0-1.565-0.659-1.565-1.472l0,0
		c0-0.813,0.701-1.472,1.565-1.472h31.682C208.415,42.792,209.116,43.451,209.116,44.264L209.116,44.264z"/>
	<path fill="#373435" d="M188.598,123.027c0,0.813-0.701,1.473-1.565,1.473h-31.682c-0.864,0-1.565-0.659-1.565-1.473l0,0
		c0-0.813,0.701-1.472,1.565-1.472h31.682C187.896,121.556,188.598,122.215,188.598,123.027L188.598,123.027z"/>
	<circle fill="#F9FBFF" stroke="#373435" stroke-width="3" stroke-miterlimit="10" cx="258.112" cy="144.921" r="32.079"/>
	<path fill-rule="evenodd" clip-rule="evenodd" fill="#373435" d="M138.667,111.221c-0.684,0.004-1.243-0.55-1.245-1.233
		c-0.001-0.688,0.552-1.246,1.236-1.248l2.483-0.011c0.685,0,1.244,0.552,1.245,1.237c0.004,0.686-0.552,1.244-1.235,1.246
		L138.667,111.221L138.667,111.221z M180.859,108.579c0.686-0.004,1.243,0.552,1.248,1.235c0.002,0.684-0.552,1.244-1.237,1.246
		l-2.481,0.011c-0.687,0.002-1.245-0.55-1.247-1.237c-0.003-0.686,0.551-1.244,1.236-1.246L180.859,108.579L180.859,108.579z
		 M170.929,108.616c0.687-0.002,1.245,0.552,1.247,1.237s-0.551,1.242-1.237,1.246l-2.48,0.009
		c-0.687,0.003-1.245-0.552-1.248-1.235c-0.003-0.688,0.553-1.245,1.236-1.248L170.929,108.616L170.929,108.616z M161,108.654
		c0.685-0.003,1.244,0.551,1.244,1.237c0.004,0.686-0.55,1.243-1.235,1.245l-2.483,0.012c-0.684,0-1.243-0.554-1.244-1.239
		c-0.003-0.684,0.552-1.242,1.234-1.244L161,108.654L161,108.654z M151.069,108.691c0.685-0.002,1.243,0.552,1.246,1.237
		s-0.552,1.244-1.238,1.244l-2.479,0.011c-0.688,0.004-1.244-0.552-1.248-1.235c0-0.686,0.553-1.244,1.239-1.246L151.069,108.691z"
		/>
	<path fill-rule="evenodd" clip-rule="evenodd" fill="#373435" d="M188.368,136.964c-0.684,0.003-1.243-0.551-1.245-1.234
		c-0.001-0.687,0.552-1.246,1.236-1.247l2.483-0.011c0.685,0,1.244,0.552,1.245,1.237c0.004,0.686-0.552,1.244-1.235,1.246
		L188.368,136.964L188.368,136.964z M200.771,134.435c0.685-0.002,1.243,0.552,1.246,1.237s-0.552,1.244-1.238,1.244l-2.479,0.011
		c-0.687,0.003-1.244-0.55-1.248-1.235c0-0.686,0.553-1.244,1.239-1.246L200.771,134.435z"/>
	<path fill="#373435" d="M269.362,157.329c-0.658,0.658-1.512,0.871-1.906,0.478l-21.689-21.69
		c-0.394-0.394-0.182-1.247,0.476-1.906l0,0c0.659-0.659,1.514-0.872,1.909-0.477l21.688,21.688
		C270.234,155.817,270.021,156.672,269.362,157.329L269.362,157.329z"/>
	<path fill="#373435" d="M246.242,157.329c-0.657-0.657-0.869-1.512-0.476-1.907l21.689-21.688c0.396-0.396,1.248-0.183,1.906,0.477
		l0,0c0.658,0.659,0.872,1.513,0.478,1.906l-21.688,21.69C247.756,158.202,246.901,157.987,246.242,157.329L246.242,157.329z"/>
</g>
</svg>
