<?xml version="1.0" encoding="utf-8"?>
<!-- Generator: Adobe Illustrator 16.0.0, SVG Export Plug-In . SVG Version: 6.00 Build 0)  -->
<!DOCTYPE svg PUBLIC "-//W3C//DTD SVG 1.1//EN" "http://www.w3.org/Graphics/SVG/1.1/DTD/svg11.dtd">
<svg version="1.1" id="图层_1" xmlns="http://www.w3.org/2000/svg" xmlns:xlink="http://www.w3.org/1999/xlink" x="0px" y="0px"
	 width="50px" height="14.688px" viewBox="0 0 50 14.688" enable-background="new 0 0 50 14.688" xml:space="preserve">
<g>
	<path fill-rule="evenodd" clip-rule="evenodd" fill="#306292" d="M39.394,8.805c-0.171,0.109-0.353,0.201-0.543,0.279
		c-0.256,0.104-0.498,0.158-0.722,0.158c-0.344,0-0.608-0.049-0.787-0.153c-0.18-0.099-0.273-0.27-0.27-0.516
		c0-0.282,0.065-0.503,0.201-0.675c0.136-0.166,0.338-0.3,0.589-0.4c0.251-0.084,0.559-0.154,0.913-0.204
		c0.316-0.04,0.939-0.111,1.019-0.112c0.081,0,0.134-0.045,0.098,0.168c-0.015,0.093-0.196,0.832-0.278,1.169
		C39.59,8.619,39.455,8.766,39.394,8.805L39.394,8.805z M41.843,3.607c-0.525-0.293-1.348-0.441-2.472-0.441
		c-0.557,0-1.116,0.044-1.677,0.131c-0.412,0.063-0.453,0.074-0.71,0.13c-0.525,0.114-0.607,0.641-0.607,0.641l-0.168,0.695
		c-0.097,0.444,0.157,0.426,0.27,0.392c0.229-0.069,0.354-0.139,0.822-0.245c0.448-0.101,0.922-0.178,1.299-0.174
		c0.555,0,0.977,0.061,1.256,0.178c0.28,0.122,0.419,0.33,0.419,0.628c0.001,0.07,0.003,0.138-0.022,0.195
		c-0.024,0.055-0.067,0.107-0.199,0.125C39.262,5.908,38.694,5.98,38.01,6.08c-0.674,0.095-1.263,0.258-1.756,0.483
		c-0.525,0.233-0.92,0.545-1.191,0.94c-0.264,0.397-0.396,0.878-0.396,1.444c0,0.536,0.192,0.973,0.564,1.313
		c0.377,0.334,0.867,0.5,1.46,0.5c0.371-0.003,0.66-0.029,0.868-0.081c0.207-0.052,0.43-0.126,0.667-0.229
		c0.178-0.074,0.368-0.182,0.57-0.315c0.202-0.135,0.343-0.23,0.521-0.348l0.008,0.011l-0.051,0.224
		c0,0.002-0.004,0.003-0.004,0.005l0.002,0.004c-0.058,0.269,0.104,0.492,0.369,0.518l0.004,0.005h0.022l0.002,0.001
		c0.176,0,0.781,0,1.064-0.001h0.198c0.013,0,0.014-0.004,0.02-0.007c0.271-0.033,0.531-0.255,0.593-0.52l1.011-4.362
		c0.022-0.104,0.041-0.222,0.052-0.357c0.013-0.139,0.027-0.252,0.023-0.334C42.632,4.356,42.367,3.9,41.843,3.607L41.843,3.607z"/>
	<path fill-rule="evenodd" clip-rule="evenodd" fill="#11335E" d="M24.455,3.262c-0.296,0-0.685,0.24-0.869,0.53
		c0,0-1.983,3.4-2.178,3.74c-0.105,0.183-0.213,0.066-0.231-0.002c-0.015-0.082-0.615-3.716-0.615-3.716
		c-0.067-0.292-0.373-0.544-0.755-0.543L18.57,3.273c-0.298,0-0.484,0.239-0.418,0.527c0,0,0.945,5.358,1.13,6.619
		c0.092,0.697-0.01,0.82-0.01,0.82l-1.226,2.137c-0.179,0.289-0.082,0.527,0.216,0.527l1.433-0.001c0.297,0,0.69-0.236,0.867-0.526
		l5.514-9.325c0,0,0.527-0.797,0.04-0.79C25.784,3.267,24.455,3.262,24.455,3.262L24.455,3.262z"/>
	<path fill-rule="evenodd" clip-rule="evenodd" fill="#11335E" d="M10.039,2.391C9.867,2.055,9.609,1.782,9.28,1.577
		C8.938,1.365,8.542,1.221,8.079,1.133c-0.466-0.083-1.01-0.124-1.634-0.13L3.556,1.005c-0.3,0.004-0.594,0.239-0.664,0.528
		l-1.948,8.469c-0.067,0.29,0.12,0.529,0.419,0.529h1.384c0.299,0,0.596-0.233,0.663-0.529l0.477-2.056
		c0.063-0.287,0.36-0.524,0.66-0.524h0.396C6.636,7.42,7.948,7.073,8.892,6.381c0.942-0.691,1.414-1.609,1.411-2.743
		C10.305,3.141,10.219,2.724,10.039,2.391L10.039,2.391z M7.05,5.157C6.633,5.463,6.055,5.616,5.304,5.616h-0.34
		c-0.298,0-0.487-0.237-0.422-0.528l0.417-1.796c0.064-0.29,0.363-0.529,0.662-0.526l0.452-0.003c0.53,0,0.931,0.09,1.203,0.271
		c0.268,0.176,0.404,0.451,0.399,0.824C7.682,4.418,7.47,4.852,7.05,5.157L7.05,5.157z"/>
	<path fill-rule="evenodd" clip-rule="evenodd" fill="#306292" d="M35.166,2.421c-0.172-0.335-0.433-0.605-0.762-0.816
		c-0.338-0.21-0.738-0.355-1.203-0.441c-0.461-0.08-1.006-0.127-1.629-0.128l-2.895,0.001c-0.299,0.006-0.591,0.24-0.66,0.528
		l-1.947,8.472c-0.07,0.288,0.123,0.527,0.416,0.526l1.39-0.003c0.294,0.003,0.595-0.235,0.665-0.523l0.469-2.057
		c0.066-0.288,0.365-0.529,0.665-0.525h0.395c1.694,0,3.009-0.348,3.95-1.04c0.938-0.696,1.41-1.61,1.41-2.747
		C35.427,3.171,35.342,2.753,35.166,2.421L35.166,2.421z M32.179,5.191c-0.415,0.303-0.997,0.453-1.745,0.453h-0.345
		c-0.298,0.004-0.49-0.237-0.42-0.525l0.415-1.799c0.063-0.283,0.365-0.526,0.658-0.524l0.455-0.002
		c0.531,0.002,0.93,0.092,1.203,0.269c0.27,0.179,0.4,0.456,0.402,0.824C32.804,4.45,32.596,4.883,32.179,5.191L32.179,5.191z"/>
	<path fill-rule="evenodd" clip-rule="evenodd" fill="#11335E" d="M14.261,8.799C14.089,8.907,13.908,9,13.717,9.078
		c-0.255,0.103-0.499,0.157-0.722,0.157c-0.343,0-0.608-0.049-0.787-0.152c-0.179-0.099-0.273-0.271-0.27-0.517
		c0-0.282,0.066-0.503,0.201-0.676c0.137-0.165,0.338-0.299,0.59-0.399c0.25-0.084,0.559-0.153,0.913-0.203
		c0.316-0.04,0.94-0.111,1.02-0.113c0.079,0,0.132-0.045,0.097,0.168c-0.015,0.093-0.195,0.832-0.278,1.168
		C14.455,8.612,14.321,8.76,14.261,8.799L14.261,8.799z M16.71,3.601c-0.526-0.294-1.348-0.441-2.472-0.441
		c-0.556,0-1.115,0.044-1.676,0.131c-0.413,0.063-0.454,0.074-0.71,0.129c-0.526,0.115-0.607,0.643-0.607,0.643l-0.169,0.694
		c-0.096,0.445,0.158,0.427,0.27,0.392c0.229-0.069,0.354-0.138,0.824-0.244c0.447-0.102,0.921-0.178,1.298-0.174
		c0.554,0,0.975,0.06,1.255,0.176c0.28,0.123,0.418,0.331,0.418,0.629c0.002,0.07,0.003,0.138-0.021,0.195
		c-0.023,0.055-0.068,0.107-0.201,0.126c-0.79,0.047-1.356,0.119-2.042,0.218c-0.674,0.096-1.264,0.259-1.757,0.483
		c-0.526,0.233-0.919,0.546-1.189,0.941C9.666,7.895,9.533,8.376,9.533,8.943c0,0.534,0.192,0.971,0.564,1.311
		c0.377,0.335,0.867,0.501,1.459,0.501c0.371-0.003,0.66-0.031,0.869-0.082c0.206-0.052,0.43-0.125,0.667-0.228
		c0.177-0.074,0.368-0.183,0.57-0.316c0.202-0.134,0.342-0.229,0.522-0.348l0.005,0.012l-0.05,0.223
		c0,0.002-0.003,0.003-0.003,0.005l0.002,0.004c-0.058,0.269,0.104,0.492,0.369,0.518l0.003,0.006h0.023l0.001,0.001
		c0.177,0,0.783,0,1.065-0.001h0.197c0.014,0,0.016-0.005,0.02-0.008c0.272-0.034,0.531-0.255,0.593-0.52l1.011-4.362
		c0.022-0.103,0.041-0.221,0.052-0.357c0.013-0.139,0.028-0.251,0.024-0.332C17.499,4.351,17.233,3.894,16.71,3.601L16.71,3.601z"/>
	<path fill-rule="evenodd" clip-rule="evenodd" fill="#306292" d="M46.615,1.105h-1.239c-0.001,0-0.001,0-0.002,0l0,0
		c-0.283,0-0.571,0.217-0.651,0.493c-0.004,0.011-0.009,0.021-0.012,0.033c0,0-0.029,0.135-0.081,0.368l-1.701,7.71
		c-0.038,0.175-0.065,0.288-0.073,0.317l0.003,0.005c-0.059,0.269,0.104,0.492,0.37,0.517l0.003,0.005h1.284
		c0.282,0,0.568-0.215,0.651-0.487c0.004-0.014,0.011-0.026,0.014-0.039l1.854-8.396L47.033,1.63
		C47.096,1.343,46.911,1.105,46.615,1.105L46.615,1.105z"/>
	<path fill="#11335E" d="M48.005,2.008V1.403h-0.226v-0.08h0.542v0.08h-0.226v0.604H48.005L48.005,2.008z M48.417,2.008V1.323h0.136
		l0.162,0.484c0.015,0.045,0.024,0.079,0.032,0.101c0.008-0.024,0.02-0.062,0.037-0.109l0.164-0.476h0.121v0.685h-0.087V1.435
		l-0.199,0.573h-0.082l-0.197-0.583v0.583H48.417L48.417,2.008z"/>
</g>
</svg>
