<?xml version="1.0" encoding="utf-8"?>
<!-- Generator: Adobe Illustrator 16.0.0, SVG Export Plug-In . SVG Version: 6.00 Build 0)  -->
<!DOCTYPE svg PUBLIC "-//W3C//DTD SVG 1.1//EN" "http://www.w3.org/Graphics/SVG/1.1/DTD/svg11.dtd">
<svg version="1.1" id="图层_1" xmlns="http://www.w3.org/2000/svg" xmlns:xlink="http://www.w3.org/1999/xlink" x="0px" y="0px"
	 width="400px" height="180px" viewBox="0 0 400 180" enable-background="new 0 0 400 180" xml:space="preserve">
<g>
	<path fill="#F1CE3F" stroke="#363435" stroke-width="3" stroke-miterlimit="10" d="M262.812,148.427
		c0,7.79-6.816,14.105-15.225,14.105h-108.06c-8.409,0-15.224-6.315-15.224-14.105V18.665c0-7.79,6.815-14.104,15.224-14.104h108.06
		c8.408,0,15.225,6.315,15.225,14.104V148.427z"/>
	<path fill-rule="evenodd" clip-rule="evenodd" fill="#363435" d="M242.232,24.967c-0.24-0.417-0.096-0.95,0.321-1.19
		s0.95-0.096,1.189,0.322l1.802,3.122l0.003-0.001l1.049,1.817l1.049-1.817l0.028-0.043l1.775-3.077
		c0.238-0.418,0.775-0.563,1.19-0.322c0.419,0.24,0.562,0.774,0.321,1.19l-1.778,3.081l-0.025,0.048l-1.805,3.125
		c-0.073,0.128-0.181,0.24-0.316,0.318c-0.418,0.241-0.953,0.099-1.195-0.318l-1.805-3.125l0.002-0.001l-0.002-0.003L242.232,24.967
		z"/>
	<g>
		<path fill-rule="evenodd" clip-rule="evenodd" fill="#363435" d="M317.051,54.923c0.626,0.625,0.626,1.64,0,2.266
			c-0.626,0.625-1.642,0.625-2.268,0l-8.015-8.016c-0.623-0.625-0.623-1.638,0-2.265c0.624-0.627,1.64-0.627,2.266,0L317.051,54.923
			z"/>
		<path fill-rule="evenodd" clip-rule="evenodd" fill="#363435" d="M309.033,57.189c-0.625,0.625-1.641,0.625-2.267,0
			c-0.621-0.626-0.621-1.642,0-2.266l8.017-8.015c0.625-0.627,1.64-0.627,2.266,0c0.628,0.627,0.628,1.64,0,2.265L309.033,57.189z"
			/>
		<path fill-rule="evenodd" clip-rule="evenodd" fill="#363435" d="M299.865,77.375c-0.883,0.005-1.604-0.701-1.608-1.584
			c-0.009-0.878,0.7-1.6,1.581-1.606l37.055-0.391c0.884-0.006,1.604,0.704,1.611,1.583c0.005,0.883-0.704,1.602-1.585,1.609
			L299.865,77.375z"/>
		<path fill-rule="evenodd" clip-rule="evenodd" fill="#363435" d="M349.728,77.375c-0.881,0.032-1.621-0.657-1.651-1.541
			c-0.032-0.88,0.657-1.62,1.539-1.65l10.9-0.391c0.88-0.031,1.619,0.658,1.65,1.539c0.031,0.883-0.658,1.623-1.539,1.653
			L349.728,77.375z"/>
		<path fill-rule="evenodd" clip-rule="evenodd" fill="#363435" d="M321.037,99.283c-0.879,0.008-1.602-0.701-1.607-1.583
			c-0.007-0.878,0.702-1.599,1.583-1.606l37.054-0.391c0.881-0.007,1.601,0.704,1.609,1.582c0.007,0.884-0.701,1.601-1.582,1.608
			L321.037,99.283z"/>
		<path fill-rule="evenodd" clip-rule="evenodd" fill="#363435" d="M340.112,120.653c-0.883,0.006-1.607-0.707-1.61-1.589
			c-0.005-0.886,0.706-1.61,1.588-1.614l3.205-0.021c0.883-0.004,1.608,0.707,1.611,1.593c0.007,0.882-0.705,1.606-1.589,1.61
			L340.112,120.653L340.112,120.653z M394.548,117.083c0.886-0.006,1.607,0.709,1.612,1.591c0.007,0.882-0.705,1.606-1.591,1.61
			l-3.202,0.023c-0.886,0.006-1.606-0.705-1.613-1.591c-0.004-0.885,0.707-1.608,1.591-1.614L394.548,117.083L394.548,117.083z
			 M381.734,117.166c0.886-0.002,1.606,0.709,1.613,1.595c0.004,0.884-0.707,1.606-1.59,1.61l-3.204,0.024
			c-0.885,0.008-1.607-0.709-1.614-1.591c-0.005-0.886,0.709-1.606,1.593-1.614L381.734,117.166L381.734,117.166z M368.921,117.256
			c0.885-0.006,1.607,0.707,1.612,1.593c0.007,0.884-0.707,1.604-1.589,1.61l-3.205,0.025c-0.883,0.002-1.607-0.709-1.612-1.595
			c-0.006-0.884,0.707-1.604,1.589-1.61L368.921,117.256L368.921,117.256z M356.107,117.343c0.884-0.008,1.605,0.707,1.612,1.591
			c0.007,0.886-0.707,1.606-1.592,1.61l-3.199,0.024c-0.888,0.006-1.607-0.707-1.615-1.591c-0.006-0.884,0.708-1.608,1.593-1.614
			L356.107,117.343z"/>
	</g>
	<g>
		<g>
			<path fill-rule="evenodd" clip-rule="evenodd" fill="#363435" d="M85.603,48.891c0.586,0.585,0.586,1.537,0,2.124
				c-0.583,0.586-1.536,0.586-2.123,0l-7.512-7.514c-0.584-0.585-0.584-1.535,0-2.122c0.585-0.587,1.537-0.587,2.124,0
				L85.603,48.891z"/>
			<path fill-rule="evenodd" clip-rule="evenodd" fill="#363435" d="M78.092,51.015c-0.587,0.586-1.539,0.586-2.125,0
				c-0.583-0.587-0.583-1.539,0-2.124l7.513-7.511c0.586-0.587,1.538-0.587,2.122,0c0.587,0.587,0.587,1.537,0,2.122L78.092,51.015z
				"/>
		</g>
		<path fill-rule="evenodd" clip-rule="evenodd" fill="#363435" d="M3.846,94.591c-0.827,0.004-1.501-0.657-1.506-1.483
			c-0.008-0.824,0.655-1.502,1.482-1.508l34.729-0.367c0.829-0.006,1.502,0.661,1.509,1.483c0.005,0.828-0.659,1.503-1.484,1.51
			L3.846,94.591z"/>
		<path fill-rule="evenodd" clip-rule="evenodd" fill="#363435" d="M50.579,94.591c-0.825,0.029-1.52-0.616-1.55-1.444
			C49,92.322,49.647,91.63,50.474,91.6l10.216-0.367c0.826-0.028,1.518,0.617,1.547,1.441c0.029,0.83-0.616,1.521-1.441,1.552
			L50.579,94.591z"/>
		<path fill-rule="evenodd" clip-rule="evenodd" fill="#363435" d="M54.559,74.998c-0.822,0.008-1.501-0.656-1.506-1.483
			c-0.005-0.824,0.658-1.5,1.483-1.506l34.73-0.366c0.825-0.005,1.499,0.66,1.508,1.484c0.006,0.827-0.659,1.5-1.483,1.508
			L54.559,74.998z"/>
		<path fill-rule="evenodd" clip-rule="evenodd" fill="#363435" d="M46.403,119.07c-0.827,0.005-1.505-0.663-1.509-1.491
			c-0.003-0.828,0.662-1.507,1.49-1.511l3.004-0.021c0.827-0.006,1.506,0.66,1.509,1.492c0.006,0.826-0.661,1.505-1.489,1.509
			L46.403,119.07L46.403,119.07z M97.421,115.723c0.831-0.004,1.507,0.663,1.512,1.491c0.008,0.826-0.662,1.506-1.49,1.512
			l-3.002,0.021c-0.83,0.004-1.506-0.661-1.511-1.491c-0.005-0.83,0.66-1.51,1.49-1.514L97.421,115.723L97.421,115.723z
			 M85.414,115.802c0.828-0.002,1.505,0.665,1.512,1.495c0.002,0.826-0.663,1.504-1.493,1.51l-3.001,0.02
			c-0.829,0.008-1.506-0.663-1.512-1.491c-0.005-0.828,0.666-1.505,1.491-1.511L85.414,115.802L85.414,115.802z M73.405,115.886
			c0.826-0.006,1.506,0.661,1.508,1.491c0.008,0.83-0.66,1.507-1.488,1.511l-3.003,0.022c-0.828,0.004-1.506-0.663-1.511-1.494
			c-0.006-0.825,0.663-1.503,1.49-1.509L73.405,115.886L73.405,115.886z M61.393,115.967c0.831-0.006,1.507,0.661,1.513,1.491
			c0.005,0.828-0.662,1.506-1.491,1.51l-3,0.021c-0.832,0.004-1.506-0.663-1.515-1.491c-0.004-0.828,0.664-1.508,1.493-1.512
			L61.393,115.967z"/>
	</g>
	<path fill="#363435" d="M207.456,55.815c0,0.819-0.707,1.484-1.578,1.484h-65.505c-0.871,0-1.578-0.665-1.578-1.484l0,0
		c0-0.82,0.707-1.483,1.578-1.483h65.505C206.749,54.332,207.456,54.995,207.456,55.815L207.456,55.815z"/>
	<path fill="#363435" d="M241.786,87.446c0,0.82-0.707,1.483-1.578,1.483h-65.505c-0.871,0-1.577-0.663-1.577-1.483l0,0
		c0-0.82,0.707-1.483,1.577-1.483h65.505C241.079,85.962,241.786,86.625,241.786,87.446L241.786,87.446z"/>
	<path fill="#363435" d="M208.222,42.737c0,0.819-0.707,1.483-1.578,1.483h-31.941c-0.871,0-1.577-0.665-1.577-1.483l0,0
		c0-0.82,0.707-1.483,1.577-1.483h31.941C207.515,41.253,208.222,41.917,208.222,42.737L208.222,42.737z"/>
	<path fill="#363435" d="M187.536,122.143c0,0.82-0.707,1.483-1.578,1.483h-31.941c-0.871,0-1.578-0.663-1.578-1.483l0,0
		c0-0.817,0.707-1.483,1.578-1.483h31.941C186.829,120.659,187.536,121.325,187.536,122.143L187.536,122.143z"/>
	<circle fill="#F9FBFE" stroke="#363435" stroke-width="3" stroke-miterlimit="10" cx="257.617" cy="144.214" r="32.341"/>
	<path fill="#363435" d="M279.718,128.484c-0.305-0.701-0.935-1.152-1.604-1.152c-0.744,0-1.565,0.494-2.376,1.432l-25.648,27.622
		l-11.237-11.238c-0.585-0.578-1.186-0.886-1.735-0.886c-0.677,0-1.31,0.469-1.611,1.191c-0.201,0.48-0.39,1.435,0.586,2.433
		l13.489,12.562c0.442,0.44,0.854,0.651,1.271,0.651c0.581,0,1.159-0.378,1.54-0.693l26.861-29.647
		C280.118,129.832,279.914,128.935,279.718,128.484z"/>
	<path fill-rule="evenodd" clip-rule="evenodd" fill="#363435" d="M137.197,110.239c-0.689,0.004-1.253-0.554-1.254-1.243
		c-0.002-0.693,0.556-1.257,1.246-1.259l2.503-0.01c0.69,0,1.253,0.556,1.255,1.247c0.003,0.69-0.557,1.255-1.246,1.257
		L137.197,110.239L137.197,110.239z M179.734,107.576c0.691-0.004,1.254,0.557,1.258,1.245c0.001,0.689-0.557,1.255-1.248,1.257
		l-2.502,0.011c-0.692,0.002-1.255-0.555-1.257-1.247c-0.002-0.691,0.555-1.256,1.247-1.256L179.734,107.576L179.734,107.576z
		 M169.724,107.614c0.691-0.002,1.254,0.556,1.257,1.247s-0.555,1.253-1.248,1.257l-2.5,0.008c-0.692,0.004-1.255-0.556-1.258-1.245
		c-0.003-0.692,0.558-1.255,1.247-1.259L169.724,107.614L169.724,107.614z M159.713,107.651c0.69-0.002,1.254,0.557,1.254,1.25
		c0.004,0.69-0.555,1.251-1.246,1.253l-2.503,0.012c-0.689,0-1.252-0.558-1.254-1.247c-0.002-0.691,0.557-1.253,1.245-1.255
		L159.713,107.651L159.713,107.651z M149.702,107.689c0.69-0.002,1.252,0.556,1.256,1.247c0.003,0.691-0.557,1.255-1.249,1.255
		l-2.5,0.011c-0.693,0.004-1.253-0.557-1.258-1.245c0-0.691,0.558-1.256,1.25-1.256L149.702,107.689z"/>
	<path fill-rule="evenodd" clip-rule="evenodd" fill="#363435" d="M187.304,136.193c-0.689,0.002-1.252-0.557-1.254-1.245
		c-0.001-0.693,0.557-1.255,1.246-1.257l2.504-0.011c0.69,0,1.253,0.557,1.255,1.247c0.003,0.691-0.556,1.254-1.246,1.256
		L187.304,136.193L187.304,136.193z M199.808,133.644c0.69-0.002,1.254,0.556,1.257,1.247s-0.557,1.255-1.248,1.255l-2.5,0.01
		c-0.693,0.004-1.254-0.554-1.258-1.245c-0.001-0.691,0.557-1.255,1.25-1.257L199.808,133.644z"/>
</g>
</svg>
