<?xml version="1.0" encoding="utf-8"?>
<!-- Generator: Adobe Illustrator 16.0.0, SVG Export Plug-In . SVG Version: 6.00 Build 0)  -->
<!DOCTYPE svg PUBLIC "-//W3C//DTD SVG 1.1//EN" "http://www.w3.org/Graphics/SVG/1.1/DTD/svg11.dtd">
<svg version="1.1" id="online" xmlns="http://www.w3.org/2000/svg" xmlns:xlink="http://www.w3.org/1999/xlink" x="0px" y="0px"
	 width="400px" height="180px" viewBox="15 10.999 400 180" enable-background="new 15 10.999 400 180" xml:space="preserve">
<g>
	<g>
		<path fill="#373435" d="M327.152,96.888c0.621,0.621,0.621,1.631,0,2.254c-0.622,0.622-1.633,0.622-2.257,0l-7.971-7.974
			c-0.62-0.622-0.62-1.63,0-2.253c0.621-0.623,1.63-0.623,2.253,0L327.152,96.888z"/>
		<path fill="#373435" d="M319.176,99.142c-0.621,0.622-1.631,0.622-2.253,0c-0.618-0.624-0.618-1.633,0-2.254l7.973-7.973
			c0.622-0.624,1.633-0.624,2.255,0c0.623,0.623,0.623,1.631,0,2.253L319.176,99.142z"/>
		<path fill="#373435" d="M310.057,119.221c-0.878,0.005-1.596-0.697-1.598-1.577c-0.009-0.873,0.694-1.593,1.571-1.597
			l36.858-0.389c0.88-0.009,1.597,0.698,1.603,1.571c0.006,0.881-0.7,1.596-1.575,1.602L310.057,119.221z"/>
		<path fill="#373435" d="M359.654,119.221c-0.876,0.03-1.612-0.654-1.642-1.532c-0.032-0.877,0.654-1.61,1.53-1.642l10.843-0.389
			c0.876-0.031,1.61,0.655,1.643,1.528c0.029,0.879-0.657,1.614-1.531,1.646L359.654,119.221z"/>
		<path fill="#373435" d="M331.116,141.012c-0.874,0.008-1.593-0.696-1.598-1.575c-0.008-0.874,0.698-1.592,1.573-1.598
			l36.858-0.388c0.877-0.009,1.593,0.699,1.601,1.573c0.007,0.879-0.698,1.592-1.573,1.601L331.116,141.012z"/>
		<path fill="#373435" d="M350.091,162.269c-0.878,0.007-1.598-0.703-1.601-1.581c-0.004-0.881,0.701-1.599,1.58-1.604l3.187-0.022
			c0.88-0.003,1.6,0.705,1.603,1.584c0.008,0.878-0.702,1.598-1.581,1.602L350.091,162.269L350.091,162.269z M404.236,158.718
			c0.883-0.004,1.6,0.703,1.604,1.582c0.007,0.878-0.701,1.598-1.582,1.602l-3.185,0.025c-0.882,0.004-1.598-0.704-1.605-1.586
			c-0.003-0.879,0.703-1.599,1.583-1.603L404.236,158.718L404.236,158.718z M391.492,158.803c0.882-0.006,1.598,0.704,1.605,1.583
			c0.003,0.882-0.703,1.598-1.583,1.604l-3.187,0.021c-0.879,0.009-1.598-0.703-1.604-1.583c-0.006-0.881,0.704-1.597,1.584-1.604
			L391.492,158.803L391.492,158.803z M378.746,158.89c0.881-0.007,1.599,0.701,1.604,1.582c0.007,0.882-0.704,1.6-1.581,1.604
			l-3.188,0.022c-0.877,0.006-1.598-0.703-1.603-1.584c-0.006-0.879,0.702-1.596,1.58-1.604L378.746,158.89L378.746,158.89z
			 M366.001,158.976c0.88-0.005,1.597,0.702,1.604,1.583c0.008,0.88-0.702,1.598-1.582,1.602l-3.184,0.021
			c-0.882,0.008-1.598-0.7-1.606-1.582c-0.005-0.879,0.705-1.599,1.585-1.603L366.001,158.976z"/>
	</g>
	<g>
		<g>
			<path fill="#373435" d="M110.132,81.57c0.583,0.583,0.583,1.529,0,2.114c-0.581,0.582-1.528,0.582-2.113,0l-7.471-7.475
				c-0.582-0.583-0.582-1.526,0-2.11s1.527-0.584,2.112,0L110.132,81.57z"/>
			<path fill="#373435" d="M102.661,83.684c-0.584,0.582-1.53,0.582-2.114,0c-0.58-0.584-0.58-1.531,0-2.114l7.473-7.471
				c0.583-0.584,1.53-0.584,2.112,0c0.584,0.584,0.584,1.528,0,2.11L102.661,83.684z"/>
		</g>
		<path fill="#373435" d="M28.809,127.027c-0.823,0.004-1.494-0.654-1.498-1.478c-0.008-0.819,0.652-1.492,1.474-1.498l34.544-0.363
			c0.824-0.008,1.494,0.655,1.5,1.474c0.005,0.825-0.656,1.496-1.477,1.5L28.809,127.027z"/>
		<path fill="#373435" d="M75.294,127.027c-0.82,0.028-1.512-0.613-1.542-1.437c-0.029-0.821,0.614-1.509,1.437-1.539l10.162-0.363
			c0.821-0.03,1.51,0.612,1.538,1.434c0.029,0.825-0.613,1.514-1.434,1.54L75.294,127.027z"/>
		<path fill="#373435" d="M79.252,107.539c-0.817,0.009-1.492-0.653-1.498-1.476c-0.005-0.819,0.655-1.491,1.476-1.498l34.546-0.364
			c0.82-0.007,1.49,0.658,1.5,1.477c0.007,0.822-0.656,1.492-1.475,1.499L79.252,107.539z"/>
		<path fill="#373435" d="M71.14,151.377c-0.823,0.006-1.498-0.657-1.501-1.482c-0.003-0.825,0.658-1.5,1.482-1.504l2.988-0.019
			c0.822-0.007,1.498,0.656,1.5,1.483c0.007,0.823-0.658,1.498-1.481,1.502L71.14,151.377L71.14,151.377z M121.887,148.046
			c0.827-0.004,1.499,0.662,1.504,1.485c0.009,0.822-0.658,1.498-1.482,1.501l-2.987,0.023c-0.825,0.005-1.497-0.659-1.502-1.483
			c-0.005-0.827,0.657-1.5,1.481-1.506L121.887,148.046L121.887,148.046z M109.943,148.128c0.823-0.005,1.497,0.66,1.504,1.485
			c0.003,0.821-0.66,1.495-1.485,1.502l-2.986,0.021c-0.825,0.006-1.498-0.661-1.504-1.484c-0.005-0.825,0.661-1.498,1.483-1.504
			L109.943,148.128L109.943,148.128z M97.998,148.21c0.822-0.006,1.498,0.657,1.501,1.482c0.008,0.826-0.657,1.5-1.481,1.504
			l-2.987,0.023c-0.822,0.002-1.497-0.661-1.502-1.486c-0.007-0.823,0.659-1.496,1.481-1.502L97.998,148.21L97.998,148.21z
			 M86.051,148.29c0.826-0.006,1.499,0.657,1.504,1.484c0.006,0.825-0.658,1.498-1.483,1.502l-2.984,0.019
			c-0.828,0.008-1.499-0.657-1.507-1.482c-0.004-0.823,0.66-1.498,1.486-1.504L86.051,148.29z"/>
	</g>
	<path fill="#F1F2F2" stroke="#373435" stroke-width="3" stroke-miterlimit="10" d="M262.468,60.332
		c-0.58-25.086-21.083-45.248-46.31-45.248c-25.226,0-45.728,20.162-46.308,45.248h-0.026v9.672h9.347v-8.643
		c0.031-20.403,16.579-36.933,36.987-36.933c20.407,0,36.951,16.524,36.989,36.92v8.655h9.348v-9.672H262.468z"/>
	<path fill="#FBD536" stroke="#373435" stroke-width="3" stroke-miterlimit="10" d="M284.144,171.317
		c0,3.261-2.643,5.904-5.903,5.904H155.475c-3.261,0-5.905-2.644-5.905-5.904V75.387c0-3.259,2.644-5.903,5.905-5.903H278.24
		c3.261,0,5.903,2.643,5.903,5.903V171.317z"/>
	<path fill="#D1D3D4" stroke="#373435" stroke-width="3" stroke-miterlimit="10" d="M227.541,111.686
		c0-6.286-5.096-11.381-11.383-11.381c-6.286,0-11.381,5.095-11.381,11.381c0,3.879,1.941,7.297,4.901,9.352
		c-0.003,0.077-0.013,0.153-0.013,0.232v19.229c0,3.259,2.642,5.902,5.902,5.902h1.182c3.261,0,5.902-2.644,5.902-5.902V121.27
		c0-0.079-0.008-0.155-0.012-0.232C225.602,118.982,227.541,115.564,227.541,111.686z"/>
	<path fill="#373435" d="M167.669,96.091c0,0.814-0.702,1.475-1.568,1.475h-15.529c-0.866,0-1.569-0.661-1.569-1.475l0,0
		c0-0.815,0.704-1.476,1.569-1.476h15.529C166.966,94.616,167.669,95.275,167.669,96.091L167.669,96.091z"/>
	<path fill="#373435" d="M162.447,103.567c0,0.813-0.507,1.476-1.131,1.476h-11.184c-0.624,0-1.13-0.661-1.13-1.476l0,0
		c0-0.817,0.506-1.477,1.13-1.477h11.184C161.939,102.091,162.447,102.752,162.447,103.567L162.447,103.567z"/>
	<path fill="#373435" d="M167.669,111.045c0,0.813-0.702,1.475-1.568,1.475h-15.529c-0.866,0-1.569-0.661-1.569-1.475l0,0
		c0-0.817,0.704-1.477,1.569-1.477h15.529C166.966,109.568,167.669,110.228,167.669,111.045L167.669,111.045z"/>
	<path fill="#373435" d="M162.447,143.31c0,0.816-0.507,1.477-1.131,1.477h-11.184c-0.624,0-1.13-0.658-1.13-1.477l0,0
		c0-0.813,0.506-1.475,1.13-1.475h11.184C161.939,141.837,162.447,142.496,162.447,143.31L162.447,143.31z"/>
	<path fill="#373435" d="M167.669,151.083c0,0.815-0.702,1.476-1.568,1.476h-15.529c-0.866,0-1.569-0.66-1.569-1.476l0,0
		c0-0.815,0.704-1.475,1.569-1.475h15.529C166.966,149.608,167.669,150.266,167.669,151.083L167.669,151.083z"/>
	<path fill="#373435" d="M284.09,100.418c0,0.817-0.716,1.477-1.599,1.477h-15.811c-0.883,0-1.598-0.658-1.598-1.477l0,0
		c0-0.815,0.715-1.475,1.598-1.475h15.81C283.374,98.943,284.09,99.604,284.09,100.418L284.09,100.418z"/>
	<path fill="#373435" d="M284.09,107.896c0,0.813-0.44,1.477-0.984,1.477h-9.73c-0.543,0-0.984-0.661-0.984-1.477l0,0
		c0-0.814,0.441-1.475,0.984-1.475h9.73C283.649,106.421,284.09,107.081,284.09,107.896L284.09,107.896z"/>
	<path fill="#373435" d="M284.09,115.372c0,0.814-0.716,1.477-1.599,1.477h-15.811c-0.883,0-1.598-0.662-1.598-1.477l0,0
		c0-0.815,0.715-1.476,1.598-1.476h15.81C283.374,113.896,284.09,114.557,284.09,115.372L284.09,115.372z"/>
	<path fill="#373435" d="M284.09,147.64c0,0.815-0.44,1.477-0.984,1.477h-9.73c-0.543,0-0.984-0.659-0.984-1.477l0,0
		c0-0.814,0.441-1.477,0.984-1.477h9.73C283.649,146.163,284.09,146.825,284.09,147.64L284.09,147.64z"/>
	<path fill="#373435" d="M284.09,155.41c0,0.817-0.44,1.476-0.984,1.476h-9.73c-0.543,0-0.984-0.658-0.984-1.476l0,0
		c0-0.813,0.441-1.475,0.984-1.475h9.73C283.649,153.937,284.09,154.597,284.09,155.41L284.09,155.41z"/>
	<circle fill="#F9FBFF" stroke="#373435" stroke-width="3" stroke-miterlimit="10" cx="277.137" cy="157.829" r="32.17"/>
	<path fill="#373435" d="M299.118,142.182c-0.302-0.697-0.926-1.146-1.596-1.146c-0.737,0-1.556,0.491-2.361,1.423l-25.514,27.476
		l-11.174-11.176c-0.583-0.579-1.181-0.883-1.729-0.883c-0.673,0-1.302,0.465-1.602,1.185c-0.199,0.478-0.388,1.425,0.582,2.421
		l13.418,12.491c0.441,0.439,0.851,0.649,1.264,0.649c0.579,0,1.152-0.373,1.531-0.688l26.719-29.489
		C299.518,143.523,299.316,142.63,299.118,142.182z"/>
</g>
</svg>
