<?xml version="1.0" encoding="utf-8"?>
<!-- Generator: Adobe Illustrator 16.0.0, SVG Export Plug-In . SVG Version: 6.00 Build 0)  -->
<!DOCTYPE svg PUBLIC "-//W3C//DTD SVG 1.1//EN" "http://www.w3.org/Graphics/SVG/1.1/DTD/svg11.dtd">
<svg version="1.1" id="图层_1" xmlns="http://www.w3.org/2000/svg" xmlns:xlink="http://www.w3.org/1999/xlink" x="0px" y="0px"
	 width="440.5px" height="215.5px" viewBox="0 0 440.5 215.5" enable-background="new 0 0 440.5 215.5" xml:space="preserve">
<g>
	<g>
		<path fill="#363435" d="M24.467,87.464c0.69,0.69,0.69,1.813,0,2.505c-0.69,0.69-1.812,0.69-2.505,0l-8.855-8.859
			c-0.689-0.69-0.689-1.809,0-2.502c0.689-0.694,1.812-0.694,2.504,0L24.467,87.464z"/>
		<path fill="#363435" d="M15.607,89.97c-0.69,0.69-1.812,0.69-2.504,0c-0.687-0.693-0.687-1.815,0-2.505l8.858-8.855
			c0.69-0.694,1.812-0.694,2.503,0c0.692,0.693,0.692,1.812,0,2.502L15.607,89.97z"/>
		<path fill="#363435" d="M5.477,112.274c-0.975,0.006-1.772-0.773-1.775-1.75c-0.011-0.971,0.773-1.771,1.746-1.775l40.945-0.434
			c0.975-0.004,1.77,0.778,1.779,1.751c0.006,0.977-0.777,1.771-1.751,1.777L5.477,112.274z"/>
		<path fill="#363435" d="M65.607,112.301c-0.973,0.036-1.792-0.725-1.825-1.7c-0.035-0.974,0.726-1.792,1.701-1.827l12.044-0.43
			c0.973-0.032,1.79,0.727,1.824,1.701c0.034,0.973-0.727,1.792-1.7,1.825L65.607,112.301z"/>
		<path fill="#363435" d="M40.57,154.878c-0.971,0.009-1.77-0.773-1.776-1.752c-0.007-0.971,0.774-1.768,1.75-1.772l40.944-0.433
			c0.973-0.007,1.769,0.776,1.778,1.747c0.007,0.976-0.775,1.771-1.748,1.78L40.57,154.878z"/>
		<path fill="#363435" d="M65.866,60.627c-0.976,0.007-1.776-0.781-1.78-1.756c-0.005-0.977,0.781-1.778,1.756-1.782l3.542-0.024
			c0.974-0.006,1.775,0.78,1.779,1.757c0.008,0.975-0.78,1.776-1.756,1.781L65.866,60.627L65.866,60.627z M126.015,56.682
			c0.979-0.004,1.776,0.783,1.783,1.759c0.007,0.974-0.78,1.774-1.758,1.779l-3.54,0.028c-0.979,0.004-1.775-0.78-1.782-1.76
			c-0.005-0.978,0.78-1.776,1.757-1.783L126.015,56.682L126.015,56.682z M111.857,56.775c0.979-0.004,1.776,0.783,1.783,1.762
			c0.005,0.976-0.781,1.772-1.758,1.78l-3.541,0.025c-0.976,0.006-1.775-0.784-1.783-1.76c-0.006-0.978,0.784-1.774,1.759-1.783
			L111.857,56.775L111.857,56.775z M97.698,56.874c0.976-0.007,1.776,0.78,1.781,1.759c0.007,0.978-0.78,1.774-1.757,1.779
			l-3.541,0.028c-0.975,0.004-1.776-0.783-1.781-1.76c-0.007-0.977,0.781-1.775,1.756-1.781L97.698,56.874L97.698,56.874z
			 M83.54,56.969c0.978-0.007,1.775,0.78,1.783,1.759c0.006,0.977-0.781,1.774-1.759,1.779l-3.535,0.025
			c-0.981,0.008-1.776-0.779-1.787-1.755c-0.006-0.978,0.783-1.779,1.76-1.783L83.54,56.969z"/>
	</g>
	<g>
		<g>
			<path fill="#363435" d="M423.423,112.606c0.647,0.647,0.647,1.699,0,2.347s-1.696,0.647-2.346,0l-8.303-8.301
				c-0.646-0.647-0.646-1.697,0-2.345c0.646-0.65,1.698-0.65,2.347,0L423.423,112.606z"/>
			<path fill="#363435" d="M415.122,114.953c-0.648,0.647-1.7,0.647-2.349,0c-0.644-0.65-0.644-1.701,0-2.347l8.304-8.3
				c0.646-0.65,1.698-0.65,2.346,0c0.647,0.647,0.647,1.696,0,2.344L415.122,114.953z"/>
		</g>
		<path fill="#363435" d="M333.082,163.104c-0.916,0.004-1.661-0.727-1.665-1.641c-0.009-0.911,0.724-1.657,1.638-1.665
			l38.375-0.404c0.914-0.009,1.66,0.729,1.666,1.638c0.008,0.916-0.727,1.66-1.638,1.666L333.082,163.104z"/>
		<path fill="#363435" d="M384.723,163.104c-0.911,0.031-1.678-0.681-1.713-1.595c-0.033-0.913,0.68-1.68,1.595-1.711l11.289-0.404
			c0.914-0.032,1.677,0.679,1.711,1.592c0.03,0.916-0.682,1.681-1.593,1.712L384.723,163.104z"/>
		<path fill="#363435" d="M389.118,141.454c-0.906,0.01-1.656-0.725-1.662-1.64c-0.007-0.91,0.726-1.657,1.637-1.663l38.378-0.406
			c0.91-0.007,1.656,0.729,1.665,1.641c0.008,0.913-0.728,1.657-1.637,1.668L389.118,141.454z"/>
		<path fill="#363435" d="M380.108,190.152c-0.915,0.007-1.665-0.731-1.67-1.646c-0.004-0.916,0.731-1.668,1.647-1.671l3.32-0.022
			c0.911-0.006,1.662,0.73,1.667,1.646s-0.73,1.667-1.647,1.671L380.108,190.152L380.108,190.152z M436.482,186.455
			c0.918-0.007,1.665,0.731,1.67,1.646c0.008,0.914-0.73,1.665-1.646,1.669l-3.316,0.025c-0.919,0.006-1.665-0.731-1.671-1.648
			c-0.005-0.919,0.729-1.668,1.646-1.671L436.482,186.455L436.482,186.455z M423.213,186.544c0.916-0.005,1.666,0.733,1.672,1.65
			c0.002,0.914-0.733,1.662-1.649,1.669l-3.315,0.024c-0.918,0.005-1.666-0.735-1.671-1.649c-0.007-0.917,0.733-1.664,1.646-1.67
			L423.213,186.544L423.213,186.544z M409.943,186.635c0.914-0.007,1.664,0.73,1.669,1.647c0.009,0.919-0.73,1.666-1.646,1.67
			l-3.317,0.024c-0.915,0.008-1.664-0.731-1.67-1.647c-0.007-0.917,0.731-1.664,1.646-1.67L409.943,186.635L409.943,186.635z
			 M396.671,186.723c0.919-0.006,1.665,0.73,1.672,1.648c0.005,0.916-0.732,1.664-1.647,1.669l-3.315,0.024
			c-0.92,0.005-1.665-0.732-1.675-1.646c-0.004-0.916,0.733-1.666,1.65-1.671L396.671,186.723z"/>
	</g>
	<g>
		<path fill="#D1D3D4" stroke="#363435" stroke-width="3" stroke-linejoin="round" stroke-miterlimit="10" d="M210.313,136.143
			c-0.709-0.821-1.456-1.617-2.23-2.391c-8.542-8.547-19.863-13.236-31.912-13.228c-12.046,0-23.392,4.718-31.932,13.293
			c-8.494,8.532-13.168,19.837-13.168,31.839c-0.004,12.249,4.916,23.357,12.865,31.493c0-3.404,0-7.335,0-12.989
			c0.009-4.442,3.506-9.608,7.943-10.966c15.3-4.563,31.611-4.563,46.913,0c4.445,1.357,7.937,6.512,7.941,10.966
			c0,6.56,0,10.809,0,14.595c0.473-0.439,0.969-0.844,1.429-1.302c8.498-8.527,13.17-19.819,13.165-31.813
			c-0.006-6.851-1.536-13.48-4.427-19.495 M175.333,169.226c-8.807,0-15.947-7.141-15.947-15.951
			c0-8.813,7.139-15.952,15.947-15.952c8.81,0,15.954,7.14,15.954,15.952C191.288,162.085,184.143,169.226,175.333,169.226z"/>
		<path fill="#E6E7E8" stroke="#363435" stroke-width="3" stroke-linejoin="round" stroke-miterlimit="10" d="M198.791,173.195
			c-15.301-4.563-31.612-4.563-46.912,0c-4.437,1.357-7.934,6.524-7.943,10.967c0,5.655,0,9.586,0,12.989
			c4.091,4.186,8.981,7.584,14.43,9.937v-15.807v15.807c5.472,2.36,11.497,3.677,17.828,3.672c5.603,0,11.034-1.058,16.116-3.007
			v-16.472v16.472c5.284-2.024,10.155-5.058,14.422-8.998c0-3.786,0-8.035,0-14.595
			C206.728,179.708,203.235,174.553,198.791,173.195z"/>
		
			<circle fill="#F1F2F1" stroke="#363435" stroke-width="3" stroke-linejoin="round" stroke-miterlimit="10" cx="175.333" cy="153.273" r="15.952"/>
		<g>
			<g>
				<g>
					<g>
						<path fill="#FFFFFF" stroke="#363435" stroke-width="3" stroke-linejoin="round" stroke-miterlimit="10" d="M273.543,3.762
							c-39.997,0-72.406,32.4-72.406,72.401c0,17.863,6.489,34.18,17.235,46.817l-16.884,31.985l30.69-19.442
							c11.729,8.19,25.966,13.03,41.364,13.03c39.973,0,72.384-32.42,72.384-72.391C345.928,36.163,313.518,3.762,273.543,3.762z"/>
					</g>
				</g>
			</g>
		</g>
		<g>
			<g>
				<g>
					<g>
						<path fill="#E6E7E8" stroke="#E6E7E8" stroke-width="0.8183" stroke-miterlimit="10" d="M273.54,20.507
							c-32.727,0-59.249,26.513-59.249,59.245c0,14.617,5.311,27.97,14.104,38.311l-13.815,26.173l25.113-15.91
							c9.598,6.702,21.247,10.665,33.846,10.665c32.711,0,59.233-26.529,59.233-59.239C332.771,47.021,306.252,20.507,273.54,20.507
							z"/>
					</g>
				</g>
			</g>
		</g>
		<polygon fill="#F1F2F1" stroke="#363435" stroke-width="3" stroke-miterlimit="10" points="272.251,46.135 281.323,64.504 
			301.591,67.447 286.918,81.747 290.385,101.933 272.251,92.402 254.128,101.933 257.589,81.747 242.918,67.447 263.184,64.504 		
			"/>
	</g>
</g>
</svg>
