<?xml version="1.0" encoding="utf-8"?>
<!-- Generator: Adobe Illustrator 16.0.0, SVG Export Plug-In . SVG Version: 6.00 Build 0)  -->
<!DOCTYPE svg PUBLIC "-//W3C//DTD SVG 1.1//EN" "http://www.w3.org/Graphics/SVG/1.1/DTD/svg11.dtd">
<svg version="1.1" id="图层_1" xmlns="http://www.w3.org/2000/svg" xmlns:xlink="http://www.w3.org/1999/xlink" x="0px" y="0px"
	 width="50px" height="50px" viewBox="0 0 50 50" enable-background="new 0 0 50 50" xml:space="preserve">
<g id="search_1_">
	<path id="svg_16" d="M48.984,45.24l-0.644-0.642L36.421,32.25c2.684-3.33,4.403-7.518,4.403-12.242
		c0-10.846-9.127-19.758-20.185-19.758C9.364,0.465,0.451,9.27,0.451,20.008c0,10.737,9.127,19.757,20.188,19.757
		c4.295,0,8.267-1.288,11.489-3.546l12.135,12.564c0,0,0,0.216,0.214,0.216c0.643,0.643,1.182,0.75,2.039,0.75
		c1.825,0,3.007-1.288,3.007-3.005C49.628,46.317,49.413,45.78,48.984,45.24L48.984,45.24z M20.532,35.469
		c-8.699,0-15.785-6.871-15.785-15.354c0-8.483,7.086-15.462,15.785-15.462c8.696,0,15.783,6.872,15.783,15.355
		C36.314,28.491,29.121,35.469,20.532,35.469L20.532,35.469z"/>
</g>
</svg>
