<?xml version="1.0" encoding="utf-8"?>
<!-- Generator: Adobe Illustrator 16.0.0, SVG Export Plug-In . SVG Version: 6.00 Build 0)  -->
<!DOCTYPE svg PUBLIC "-//W3C//DTD SVG 1.1//EN" "http://www.w3.org/Graphics/SVG/1.1/DTD/svg11.dtd">
<svg version="1.1" id="图层_1" xmlns="http://www.w3.org/2000/svg" xmlns:xlink="http://www.w3.org/1999/xlink" x="0px" y="0px"
	 width="400px" height="180px" viewBox="0 0 400 180" enable-background="new 0 0 400 180" xml:space="preserve">
<g>
	<g>
		<path fill-rule="evenodd" clip-rule="evenodd" fill="#363435" d="M94.643,11.07c0.516,0.515,0.516,1.35,0,1.866
			c-0.513,0.514-1.349,0.514-1.865,0l-6.597-6.598c-0.514-0.514-0.514-1.349,0-1.864c0.514-0.516,1.35-0.516,1.865,0L94.643,11.07z"
			/>
		<path fill-rule="evenodd" clip-rule="evenodd" fill="#363435" d="M88.046,12.936c-0.515,0.514-1.351,0.514-1.866,0
			c-0.513-0.516-0.513-1.352,0-1.866l6.598-6.596c0.515-0.516,1.35-0.516,1.864,0c0.517,0.515,0.517,1.35,0,1.864L88.046,12.936z"/>
	</g>
	<path fill-rule="evenodd" clip-rule="evenodd" fill="#363435" d="M84.57,26.158c-0.727,0.004-1.318-0.577-1.323-1.304
		c-0.007-0.723,0.577-1.317,1.302-1.323l30.499-0.321c0.727-0.006,1.32,0.579,1.325,1.302c0.004,0.728-0.579,1.319-1.304,1.325
		L84.57,26.158z"/>
	<path fill-rule="evenodd" clip-rule="evenodd" fill="#363435" d="M125.612,26.158c-0.725,0.026-1.335-0.541-1.361-1.268
		c-0.025-0.725,0.543-1.334,1.268-1.359l8.973-0.321c0.725-0.026,1.333,0.541,1.358,1.266c0.025,0.727-0.542,1.336-1.266,1.361
		L125.612,26.158z"/>
	<path fill-rule="evenodd" clip-rule="evenodd" fill="#363435" d="M113.96,11.175c-0.722,0.007-1.318-0.576-1.323-1.303
		c-0.005-0.723,0.578-1.318,1.302-1.323l30.5-0.321c0.725-0.005,1.316,0.58,1.325,1.302c0.005,0.727-0.578,1.318-1.302,1.325
		L113.96,11.175z"/>
	<path fill-rule="evenodd" clip-rule="evenodd" fill="#363435" d="M128.461,40.416c-0.727,0.006-1.323-0.582-1.327-1.309
		c-0.003-0.728,0.582-1.324,1.309-1.327l2.639-0.019c0.725-0.004,1.322,0.581,1.325,1.31c0.005,0.727-0.58,1.322-1.308,1.326
		L128.461,40.416L128.461,40.416z M173.266,37.476c0.729-0.003,1.323,0.583,1.327,1.31c0.007,0.727-0.581,1.322-1.308,1.326
		l-2.637,0.021c-0.729,0.003-1.323-0.582-1.328-1.311c-0.004-0.729,0.581-1.324,1.308-1.328L173.266,37.476L173.266,37.476z
		 M162.72,37.547c0.728-0.004,1.323,0.583,1.328,1.312c0.004,0.726-0.583,1.32-1.311,1.326l-2.636,0.019
		c-0.728,0.006-1.322-0.583-1.328-1.31c-0.004-0.728,0.584-1.323,1.31-1.328L162.72,37.547L162.72,37.547z M152.174,37.62
		c0.726-0.006,1.323,0.582,1.325,1.309c0.007,0.729-0.58,1.324-1.309,1.328l-2.637,0.02c-0.726,0.003-1.323-0.583-1.327-1.312
		c-0.004-0.727,0.583-1.321,1.31-1.327L152.174,37.62L152.174,37.62z M141.625,37.691c0.729-0.005,1.323,0.581,1.328,1.31
		c0.005,0.728-0.582,1.321-1.309,1.326l-2.635,0.018c-0.73,0.006-1.322-0.582-1.33-1.308c-0.004-0.728,0.583-1.324,1.311-1.328
		L141.625,37.691z"/>
	<path fill-rule="evenodd" clip-rule="evenodd" fill="#FFFFFF" stroke="#363435" stroke-width="3" stroke-miterlimit="10" d="
		M76.301,60.252h203.934c3.944,0,7.174,3.227,7.174,7.174v29.719c0,3.946-3.229,7.173-7.174,7.173H76.301
		c-3.943,0-7.173-3.227-7.173-7.173V67.426C69.128,63.479,72.358,60.252,76.301,60.252z"/>
	<path fill-rule="evenodd" clip-rule="evenodd" fill="#E6E7E8" d="M79.306,64.354H277.16V90.77c0,3.506-3.194,6.376-7.101,6.376
		H72.202V70.729C72.202,67.221,75.398,64.354,79.306,64.354z"/>
	<path fill-rule="evenodd" clip-rule="evenodd" fill="#363435" d="M80.108,67.94c0-0.731,0.59-1.319,1.319-1.319
		c0.726,0,1.316,0.588,1.316,1.319v28.691c0,0.729-0.59,1.318-1.316,1.318c-0.729,0-1.319-0.589-1.319-1.318V67.94z"/>
	<path fill-rule="evenodd" clip-rule="evenodd" fill="#EFF4FB" d="M213,110.923l-3.234-3.229c-1.779-1.78-3.368-3.094-3.541-2.923
		l-21.135,21.133c-0.171,0.174,1.145,1.766,2.923,3.543l3.231,3.233c1.78,1.778,3.371,3.09,3.542,2.92l21.136-21.133
		C216.092,114.295,214.775,112.702,213,110.923z"/>
	<path fill-rule="evenodd" clip-rule="evenodd" fill="#363435" d="M212.23,111.692l-3.233-3.232
		c-0.884-0.884-1.696-1.635-2.29-2.123c-0.174-0.143,0.662-1.174,0.285-0.798l-21.132,21.135l-0.05,0.049
		c-0.233,0.244,0.708-0.508,0.835-0.354c0.498,0.605,1.235,1.41,2.096,2.272v-0.002l0.04,0.037l3.232,3.233l0.039,0.038l0.057,0.061
		c0.837,0.834,1.624,1.552,2.211,2.035c0.164,0.136-0.68,1.172-0.301,0.791v-0.003v-0.001l21.132-21.135l0.047-0.043
		c0.225-0.246-0.707,0.497-0.844,0.333C213.864,113.391,213.114,112.576,212.23,111.692L212.23,111.692z M210.535,106.924l3.23,3.23
		c0.894,0.893,1.693,1.769,2.26,2.454c0.359,0.437,0.62,0.849,0.777,1.223c0.307,0.425,0.268,1.021-0.115,1.404l-21.134,21.132
		l0-0.002c-0.55,0.548-1.505,0.259-2.61-0.648c-0.648-0.533-1.487-1.3-2.369-2.173l-0.061-0.057l-0.037-0.04l-3.231-3.229
		l-0.042-0.041l0.004-0.002l-0.004-0.005c-0.896-0.897-1.685-1.759-2.231-2.424c-0.356-0.432-0.616-0.843-0.768-1.214
		c-0.302-0.424-0.261-1.016,0.12-1.396l21.133-21.134c0.547-0.549,1.513-0.257,2.625,0.66
		C208.77,105.23,209.643,106.029,210.535,106.924z"/>
	<path fill-rule="evenodd" clip-rule="evenodd" fill="#FFFFFF" d="M156.116,170.066l-5.492-5.492
		c-3.026-3.025-5.223-5.766-4.893-6.098l40.987-40.984c0.331-0.332,3.073,1.867,6.098,4.891l5.493,5.494
		c3.023,3.022,5.222,5.765,4.89,6.097l-40.985,40.983C161.881,175.29,159.14,173.091,156.116,170.066z"/>
	<path fill-rule="evenodd" clip-rule="evenodd" fill="#363435" d="M155.347,170.838l-5.492-5.497
		c-1.526-1.524-2.861-3.001-3.781-4.146c-1.262-1.573-1.736-2.861-1.11-3.487l40.984-40.984c0.624-0.622,1.913-0.153,3.486,1.11
		c1.144,0.917,2.619,2.25,4.145,3.777l0.003,0.003l5.494,5.493l0.004,0.002c1.526,1.528,2.859,3.001,3.777,4.146
		c1.262,1.574,1.734,2.862,1.109,3.487l-40.986,40.983c-0.624,0.625-1.91,0.152-3.487-1.11
		C158.35,173.697,156.875,172.362,155.347,170.838L155.347,170.838z M151.391,163.805l5.496,5.494
		c1.497,1.497,2.904,2.774,3.966,3.626c0.636,0.511,0.302,1.557,0.592,1.266l40.987-40.987c0.289-0.29-0.756,0.044-1.264-0.587
		c-0.852-1.064-2.13-2.473-3.625-3.967l-0.006-0.005l-5.491-5.492l-0.004-0.004c-1.496-1.495-2.903-2.773-3.966-3.625
		c-0.634-0.51-0.298-1.554-0.589-1.264l-40.985,40.987c-0.292,0.291,0.754-0.043,1.265,0.589
		C148.617,160.898,149.895,162.309,151.391,163.805z"/>
	<path fill-rule="evenodd" clip-rule="evenodd" fill="#363435" d="M195.122,131.941c0.425-0.425,1.114-0.425,1.539,0
		c0.424,0.425,0.424,1.112,0,1.538l-35.269,35.27c-0.427,0.425-1.114,0.425-1.538,0c-0.424-0.427-0.424-1.114,0-1.539
		L195.122,131.941z"/>
	<path fill-rule="evenodd" clip-rule="evenodd" fill="#363435" d="M187.212,124.03c0.425-0.423,1.112-0.423,1.536,0
		c0.425,0.425,0.425,1.113,0,1.538l-35.27,35.27c-0.422,0.425-1.11,0.425-1.535,0c-0.424-0.426-0.424-1.113,0-1.537L187.212,124.03z
		"/>
	<path fill-rule="evenodd" clip-rule="evenodd" fill="#BCBEC0" stroke="#363435" stroke-width="3" stroke-miterlimit="10" d="
		M266.1,54.592c-15.796-15.796-41.557-15.796-57.353,0c-15.797,15.794-15.797,41.557,0,57.352c15.796,15.795,41.557,15.795,57.353,0
		S281.896,70.386,266.1,54.592z M258.188,104.033c-11.439,11.438-30.093,11.438-41.53,0c-11.438-11.437-11.438-30.092,0-41.533
		c11.438-11.435,30.091-11.435,41.53,0C269.624,73.941,269.624,92.597,258.188,104.033z"/>
	<path fill-rule="evenodd" clip-rule="evenodd" fill="#363435" d="M259.706,91.992c0,0.6-0.487,1.086-1.086,1.086
		c-0.598,0-1.087-0.486-1.087-1.086V78.525c0-0.601,0.489-1.088,1.087-1.088c0.599,0,1.086,0.487,1.086,1.088V91.992z"/>
	<path fill-rule="evenodd" clip-rule="evenodd" fill="#363435" d="M250.735,98.813c-0.008,0.598-0.5,1.073-1.098,1.064
		c-0.597-0.01-1.075-0.502-1.066-1.1l0.463-25.062c0.012-0.597,0.502-1.075,1.101-1.066c0.597,0.01,1.075,0.501,1.065,1.1
		L250.735,98.813z"/>
	<path fill-rule="evenodd" clip-rule="evenodd" fill="#363435" d="M185.25,171.728c-0.6,0-1.09-0.486-1.09-1.085
		s0.484-1.09,1.084-1.09l2.174-0.003c0.599,0,1.087,0.484,1.09,1.083c0,0.602-0.486,1.091-1.086,1.091L185.25,171.728
		L185.25,171.728z M326.172,169.29c0.6-0.002,1.089,0.485,1.09,1.083c0,0.6-0.485,1.088-1.086,1.088l-1.81,0.006
		c-0.598,0-1.086-0.484-1.09-1.083c0-0.602,0.488-1.091,1.087-1.091L326.172,169.29L326.172,169.29z M317.843,169.306
		c0.6,0,1.086,0.484,1.086,1.084c0.003,0.603-0.482,1.088-1.08,1.09l-2.177,0.004c-0.599,0.002-1.087-0.484-1.09-1.085
		c-0.002-0.599,0.487-1.087,1.085-1.089L317.843,169.306L317.843,169.306z M309.146,169.322c0.602,0,1.088,0.485,1.09,1.086
		c0.003,0.599-0.484,1.088-1.085,1.088l-2.174,0.003c-0.602,0.003-1.089-0.484-1.09-1.084c-0.002-0.6,0.485-1.087,1.085-1.087
		L309.146,169.322L309.146,169.322z M300.452,169.341c0.6-0.002,1.087,0.483,1.091,1.084c0,0.599-0.488,1.088-1.087,1.088
		l-2.174,0.005c-0.601,0-1.088-0.485-1.088-1.086c-0.002-0.599,0.484-1.088,1.084-1.088L300.452,169.341L300.452,169.341z
		 M291.758,169.356c0.599-0.001,1.087,0.483,1.088,1.085c0,0.6-0.484,1.088-1.086,1.088l-2.171,0.006
		c-0.602,0-1.089-0.485-1.089-1.087c0-0.6,0.481-1.087,1.083-1.087L291.758,169.356L291.758,169.356z M283.062,169.373
		c0.6-0.003,1.089,0.484,1.089,1.084s-0.485,1.088-1.082,1.089l-2.176,0.005c-0.598,0-1.088-0.485-1.088-1.085
		c0-0.603,0.484-1.089,1.084-1.089L283.062,169.373L283.062,169.373z M274.365,169.388c0.601,0,1.091,0.487,1.091,1.085
		c0.001,0.601-0.485,1.089-1.085,1.089l-2.174,0.004c-0.599,0.002-1.087-0.484-1.09-1.085c0-0.599,0.486-1.087,1.087-1.087
		L274.365,169.388L274.365,169.388z M265.672,169.404c0.602,0,1.089,0.484,1.089,1.085c0.001,0.601-0.483,1.089-1.084,1.089
		l-2.175,0.006c-0.601,0-1.085-0.488-1.089-1.087c-0.001-0.599,0.487-1.088,1.086-1.088L265.672,169.404L265.672,169.404z
		 M256.978,169.421c0.6,0,1.087,0.484,1.09,1.086c0,0.6-0.486,1.087-1.086,1.087l-2.177,0.004c-0.598,0.003-1.084-0.484-1.085-1.085
		c0-0.601,0.484-1.087,1.082-1.087L256.978,169.421L256.978,169.421z M248.284,169.438c0.599,0,1.084,0.483,1.088,1.084
		c0.001,0.599-0.486,1.087-1.086,1.089l-2.174,0.004c-0.601,0.002-1.087-0.484-1.087-1.084c-0.002-0.601,0.482-1.088,1.082-1.09
		L248.284,169.438L248.284,169.438z M239.589,169.452c0.598-0.001,1.088,0.485,1.088,1.085c0,0.601-0.486,1.091-1.086,1.091
		l-2.172,0.002c-0.6,0-1.089-0.484-1.089-1.083c-0.001-0.602,0.484-1.089,1.084-1.091L239.589,169.452L239.589,169.452z
		 M230.893,169.469c0.599-0.001,1.09,0.484,1.09,1.085s-0.485,1.088-1.085,1.09l-2.173,0.003c-0.601,0-1.091-0.485-1.091-1.086
		c0-0.598,0.485-1.087,1.087-1.087L230.893,169.469L230.893,169.469z M222.197,169.485c0.602-0.002,1.09,0.482,1.09,1.086
		c0,0.598-0.484,1.086-1.086,1.088l-2.172,0.004c-0.599,0-1.087-0.484-1.091-1.083c0-0.604,0.487-1.091,1.087-1.091L222.197,169.485
		L222.197,169.485z M213.502,169.502c0.604-0.002,1.09,0.483,1.09,1.083c0,0.601-0.484,1.089-1.083,1.089l-2.176,0.005
		c-0.6,0.001-1.087-0.485-1.089-1.084c0-0.601,0.486-1.089,1.086-1.089L213.502,169.502L213.502,169.502z M204.809,169.517
		c0.6,0,1.086,0.484,1.089,1.086c0.001,0.599-0.485,1.087-1.084,1.087l-2.175,0.004c-0.6,0.002-1.086-0.482-1.09-1.083
		c-0.002-0.599,0.485-1.089,1.084-1.091L204.809,169.517L204.809,169.517z M196.113,169.532c0.601,0,1.086,0.485,1.089,1.087
		c0.001,0.6-0.485,1.087-1.085,1.087l-2.173,0.007c-0.599,0-1.089-0.487-1.089-1.087c0-0.6,0.482-1.087,1.083-1.089L196.113,169.532
		z"/>
	<path fill-rule="evenodd" clip-rule="evenodd" fill="#FFFFFF" d="M289.833,151.326c6.519,0,11.832-5.315,11.832-11.831
		c0-6.517-5.313-11.831-11.832-11.831c-6.516,0-11.831,5.314-11.831,11.831C278.002,146.011,283.317,151.326,289.833,151.326z"/>
	<path fill-rule="evenodd" clip-rule="evenodd" fill="#363435" d="M285.37,123.361c3.567,0,6.8,1.446,9.138,3.784
		c2.336,2.337,3.782,5.568,3.782,9.135s-1.444,6.797-3.782,9.137c-2.338,2.337-5.57,3.782-9.138,3.782
		c-3.566,0-6.796-1.445-9.134-3.782c-2.337-2.34-3.784-5.57-3.784-9.137s1.447-6.798,3.784-9.135
		C278.574,124.808,281.804,123.361,285.37,123.361L285.37,123.361z M292.969,128.684c-1.944-1.945-4.629-3.147-7.599-3.147
		c-2.966,0-5.651,1.202-7.598,3.147c-1.942,1.943-3.146,4.631-3.146,7.597c0,2.967,1.203,5.652,3.146,7.599
		c1.946,1.945,4.632,3.146,7.598,3.146c2.97,0,5.654-1.201,7.599-3.146c1.944-1.946,3.146-4.632,3.146-7.599
		C296.114,133.314,294.913,130.627,292.969,128.684z"/>
	<g>
		<path fill-rule="evenodd" clip-rule="evenodd" fill="#363435" d="M288.618,138.459c0.396,0.394,0.396,1.036,0,1.432
			c-0.394,0.395-1.035,0.395-1.432,0l-5.062-5.063c-0.395-0.395-0.395-1.034,0-1.43c0.395-0.396,1.036-0.396,1.432,0
			L288.618,138.459z"/>
		<path fill-rule="evenodd" clip-rule="evenodd" fill="#363435" d="M283.555,139.891c-0.394,0.395-1.035,0.395-1.431,0
			c-0.394-0.396-0.394-1.038,0-1.432l5.063-5.062c0.396-0.396,1.036-0.396,1.431,0c0.396,0.396,0.396,1.035,0,1.43L283.555,139.891z
			"/>
	</g>
	<g>
		<path fill-rule="evenodd" clip-rule="evenodd" fill="#363435" d="M295.976,33.84c0.395,0.395,0.395,1.036,0,1.432
			c-0.396,0.395-1.037,0.395-1.432,0l-5.062-5.063c-0.396-0.396-0.396-1.035,0-1.431c0.393-0.396,1.034-0.396,1.431,0L295.976,33.84
			z"/>
		<path fill-rule="evenodd" clip-rule="evenodd" fill="#363435" d="M290.91,35.272c-0.394,0.395-1.035,0.395-1.43,0
			c-0.395-0.396-0.395-1.038,0-1.432l5.063-5.061c0.394-0.396,1.034-0.396,1.429,0c0.397,0.396,0.397,1.035,0,1.431L290.91,35.272z"
			/>
	</g>
</g>
</svg>
