<?xml version="1.0" encoding="utf-8"?>
<!-- Generator: Adobe Illustrator 16.0.0, SVG Export Plug-In . SVG Version: 6.00 Build 0)  -->
<!DOCTYPE svg PUBLIC "-//W3C//DTD SVG 1.1//EN" "http://www.w3.org/Graphics/SVG/1.1/DTD/svg11.dtd">
<svg version="1.1" id="online" xmlns="http://www.w3.org/2000/svg" xmlns:xlink="http://www.w3.org/1999/xlink" x="0px" y="0px"
	 width="400px" height="180px" viewBox="0.035 0.425 400 180" enable-background="new 0.035 0.425 400 180" xml:space="preserve">
<g>
	<g>
		<path fill="#373435" d="M333.223,72.081c0.63,0.632,0.63,1.658,0,2.292c-0.632,0.632-1.657,0.632-2.292,0l-8.102-8.104
			c-0.632-0.632-0.632-1.656,0-2.289c0.63-0.634,1.656-0.634,2.29,0L333.223,72.081z"/>
		<path fill="#373435" d="M325.119,74.372c-0.633,0.632-1.659,0.632-2.293,0c-0.628-0.634-0.628-1.66,0-2.292l8.105-8.101
			c0.631-0.634,1.656-0.634,2.288,0c0.634,0.634,0.634,1.657,0,2.29L325.119,74.372z"/>
		<path fill="#373435" d="M301.682,97.278c-0.894,0.004-1.621-0.71-1.624-1.603c-0.009-0.887,0.706-1.617,1.599-1.623l37.456-0.396
			c0.893-0.006,1.62,0.711,1.627,1.6c0.008,0.894-0.708,1.621-1.599,1.626L301.682,97.278z"/>
		<path fill="#373435" d="M352.087,97.278c-0.89,0.031-1.641-0.664-1.671-1.559c-0.031-0.89,0.665-1.638,1.558-1.668l11.017-0.396
			c0.891-0.031,1.641,0.665,1.669,1.555c0.031,0.894-0.662,1.641-1.554,1.672L352.087,97.278z"/>
		<path fill="#373435" d="M323.083,119.423c-0.888,0.009-1.617-0.707-1.624-1.599c-0.007-0.889,0.71-1.62,1.6-1.626l37.458-0.395
			c0.89-0.008,1.618,0.712,1.628,1.6c0.008,0.893-0.71,1.617-1.601,1.626L323.083,119.423z"/>
		<path fill="#373435" d="M339.868,146.861c-0.89,0.005-1.624-0.715-1.629-1.606c-0.004-0.896,0.715-1.627,1.606-1.633l3.24-0.021
			c0.892-0.006,1.625,0.714,1.628,1.608c0.007,0.893-0.713,1.625-1.605,1.629L339.868,146.861L339.868,146.861z M394.894,143.25
			c0.896-0.005,1.625,0.716,1.632,1.607c0.009,0.893-0.715,1.625-1.607,1.63l-3.238,0.024c-0.896,0.004-1.625-0.714-1.632-1.609
			c-0.005-0.896,0.714-1.626,1.607-1.632L394.894,143.25L394.894,143.25z M381.941,143.336c0.896-0.003,1.626,0.717,1.634,1.612
			c0.004,0.891-0.715,1.621-1.608,1.628l-3.238,0.022c-0.894,0.007-1.624-0.717-1.63-1.608c-0.009-0.895,0.715-1.624,1.606-1.631
			L381.941,143.336L381.941,143.336z M368.99,143.425c0.894-0.006,1.624,0.714,1.63,1.609c0.008,0.895-0.714,1.624-1.606,1.628
			l-3.239,0.024c-0.894,0.006-1.624-0.717-1.63-1.611c-0.005-0.892,0.716-1.621,1.605-1.628L368.99,143.425L368.99,143.425z
			 M356.036,143.512c0.893-0.005,1.624,0.716,1.634,1.61c0.005,0.895-0.716,1.624-1.61,1.629l-3.235,0.022
			c-0.896,0.006-1.624-0.715-1.633-1.606c-0.006-0.896,0.717-1.628,1.609-1.632L356.036,143.512z"/>
	</g>
	<g>
		<g>
			<path fill="#373435" d="M89.177,55.276c0.595,0.595,0.595,1.561,0,2.158c-0.594,0.594-1.56,0.594-2.157,0l-7.626-7.628
				c-0.594-0.596-0.594-1.561,0-2.155c0.593-0.596,1.559-0.596,2.156,0L89.177,55.276z"/>
			<path fill="#373435" d="M81.549,57.435c-0.597,0.594-1.563,0.594-2.158,0c-0.592-0.597-0.592-1.563,0-2.158l7.628-7.626
				c0.596-0.597,1.562-0.597,2.155,0c0.597,0.595,0.597,1.56,0,2.155L81.549,57.435z"/>
		</g>
		<path fill="#373435" d="M6.165,106.678c-0.841,0.004-1.526-0.668-1.53-1.508c-0.008-0.836,0.666-1.523,1.505-1.529l35.261-0.372
			c0.84-0.006,1.526,0.671,1.533,1.505c0.005,0.841-0.669,1.526-1.507,1.533L6.165,106.678z"/>
		<path fill="#373435" d="M53.615,106.678c-0.839,0.028-1.543-0.626-1.575-1.468c-0.029-0.837,0.628-1.541,1.467-1.57l10.374-0.372
			c0.838-0.029,1.541,0.625,1.57,1.465c0.03,0.84-0.625,1.543-1.463,1.572L53.615,106.678z"/>
		<path fill="#373435" d="M57.655,81.785c-0.835,0.008-1.523-0.666-1.529-1.508c-0.005-0.835,0.667-1.522,1.505-1.528l35.263-0.372
			c0.838-0.006,1.521,0.67,1.53,1.506c0.006,0.84-0.668,1.522-1.506,1.532L57.655,81.785z"/>
		<path fill="#373435" d="M49.375,138.2c-0.84,0.005-1.529-0.672-1.533-1.512c-0.003-0.842,0.672-1.532,1.512-1.537l3.051-0.02
			c0.838-0.005,1.529,0.672,1.532,1.515c0.005,0.841-0.671,1.529-1.512,1.533L49.375,138.2L49.375,138.2z M101.175,134.801
			c0.845-0.005,1.531,0.674,1.536,1.515c0.008,0.84-0.672,1.528-1.512,1.533l-3.05,0.023c-0.842,0.004-1.529-0.673-1.534-1.516
			c-0.005-0.842,0.67-1.529,1.512-1.536L101.175,134.801L101.175,134.801z M88.983,134.883c0.841-0.005,1.529,0.674,1.535,1.517
			c0.002,0.84-0.674,1.527-1.515,1.533l-3.048,0.021c-0.842,0.006-1.529-0.675-1.536-1.516c-0.004-0.84,0.676-1.528,1.514-1.535
			L88.983,134.883L88.983,134.883z M76.79,134.966c0.838-0.006,1.529,0.673,1.532,1.515c0.008,0.843-0.67,1.529-1.511,1.533
			l-3.049,0.023c-0.841,0.003-1.529-0.676-1.535-1.517s0.673-1.526,1.513-1.534L76.79,134.966L76.79,134.966z M64.595,135.049
			c0.842-0.008,1.53,0.671,1.536,1.514c0.006,0.844-0.672,1.529-1.514,1.532l-3.045,0.021c-0.845,0.007-1.53-0.672-1.538-1.512
			c-0.004-0.842,0.673-1.53,1.515-1.535L64.595,135.049z"/>
	</g>
	<path fill="#FFFFFF" stroke="#373435" stroke-width="3" stroke-miterlimit="10" d="M285.333,89.176
		c0,46.583-37.765,84.345-84.349,84.345c-46.58,0-84.345-37.762-84.345-84.345c0-46.586,37.765-84.347,84.345-84.347
		C247.568,4.83,285.333,42.59,285.333,89.176z"/>
	<path fill="#F1F2F2" d="M274.963,99.415c0,40.856-33.123,73.976-73.979,73.976c-40.853,0-73.976-33.117-73.976-73.976
		c0-40.859,33.124-73.978,73.976-73.978C241.84,25.437,274.963,58.556,274.963,99.415z"/>
	<path fill="#FBD536" stroke="#373435" stroke-width="3" stroke-miterlimit="10" d="M237.178,113.814
		c-23.608-7.043-48.775-7.043-72.383,0c-6.846,2.097-12.242,10.066-12.255,16.923c0,8.723,0,21.525,0,26.778
		c9.097,6.723,13.856,7.536,22.265,11.164v-26.956v26.956c8.442,3.645,17.74,4.771,27.508,4.765c8.645,0,17.023-1.633,24.868-4.638
		v-27.083v27.081c8.15-3.126,15.668-4.471,22.252-10.55c0-5.84,0-17.397,0-27.518C249.425,123.861,244.038,115.911,237.178,113.814z
		"/>
	<path fill="#FBD536" stroke="#373435" stroke-width="3" stroke-miterlimit="10" d="M200.98,50.42
		c-15.771,0-28.557,12.785-28.557,28.566c0,15.775,12.785,28.558,28.557,28.558c15.775,0,28.569-12.783,28.569-28.558
		C229.549,63.204,216.755,50.42,200.98,50.42z"/>
	<g>
		<circle fill="#F9FBFF" stroke="#373435" stroke-width="3" stroke-miterlimit="10" cx="272.524" cy="39.886" r="32.232"/>
		<path fill="#373435" d="M294.549,24.208c-0.304-0.697-0.928-1.147-1.599-1.147c-0.74,0-1.56,0.493-2.369,1.425l-25.559,27.529
			l-11.201-11.2c-0.583-0.577-1.182-0.882-1.729-0.882c-0.674,0-1.304,0.466-1.605,1.188c-0.2,0.477-0.39,1.427,0.583,2.424
			l13.445,12.517c0.44,0.441,0.852,0.65,1.267,0.65c0.578,0,1.151-0.375,1.534-0.69l26.77-29.547
			C294.948,25.551,294.747,24.659,294.549,24.208z"/>
	</g>
</g>
</svg>
