<?xml version="1.0" encoding="utf-8"?>
<!-- Generator: Adobe Illustrator 16.0.0, SVG Export Plug-In . SVG Version: 6.00 Build 0)  -->
<!DOCTYPE svg PUBLIC "-//W3C//DTD SVG 1.1//EN" "http://www.w3.org/Graphics/SVG/1.1/DTD/svg11.dtd">
<svg version="1.1" id="图层_1" xmlns="http://www.w3.org/2000/svg" xmlns:xlink="http://www.w3.org/1999/xlink" x="0px" y="0px"
	 width="50px" height="50px" viewBox="0 0 50 50" enable-background="new 0 0 50 50" xml:space="preserve">
<path  d="M46.429,10.489H35.688h-0.092c-1.276,0-2.809-0.969-3.294-1.548c-0.544-0.651-1.173-1.404-1.708-2.042
	c-0.412-0.493-1.386-1.431-2.986-1.431H22.38c-1.568,0-2.407,0.71-3.121,1.561c-0.516,0.617-1.108,1.322-1.62,1.935
	c-0.465,0.555-2.023,1.525-3.249,1.525h-0.09H3.571c-1.393,0-2.521-1.129-2.521-2.522c0-1.392,1.127-2.521,2.521-2.521h8.961
	c0,0,2.349-0.381,3.35-1.559c0.563-0.665,1.2-1.447,1.737-2.094c0.248-0.3,1.822-1.358,2.925-1.358h8.888
	c1.259,0,2.774,1.11,3.038,1.431c0.528,0.633,1.186,1.35,1.685,2.029c0.832,1.132,3.316,1.549,3.316,1.549h8.961
	c1.392,0,2.519,1.129,2.519,2.522C48.95,9.358,47.823,10.489,46.429,10.489"/>
<path  d="M31.302,39.479c-1.392,0-2.521-1.129-2.521-2.52V18.051c0-1.393,1.13-2.52,2.521-2.52
	c1.394,0,2.521,1.127,2.521,2.52v18.908C33.824,38.35,32.695,39.479,31.302,39.479"/>
<path  d="M21.219,18.051v18.908c0,1.391-1.128,2.521-2.521,2.521c-1.393,0-2.521-1.131-2.521-2.521V18.051
	c0-1.393,1.128-2.52,2.521-2.52C20.09,15.531,21.219,16.658,21.219,18.051"/>
<path  d="M7.352,14.269c1.393,0,2.522,1.129,2.522,2.521v5.042V42c0,1.393,1.128,2.523,2.521,2.523h25.211
	c1.391,0,2.52-1.131,2.52-2.523V21.833v-5.042c0-1.392,1.129-2.521,2.522-2.521c1.392,0,2.519,1.128,2.519,2.521v5.042V43.26
	c0,3.482-2.82,6.305-6.302,6.305H11.134c-3.48,0-6.303-2.822-6.303-6.305V21.833v-5.042C4.832,15.398,5.961,14.269,7.352,14.269"/>
</svg>
