<?xml version="1.0" encoding="utf-8"?>
<!-- Generator: Adobe Illustrator 16.0.0, SVG Export Plug-In . SVG Version: 6.00 Build 0)  -->
<!DOCTYPE svg PUBLIC "-//W3C//DTD SVG 1.1//EN" "http://www.w3.org/Graphics/SVG/1.1/DTD/svg11.dtd">
<svg version="1.1" id="图层_1" xmlns="http://www.w3.org/2000/svg" xmlns:xlink="http://www.w3.org/1999/xlink" x="0px" y="0px"
	 width="50px" height="50px" viewBox="0 0 50 50" enable-background="new 0 0 50 50" xml:space="preserve">
<circle fill="#D1D1D1" cx="25" cy="25.167" r="21.23"/>
<path fill="#F1F1F1" d="M25,42.568c-6.042,0-11.382-3.095-14.5-7.734C10.572,30,20.167,27.343,25,27.343
	c4.833,0,14.43,2.657,14.5,7.491C36.384,39.474,31.042,42.568,25,42.568 M25,8.25c4.003,0,7.25,3.247,7.25,7.25
	c0,4.004-3.248,7.25-7.25,7.25c-4.004,0-7.25-3.247-7.25-7.25S20.996,8.25,25,8.25 M25,1C11.652,1,0.833,11.819,0.833,25.167
	c0,13.348,10.819,24.167,24.167,24.167c13.35,0,24.167-10.818,24.167-24.167C49.167,11.802,38.292,1,25,1z"/>
</svg>
