<?xml version="1.0" encoding="utf-8"?>
<!-- Generator: Adobe Illustrator 16.0.0, SVG Export Plug-In . SVG Version: 6.00 Build 0)  -->
<!DOCTYPE svg PUBLIC "-//W3C//DTD SVG 1.1//EN" "http://www.w3.org/Graphics/SVG/1.1/DTD/svg11.dtd">
<svg version="1.1" id="图层_1" xmlns="http://www.w3.org/2000/svg" xmlns:xlink="http://www.w3.org/1999/xlink" x="0px" y="0px"
	 width="50px" height="50px" viewBox="0 0 50 50" enable-background="new 0 0 50 50" xml:space="preserve">
<circle fill="#999999" cx="25" cy="24.999" r="16.932"/>
<path fill="#F6F6F6" d="M25,42.52c-6.084,0-11.462-3.113-14.601-7.787c0.073-4.865,9.734-7.541,14.601-7.541
	s14.529,2.676,14.601,7.541C36.462,39.406,31.083,42.52,25,42.52 M25,7.966c4.03,0,7.3,3.269,7.3,7.3c0,4.032-3.27,7.299-7.3,7.299
	c-4.032,0-7.301-3.268-7.301-7.299C17.699,11.235,20.968,7.966,25,7.966 M25,0.666C11.56,0.666,0.666,11.56,0.666,25
	C0.666,38.439,11.56,49.334,25,49.334S49.334,38.439,49.334,25C49.334,11.542,38.384,0.666,25,0.666z"/>
</svg>
