<?xml version="1.0" encoding="utf-8"?>
<!-- Generator: Adobe Illustrator 16.0.0, SVG Export Plug-In . SVG Version: 6.00 Build 0)  -->
<!DOCTYPE svg PUBLIC "-//W3C//DTD SVG 1.1//EN" "http://www.w3.org/Graphics/SVG/1.1/DTD/svg11.dtd">
<svg version="1.1" id="图层_1" xmlns="http://www.w3.org/2000/svg" xmlns:xlink="http://www.w3.org/1999/xlink" x="0px" y="0px"
	 width="50px" height="50px" viewBox="0 0 50 50" enable-background="new 0 0 50 50" xml:space="preserve">
<path fill="#F6F6F6" d="M25,42.749c-6.128,0-11.547-3.139-14.708-7.845c0.073-4.903,9.806-7.6,14.708-7.6
	c4.902,0,14.637,2.696,14.709,7.6C36.547,39.61,31.129,42.749,25,42.749 M25,7.938c4.061,0,7.354,3.294,7.354,7.354
	c0,4.062-3.295,7.355-7.354,7.355c-4.062,0-7.355-3.293-7.355-7.355C17.645,11.232,20.938,7.938,25,7.938 M25,0.584
	c-13.541,0-24.515,10.975-24.515,24.514C0.485,38.64,11.459,49.614,25,49.614c13.541,0,24.516-10.975,24.516-24.516
	C49.516,11.542,38.482,0.584,25,0.584z"/>
</svg>
