<?xml version="1.0" encoding="utf-8"?>
<!-- Generator: Adobe Illustrator 16.0.0, SVG Export Plug-In . SVG Version: 6.00 Build 0)  -->
<!DOCTYPE svg PUBLIC "-//W3C//DTD SVG 1.1//EN" "http://www.w3.org/Graphics/SVG/1.1/DTD/svg11.dtd">
<svg version="1.1" id="图层_1" xmlns="http://www.w3.org/2000/svg" xmlns:xlink="http://www.w3.org/1999/xlink" x="0px" y="0px"
	 width="50px" height="31.25px" viewBox="0 0 50 31.25" enable-background="new 0 0 50 31.25" xml:space="preserve">
<g>
	<path fill="#FAFAFB" d="M50.037,29.582c0,0.923-0.746,1.666-1.666,1.666H1.704c-0.92,0-1.667-0.743-1.667-1.666V1.667
		C0.037,0.745,0.784,0,1.704,0h46.667c0.92,0,1.666,0.745,1.666,1.667V29.582z"/>
	<g>
		<g>
			<polygon fill="#0861A7" points="23.045,20.318 20.604,20.318 22.13,10.937 24.575,10.937 			"/>
			<path fill="#0861A7" d="M18.549,10.937l-2.328,6.452l-0.277-1.39v0.002l-0.821-4.219c0,0-0.1-0.845-1.16-0.845h-3.849
				l-0.044,0.158c0,0,1.177,0.245,2.554,1.072l2.122,8.152h2.545l3.886-9.382H18.549z"/>
			<path fill="#0861A7" d="M37.762,20.318h2.244l-1.957-9.382h-1.965c-0.906,0-1.128,0.701-1.128,0.701l-3.639,8.681h2.544
				l0.508-1.394h3.107L37.762,20.318z M35.075,16.999l1.281-3.509l0.724,3.509H35.075z"/>
			<path fill="#0861A7" d="M31.505,13.193l0.349-2.016c0,0-1.074-0.407-2.195-0.407c-1.213,0-4.091,0.529-4.091,3.103
				c0,2.426,3.378,2.457,3.378,3.729c0,1.271-3.029,1.045-4.03,0.24l-0.364,2.107c0,0,1.091,0.531,2.758,0.531
				c1.666,0,4.181-0.863,4.181-3.213c0-2.438-3.409-2.666-3.409-3.727C28.081,12.481,30.46,12.617,31.505,13.193z"/>
		</g>
		<path fill="#F0A138" d="M15.945,16.001l-0.821-4.219c0,0-0.1-0.845-1.16-0.845h-3.849l-0.044,0.158c0,0,1.85,0.384,3.625,1.822
			C15.393,14.29,15.945,16.001,15.945,16.001z"/>
	</g>
</g>
</svg>
