<?xml version="1.0" encoding="utf-8"?>
<!-- Generator: Adobe Illustrator 16.0.0, SVG Export Plug-In . SVG Version: 6.00 Build 0)  -->
<!DOCTYPE svg PUBLIC "-//W3C//DTD SVG 1.1//EN" "http://www.w3.org/Graphics/SVG/1.1/DTD/svg11.dtd">
<svg version="1.1" id="图层_1" xmlns="http://www.w3.org/2000/svg" xmlns:xlink="http://www.w3.org/1999/xlink" x="0px" y="0px"
	 width="50px" height="31.25px" viewBox="0 0 50 31.25" enable-background="new 0 0 50 31.25" xml:space="preserve">
<g id="Page-1">
	<g id="Visa">
		<rect id="Rectangle-20" x="0.071" y="2.852" fill="#F6F6F6" width="50" height="25"/>
		<path id="Rectangle-1" fill="#265697" d="M46.32,0.039c-2.499,0-28.968,0-43.749,0c-1.25,0-2.5,1.25-2.5,2.5v3.75h50
			c0,0,0,5.803,0-2.5C50.071,1.29,48.819,0.039,46.32,0.039z"/>
		<path id="Rectangle-1_1_" fill="#D97B16" d="M0.071,25.039c0,0,0,0,0,2.5s1.25,3.75,3.75,3.75c13.945,0,40,0,42.5,0
			s3.751-1.25,3.751-3.75v-2.5H0.071z"/>
		<path id="Shape" fill="#265697" d="M34.95,9.346c-0.701-0.268-1.799-0.557-3.171-0.557c-3.494,0-5.956,1.799-5.977,4.376
			c-0.021,1.905,1.758,2.968,3.099,3.604c1.377,0.648,1.84,1.063,1.833,1.645c-0.009,0.888-1.1,1.295-2.115,1.295
			c-1.416,0-2.169-0.202-3.33-0.697l-0.456-0.21l-0.496,2.968c0.826,0.369,2.354,0.69,3.94,0.707c3.718,0,6.131-1.777,6.159-4.53
			c0.013-1.507-0.93-2.656-2.97-3.602c-1.237-0.614-1.993-1.022-1.985-1.644c0-0.551,0.641-1.14,2.025-1.14
			c1.156-0.019,1.994,0.239,2.648,0.508l0.315,0.153L34.95,9.346"/>
		<path id="Shape_1_" fill="#265697" d="M44.02,9.033h-2.732c-0.846,0-1.48,0.236-1.852,1.099l-5.254,12.152h3.714
			c0,0,0.607-1.634,0.745-1.992c0.406,0,4.014,0.005,4.529,0.005c0.106,0.465,0.431,1.987,0.431,1.987h3.282L44.02,9.033
			L44.02,9.033z M39.66,17.578c0.291-0.764,1.407-3.707,1.407-3.707c-0.021,0.036,0.291-0.767,0.47-1.265l0.239,1.143
			c0,0,0.678,3.167,0.818,3.829H39.66L39.66,17.578L39.66,17.578L39.66,17.578z"/>
		<path id="Shape_2_" fill="#265697" d="M18.586,22.278l2.211-13.259h3.538l-2.213,13.259H18.586z"/>
		<path id="Shape_3_" fill="#265697" d="M15.62,9.029l-3.463,9.041l-0.37-1.836c-0.644-2.119-2.653-4.414-4.898-5.563l3.166,11.597
			l3.743-0.005l5.568-13.234H15.62"/>
		<path id="Shape_4_" fill="#D97B16" d="M8.944,9.021H3.241L3.196,9.297c4.438,1.098,7.374,3.749,8.592,6.937l-1.24-6.094
			C10.334,9.301,9.712,9.051,8.944,9.021"/>
	</g>
</g>
</svg>
