<?xml version="1.0" encoding="utf-8"?>
<!-- Generator: Adobe Illustrator 16.0.0, SVG Export Plug-In . SVG Version: 6.00 Build 0)  -->
<!DOCTYPE svg PUBLIC "-//W3C//DTD SVG 1.1//EN" "http://www.w3.org/Graphics/SVG/1.1/DTD/svg11.dtd">
<svg version="1.1" id="图层_1" xmlns="http://www.w3.org/2000/svg" xmlns:xlink="http://www.w3.org/1999/xlink" x="0px" y="0px"
	 width="50px" height="31.25px" viewBox="0 0 50 31.25" enable-background="new 0 0 50 31.25" xml:space="preserve">
<g>
	<path fill="#FAFAFB" d="M50,29.583c0,0.92-0.745,1.667-1.667,1.667H1.667C0.746,31.25,0,30.503,0,29.583V1.666
		C0,0.745,0.746,0,1.667,0h46.666C49.255,0,50,0.745,50,1.666V29.583z"/>
	<path fill-rule="evenodd" clip-rule="evenodd" fill="#F1A531" d="M16.839,17.599c3.783-1.621,9.092-3.091,16.122-1.619l0.074-1.783
		c-7.417-0.81-12.741,1.552-16.196,3.227V17.599L16.839,17.599z"/>
	<g>
		<g>
			<polygon fill-rule="evenodd" clip-rule="evenodd" fill="#0A5A97" points="10.009,18.909 13.574,18.909 13.574,19.984 
				11.359,19.984 11.344,20.976 13.552,20.976 13.552,22.005 11.337,22.005 11.345,22.997 13.53,22.997 13.53,24.071 10.01,24.071 
				10.009,18.909 			"/>
			<polygon fill-rule="evenodd" clip-rule="evenodd" fill="#0A5A97" points="14.47,18.477 15.767,18.477 15.772,24.071 
				14.474,24.071 14.47,18.477 			"/>
			<path fill-rule="evenodd" clip-rule="evenodd" fill="#0A5A97" d="M20.231,23.646c-0.439,0.372-1.111,0.56-1.708,0.56
				c-1.364,0-1.984-0.97-1.984-1.932c0-1.135,0.85-2.098,2.021-2.098c1.433,0,1.88,1.015,1.88,2.306h-2.603
				c0,0.291,0.186,0.782,0.902,0.782c0.455,0,0.708-0.134,1.059-0.372L20.231,23.646L20.231,23.646z M19.277,21.722
				c0-0.389-0.187-0.738-0.619-0.738c-0.411,0-0.723,0.366-0.805,0.738H19.277L19.277,21.722z"/>
			<path fill-rule="evenodd" clip-rule="evenodd" fill="#0A5A97" d="M24.379,23.817c-0.358,0.225-0.947,0.389-1.379,0.389
				c-1.193,0-2.051-0.687-2.051-1.925c0-1.269,0.85-2.104,2.133-2.104c0.447,0,0.985,0.143,1.275,0.33l-0.417,0.85
				c-0.194-0.083-0.404-0.149-0.612-0.149c-0.649,0-1.081,0.388-1.081,1.008c0,0.536,0.417,0.96,0.97,0.96
				c0.246,0,0.492-0.11,0.701-0.215L24.379,23.817L24.379,23.817z"/>
			<path fill-rule="evenodd" clip-rule="evenodd" fill="#0A5A97" d="M24.859,20.313h0.586l-0.005-1.276h1.254l-0.03,1.276h1.066
				l-0.022,0.939h-1.065c0,0.522-0.038,1.073-0.038,1.395c0,0.328,0.082,0.484,0.373,0.484c0.179,0,0.328-0.088,0.478-0.179
				l0.282,0.881c-0.379,0.23-0.843,0.373-1.282,0.373c-1.051,0-1.104-0.664-1.104-1.529c0-0.462,0.037-0.926,0.037-1.425H24.83
				L24.859,20.313L24.859,20.313z"/>
			<path fill-rule="evenodd" clip-rule="evenodd" fill="#0A5A97" d="M28.396,20.313h1.297v0.529h0.015
				c0.195-0.32,0.447-0.635,0.956-0.635c0.142,0,0.29,0.016,0.425,0.045l-0.172,1.283c-0.127-0.037-0.269-0.075-0.462-0.075
				c-0.433,0-0.77,0.366-0.77,0.44l-0.021,2.171h-1.298L28.396,20.313L28.396,20.313z"/>
			<path fill-rule="evenodd" clip-rule="evenodd" fill="#0A5A97" d="M33.439,20.177c1.387,0,2.103,0.88,2.103,2.015
				c0,1.134-0.716,2.015-2.103,2.015c-1.388,0-2.104-0.881-2.104-2.015C31.335,21.057,32.052,20.177,33.439,20.177L33.439,20.177z
				 M33.439,23.221c0.618,0,0.805-0.537,0.805-1.029s-0.187-1.03-0.805-1.03c-0.62,0-0.807,0.538-0.807,1.03
				S32.819,23.221,33.439,23.221L33.439,23.221z"/>
			<path fill-rule="evenodd" clip-rule="evenodd" fill="#0A5A97" d="M36.248,20.313h1.297v0.41c0.299-0.291,0.754-0.546,1.216-0.546
				c0.798,0,1.231,0.44,1.231,1.471c0,0.769-0.008,1.596-0.015,2.424h-1.299c0.008-0.724,0.016-1.454,0.016-2.23
				c0-0.306-0.083-0.545-0.47-0.545c-0.21,0-0.508,0.18-0.68,0.344l-0.007,2.432h-1.321L36.248,20.313L36.248,20.313z"/>
		</g>
	</g>
	<g>
		<g>
			<polygon fill-rule="evenodd" clip-rule="evenodd" fill="#0A5A97" points="20.685,12.568 22.325,7.162 23.788,7.162 
				22.147,12.568 20.685,12.568 			"/>
			<path fill-rule="evenodd" clip-rule="evenodd" fill="#0A5A97" d="M20.031,7.163l-1.316,2.292
				c-0.335,0.601-0.531,0.904-0.625,1.283h-0.02c0.022-0.48-0.044-1.071-0.05-1.404l-0.146-2.171h-2.462L15.386,7.31
				c0.632,0,1.008,0.317,1.111,0.968l0.48,4.291h1.516l3.065-5.405H20.031L20.031,7.163z"/>
			<path fill-rule="evenodd" clip-rule="evenodd" fill="#0A5A97" d="M31.408,12.568l-0.041-0.804l-1.826-0.001l-0.373,0.805h-1.589
				l2.88-5.396h1.949l0.488,5.396H31.408L31.408,12.568z M31.24,9.38c-0.017-0.4-0.029-0.942-0.003-1.271h-0.021
				c-0.089,0.269-0.471,1.075-0.64,1.471l-0.543,1.185h1.282L31.24,9.38L31.24,9.38z"/>
			<path fill-rule="evenodd" clip-rule="evenodd" fill="#0A5A97" d="M25.323,12.723c-1.032,0-1.718-0.328-2.208-0.62l0.697-1.064
				c0.439,0.246,0.785,0.529,1.578,0.529c0.255,0,0.5-0.065,0.64-0.308c0.204-0.353-0.046-0.54-0.617-0.865l-0.282-0.184
				c-0.848-0.578-1.214-1.128-0.816-2.088c0.256-0.614,0.929-1.08,2.039-1.08c0.766,0,1.483,0.332,1.902,0.655l-0.802,0.94
				c-0.408-0.331-0.746-0.498-1.135-0.498c-0.308,0-0.542,0.12-0.623,0.279c-0.152,0.303,0.049,0.509,0.494,0.785l0.336,0.214
				c1.028,0.648,1.274,1.328,1.016,1.965C27.101,12.478,26.231,12.723,25.323,12.723L25.323,12.723z"/>
		</g>
	</g>
</g>
</svg>
