<?xml version="1.0" encoding="utf-8"?>
<!-- Generator: Adobe Illustrator 16.0.0, SVG Export Plug-In . SVG Version: 6.00 Build 0)  -->
<!DOCTYPE svg PUBLIC "-//W3C//DTD SVG 1.1//EN" "http://www.w3.org/Graphics/SVG/1.1/DTD/svg11.dtd">
<svg version="1.1" id="图层_1" xmlns="http://www.w3.org/2000/svg" xmlns:xlink="http://www.w3.org/1999/xlink" x="0px" y="0px"
	 width="50px" height="31.25px" viewBox="0 0 50 31.25" enable-background="new 0 0 50 31.25" xml:space="preserve">
<g>
	<path fill="#FAFAFB" d="M50.086,29.633c0,0.925-0.747,1.67-1.67,1.67H1.67c-0.922,0-1.67-0.745-1.67-1.67V1.67
		C0,0.748,0.748,0,1.67,0h46.746c0.923,0,1.67,0.748,1.67,1.67V29.633z"/>
</g>
<path fill-rule="evenodd" clip-rule="evenodd" fill="#F1A531" d="M16.869,17.63c3.79-1.625,9.107-3.097,16.149-1.623l0.074-1.787
	c-7.431-0.811-12.762,1.556-16.223,3.232V17.63L16.869,17.63z"/>
<g>
	<g>
		<polygon fill-rule="evenodd" clip-rule="evenodd" fill="#0A5A97" points="20.72,12.591 22.363,7.176 23.829,7.176 22.186,12.591 
			20.72,12.591 		"/>
		<path fill-rule="evenodd" clip-rule="evenodd" fill="#0A5A97" d="M20.066,7.177l-1.319,2.295
			c-0.336,0.602-0.532,0.906-0.626,1.286h-0.02c0.022-0.481-0.045-1.073-0.051-1.408l-0.146-2.173h-2.467l-0.025,0.146
			c0.633,0,1.009,0.318,1.113,0.969l0.481,4.299h1.519l3.07-5.414H20.066L20.066,7.177z"/>
		<path fill-rule="evenodd" clip-rule="evenodd" fill="#0A5A97" d="M31.462,12.591l-0.04-0.805l-1.83-0.001l-0.375,0.807h-1.591
			l2.885-5.406h1.953l0.488,5.406H31.462L31.462,12.591z M31.293,9.396c-0.017-0.401-0.029-0.943-0.001-1.273H31.27
			c-0.09,0.269-0.472,1.077-0.641,1.474l-0.545,1.187h1.285L31.293,9.396L31.293,9.396z"/>
		<path fill-rule="evenodd" clip-rule="evenodd" fill="#0A5A97" d="M25.367,12.745c-1.035,0-1.722-0.328-2.21-0.621l0.698-1.066
			c0.439,0.247,0.786,0.53,1.58,0.53c0.256,0,0.501-0.066,0.642-0.309c0.204-0.353-0.047-0.542-0.619-0.867l-0.282-0.184
			c-0.85-0.58-1.216-1.13-0.818-2.092c0.257-0.615,0.931-1.081,2.043-1.081c0.768,0,1.487,0.332,1.905,0.656l-0.803,0.941
			c-0.407-0.331-0.747-0.499-1.137-0.499c-0.308,0-0.543,0.12-0.624,0.28c-0.153,0.303,0.05,0.509,0.496,0.786l0.335,0.214
			c1.031,0.649,1.276,1.331,1.018,1.968C27.146,12.5,26.276,12.745,25.367,12.745L25.367,12.745z"/>
	</g>
</g>
<text transform="matrix(1.0537 0 -0.1736 0.9848 16.1465 23.8125)" fill="#0A5A97" font-family="'SimHei'" font-size="7.108">DEBIT</text>
</svg>
