<?xml version="1.0" encoding="utf-8"?>
<!-- Generator: Adobe Illustrator 16.0.0, SVG Export Plug-In . SVG Version: 6.00 Build 0)  -->
<!DOCTYPE svg PUBLIC "-//W3C//DTD SVG 1.1//EN" "http://www.w3.org/Graphics/SVG/1.1/DTD/svg11.dtd">
<svg version="1.1" id="图层_1" xmlns="http://www.w3.org/2000/svg" xmlns:xlink="http://www.w3.org/1999/xlink" x="0px" y="0px"
	 width="440.5px" height="198.5px" viewBox="0 0 440.5 198.5" enable-background="new 0 0 440.5 198.5" xml:space="preserve">
<g>
	<g>
		<path fill="#363435" d="M350.737,77.433c0.697,0.699,0.697,1.834,0,2.536c-0.699,0.698-1.833,0.698-2.536,0l-8.961-8.967
			c-0.702-0.698-0.702-1.831,0-2.532c0.696-0.703,1.831-0.703,2.531,0L350.737,77.433z"/>
		<path fill="#363435" d="M341.77,79.969c-0.698,0.698-1.833,0.698-2.534,0c-0.697-0.701-0.697-1.837,0-2.536l8.966-8.963
			c0.697-0.702,1.834-0.702,2.533,0c0.7,0.701,0.7,1.835,0,2.533L341.77,79.969z"/>
		<path fill="#363435" d="M331.516,102.546c-0.988,0.004-1.793-0.785-1.796-1.773c-0.012-0.982,0.781-1.788,1.769-1.797
			l41.439-0.438c0.989-0.008,1.793,0.788,1.803,1.771c0.006,0.986-0.787,1.794-1.771,1.802L331.516,102.546z"/>
		<path fill="#363435" d="M387.283,102.546c-0.986,0.034-1.813-0.735-1.849-1.724c-0.034-0.984,0.734-1.812,1.723-1.847
			l12.192-0.438c0.982-0.034,1.812,0.737,1.846,1.721c0.033,0.989-0.738,1.816-1.723,1.852L387.283,102.546z"/>
		<path fill="#363435" d="M355.196,127.049c-0.983,0.01-1.792-0.784-1.796-1.774c-0.009-0.982,0.782-1.79,1.769-1.796l41.441-0.435
			c0.987-0.01,1.789,0.784,1.801,1.767c0.007,0.988-0.786,1.79-1.771,1.799L355.196,127.049z"/>
		<path fill="#363435" d="M376.529,150.947c-0.987,0.007-1.796-0.79-1.799-1.777c-0.009-0.991,0.785-1.802,1.775-1.805l3.584-0.025
			c0.987-0.006,1.799,0.791,1.803,1.781c0.006,0.988-0.791,1.796-1.779,1.801L376.529,150.947L376.529,150.947z M437.411,146.952
			c0.991-0.004,1.796,0.793,1.804,1.783c0.009,0.986-0.791,1.794-1.781,1.799l-3.58,0.027c-0.991,0.007-1.795-0.788-1.804-1.78
			c-0.005-0.988,0.789-1.8,1.778-1.802L437.411,146.952L437.411,146.952z M423.08,147.05c0.989-0.006,1.798,0.791,1.805,1.781
			c0.005,0.989-0.789,1.794-1.779,1.804l-3.582,0.022c-0.99,0.011-1.796-0.792-1.806-1.776c-0.007-0.992,0.793-1.8,1.78-1.808
			L423.08,147.05L423.08,147.05z M408.75,147.149c0.989-0.007,1.797,0.789,1.802,1.779c0.009,0.987-0.789,1.797-1.777,1.801
			l-3.585,0.027c-0.986,0.007-1.796-0.793-1.801-1.78c-0.008-0.991,0.79-1.798,1.776-1.805L408.75,147.149L408.75,147.149z
			 M394.419,147.245c0.989-0.007,1.794,0.79,1.804,1.779c0.007,0.991-0.792,1.797-1.781,1.802l-3.578,0.024
			c-0.993,0.008-1.798-0.789-1.808-1.779c-0.006-0.99,0.793-1.799,1.781-1.803L394.419,147.245z"/>
	</g>
	<g>
		<g>
			<path fill="#363435" d="M96.129,72.915c0.655,0.655,0.655,1.719,0,2.377c-0.654,0.654-1.719,0.654-2.375,0l-8.4-8.405
				c-0.654-0.654-0.654-1.716,0-2.373c0.654-0.655,1.717-0.655,2.375,0L96.129,72.915z"/>
			<path fill="#363435" d="M87.729,75.292c-0.658,0.654-1.72,0.654-2.378,0c-0.651-0.658-0.651-1.722,0-2.377l8.404-8.4
				c0.654-0.655,1.72-0.655,2.374,0c0.656,0.657,0.656,1.719,0,2.373L87.729,75.292z"/>
		</g>
		<path fill="#363435" d="M4.69,124.027c-0.925,0.006-1.68-0.733-1.684-1.658c-0.009-0.924,0.733-1.68,1.658-1.688l38.842-0.41
			c0.926-0.008,1.68,0.737,1.688,1.659c0.005,0.925-0.738,1.682-1.661,1.688L4.69,124.027z"/>
		<path fill="#363435" d="M56.958,124.027c-0.922,0.034-1.699-0.688-1.733-1.613c-0.032-0.925,0.691-1.698,1.615-1.732l11.425-0.41
			c0.924-0.03,1.697,0.691,1.729,1.614c0.033,0.927-0.688,1.698-1.611,1.733L56.958,124.027z"/>
		<path fill="#363435" d="M61.409,102.115c-0.919,0.008-1.678-0.733-1.684-1.661c-0.007-0.919,0.736-1.675,1.659-1.685l38.843-0.408
			c0.923-0.006,1.676,0.739,1.687,1.66c0.007,0.924-0.737,1.678-1.659,1.688L61.409,102.115z"/>
		<path fill="#363435" d="M52.287,151.405c-0.925,0.006-1.684-0.739-1.687-1.664c-0.004-0.93,0.74-1.688,1.666-1.691l3.36-0.022
			c0.925-0.007,1.685,0.74,1.688,1.666c0.006,0.927-0.74,1.686-1.666,1.689L52.287,151.405L52.287,151.405z M109.345,147.663
			c0.93-0.007,1.686,0.741,1.691,1.668c0.008,0.926-0.74,1.682-1.667,1.687l-3.356,0.025c-0.929,0.006-1.684-0.741-1.688-1.671
			c-0.007-0.925,0.738-1.685,1.665-1.688L109.345,147.663L109.345,147.663z M95.917,147.752c0.925-0.005,1.683,0.743,1.691,1.668
			c0.002,0.928-0.743,1.686-1.67,1.691l-3.357,0.022c-0.927,0.01-1.685-0.741-1.69-1.668c-0.007-0.928,0.744-1.684,1.666-1.691
			L95.917,147.752L95.917,147.752z M82.485,147.843c0.924-0.004,1.685,0.745,1.687,1.671c0.009,0.927-0.738,1.686-1.664,1.688
			l-3.359,0.028c-0.925,0-1.684-0.748-1.688-1.675c-0.006-0.923,0.741-1.681,1.665-1.688L82.485,147.843L82.485,147.843z
			 M69.053,147.934c0.928-0.004,1.685,0.741,1.69,1.669c0.006,0.929-0.74,1.683-1.666,1.688l-3.356,0.023
			c-0.929,0.007-1.684-0.738-1.694-1.666c-0.006-0.923,0.742-1.687,1.669-1.689L69.053,147.934z"/>
	</g>
	<g>
		<path fill="#D1D3D4" stroke="#424042" stroke-width="3" stroke-miterlimit="10" d="M292.143,178.408
			c0,8.793-7.691,15.915-17.177,15.915H164.297c-9.488,0-17.178-7.122-17.178-15.915V31.989c0-8.791,7.69-15.917,17.178-15.917
			h110.668c9.486,0,17.177,7.126,17.177,15.917V178.408z"/>
	</g>
	<g>
		<path fill="#FFFFFF" stroke="#363435" stroke-width="4" stroke-linejoin="round" d="M346.945,155.304"/>
	</g>
	
		<path fill="#FFFFFF" stroke="#363435" stroke-width="3" stroke-linecap="round" stroke-linejoin="bevel" stroke-miterlimit="10" d="
		M207.438,48.542l2.652-2.652c9.644-9.642,9.644-25.277,0-34.921l-0.364-0.364c-9.639-9.641-25.274-9.641-34.917,0l-2.655,2.653
		l-2.649-2.653c-9.639-9.641-25.276-9.641-34.918,0l-0.366,0.364c-9.638,9.644-9.638,25.28,0,34.921l2.653,2.652l35.28,35.283
		L207.438,48.542z"/>
	
		<path fill="#FFFFFF" stroke="#363435" stroke-width="3" stroke-linecap="round" stroke-linejoin="bevel" stroke-miterlimit="10" d="
		M141.346,38.767c-5.697-5.698-5.697-14.973,0.001-20.674l0.344-0.338c2.782-2.784,6.452-4.305,10.355-4.305"/>
	<line fill="none" stroke="#363435" stroke-width="3" stroke-miterlimit="10" x1="191.082" y1="64.901" x2="266.43" y2="64.901"/>
	<line fill="none" stroke="#363435" stroke-width="3" stroke-miterlimit="10" x1="202.622" y1="98.956" x2="266.43" y2="98.956"/>
	<line fill="none" stroke="#363435" stroke-width="3" stroke-miterlimit="10" x1="202.622" y1="163.605" x2="266.43" y2="163.605"/>
	<line fill="none" stroke="#363435" stroke-width="3" stroke-miterlimit="10" x1="167.322" y1="130.845" x2="266.43" y2="130.845"/>
</g>
</svg>
