<?xml version="1.0" encoding="utf-8"?>
<!-- Generator: Adobe Illustrator 16.0.0, SVG Export Plug-In . SVG Version: 6.00 Build 0)  -->
<!DOCTYPE svg PUBLIC "-//W3C//DTD SVG 1.1//EN" "http://www.w3.org/Graphics/SVG/1.1/DTD/svg11.dtd">
<svg version="1.1" id="图层_1" xmlns="http://www.w3.org/2000/svg" xmlns:xlink="http://www.w3.org/1999/xlink" x="0px" y="0px"
	 width="50px" height="50px" viewBox="0 0 50 50" enable-background="new 0 0 50 50" xml:space="preserve">
<path fill="none" d="M14,14h24v24H14V14z"/>
<g>
	<g>
		<path fill="#C44344" d="M44.397,11.116c0-0.047,0.005-0.094,0.005-0.142c0-5.211-4.636-10.798-8.948-10.798H14.625
			c-4.31,0-8.572,5.587-8.572,10.798c0,0.048,0.003,0.095,0.004,0.142h7.793c0.501,3.533,1.279,6.803,2.882,9.396
			c-3.228,5.232-5.305,13.499-5.305,23.256c0,0.495,0.006,5.479,0.017,5.971H39.01c0.011-0.491,0.018-5.476,0.018-5.971
			c0-9.758-2.077-18.024-5.305-23.256c1.601-2.592,2.38-5.862,2.882-9.396H44.397z"/>
		<path fill="#9E2224" d="M11.431,46.647c0.002,1.404,0.007,2.84,0.012,3.091H39.01c0.007-0.251,0.011-1.687,0.013-3.091H11.431z"/>
		<path fill="#9E2224" d="M34.599,22.08c-0.28-0.545-0.573-1.075-0.876-1.568c0.198-0.321,0.388-0.652,0.574-0.992H16.158
			c0.184,0.34,0.375,0.671,0.574,0.992c-0.305,0.493-0.595,1.023-0.878,1.568H34.599z"/>
		<path fill="#DB6465" d="M25.227,12.689c3.69,0,6.683-4.027,6.683-8.997c0-1.25-0.192-2.437-0.537-3.516H19.08
			c-0.344,1.08-0.537,2.266-0.537,3.516C18.543,8.662,21.536,12.689,25.227,12.689z"/>
		<path fill="#9E2224" d="M25.227,10.974c2.8,0,5.073-3.058,5.073-6.827c0-1.483-0.354-2.853-0.953-3.971h-8.24
			c-0.597,1.119-0.952,2.488-0.952,3.971C20.155,7.917,22.426,10.974,25.227,10.974z"/>
		<g>
			<path fill="#DB6465" d="M13.692,8.942c0-3.172,0.5-6.158,1.379-8.766h-0.446c-4.31,0-8.572,5.587-8.572,10.798
				c0,0.048,0.003,0.095,0.004,0.142h7.717C13.722,10.403,13.692,9.678,13.692,8.942z"/>
			<path fill="#DB6465" d="M35.454,0.176h-0.071c0.879,2.608,1.378,5.594,1.378,8.766c0,0.736-0.028,1.461-0.08,2.174h7.717
				c0-0.047,0.005-0.094,0.005-0.142C44.402,5.763,39.767,0.176,35.454,0.176z"/>
		</g>
	</g>
	<path opacity="0.4" fill="#040000" d="M44.397,11.116c0-0.047,0.005-0.094,0.005-0.142c0-5.211-4.636-10.798-8.948-10.798H24.906
		v49.563H39.01c0-0.015,0.002-0.037,0.002-0.062c0-0.002,0-0.006,0-0.009c0-0.021,0-0.047,0-0.076v-0.013
		c0-0.028,0.002-0.062,0.002-0.098c0-0.07,0-0.151,0-0.242c0-0.011,0-0.021,0-0.036s0-0.032,0-0.049
		c0.009-1.453,0.014-4.974,0.014-5.387c0-8.837-1.709-16.442-4.429-21.688c0,0,0,0,0-0.002c-0.132-0.256-0.266-0.509-0.405-0.753
		c-0.152-0.28-0.31-0.551-0.471-0.813c0.198-0.321,0.388-0.652,0.574-0.992H34.28c1.232-2.414,1.885-5.307,2.324-8.403H44.397z"/>
</g>
</svg>
