<?xml version="1.0" encoding="utf-8"?>
<!-- Generator: Adobe Illustrator 16.0.0, SVG Export Plug-In . SVG Version: 6.00 Build 0)  -->
<!DOCTYPE svg PUBLIC "-//W3C//DTD SVG 1.1//EN" "http://www.w3.org/Graphics/SVG/1.1/DTD/svg11.dtd">
<svg version="1.1" id="图层_1" xmlns="http://www.w3.org/2000/svg" xmlns:xlink="http://www.w3.org/1999/xlink" x="0px" y="0px"
	 width="1024px" height="1024px" viewBox="0 0 1024 1024" enable-background="new 0 0 1024 1024" xml:space="preserve">
<path fill="#FDD835" d="M1025.129,844.628c0,99.411-80.589,180-180,180h-664c-99.411,0-180-80.589-180-180v-664
	c0-99.411,80.589-180,180-180h664c99.411,0,180,80.589,180,180V844.628z"/>
<g>
	<path fill="#333333" d="M459.902,793.769v-88.584c-43.317-11.458-83.22-31.508-119.674-60.03
		c-29.792-26.717-49.158-49.004-58.188-66.757c-12.225-19.505-21.868-41.027-28.842-64.522
		c-8.058-25.008-12.061-59.02-12.061-102.031V253.487h108.784v163.22c0,47.515,9.31,84.166,27.845,109.951
		c3.694,8.227,15.7,21.338,35.951,39.386c30.291,23.744,63.442,35.596,99.4,35.596c36.035,0,69.16-11.852,99.447-35.596
		c20.258-18.048,32.258-31.159,35.955-39.386c18.534-25.785,27.841-62.437,27.841-109.951v-163.22h108.758v158.356
		c0,43.012-3.917,77.023-11.978,102.031c-6.723,23.495-16.417,45.018-28.95,64.522c-8.891,17.753-28.232,40.04-57.713,66.757
		c-36.765,28.522-76.833,48.572-120.012,60.03v88.584H459.902z"/>
</g>
</svg>
